<svg width="186" height="159" viewBox="0 0 186 159" fill="none" xmlns="http://www.w3.org/2000/svg">
<g filter="url(#filter0_f_1_1559)">
<mask id="path-1-outside-1_1_1559" maskUnits="userSpaceOnUse" x="30" y="30" width="126" height="99" fill="black">
<rect fill="white" x="30" y="30" width="126" height="99"/>
<path fill-rule="evenodd" clip-rule="evenodd" d="M51.8272 31.2259C51.5498 31.2259 51.325 31.4451 51.325 31.7154V32.8182C51.325 33.2133 50.9964 33.5336 50.5911 33.5336H44.1297C42.9136 33.5336 41.9278 34.4946 41.9278 35.68V41.7512C41.9278 42.1463 41.5992 42.4666 41.1938 42.4666H38.3808C38.1034 42.4666 37.8786 42.6858 37.8786 42.9561V48.5681C37.8786 48.738 37.9689 48.8957 38.1173 48.9848L42.1138 51.3862C42.3306 51.5164 42.4626 51.747 42.4626 51.9952V53.8461C42.4626 54.3184 42.0013 54.6611 41.5341 54.5359L39.3404 53.9481C39.297 53.9365 39.2523 53.9306 39.2073 53.9306H34.026C33.7486 53.9306 33.5238 54.1498 33.5238 54.4201V67.4335C33.5238 67.7039 33.7486 67.923 34.026 67.923H41.1938C41.5992 67.923 41.9278 68.2433 41.9278 68.6385V86.8628C41.9278 87.2579 41.5992 87.5782 41.1938 87.5782H31.734C31.4566 87.5782 31.2318 87.7974 31.2318 88.0677V105.473C31.2318 105.744 31.4566 105.963 31.734 105.963H41.1938C41.5992 105.963 41.9278 106.283 41.9278 106.678V122.725C41.9278 123.91 42.9136 124.871 44.1297 124.871H49.4451C49.8504 124.871 50.179 125.191 50.179 125.586V127.285C50.179 127.555 50.4038 127.774 50.6812 127.774H79.5467C79.8241 127.774 80.0489 127.555 80.0489 127.285V125.586C80.0489 125.191 80.3775 124.871 80.7828 124.871H112.246C112.651 124.871 112.98 125.191 112.98 125.586V127.285C112.98 127.555 113.205 127.774 113.482 127.774H141.125C141.403 127.774 141.627 127.555 141.627 127.285V125.586C141.627 125.191 141.956 124.871 142.361 124.871H148.67C149.886 124.871 150.872 123.91 150.872 122.725V103.403C150.872 103.008 151.2 102.687 151.606 102.687H154.266C154.543 102.687 154.768 102.468 154.768 102.198V83.1546C154.768 82.8842 154.543 82.6651 154.266 82.6651H151.606C151.2 82.6651 150.872 82.3448 150.872 81.9496V76.6037C150.872 76.2086 151.2 75.8883 151.606 75.8883H154.266C154.543 75.8883 154.768 75.6691 154.768 75.3988V56.0578C154.768 55.7875 154.543 55.5683 154.266 55.5683H150.613C150.207 55.5683 149.879 55.248 149.879 54.8529V35.68C149.879 34.4946 148.893 33.5336 147.677 33.5336H142.361C141.956 33.5336 141.627 33.2133 141.627 32.8182V31.7155C141.627 31.4451 141.403 31.2259 141.125 31.2259H113.482C113.205 31.2259 112.98 31.4451 112.98 31.7154V32.8182C112.98 33.2133 112.651 33.5336 112.246 33.5336H80.7828C80.3775 33.5336 80.0489 33.2133 80.0489 32.8182V31.7155C80.0489 31.4451 79.8241 31.2259 79.5467 31.2259H51.8272ZM51.0932 31.7154C51.0932 31.3203 51.4218 31 51.8272 31H79.5467C79.9521 31 80.2807 31.3203 80.2807 31.7155V32.8182C80.2807 33.0885 80.5055 33.3077 80.7828 33.3077H112.246C112.523 33.3077 112.748 33.0885 112.748 32.8182V31.7154C112.748 31.3203 113.077 31 113.482 31H141.125C141.531 31 141.859 31.3203 141.859 31.7155V32.8182C141.859 33.0885 142.084 33.3077 142.361 33.3077H147.677C149.021 33.3077 150.11 34.3698 150.11 35.68V54.8529C150.11 55.1232 150.335 55.3424 150.613 55.3424H154.266C154.671 55.3424 155 55.6627 155 56.0578V75.3988C155 75.7939 154.671 76.1142 154.266 76.1142H151.606C151.328 76.1142 151.104 76.3334 151.104 76.6037V81.9496C151.104 82.22 151.328 82.4391 151.606 82.4391H154.266C154.671 82.4391 155 82.7595 155 83.1546V102.198C155 102.593 154.671 102.913 154.266 102.913H151.606C151.328 102.913 151.104 103.132 151.104 103.403V122.725C151.104 124.035 150.014 125.097 148.67 125.097H142.361C142.084 125.097 141.859 125.316 141.859 125.586V127.285C141.859 127.68 141.531 128 141.125 128H113.482C113.077 128 112.748 127.68 112.748 127.285V125.586C112.748 125.316 112.523 125.097 112.246 125.097H80.7828C80.5055 125.097 80.2807 125.316 80.2807 125.586V127.285C80.2807 127.68 79.9521 128 79.5467 128H50.6812C50.2758 128 49.9472 127.68 49.9472 127.285V125.586C49.9472 125.316 49.7224 125.097 49.4451 125.097H44.1297C42.7856 125.097 41.696 124.035 41.696 122.725V106.678C41.696 106.408 41.4712 106.189 41.1938 106.189H31.734C31.3286 106.189 31 105.868 31 105.473V88.0677C31 87.6726 31.3286 87.3523 31.734 87.3523H41.1938C41.4712 87.3523 41.696 87.1331 41.696 86.8628V68.6385C41.696 68.3681 41.4712 68.149 41.1938 68.149H34.026C33.6206 68.149 33.292 67.8286 33.292 67.4335V54.4201C33.292 54.025 33.6206 53.7047 34.026 53.7047H39.2073C39.273 53.7047 39.3385 53.7133 39.4018 53.7303L41.5955 54.3181C41.9152 54.4037 42.2308 54.1692 42.2308 53.8461V51.9952C42.2308 51.8254 42.1405 51.6676 41.9921 51.5785L37.9956 49.1772C37.7788 49.0469 37.6468 48.8164 37.6468 48.5681V42.9561C37.6468 42.561 37.9754 42.2407 38.3808 42.2407H41.1938C41.4712 42.2407 41.696 42.0215 41.696 41.7512V35.68C41.696 34.3698 42.7856 33.3077 44.1297 33.3077H50.5911C50.8684 33.3077 51.0932 33.0885 51.0932 32.8182V31.7154Z"/>
</mask>
<path fill-rule="evenodd" clip-rule="evenodd" d="M51.8272 31.2259C51.5498 31.2259 51.325 31.4451 51.325 31.7154V32.8182C51.325 33.2133 50.9964 33.5336 50.5911 33.5336H44.1297C42.9136 33.5336 41.9278 34.4946 41.9278 35.68V41.7512C41.9278 42.1463 41.5992 42.4666 41.1938 42.4666H38.3808C38.1034 42.4666 37.8786 42.6858 37.8786 42.9561V48.5681C37.8786 48.738 37.9689 48.8957 38.1173 48.9848L42.1138 51.3862C42.3306 51.5164 42.4626 51.747 42.4626 51.9952V53.8461C42.4626 54.3184 42.0013 54.6611 41.5341 54.5359L39.3404 53.9481C39.297 53.9365 39.2523 53.9306 39.2073 53.9306H34.026C33.7486 53.9306 33.5238 54.1498 33.5238 54.4201V67.4335C33.5238 67.7039 33.7486 67.923 34.026 67.923H41.1938C41.5992 67.923 41.9278 68.2433 41.9278 68.6385V86.8628C41.9278 87.2579 41.5992 87.5782 41.1938 87.5782H31.734C31.4566 87.5782 31.2318 87.7974 31.2318 88.0677V105.473C31.2318 105.744 31.4566 105.963 31.734 105.963H41.1938C41.5992 105.963 41.9278 106.283 41.9278 106.678V122.725C41.9278 123.91 42.9136 124.871 44.1297 124.871H49.4451C49.8504 124.871 50.179 125.191 50.179 125.586V127.285C50.179 127.555 50.4038 127.774 50.6812 127.774H79.5467C79.8241 127.774 80.0489 127.555 80.0489 127.285V125.586C80.0489 125.191 80.3775 124.871 80.7828 124.871H112.246C112.651 124.871 112.98 125.191 112.98 125.586V127.285C112.98 127.555 113.205 127.774 113.482 127.774H141.125C141.403 127.774 141.627 127.555 141.627 127.285V125.586C141.627 125.191 141.956 124.871 142.361 124.871H148.67C149.886 124.871 150.872 123.91 150.872 122.725V103.403C150.872 103.008 151.2 102.687 151.606 102.687H154.266C154.543 102.687 154.768 102.468 154.768 102.198V83.1546C154.768 82.8842 154.543 82.6651 154.266 82.6651H151.606C151.2 82.6651 150.872 82.3448 150.872 81.9496V76.6037C150.872 76.2086 151.2 75.8883 151.606 75.8883H154.266C154.543 75.8883 154.768 75.6691 154.768 75.3988V56.0578C154.768 55.7875 154.543 55.5683 154.266 55.5683H150.613C150.207 55.5683 149.879 55.248 149.879 54.8529V35.68C149.879 34.4946 148.893 33.5336 147.677 33.5336H142.361C141.956 33.5336 141.627 33.2133 141.627 32.8182V31.7155C141.627 31.4451 141.403 31.2259 141.125 31.2259H113.482C113.205 31.2259 112.98 31.4451 112.98 31.7154V32.8182C112.98 33.2133 112.651 33.5336 112.246 33.5336H80.7828C80.3775 33.5336 80.0489 33.2133 80.0489 32.8182V31.7155C80.0489 31.4451 79.8241 31.2259 79.5467 31.2259H51.8272ZM51.0932 31.7154C51.0932 31.3203 51.4218 31 51.8272 31H79.5467C79.9521 31 80.2807 31.3203 80.2807 31.7155V32.8182C80.2807 33.0885 80.5055 33.3077 80.7828 33.3077H112.246C112.523 33.3077 112.748 33.0885 112.748 32.8182V31.7154C112.748 31.3203 113.077 31 113.482 31H141.125C141.531 31 141.859 31.3203 141.859 31.7155V32.8182C141.859 33.0885 142.084 33.3077 142.361 33.3077H147.677C149.021 33.3077 150.11 34.3698 150.11 35.68V54.8529C150.11 55.1232 150.335 55.3424 150.613 55.3424H154.266C154.671 55.3424 155 55.6627 155 56.0578V75.3988C155 75.7939 154.671 76.1142 154.266 76.1142H151.606C151.328 76.1142 151.104 76.3334 151.104 76.6037V81.9496C151.104 82.22 151.328 82.4391 151.606 82.4391H154.266C154.671 82.4391 155 82.7595 155 83.1546V102.198C155 102.593 154.671 102.913 154.266 102.913H151.606C151.328 102.913 151.104 103.132 151.104 103.403V122.725C151.104 124.035 150.014 125.097 148.67 125.097H142.361C142.084 125.097 141.859 125.316 141.859 125.586V127.285C141.859 127.68 141.531 128 141.125 128H113.482C113.077 128 112.748 127.68 112.748 127.285V125.586C112.748 125.316 112.523 125.097 112.246 125.097H80.7828C80.5055 125.097 80.2807 125.316 80.2807 125.586V127.285C80.2807 127.68 79.9521 128 79.5467 128H50.6812C50.2758 128 49.9472 127.68 49.9472 127.285V125.586C49.9472 125.316 49.7224 125.097 49.4451 125.097H44.1297C42.7856 125.097 41.696 124.035 41.696 122.725V106.678C41.696 106.408 41.4712 106.189 41.1938 106.189H31.734C31.3286 106.189 31 105.868 31 105.473V88.0677C31 87.6726 31.3286 87.3523 31.734 87.3523H41.1938C41.4712 87.3523 41.696 87.1331 41.696 86.8628V68.6385C41.696 68.3681 41.4712 68.149 41.1938 68.149H34.026C33.6206 68.149 33.292 67.8286 33.292 67.4335V54.4201C33.292 54.025 33.6206 53.7047 34.026 53.7047H39.2073C39.273 53.7047 39.3385 53.7133 39.4018 53.7303L41.5955 54.3181C41.9152 54.4037 42.2308 54.1692 42.2308 53.8461V51.9952C42.2308 51.8254 42.1405 51.6676 41.9921 51.5785L37.9956 49.1772C37.7788 49.0469 37.6468 48.8164 37.6468 48.5681V42.9561C37.6468 42.561 37.9754 42.2407 38.3808 42.2407H41.1938C41.4712 42.2407 41.696 42.0215 41.696 41.7512V35.68C41.696 34.3698 42.7856 33.3077 44.1297 33.3077H50.5911C50.8684 33.3077 51.0932 33.0885 51.0932 32.8182V31.7154Z" fill="white"/>
<path fill-rule="evenodd" clip-rule="evenodd" d="M51.8272 31.2259C51.5498 31.2259 51.325 31.4451 51.325 31.7154V32.8182C51.325 33.2133 50.9964 33.5336 50.5911 33.5336H44.1297C42.9136 33.5336 41.9278 34.4946 41.9278 35.68V41.7512C41.9278 42.1463 41.5992 42.4666 41.1938 42.4666H38.3808C38.1034 42.4666 37.8786 42.6858 37.8786 42.9561V48.5681C37.8786 48.738 37.9689 48.8957 38.1173 48.9848L42.1138 51.3862C42.3306 51.5164 42.4626 51.747 42.4626 51.9952V53.8461C42.4626 54.3184 42.0013 54.6611 41.5341 54.5359L39.3404 53.9481C39.297 53.9365 39.2523 53.9306 39.2073 53.9306H34.026C33.7486 53.9306 33.5238 54.1498 33.5238 54.4201V67.4335C33.5238 67.7039 33.7486 67.923 34.026 67.923H41.1938C41.5992 67.923 41.9278 68.2433 41.9278 68.6385V86.8628C41.9278 87.2579 41.5992 87.5782 41.1938 87.5782H31.734C31.4566 87.5782 31.2318 87.7974 31.2318 88.0677V105.473C31.2318 105.744 31.4566 105.963 31.734 105.963H41.1938C41.5992 105.963 41.9278 106.283 41.9278 106.678V122.725C41.9278 123.91 42.9136 124.871 44.1297 124.871H49.4451C49.8504 124.871 50.179 125.191 50.179 125.586V127.285C50.179 127.555 50.4038 127.774 50.6812 127.774H79.5467C79.8241 127.774 80.0489 127.555 80.0489 127.285V125.586C80.0489 125.191 80.3775 124.871 80.7828 124.871H112.246C112.651 124.871 112.98 125.191 112.98 125.586V127.285C112.98 127.555 113.205 127.774 113.482 127.774H141.125C141.403 127.774 141.627 127.555 141.627 127.285V125.586C141.627 125.191 141.956 124.871 142.361 124.871H148.67C149.886 124.871 150.872 123.91 150.872 122.725V103.403C150.872 103.008 151.2 102.687 151.606 102.687H154.266C154.543 102.687 154.768 102.468 154.768 102.198V83.1546C154.768 82.8842 154.543 82.6651 154.266 82.6651H151.606C151.2 82.6651 150.872 82.3448 150.872 81.9496V76.6037C150.872 76.2086 151.2 75.8883 151.606 75.8883H154.266C154.543 75.8883 154.768 75.6691 154.768 75.3988V56.0578C154.768 55.7875 154.543 55.5683 154.266 55.5683H150.613C150.207 55.5683 149.879 55.248 149.879 54.8529V35.68C149.879 34.4946 148.893 33.5336 147.677 33.5336H142.361C141.956 33.5336 141.627 33.2133 141.627 32.8182V31.7155C141.627 31.4451 141.403 31.2259 141.125 31.2259H113.482C113.205 31.2259 112.98 31.4451 112.98 31.7154V32.8182C112.98 33.2133 112.651 33.5336 112.246 33.5336H80.7828C80.3775 33.5336 80.0489 33.2133 80.0489 32.8182V31.7155C80.0489 31.4451 79.8241 31.2259 79.5467 31.2259H51.8272ZM51.0932 31.7154C51.0932 31.3203 51.4218 31 51.8272 31H79.5467C79.9521 31 80.2807 31.3203 80.2807 31.7155V32.8182C80.2807 33.0885 80.5055 33.3077 80.7828 33.3077H112.246C112.523 33.3077 112.748 33.0885 112.748 32.8182V31.7154C112.748 31.3203 113.077 31 113.482 31H141.125C141.531 31 141.859 31.3203 141.859 31.7155V32.8182C141.859 33.0885 142.084 33.3077 142.361 33.3077H147.677C149.021 33.3077 150.11 34.3698 150.11 35.68V54.8529C150.11 55.1232 150.335 55.3424 150.613 55.3424H154.266C154.671 55.3424 155 55.6627 155 56.0578V75.3988C155 75.7939 154.671 76.1142 154.266 76.1142H151.606C151.328 76.1142 151.104 76.3334 151.104 76.6037V81.9496C151.104 82.22 151.328 82.4391 151.606 82.4391H154.266C154.671 82.4391 155 82.7595 155 83.1546V102.198C155 102.593 154.671 102.913 154.266 102.913H151.606C151.328 102.913 151.104 103.132 151.104 103.403V122.725C151.104 124.035 150.014 125.097 148.67 125.097H142.361C142.084 125.097 141.859 125.316 141.859 125.586V127.285C141.859 127.68 141.531 128 141.125 128H113.482C113.077 128 112.748 127.68 112.748 127.285V125.586C112.748 125.316 112.523 125.097 112.246 125.097H80.7828C80.5055 125.097 80.2807 125.316 80.2807 125.586V127.285C80.2807 127.68 79.9521 128 79.5467 128H50.6812C50.2758 128 49.9472 127.68 49.9472 127.285V125.586C49.9472 125.316 49.7224 125.097 49.4451 125.097H44.1297C42.7856 125.097 41.696 124.035 41.696 122.725V106.678C41.696 106.408 41.4712 106.189 41.1938 106.189H31.734C31.3286 106.189 31 105.868 31 105.473V88.0677C31 87.6726 31.3286 87.3523 31.734 87.3523H41.1938C41.4712 87.3523 41.696 87.1331 41.696 86.8628V68.6385C41.696 68.3681 41.4712 68.149 41.1938 68.149H34.026C33.6206 68.149 33.292 67.8286 33.292 67.4335V54.4201C33.292 54.025 33.6206 53.7047 34.026 53.7047H39.2073C39.273 53.7047 39.3385 53.7133 39.4018 53.7303L41.5955 54.3181C41.9152 54.4037 42.2308 54.1692 42.2308 53.8461V51.9952C42.2308 51.8254 42.1405 51.6676 41.9921 51.5785L37.9956 49.1772C37.7788 49.0469 37.6468 48.8164 37.6468 48.5681V42.9561C37.6468 42.561 37.9754 42.2407 38.3808 42.2407H41.1938C41.4712 42.2407 41.696 42.0215 41.696 41.7512V35.68C41.696 34.3698 42.7856 33.3077 44.1297 33.3077H50.5911C50.8684 33.3077 51.0932 33.0885 51.0932 32.8182V31.7154Z" stroke="#E06121" stroke-width="2" mask="url(#path-1-outside-1_1_1559)"/>
</g>
<g filter="url(#filter1_f_1_1559)">
<mask id="path-2-outside-2_1_1559" maskUnits="userSpaceOnUse" x="30" y="30" width="126" height="99" fill="black">
<rect fill="white" x="30" y="30" width="126" height="99"/>
<path fill-rule="evenodd" clip-rule="evenodd" d="M51.8272 31.2259C51.5498 31.2259 51.325 31.4451 51.325 31.7154V32.8182C51.325 33.2133 50.9964 33.5336 50.5911 33.5336H44.1297C42.9136 33.5336 41.9278 34.4946 41.9278 35.68V41.7512C41.9278 42.1463 41.5992 42.4666 41.1938 42.4666H38.3808C38.1034 42.4666 37.8786 42.6858 37.8786 42.9561V48.5681C37.8786 48.738 37.9689 48.8957 38.1173 48.9848L42.1138 51.3862C42.3306 51.5164 42.4626 51.747 42.4626 51.9952V53.8461C42.4626 54.3184 42.0013 54.6611 41.5341 54.5359L39.3404 53.9481C39.297 53.9365 39.2523 53.9306 39.2073 53.9306H34.026C33.7486 53.9306 33.5238 54.1498 33.5238 54.4201V67.4335C33.5238 67.7039 33.7486 67.923 34.026 67.923H41.1938C41.5992 67.923 41.9278 68.2433 41.9278 68.6385V86.8628C41.9278 87.2579 41.5992 87.5782 41.1938 87.5782H31.734C31.4566 87.5782 31.2318 87.7974 31.2318 88.0677V105.473C31.2318 105.744 31.4566 105.963 31.734 105.963H41.1938C41.5992 105.963 41.9278 106.283 41.9278 106.678V122.725C41.9278 123.91 42.9136 124.871 44.1297 124.871H49.4451C49.8504 124.871 50.179 125.191 50.179 125.586V127.285C50.179 127.555 50.4038 127.774 50.6812 127.774H79.5467C79.8241 127.774 80.0489 127.555 80.0489 127.285V125.586C80.0489 125.191 80.3775 124.871 80.7828 124.871H112.246C112.651 124.871 112.98 125.191 112.98 125.586V127.285C112.98 127.555 113.205 127.774 113.482 127.774H141.125C141.403 127.774 141.627 127.555 141.627 127.285V125.586C141.627 125.191 141.956 124.871 142.361 124.871H148.67C149.886 124.871 150.872 123.91 150.872 122.725V103.403C150.872 103.008 151.2 102.687 151.606 102.687H154.266C154.543 102.687 154.768 102.468 154.768 102.198V83.1546C154.768 82.8842 154.543 82.6651 154.266 82.6651H151.606C151.2 82.6651 150.872 82.3448 150.872 81.9496V76.6037C150.872 76.2086 151.2 75.8883 151.606 75.8883H154.266C154.543 75.8883 154.768 75.6691 154.768 75.3988V56.0578C154.768 55.7875 154.543 55.5683 154.266 55.5683H150.613C150.207 55.5683 149.879 55.248 149.879 54.8529V35.68C149.879 34.4946 148.893 33.5336 147.677 33.5336H142.361C141.956 33.5336 141.627 33.2133 141.627 32.8182V31.7155C141.627 31.4451 141.403 31.2259 141.125 31.2259H113.482C113.205 31.2259 112.98 31.4451 112.98 31.7154V32.8182C112.98 33.2133 112.651 33.5336 112.246 33.5336H80.7828C80.3775 33.5336 80.0489 33.2133 80.0489 32.8182V31.7155C80.0489 31.4451 79.8241 31.2259 79.5467 31.2259H51.8272ZM51.0932 31.7154C51.0932 31.3203 51.4218 31 51.8272 31H79.5467C79.9521 31 80.2807 31.3203 80.2807 31.7155V32.8182C80.2807 33.0885 80.5055 33.3077 80.7828 33.3077H112.246C112.523 33.3077 112.748 33.0885 112.748 32.8182V31.7154C112.748 31.3203 113.077 31 113.482 31H141.125C141.531 31 141.859 31.3203 141.859 31.7155V32.8182C141.859 33.0885 142.084 33.3077 142.361 33.3077H147.677C149.021 33.3077 150.11 34.3698 150.11 35.68V54.8529C150.11 55.1232 150.335 55.3424 150.613 55.3424H154.266C154.671 55.3424 155 55.6627 155 56.0578V75.3988C155 75.7939 154.671 76.1142 154.266 76.1142H151.606C151.328 76.1142 151.104 76.3334 151.104 76.6037V81.9496C151.104 82.22 151.328 82.4391 151.606 82.4391H154.266C154.671 82.4391 155 82.7595 155 83.1546V102.198C155 102.593 154.671 102.913 154.266 102.913H151.606C151.328 102.913 151.104 103.132 151.104 103.403V122.725C151.104 124.035 150.014 125.097 148.67 125.097H142.361C142.084 125.097 141.859 125.316 141.859 125.586V127.285C141.859 127.68 141.531 128 141.125 128H113.482C113.077 128 112.748 127.68 112.748 127.285V125.586C112.748 125.316 112.523 125.097 112.246 125.097H80.7828C80.5055 125.097 80.2807 125.316 80.2807 125.586V127.285C80.2807 127.68 79.9521 128 79.5467 128H50.6812C50.2758 128 49.9472 127.68 49.9472 127.285V125.586C49.9472 125.316 49.7224 125.097 49.4451 125.097H44.1297C42.7856 125.097 41.696 124.035 41.696 122.725V106.678C41.696 106.408 41.4712 106.189 41.1938 106.189H31.734C31.3286 106.189 31 105.868 31 105.473V88.0677C31 87.6726 31.3286 87.3523 31.734 87.3523H41.1938C41.4712 87.3523 41.696 87.1331 41.696 86.8628V68.6385C41.696 68.3681 41.4712 68.149 41.1938 68.149H34.026C33.6206 68.149 33.292 67.8286 33.292 67.4335V54.4201C33.292 54.025 33.6206 53.7047 34.026 53.7047H39.2073C39.273 53.7047 39.3385 53.7133 39.4018 53.7303L41.5955 54.3181C41.9152 54.4037 42.2308 54.1692 42.2308 53.8461V51.9952C42.2308 51.8254 42.1405 51.6676 41.9921 51.5785L37.9956 49.1772C37.7788 49.0469 37.6468 48.8164 37.6468 48.5681V42.9561C37.6468 42.561 37.9754 42.2407 38.3808 42.2407H41.1938C41.4712 42.2407 41.696 42.0215 41.696 41.7512V35.68C41.696 34.3698 42.7856 33.3077 44.1297 33.3077H50.5911C50.8684 33.3077 51.0932 33.0885 51.0932 32.8182V31.7154Z"/>
</mask>
<path fill-rule="evenodd" clip-rule="evenodd" d="M51.8272 31.2259C51.5498 31.2259 51.325 31.4451 51.325 31.7154V32.8182C51.325 33.2133 50.9964 33.5336 50.5911 33.5336H44.1297C42.9136 33.5336 41.9278 34.4946 41.9278 35.68V41.7512C41.9278 42.1463 41.5992 42.4666 41.1938 42.4666H38.3808C38.1034 42.4666 37.8786 42.6858 37.8786 42.9561V48.5681C37.8786 48.738 37.9689 48.8957 38.1173 48.9848L42.1138 51.3862C42.3306 51.5164 42.4626 51.747 42.4626 51.9952V53.8461C42.4626 54.3184 42.0013 54.6611 41.5341 54.5359L39.3404 53.9481C39.297 53.9365 39.2523 53.9306 39.2073 53.9306H34.026C33.7486 53.9306 33.5238 54.1498 33.5238 54.4201V67.4335C33.5238 67.7039 33.7486 67.923 34.026 67.923H41.1938C41.5992 67.923 41.9278 68.2433 41.9278 68.6385V86.8628C41.9278 87.2579 41.5992 87.5782 41.1938 87.5782H31.734C31.4566 87.5782 31.2318 87.7974 31.2318 88.0677V105.473C31.2318 105.744 31.4566 105.963 31.734 105.963H41.1938C41.5992 105.963 41.9278 106.283 41.9278 106.678V122.725C41.9278 123.91 42.9136 124.871 44.1297 124.871H49.4451C49.8504 124.871 50.179 125.191 50.179 125.586V127.285C50.179 127.555 50.4038 127.774 50.6812 127.774H79.5467C79.8241 127.774 80.0489 127.555 80.0489 127.285V125.586C80.0489 125.191 80.3775 124.871 80.7828 124.871H112.246C112.651 124.871 112.98 125.191 112.98 125.586V127.285C112.98 127.555 113.205 127.774 113.482 127.774H141.125C141.403 127.774 141.627 127.555 141.627 127.285V125.586C141.627 125.191 141.956 124.871 142.361 124.871H148.67C149.886 124.871 150.872 123.91 150.872 122.725V103.403C150.872 103.008 151.2 102.687 151.606 102.687H154.266C154.543 102.687 154.768 102.468 154.768 102.198V83.1546C154.768 82.8842 154.543 82.6651 154.266 82.6651H151.606C151.2 82.6651 150.872 82.3448 150.872 81.9496V76.6037C150.872 76.2086 151.2 75.8883 151.606 75.8883H154.266C154.543 75.8883 154.768 75.6691 154.768 75.3988V56.0578C154.768 55.7875 154.543 55.5683 154.266 55.5683H150.613C150.207 55.5683 149.879 55.248 149.879 54.8529V35.68C149.879 34.4946 148.893 33.5336 147.677 33.5336H142.361C141.956 33.5336 141.627 33.2133 141.627 32.8182V31.7155C141.627 31.4451 141.403 31.2259 141.125 31.2259H113.482C113.205 31.2259 112.98 31.4451 112.98 31.7154V32.8182C112.98 33.2133 112.651 33.5336 112.246 33.5336H80.7828C80.3775 33.5336 80.0489 33.2133 80.0489 32.8182V31.7155C80.0489 31.4451 79.8241 31.2259 79.5467 31.2259H51.8272ZM51.0932 31.7154C51.0932 31.3203 51.4218 31 51.8272 31H79.5467C79.9521 31 80.2807 31.3203 80.2807 31.7155V32.8182C80.2807 33.0885 80.5055 33.3077 80.7828 33.3077H112.246C112.523 33.3077 112.748 33.0885 112.748 32.8182V31.7154C112.748 31.3203 113.077 31 113.482 31H141.125C141.531 31 141.859 31.3203 141.859 31.7155V32.8182C141.859 33.0885 142.084 33.3077 142.361 33.3077H147.677C149.021 33.3077 150.11 34.3698 150.11 35.68V54.8529C150.11 55.1232 150.335 55.3424 150.613 55.3424H154.266C154.671 55.3424 155 55.6627 155 56.0578V75.3988C155 75.7939 154.671 76.1142 154.266 76.1142H151.606C151.328 76.1142 151.104 76.3334 151.104 76.6037V81.9496C151.104 82.22 151.328 82.4391 151.606 82.4391H154.266C154.671 82.4391 155 82.7595 155 83.1546V102.198C155 102.593 154.671 102.913 154.266 102.913H151.606C151.328 102.913 151.104 103.132 151.104 103.403V122.725C151.104 124.035 150.014 125.097 148.67 125.097H142.361C142.084 125.097 141.859 125.316 141.859 125.586V127.285C141.859 127.68 141.531 128 141.125 128H113.482C113.077 128 112.748 127.68 112.748 127.285V125.586C112.748 125.316 112.523 125.097 112.246 125.097H80.7828C80.5055 125.097 80.2807 125.316 80.2807 125.586V127.285C80.2807 127.68 79.9521 128 79.5467 128H50.6812C50.2758 128 49.9472 127.68 49.9472 127.285V125.586C49.9472 125.316 49.7224 125.097 49.4451 125.097H44.1297C42.7856 125.097 41.696 124.035 41.696 122.725V106.678C41.696 106.408 41.4712 106.189 41.1938 106.189H31.734C31.3286 106.189 31 105.868 31 105.473V88.0677C31 87.6726 31.3286 87.3523 31.734 87.3523H41.1938C41.4712 87.3523 41.696 87.1331 41.696 86.8628V68.6385C41.696 68.3681 41.4712 68.149 41.1938 68.149H34.026C33.6206 68.149 33.292 67.8286 33.292 67.4335V54.4201C33.292 54.025 33.6206 53.7047 34.026 53.7047H39.2073C39.273 53.7047 39.3385 53.7133 39.4018 53.7303L41.5955 54.3181C41.9152 54.4037 42.2308 54.1692 42.2308 53.8461V51.9952C42.2308 51.8254 42.1405 51.6676 41.9921 51.5785L37.9956 49.1772C37.7788 49.0469 37.6468 48.8164 37.6468 48.5681V42.9561C37.6468 42.561 37.9754 42.2407 38.3808 42.2407H41.1938C41.4712 42.2407 41.696 42.0215 41.696 41.7512V35.68C41.696 34.3698 42.7856 33.3077 44.1297 33.3077H50.5911C50.8684 33.3077 51.0932 33.0885 51.0932 32.8182V31.7154Z" fill="white"/>
<path fill-rule="evenodd" clip-rule="evenodd" d="M51.8272 31.2259C51.5498 31.2259 51.325 31.4451 51.325 31.7154V32.8182C51.325 33.2133 50.9964 33.5336 50.5911 33.5336H44.1297C42.9136 33.5336 41.9278 34.4946 41.9278 35.68V41.7512C41.9278 42.1463 41.5992 42.4666 41.1938 42.4666H38.3808C38.1034 42.4666 37.8786 42.6858 37.8786 42.9561V48.5681C37.8786 48.738 37.9689 48.8957 38.1173 48.9848L42.1138 51.3862C42.3306 51.5164 42.4626 51.747 42.4626 51.9952V53.8461C42.4626 54.3184 42.0013 54.6611 41.5341 54.5359L39.3404 53.9481C39.297 53.9365 39.2523 53.9306 39.2073 53.9306H34.026C33.7486 53.9306 33.5238 54.1498 33.5238 54.4201V67.4335C33.5238 67.7039 33.7486 67.923 34.026 67.923H41.1938C41.5992 67.923 41.9278 68.2433 41.9278 68.6385V86.8628C41.9278 87.2579 41.5992 87.5782 41.1938 87.5782H31.734C31.4566 87.5782 31.2318 87.7974 31.2318 88.0677V105.473C31.2318 105.744 31.4566 105.963 31.734 105.963H41.1938C41.5992 105.963 41.9278 106.283 41.9278 106.678V122.725C41.9278 123.91 42.9136 124.871 44.1297 124.871H49.4451C49.8504 124.871 50.179 125.191 50.179 125.586V127.285C50.179 127.555 50.4038 127.774 50.6812 127.774H79.5467C79.8241 127.774 80.0489 127.555 80.0489 127.285V125.586C80.0489 125.191 80.3775 124.871 80.7828 124.871H112.246C112.651 124.871 112.98 125.191 112.98 125.586V127.285C112.98 127.555 113.205 127.774 113.482 127.774H141.125C141.403 127.774 141.627 127.555 141.627 127.285V125.586C141.627 125.191 141.956 124.871 142.361 124.871H148.67C149.886 124.871 150.872 123.91 150.872 122.725V103.403C150.872 103.008 151.2 102.687 151.606 102.687H154.266C154.543 102.687 154.768 102.468 154.768 102.198V83.1546C154.768 82.8842 154.543 82.6651 154.266 82.6651H151.606C151.2 82.6651 150.872 82.3448 150.872 81.9496V76.6037C150.872 76.2086 151.2 75.8883 151.606 75.8883H154.266C154.543 75.8883 154.768 75.6691 154.768 75.3988V56.0578C154.768 55.7875 154.543 55.5683 154.266 55.5683H150.613C150.207 55.5683 149.879 55.248 149.879 54.8529V35.68C149.879 34.4946 148.893 33.5336 147.677 33.5336H142.361C141.956 33.5336 141.627 33.2133 141.627 32.8182V31.7155C141.627 31.4451 141.403 31.2259 141.125 31.2259H113.482C113.205 31.2259 112.98 31.4451 112.98 31.7154V32.8182C112.98 33.2133 112.651 33.5336 112.246 33.5336H80.7828C80.3775 33.5336 80.0489 33.2133 80.0489 32.8182V31.7155C80.0489 31.4451 79.8241 31.2259 79.5467 31.2259H51.8272ZM51.0932 31.7154C51.0932 31.3203 51.4218 31 51.8272 31H79.5467C79.9521 31 80.2807 31.3203 80.2807 31.7155V32.8182C80.2807 33.0885 80.5055 33.3077 80.7828 33.3077H112.246C112.523 33.3077 112.748 33.0885 112.748 32.8182V31.7154C112.748 31.3203 113.077 31 113.482 31H141.125C141.531 31 141.859 31.3203 141.859 31.7155V32.8182C141.859 33.0885 142.084 33.3077 142.361 33.3077H147.677C149.021 33.3077 150.11 34.3698 150.11 35.68V54.8529C150.11 55.1232 150.335 55.3424 150.613 55.3424H154.266C154.671 55.3424 155 55.6627 155 56.0578V75.3988C155 75.7939 154.671 76.1142 154.266 76.1142H151.606C151.328 76.1142 151.104 76.3334 151.104 76.6037V81.9496C151.104 82.22 151.328 82.4391 151.606 82.4391H154.266C154.671 82.4391 155 82.7595 155 83.1546V102.198C155 102.593 154.671 102.913 154.266 102.913H151.606C151.328 102.913 151.104 103.132 151.104 103.403V122.725C151.104 124.035 150.014 125.097 148.67 125.097H142.361C142.084 125.097 141.859 125.316 141.859 125.586V127.285C141.859 127.68 141.531 128 141.125 128H113.482C113.077 128 112.748 127.68 112.748 127.285V125.586C112.748 125.316 112.523 125.097 112.246 125.097H80.7828C80.5055 125.097 80.2807 125.316 80.2807 125.586V127.285C80.2807 127.68 79.9521 128 79.5467 128H50.6812C50.2758 128 49.9472 127.68 49.9472 127.285V125.586C49.9472 125.316 49.7224 125.097 49.4451 125.097H44.1297C42.7856 125.097 41.696 124.035 41.696 122.725V106.678C41.696 106.408 41.4712 106.189 41.1938 106.189H31.734C31.3286 106.189 31 105.868 31 105.473V88.0677C31 87.6726 31.3286 87.3523 31.734 87.3523H41.1938C41.4712 87.3523 41.696 87.1331 41.696 86.8628V68.6385C41.696 68.3681 41.4712 68.149 41.1938 68.149H34.026C33.6206 68.149 33.292 67.8286 33.292 67.4335V54.4201C33.292 54.025 33.6206 53.7047 34.026 53.7047H39.2073C39.273 53.7047 39.3385 53.7133 39.4018 53.7303L41.5955 54.3181C41.9152 54.4037 42.2308 54.1692 42.2308 53.8461V51.9952C42.2308 51.8254 42.1405 51.6676 41.9921 51.5785L37.9956 49.1772C37.7788 49.0469 37.6468 48.8164 37.6468 48.5681V42.9561C37.6468 42.561 37.9754 42.2407 38.3808 42.2407H41.1938C41.4712 42.2407 41.696 42.0215 41.696 41.7512V35.68C41.696 34.3698 42.7856 33.3077 44.1297 33.3077H50.5911C50.8684 33.3077 51.0932 33.0885 51.0932 32.8182V31.7154Z" stroke="#E06121" stroke-width="2" mask="url(#path-2-outside-2_1_1559)"/>
</g>
<g filter="url(#filter2_f_1_1559)">
<mask id="path-3-outside-3_1_1559" maskUnits="userSpaceOnUse" x="29" y="29" width="128" height="101" fill="black">
<rect fill="white" x="29" y="29" width="128" height="101"/>
<path fill-rule="evenodd" clip-rule="evenodd" d="M51.8272 31.2259C51.5498 31.2259 51.325 31.4451 51.325 31.7154V32.8182C51.325 33.2133 50.9964 33.5336 50.5911 33.5336H44.1297C42.9136 33.5336 41.9278 34.4946 41.9278 35.68V41.7512C41.9278 42.1463 41.5992 42.4666 41.1938 42.4666H38.3808C38.1034 42.4666 37.8786 42.6858 37.8786 42.9561V48.5681C37.8786 48.738 37.9689 48.8957 38.1173 48.9848L42.1138 51.3862C42.3306 51.5164 42.4626 51.747 42.4626 51.9952V53.8461C42.4626 54.3184 42.0013 54.6611 41.5341 54.5359L39.3404 53.9481C39.297 53.9365 39.2523 53.9306 39.2073 53.9306H34.026C33.7486 53.9306 33.5238 54.1498 33.5238 54.4201V67.4335C33.5238 67.7039 33.7486 67.923 34.026 67.923H41.1938C41.5992 67.923 41.9278 68.2433 41.9278 68.6385V86.8628C41.9278 87.2579 41.5992 87.5782 41.1938 87.5782H31.734C31.4566 87.5782 31.2318 87.7974 31.2318 88.0677V105.473C31.2318 105.744 31.4566 105.963 31.734 105.963H41.1938C41.5992 105.963 41.9278 106.283 41.9278 106.678V122.725C41.9278 123.91 42.9136 124.871 44.1297 124.871H49.4451C49.8504 124.871 50.179 125.191 50.179 125.586V127.285C50.179 127.555 50.4038 127.774 50.6812 127.774H79.5467C79.8241 127.774 80.0489 127.555 80.0489 127.285V125.586C80.0489 125.191 80.3775 124.871 80.7828 124.871H112.246C112.651 124.871 112.98 125.191 112.98 125.586V127.285C112.98 127.555 113.205 127.774 113.482 127.774H141.125C141.403 127.774 141.627 127.555 141.627 127.285V125.586C141.627 125.191 141.956 124.871 142.361 124.871H148.67C149.886 124.871 150.872 123.91 150.872 122.725V103.403C150.872 103.008 151.2 102.687 151.606 102.687H154.266C154.543 102.687 154.768 102.468 154.768 102.198V83.1546C154.768 82.8842 154.543 82.6651 154.266 82.6651H151.606C151.2 82.6651 150.872 82.3448 150.872 81.9496V76.6037C150.872 76.2086 151.2 75.8883 151.606 75.8883H154.266C154.543 75.8883 154.768 75.6691 154.768 75.3988V56.0578C154.768 55.7875 154.543 55.5683 154.266 55.5683H150.613C150.207 55.5683 149.879 55.248 149.879 54.8529V35.68C149.879 34.4946 148.893 33.5336 147.677 33.5336H142.361C141.956 33.5336 141.627 33.2133 141.627 32.8182V31.7155C141.627 31.4451 141.403 31.2259 141.125 31.2259H113.482C113.205 31.2259 112.98 31.4451 112.98 31.7154V32.8182C112.98 33.2133 112.651 33.5336 112.246 33.5336H80.7828C80.3775 33.5336 80.0489 33.2133 80.0489 32.8182V31.7155C80.0489 31.4451 79.8241 31.2259 79.5467 31.2259H51.8272ZM51.0932 31.7154C51.0932 31.3203 51.4218 31 51.8272 31H79.5467C79.9521 31 80.2807 31.3203 80.2807 31.7155V32.8182C80.2807 33.0885 80.5055 33.3077 80.7828 33.3077H112.246C112.523 33.3077 112.748 33.0885 112.748 32.8182V31.7154C112.748 31.3203 113.077 31 113.482 31H141.125C141.531 31 141.859 31.3203 141.859 31.7155V32.8182C141.859 33.0885 142.084 33.3077 142.361 33.3077H147.677C149.021 33.3077 150.11 34.3698 150.11 35.68V54.8529C150.11 55.1232 150.335 55.3424 150.613 55.3424H154.266C154.671 55.3424 155 55.6627 155 56.0578V75.3988C155 75.7939 154.671 76.1142 154.266 76.1142H151.606C151.328 76.1142 151.104 76.3334 151.104 76.6037V81.9496C151.104 82.22 151.328 82.4391 151.606 82.4391H154.266C154.671 82.4391 155 82.7595 155 83.1546V102.198C155 102.593 154.671 102.913 154.266 102.913H151.606C151.328 102.913 151.104 103.132 151.104 103.403V122.725C151.104 124.035 150.014 125.097 148.67 125.097H142.361C142.084 125.097 141.859 125.316 141.859 125.586V127.285C141.859 127.68 141.531 128 141.125 128H113.482C113.077 128 112.748 127.68 112.748 127.285V125.586C112.748 125.316 112.523 125.097 112.246 125.097H80.7828C80.5055 125.097 80.2807 125.316 80.2807 125.586V127.285C80.2807 127.68 79.9521 128 79.5467 128H50.6812C50.2758 128 49.9472 127.68 49.9472 127.285V125.586C49.9472 125.316 49.7224 125.097 49.4451 125.097H44.1297C42.7856 125.097 41.696 124.035 41.696 122.725V106.678C41.696 106.408 41.4712 106.189 41.1938 106.189H31.734C31.3286 106.189 31 105.868 31 105.473V88.0677C31 87.6726 31.3286 87.3523 31.734 87.3523H41.1938C41.4712 87.3523 41.696 87.1331 41.696 86.8628V68.6385C41.696 68.3681 41.4712 68.149 41.1938 68.149H34.026C33.6206 68.149 33.292 67.8286 33.292 67.4335V54.4201C33.292 54.025 33.6206 53.7047 34.026 53.7047H39.2073C39.273 53.7047 39.3385 53.7133 39.4018 53.7303L41.5955 54.3181C41.9152 54.4037 42.2308 54.1692 42.2308 53.8461V51.9952C42.2308 51.8254 42.1405 51.6676 41.9921 51.5785L37.9956 49.1772C37.7788 49.0469 37.6468 48.8164 37.6468 48.5681V42.9561C37.6468 42.561 37.9754 42.2407 38.3808 42.2407H41.1938C41.4712 42.2407 41.696 42.0215 41.696 41.7512V35.68C41.696 34.3698 42.7856 33.3077 44.1297 33.3077H50.5911C50.8684 33.3077 51.0932 33.0885 51.0932 32.8182V31.7154Z"/>
</mask>
<path fill-rule="evenodd" clip-rule="evenodd" d="M51.8272 31.2259C51.5498 31.2259 51.325 31.4451 51.325 31.7154V32.8182C51.325 33.2133 50.9964 33.5336 50.5911 33.5336H44.1297C42.9136 33.5336 41.9278 34.4946 41.9278 35.68V41.7512C41.9278 42.1463 41.5992 42.4666 41.1938 42.4666H38.3808C38.1034 42.4666 37.8786 42.6858 37.8786 42.9561V48.5681C37.8786 48.738 37.9689 48.8957 38.1173 48.9848L42.1138 51.3862C42.3306 51.5164 42.4626 51.747 42.4626 51.9952V53.8461C42.4626 54.3184 42.0013 54.6611 41.5341 54.5359L39.3404 53.9481C39.297 53.9365 39.2523 53.9306 39.2073 53.9306H34.026C33.7486 53.9306 33.5238 54.1498 33.5238 54.4201V67.4335C33.5238 67.7039 33.7486 67.923 34.026 67.923H41.1938C41.5992 67.923 41.9278 68.2433 41.9278 68.6385V86.8628C41.9278 87.2579 41.5992 87.5782 41.1938 87.5782H31.734C31.4566 87.5782 31.2318 87.7974 31.2318 88.0677V105.473C31.2318 105.744 31.4566 105.963 31.734 105.963H41.1938C41.5992 105.963 41.9278 106.283 41.9278 106.678V122.725C41.9278 123.91 42.9136 124.871 44.1297 124.871H49.4451C49.8504 124.871 50.179 125.191 50.179 125.586V127.285C50.179 127.555 50.4038 127.774 50.6812 127.774H79.5467C79.8241 127.774 80.0489 127.555 80.0489 127.285V125.586C80.0489 125.191 80.3775 124.871 80.7828 124.871H112.246C112.651 124.871 112.98 125.191 112.98 125.586V127.285C112.98 127.555 113.205 127.774 113.482 127.774H141.125C141.403 127.774 141.627 127.555 141.627 127.285V125.586C141.627 125.191 141.956 124.871 142.361 124.871H148.67C149.886 124.871 150.872 123.91 150.872 122.725V103.403C150.872 103.008 151.2 102.687 151.606 102.687H154.266C154.543 102.687 154.768 102.468 154.768 102.198V83.1546C154.768 82.8842 154.543 82.6651 154.266 82.6651H151.606C151.2 82.6651 150.872 82.3448 150.872 81.9496V76.6037C150.872 76.2086 151.2 75.8883 151.606 75.8883H154.266C154.543 75.8883 154.768 75.6691 154.768 75.3988V56.0578C154.768 55.7875 154.543 55.5683 154.266 55.5683H150.613C150.207 55.5683 149.879 55.248 149.879 54.8529V35.68C149.879 34.4946 148.893 33.5336 147.677 33.5336H142.361C141.956 33.5336 141.627 33.2133 141.627 32.8182V31.7155C141.627 31.4451 141.403 31.2259 141.125 31.2259H113.482C113.205 31.2259 112.98 31.4451 112.98 31.7154V32.8182C112.98 33.2133 112.651 33.5336 112.246 33.5336H80.7828C80.3775 33.5336 80.0489 33.2133 80.0489 32.8182V31.7155C80.0489 31.4451 79.8241 31.2259 79.5467 31.2259H51.8272ZM51.0932 31.7154C51.0932 31.3203 51.4218 31 51.8272 31H79.5467C79.9521 31 80.2807 31.3203 80.2807 31.7155V32.8182C80.2807 33.0885 80.5055 33.3077 80.7828 33.3077H112.246C112.523 33.3077 112.748 33.0885 112.748 32.8182V31.7154C112.748 31.3203 113.077 31 113.482 31H141.125C141.531 31 141.859 31.3203 141.859 31.7155V32.8182C141.859 33.0885 142.084 33.3077 142.361 33.3077H147.677C149.021 33.3077 150.11 34.3698 150.11 35.68V54.8529C150.11 55.1232 150.335 55.3424 150.613 55.3424H154.266C154.671 55.3424 155 55.6627 155 56.0578V75.3988C155 75.7939 154.671 76.1142 154.266 76.1142H151.606C151.328 76.1142 151.104 76.3334 151.104 76.6037V81.9496C151.104 82.22 151.328 82.4391 151.606 82.4391H154.266C154.671 82.4391 155 82.7595 155 83.1546V102.198C155 102.593 154.671 102.913 154.266 102.913H151.606C151.328 102.913 151.104 103.132 151.104 103.403V122.725C151.104 124.035 150.014 125.097 148.67 125.097H142.361C142.084 125.097 141.859 125.316 141.859 125.586V127.285C141.859 127.68 141.531 128 141.125 128H113.482C113.077 128 112.748 127.68 112.748 127.285V125.586C112.748 125.316 112.523 125.097 112.246 125.097H80.7828C80.5055 125.097 80.2807 125.316 80.2807 125.586V127.285C80.2807 127.68 79.9521 128 79.5467 128H50.6812C50.2758 128 49.9472 127.68 49.9472 127.285V125.586C49.9472 125.316 49.7224 125.097 49.4451 125.097H44.1297C42.7856 125.097 41.696 124.035 41.696 122.725V106.678C41.696 106.408 41.4712 106.189 41.1938 106.189H31.734C31.3286 106.189 31 105.868 31 105.473V88.0677C31 87.6726 31.3286 87.3523 31.734 87.3523H41.1938C41.4712 87.3523 41.696 87.1331 41.696 86.8628V68.6385C41.696 68.3681 41.4712 68.149 41.1938 68.149H34.026C33.6206 68.149 33.292 67.8286 33.292 67.4335V54.4201C33.292 54.025 33.6206 53.7047 34.026 53.7047H39.2073C39.273 53.7047 39.3385 53.7133 39.4018 53.7303L41.5955 54.3181C41.9152 54.4037 42.2308 54.1692 42.2308 53.8461V51.9952C42.2308 51.8254 42.1405 51.6676 41.9921 51.5785L37.9956 49.1772C37.7788 49.0469 37.6468 48.8164 37.6468 48.5681V42.9561C37.6468 42.561 37.9754 42.2407 38.3808 42.2407H41.1938C41.4712 42.2407 41.696 42.0215 41.696 41.7512V35.68C41.696 34.3698 42.7856 33.3077 44.1297 33.3077H50.5911C50.8684 33.3077 51.0932 33.0885 51.0932 32.8182V31.7154Z" fill="white"/>
<path fill-rule="evenodd" clip-rule="evenodd" d="M51.8272 31.2259C51.5498 31.2259 51.325 31.4451 51.325 31.7154V32.8182C51.325 33.2133 50.9964 33.5336 50.5911 33.5336H44.1297C42.9136 33.5336 41.9278 34.4946 41.9278 35.68V41.7512C41.9278 42.1463 41.5992 42.4666 41.1938 42.4666H38.3808C38.1034 42.4666 37.8786 42.6858 37.8786 42.9561V48.5681C37.8786 48.738 37.9689 48.8957 38.1173 48.9848L42.1138 51.3862C42.3306 51.5164 42.4626 51.747 42.4626 51.9952V53.8461C42.4626 54.3184 42.0013 54.6611 41.5341 54.5359L39.3404 53.9481C39.297 53.9365 39.2523 53.9306 39.2073 53.9306H34.026C33.7486 53.9306 33.5238 54.1498 33.5238 54.4201V67.4335C33.5238 67.7039 33.7486 67.923 34.026 67.923H41.1938C41.5992 67.923 41.9278 68.2433 41.9278 68.6385V86.8628C41.9278 87.2579 41.5992 87.5782 41.1938 87.5782H31.734C31.4566 87.5782 31.2318 87.7974 31.2318 88.0677V105.473C31.2318 105.744 31.4566 105.963 31.734 105.963H41.1938C41.5992 105.963 41.9278 106.283 41.9278 106.678V122.725C41.9278 123.91 42.9136 124.871 44.1297 124.871H49.4451C49.8504 124.871 50.179 125.191 50.179 125.586V127.285C50.179 127.555 50.4038 127.774 50.6812 127.774H79.5467C79.8241 127.774 80.0489 127.555 80.0489 127.285V125.586C80.0489 125.191 80.3775 124.871 80.7828 124.871H112.246C112.651 124.871 112.98 125.191 112.98 125.586V127.285C112.98 127.555 113.205 127.774 113.482 127.774H141.125C141.403 127.774 141.627 127.555 141.627 127.285V125.586C141.627 125.191 141.956 124.871 142.361 124.871H148.67C149.886 124.871 150.872 123.91 150.872 122.725V103.403C150.872 103.008 151.2 102.687 151.606 102.687H154.266C154.543 102.687 154.768 102.468 154.768 102.198V83.1546C154.768 82.8842 154.543 82.6651 154.266 82.6651H151.606C151.2 82.6651 150.872 82.3448 150.872 81.9496V76.6037C150.872 76.2086 151.2 75.8883 151.606 75.8883H154.266C154.543 75.8883 154.768 75.6691 154.768 75.3988V56.0578C154.768 55.7875 154.543 55.5683 154.266 55.5683H150.613C150.207 55.5683 149.879 55.248 149.879 54.8529V35.68C149.879 34.4946 148.893 33.5336 147.677 33.5336H142.361C141.956 33.5336 141.627 33.2133 141.627 32.8182V31.7155C141.627 31.4451 141.403 31.2259 141.125 31.2259H113.482C113.205 31.2259 112.98 31.4451 112.98 31.7154V32.8182C112.98 33.2133 112.651 33.5336 112.246 33.5336H80.7828C80.3775 33.5336 80.0489 33.2133 80.0489 32.8182V31.7155C80.0489 31.4451 79.8241 31.2259 79.5467 31.2259H51.8272ZM51.0932 31.7154C51.0932 31.3203 51.4218 31 51.8272 31H79.5467C79.9521 31 80.2807 31.3203 80.2807 31.7155V32.8182C80.2807 33.0885 80.5055 33.3077 80.7828 33.3077H112.246C112.523 33.3077 112.748 33.0885 112.748 32.8182V31.7154C112.748 31.3203 113.077 31 113.482 31H141.125C141.531 31 141.859 31.3203 141.859 31.7155V32.8182C141.859 33.0885 142.084 33.3077 142.361 33.3077H147.677C149.021 33.3077 150.11 34.3698 150.11 35.68V54.8529C150.11 55.1232 150.335 55.3424 150.613 55.3424H154.266C154.671 55.3424 155 55.6627 155 56.0578V75.3988C155 75.7939 154.671 76.1142 154.266 76.1142H151.606C151.328 76.1142 151.104 76.3334 151.104 76.6037V81.9496C151.104 82.22 151.328 82.4391 151.606 82.4391H154.266C154.671 82.4391 155 82.7595 155 83.1546V102.198C155 102.593 154.671 102.913 154.266 102.913H151.606C151.328 102.913 151.104 103.132 151.104 103.403V122.725C151.104 124.035 150.014 125.097 148.67 125.097H142.361C142.084 125.097 141.859 125.316 141.859 125.586V127.285C141.859 127.68 141.531 128 141.125 128H113.482C113.077 128 112.748 127.68 112.748 127.285V125.586C112.748 125.316 112.523 125.097 112.246 125.097H80.7828C80.5055 125.097 80.2807 125.316 80.2807 125.586V127.285C80.2807 127.68 79.9521 128 79.5467 128H50.6812C50.2758 128 49.9472 127.68 49.9472 127.285V125.586C49.9472 125.316 49.7224 125.097 49.4451 125.097H44.1297C42.7856 125.097 41.696 124.035 41.696 122.725V106.678C41.696 106.408 41.4712 106.189 41.1938 106.189H31.734C31.3286 106.189 31 105.868 31 105.473V88.0677C31 87.6726 31.3286 87.3523 31.734 87.3523H41.1938C41.4712 87.3523 41.696 87.1331 41.696 86.8628V68.6385C41.696 68.3681 41.4712 68.149 41.1938 68.149H34.026C33.6206 68.149 33.292 67.8286 33.292 67.4335V54.4201C33.292 54.025 33.6206 53.7047 34.026 53.7047H39.2073C39.273 53.7047 39.3385 53.7133 39.4018 53.7303L41.5955 54.3181C41.9152 54.4037 42.2308 54.1692 42.2308 53.8461V51.9952C42.2308 51.8254 42.1405 51.6676 41.9921 51.5785L37.9956 49.1772C37.7788 49.0469 37.6468 48.8164 37.6468 48.5681V42.9561C37.6468 42.561 37.9754 42.2407 38.3808 42.2407H41.1938C41.4712 42.2407 41.696 42.0215 41.696 41.7512V35.68C41.696 34.3698 42.7856 33.3077 44.1297 33.3077H50.5911C50.8684 33.3077 51.0932 33.0885 51.0932 32.8182V31.7154Z" stroke="#E06121" stroke-width="4" mask="url(#path-3-outside-3_1_1559)"/>
</g>
<path fill-rule="evenodd" clip-rule="evenodd" d="M51.8272 31.2259C51.5498 31.2259 51.325 31.4451 51.325 31.7154V32.8182C51.325 33.2133 50.9964 33.5336 50.5911 33.5336H44.1297C42.9136 33.5336 41.9278 34.4946 41.9278 35.68V41.7512C41.9278 42.1463 41.5992 42.4666 41.1938 42.4666H38.3808C38.1034 42.4666 37.8786 42.6858 37.8786 42.9561V48.5681C37.8786 48.738 37.9689 48.8957 38.1173 48.9848L42.1138 51.3862C42.3306 51.5164 42.4626 51.747 42.4626 51.9952V53.8461C42.4626 54.3184 42.0013 54.6611 41.5341 54.5359L39.3404 53.9481C39.297 53.9365 39.2523 53.9306 39.2073 53.9306H34.026C33.7486 53.9306 33.5238 54.1498 33.5238 54.4201V67.4335C33.5238 67.7039 33.7486 67.923 34.026 67.923H41.1938C41.5992 67.923 41.9278 68.2433 41.9278 68.6385V86.8628C41.9278 87.2579 41.5992 87.5782 41.1938 87.5782H31.734C31.4566 87.5782 31.2318 87.7974 31.2318 88.0677V105.473C31.2318 105.744 31.4566 105.963 31.734 105.963H41.1938C41.5992 105.963 41.9278 106.283 41.9278 106.678V122.725C41.9278 123.91 42.9136 124.871 44.1297 124.871H49.4451C49.8504 124.871 50.179 125.191 50.179 125.586V127.285C50.179 127.555 50.4038 127.774 50.6812 127.774H79.5467C79.8241 127.774 80.0489 127.555 80.0489 127.285V125.586C80.0489 125.191 80.3775 124.871 80.7828 124.871H112.246C112.651 124.871 112.98 125.191 112.98 125.586V127.285C112.98 127.555 113.205 127.774 113.482 127.774H141.125C141.403 127.774 141.627 127.555 141.627 127.285V125.586C141.627 125.191 141.956 124.871 142.361 124.871H148.67C149.886 124.871 150.872 123.91 150.872 122.725V103.403C150.872 103.008 151.2 102.687 151.606 102.687H154.266C154.543 102.687 154.768 102.468 154.768 102.198V83.1546C154.768 82.8842 154.543 82.6651 154.266 82.6651H151.606C151.2 82.6651 150.872 82.3448 150.872 81.9496V76.6037C150.872 76.2086 151.2 75.8883 151.606 75.8883H154.266C154.543 75.8883 154.768 75.6691 154.768 75.3988V56.0578C154.768 55.7875 154.543 55.5683 154.266 55.5683H150.613C150.207 55.5683 149.879 55.248 149.879 54.8529V35.68C149.879 34.4946 148.893 33.5336 147.677 33.5336H142.361C141.956 33.5336 141.627 33.2133 141.627 32.8182V31.7155C141.627 31.4451 141.403 31.2259 141.125 31.2259H113.482C113.205 31.2259 112.98 31.4451 112.98 31.7154V32.8182C112.98 33.2133 112.651 33.5336 112.246 33.5336H80.7828C80.3775 33.5336 80.0489 33.2133 80.0489 32.8182V31.7155C80.0489 31.4451 79.8241 31.2259 79.5467 31.2259H51.8272ZM51.0932 31.7154C51.0932 31.3203 51.4218 31 51.8272 31H79.5467C79.9521 31 80.2807 31.3203 80.2807 31.7155V32.8182C80.2807 33.0885 80.5055 33.3077 80.7828 33.3077H112.246C112.523 33.3077 112.748 33.0885 112.748 32.8182V31.7154C112.748 31.3203 113.077 31 113.482 31H141.125C141.531 31 141.859 31.3203 141.859 31.7155V32.8182C141.859 33.0885 142.084 33.3077 142.361 33.3077H147.677C149.021 33.3077 150.11 34.3698 150.11 35.68V54.8529C150.11 55.1232 150.335 55.3424 150.613 55.3424H154.266C154.671 55.3424 155 55.6627 155 56.0578V75.3988C155 75.7939 154.671 76.1142 154.266 76.1142H151.606C151.328 76.1142 151.104 76.3334 151.104 76.6037V81.9496C151.104 82.22 151.328 82.4391 151.606 82.4391H154.266C154.671 82.4391 155 82.7595 155 83.1546V102.198C155 102.593 154.671 102.913 154.266 102.913H151.606C151.328 102.913 151.104 103.132 151.104 103.403V122.725C151.104 124.035 150.014 125.097 148.67 125.097H142.361C142.084 125.097 141.859 125.316 141.859 125.586V127.285C141.859 127.68 141.531 128 141.125 128H113.482C113.077 128 112.748 127.68 112.748 127.285V125.586C112.748 125.316 112.523 125.097 112.246 125.097H80.7828C80.5055 125.097 80.2807 125.316 80.2807 125.586V127.285C80.2807 127.68 79.9521 128 79.5467 128H50.6812C50.2758 128 49.9472 127.68 49.9472 127.285V125.586C49.9472 125.316 49.7224 125.097 49.4451 125.097H44.1297C42.7856 125.097 41.696 124.035 41.696 122.725V106.678C41.696 106.408 41.4712 106.189 41.1938 106.189H31.734C31.3286 106.189 31 105.868 31 105.473V88.0677C31 87.6726 31.3286 87.3523 31.734 87.3523H41.1938C41.4712 87.3523 41.696 87.1331 41.696 86.8628V68.6385C41.696 68.3681 41.4712 68.149 41.1938 68.149H34.026C33.6206 68.149 33.292 67.8286 33.292 67.4335V54.4201C33.292 54.025 33.6206 53.7047 34.026 53.7047H39.2073C39.273 53.7047 39.3385 53.7133 39.4018 53.7303L41.5955 54.3181C41.9152 54.4037 42.2308 54.1692 42.2308 53.8461V51.9952C42.2308 51.8254 42.1405 51.6676 41.9921 51.5785L37.9956 49.1772C37.7788 49.0469 37.6468 48.8164 37.6468 48.5681V42.9561C37.6468 42.561 37.9754 42.2407 38.3808 42.2407H41.1938C41.4712 42.2407 41.696 42.0215 41.696 41.7512V35.68C41.696 34.3698 42.7856 33.3077 44.1297 33.3077H50.5911C50.8684 33.3077 51.0932 33.0885 51.0932 32.8182V31.7154Z" fill="white" stroke="white" stroke-width="0.5"/>
<defs>
<filter id="filter0_f_1_1559" x="0" y="0" width="186" height="159" filterUnits="userSpaceOnUse" color-interpolation-filters="sRGB">
<feFlood flood-opacity="0" result="BackgroundImageFix"/>
<feBlend mode="normal" in="SourceGraphic" in2="BackgroundImageFix" result="shape"/>
<feGaussianBlur stdDeviation="15" result="effect1_foregroundBlur_1_1559"/>
</filter>
<filter id="filter1_f_1_1559" x="15" y="15" width="156" height="129" filterUnits="userSpaceOnUse" color-interpolation-filters="sRGB">
<feFlood flood-opacity="0" result="BackgroundImageFix"/>
<feBlend mode="normal" in="SourceGraphic" in2="BackgroundImageFix" result="shape"/>
<feGaussianBlur stdDeviation="7.5" result="effect1_foregroundBlur_1_1559"/>
</filter>
<filter id="filter2_f_1_1559" x="25" y="25" width="136" height="109" filterUnits="userSpaceOnUse" color-interpolation-filters="sRGB">
<feFlood flood-opacity="0" result="BackgroundImageFix"/>
<feBlend mode="normal" in="SourceGraphic" in2="BackgroundImageFix" result="shape"/>
<feGaussianBlur stdDeviation="2" result="effect1_foregroundBlur_1_1559"/>
</filter>
</defs>
</svg>
