<svg width="158" height="186" viewBox="0 0 158 186" fill="none" xmlns="http://www.w3.org/2000/svg">
<g filter="url(#filter0_f_1_1668)">
<path d="M87.7862 147.065V146.065H86.7862H49.3989C43.7558 146.065 39.1809 141.489 39.1809 135.845L39.1809 49.6259C39.1809 43.9813 43.7558 39.4057 49.3989 39.4057L100.176 39.4057C105.819 39.4057 110.394 43.9813 110.394 49.6259L110.394 107.062V108.062H111.394H112.574H113.574V107.062L113.574 49.6259C113.574 42.2248 107.576 36.2246 100.176 36.2246L49.3989 36.2246C41.9987 36.2246 36 42.2248 36 49.6259L36 135.845C36 143.246 41.9987 149.246 49.3989 149.246H86.7862H87.7862V148.246V147.065Z" stroke="#E06121" stroke-width="2"/>
<path fill-rule="evenodd" clip-rule="evenodd" d="M97.4352 116.494L98.1912 117.401L84.5653 128.758L98.1912 140.115L97.4352 141.023L82.7207 128.758L97.4352 116.494Z" stroke="#E06121" stroke-width="2"/>
<path fill-rule="evenodd" clip-rule="evenodd" d="M106.458 116.494L105.702 117.401L119.328 128.758L105.702 140.115L106.458 141.023L121.172 128.758L106.458 116.494Z" stroke="#E06121" stroke-width="2"/>
<path fill-rule="evenodd" clip-rule="evenodd" d="M64.1597 37.2246H90.1384V42.5395C90.1384 46.1271 87.2306 49.0354 83.6437 49.0354H70.6543C67.0674 49.0354 64.1597 46.1271 64.1597 42.5395V37.2246ZM65.3405 38.4057V42.5395C65.3405 45.4748 67.7196 47.8543 70.6543 47.8543H83.6437C86.5785 47.8543 88.9575 45.4748 88.9575 42.5395V38.4057H65.3405Z" stroke="#E06121" stroke-width="2"/>
</g>
<g filter="url(#filter1_f_1_1668)">
<path d="M87.7862 147.065V146.065H86.7862H49.3989C43.7558 146.065 39.1809 141.489 39.1809 135.845L39.1809 49.6259C39.1809 43.9813 43.7558 39.4057 49.3989 39.4057L100.176 39.4057C105.819 39.4057 110.394 43.9813 110.394 49.6259L110.394 107.062V108.062H111.394H112.574H113.574V107.062L113.574 49.6259C113.574 42.2248 107.576 36.2246 100.176 36.2246L49.3989 36.2246C41.9987 36.2246 36 42.2248 36 49.6259L36 135.845C36 143.246 41.9987 149.246 49.3989 149.246H86.7862H87.7862V148.246V147.065Z" stroke="#E06121" stroke-width="2"/>
<path fill-rule="evenodd" clip-rule="evenodd" d="M97.4352 116.494L98.1912 117.401L84.5653 128.758L98.1912 140.115L97.4352 141.023L82.7207 128.758L97.4352 116.494Z" stroke="#E06121" stroke-width="2"/>
<path fill-rule="evenodd" clip-rule="evenodd" d="M106.458 116.494L105.702 117.401L119.328 128.758L105.702 140.115L106.458 141.023L121.172 128.758L106.458 116.494Z" stroke="#E06121" stroke-width="2"/>
<path fill-rule="evenodd" clip-rule="evenodd" d="M64.1597 37.2246H90.1384V42.5395C90.1384 46.1271 87.2306 49.0354 83.6437 49.0354H70.6543C67.0674 49.0354 64.1597 46.1271 64.1597 42.5395V37.2246ZM65.3405 38.4057V42.5395C65.3405 45.4748 67.7196 47.8543 70.6543 47.8543H83.6437C86.5785 47.8543 88.9575 45.4748 88.9575 42.5395V38.4057H65.3405Z" stroke="#E06121" stroke-width="2"/>
</g>
<g filter="url(#filter2_f_1_1668)">
<path d="M87.7862 147.065V146.065H86.7862H49.3989C43.7558 146.065 39.1809 141.489 39.1809 135.845L39.1809 49.6259C39.1809 43.9813 43.7558 39.4057 49.3989 39.4057L100.176 39.4057C105.819 39.4057 110.394 43.9813 110.394 49.6259L110.394 107.062V108.062H111.394H112.574H113.574V107.062L113.574 49.6259C113.574 42.2248 107.576 36.2246 100.176 36.2246L49.3989 36.2246C41.9987 36.2246 36 42.2248 36 49.6259L36 135.845C36 143.246 41.9987 149.246 49.3989 149.246H86.7862H87.7862V148.246V147.065Z" stroke="#E06121" stroke-width="2"/>
<path fill-rule="evenodd" clip-rule="evenodd" d="M97.4352 116.494L98.1912 117.401L84.5653 128.758L98.1912 140.115L97.4352 141.023L82.7207 128.758L97.4352 116.494Z" stroke="#E06121" stroke-width="2"/>
<path fill-rule="evenodd" clip-rule="evenodd" d="M106.458 116.494L105.702 117.401L119.328 128.758L105.702 140.115L106.458 141.023L121.172 128.758L106.458 116.494Z" stroke="#E06121" stroke-width="2"/>
<path fill-rule="evenodd" clip-rule="evenodd" d="M64.1597 37.2246H90.1384V42.5395C90.1384 46.1271 87.2306 49.0354 83.6437 49.0354H70.6543C67.0674 49.0354 64.1597 46.1271 64.1597 42.5395V37.2246ZM65.3405 38.4057V42.5395C65.3405 45.4748 67.7196 47.8543 70.6543 47.8543H83.6437C86.5785 47.8543 88.9575 45.4748 88.9575 42.5395V38.4057H65.3405Z" stroke="#E06121" stroke-width="2"/>
</g>
<path fill-rule="evenodd" clip-rule="evenodd" d="M49.3989 38.4057C43.2034 38.4057 38.1809 43.4292 38.1809 49.6259L38.1809 135.845C38.1809 142.041 43.2034 147.065 49.3989 147.065H86.7862V148.246H49.3989C42.5512 148.246 37 142.694 37 135.845L37 49.6259C37 42.7769 42.5512 37.2246 49.3989 37.2246L100.176 37.2246C107.023 37.2246 112.574 42.7769 112.574 49.6259L112.574 107.062H111.394L111.394 49.6259C111.394 43.4292 106.371 38.4057 100.176 38.4057L49.3989 38.4057Z" fill="white"/>
<path fill-rule="evenodd" clip-rule="evenodd" d="M97.4352 116.494L98.1912 117.401L84.5653 128.758L98.1912 140.115L97.4352 141.023L82.7207 128.758L97.4352 116.494Z" fill="white"/>
<path fill-rule="evenodd" clip-rule="evenodd" d="M106.458 116.494L105.702 117.401L119.328 128.758L105.702 140.115L106.458 141.023L121.172 128.758L106.458 116.494Z" fill="white"/>
<path fill-rule="evenodd" clip-rule="evenodd" d="M64.1597 37.2246H90.1384V42.5395C90.1384 46.1271 87.2306 49.0354 83.6437 49.0354H70.6543C67.0674 49.0354 64.1597 46.1271 64.1597 42.5395V37.2246ZM65.3405 38.4057V42.5395C65.3405 45.4748 67.7196 47.8543 70.6543 47.8543H83.6437C86.5785 47.8543 88.9575 45.4748 88.9575 42.5395V38.4057H65.3405Z" fill="white"/>
<defs>
<filter id="filter0_f_1_1668" x="0" y="0.224609" width="157.734" height="185.021" filterUnits="userSpaceOnUse" color-interpolation-filters="sRGB">
<feFlood flood-opacity="0" result="BackgroundImageFix"/>
<feBlend mode="normal" in="SourceGraphic" in2="BackgroundImageFix" result="shape"/>
<feGaussianBlur stdDeviation="17.5" result="effect1_foregroundBlur_1_1668"/>
</filter>
<filter id="filter1_f_1_1668" x="20" y="20.2246" width="117.734" height="145.021" filterUnits="userSpaceOnUse" color-interpolation-filters="sRGB">
<feFlood flood-opacity="0" result="BackgroundImageFix"/>
<feBlend mode="normal" in="SourceGraphic" in2="BackgroundImageFix" result="shape"/>
<feGaussianBlur stdDeviation="7.5" result="effect1_foregroundBlur_1_1668"/>
</filter>
<filter id="filter2_f_1_1668" x="31" y="31.2246" width="95.7343" height="123.021" filterUnits="userSpaceOnUse" color-interpolation-filters="sRGB">
<feFlood flood-opacity="0" result="BackgroundImageFix"/>
<feBlend mode="normal" in="SourceGraphic" in2="BackgroundImageFix" result="shape"/>
<feGaussianBlur stdDeviation="2" result="effect1_foregroundBlur_1_1668"/>
</filter>
</defs>
</svg>
