<svg width="74" height="58" viewBox="0 0 74 58" fill="none" xmlns="http://www.w3.org/2000/svg">
<g filter="url(#filter0_f_1_3608)">
<path fill-rule="evenodd" clip-rule="evenodd" d="M45.7917 32.0024V42H28.9882C21.8257 42 16 36.1686 16 29C16 21.8314 21.8257 16 28.9882 16H37.7429L31.5002 25.9976H31.35C29.4623 25.9976 27.9873 27.1854 27.9873 29C27.9873 30.8146 29.4623 32.0024 31.35 32.0024H45.7917ZM45.7917 16V25.9976H37.9589L43.9135 16H45.7917ZM31.35 25.7268C29.3516 25.7268 27.7165 26.9997 27.7165 29C27.7165 31.0003 29.3516 32.2732 31.35 32.2732H45.5208V41.7292H28.9882C21.9755 41.7292 16.2708 36.0192 16.2708 29C16.2708 21.9808 21.9755 16.2708 28.9882 16.2708H37.2545L31.35 25.7268ZM44.0674 16.2708H45.5208V25.7268H38.4354L44.0674 16.2708Z" stroke="#E06121"/>
</g>
<g filter="url(#filter1_f_1_3608)">
<path fill-rule="evenodd" clip-rule="evenodd" d="M45.7917 32.0024V42H28.9882C21.8257 42 16 36.1686 16 29C16 21.8314 21.8257 16 28.9882 16H37.7429L31.5002 25.9976H31.35C29.4623 25.9976 27.9873 27.1854 27.9873 29C27.9873 30.8146 29.4623 32.0024 31.35 32.0024H45.7917ZM45.7917 16V25.9976H37.9589L43.9135 16H45.7917ZM31.35 25.7268C29.3516 25.7268 27.7165 26.9997 27.7165 29C27.7165 31.0003 29.3516 32.2732 31.35 32.2732H45.5208V41.7292H28.9882C21.9755 41.7292 16.2708 36.0192 16.2708 29C16.2708 21.9808 21.9755 16.2708 28.9882 16.2708H37.2545L31.35 25.7268ZM44.0674 16.2708H45.5208V25.7268H38.4354L44.0674 16.2708Z" stroke="#E06121"/>
</g>
<g filter="url(#filter2_f_1_3608)">
<path fill-rule="evenodd" clip-rule="evenodd" d="M45.7917 32.0024V42H28.9882C21.8257 42 16 36.1686 16 29C16 21.8314 21.8257 16 28.9882 16H37.7429L31.5002 25.9976H31.35C29.4623 25.9976 27.9873 27.1854 27.9873 29C27.9873 30.8146 29.4623 32.0024 31.35 32.0024H45.7917ZM45.7917 16V25.9976H37.9589L43.9135 16H45.7917ZM31.35 25.7268C29.3516 25.7268 27.7165 26.9997 27.7165 29C27.7165 31.0003 29.3516 32.2732 31.35 32.2732H45.5208V41.7292H28.9882C21.9755 41.7292 16.2708 36.0192 16.2708 29C16.2708 21.9808 21.9755 16.2708 28.9882 16.2708H37.2545L31.35 25.7268ZM44.0674 16.2708H45.5208V25.7268H38.4354L44.0674 16.2708Z" stroke="#E06121"/>
</g>
<path fill-rule="evenodd" clip-rule="evenodd" d="M45.7917 32.0024V42H28.9882C21.8257 42 16 36.1686 16 29C16 21.8314 21.8257 16 28.9882 16H37.7429L31.5002 25.9976H31.35C29.4623 25.9976 27.9873 27.1854 27.9873 29C27.9873 30.8146 29.4623 32.0024 31.35 32.0024H45.7917ZM45.7917 16V25.9976H37.9589L43.9135 16H45.7917ZM31.35 25.7268C29.3516 25.7268 27.7165 26.9997 27.7165 29C27.7165 31.0003 29.3516 32.2732 31.35 32.2732H45.5208V41.7292H28.9882C21.9755 41.7292 16.2708 36.0192 16.2708 29C16.2708 21.9808 21.9755 16.2708 28.9882 16.2708H37.2545L31.35 25.7268ZM44.0674 16.2708H45.5208V25.7268H38.4354L44.0674 16.2708Z" fill="white"/>
<g filter="url(#filter3_f_1_3608)">
<mask id="path-5-inside-1_1_3608" fill="white">
<path fill-rule="evenodd" clip-rule="evenodd" d="M59.3721 32.467V29.1758H62.5974V26.8589H65.8885V29.1758H69.1138V32.467H65.8885V34.784H62.5974V32.467H59.3721ZM62.9265 32.1379V34.4548H65.5594V32.1379H68.7847V29.505H65.5594V27.188H62.9265V29.505H59.7012V32.1379H62.9265Z"/>
</mask>
<path d="M59.3721 32.467H58.3721V33.467H59.3721V32.467ZM59.3721 29.1758V28.1758H58.3721V29.1758H59.3721ZM62.5974 29.1758V30.1758H63.5974V29.1758H62.5974ZM62.5974 26.8589V25.8589H61.5974V26.8589H62.5974ZM65.8885 26.8589H66.8885V25.8589H65.8885V26.8589ZM65.8885 29.1758H64.8885V30.1758H65.8885V29.1758ZM69.1138 29.1758H70.1138V28.1758H69.1138V29.1758ZM69.1138 32.467V33.467H70.1138V32.467H69.1138ZM65.8885 32.467V31.467H64.8885V32.467H65.8885ZM65.8885 34.784V35.784H66.8885V34.784H65.8885ZM62.5974 34.784H61.5974V35.784H62.5974V34.784ZM62.5974 32.467H63.5974V31.467H62.5974V32.467ZM62.9265 32.1379H63.9265V31.1379H62.9265V32.1379ZM62.9265 34.4548H61.9265V35.4548H62.9265V34.4548ZM65.5594 34.4548V35.4548H66.5594V34.4548H65.5594ZM65.5594 32.1379V31.1379H64.5594V32.1379H65.5594ZM68.7847 32.1379V33.1379H69.7847V32.1379H68.7847ZM68.7847 29.505H69.7847V28.505H68.7847V29.505ZM65.5594 29.505H64.5594V30.505H65.5594V29.505ZM65.5594 27.188H66.5594V26.188H65.5594V27.188ZM62.9265 27.188V26.188H61.9265V27.188H62.9265ZM62.9265 29.505V30.505H63.9265V29.505H62.9265ZM59.7012 29.505V28.505H58.7012V29.505H59.7012ZM59.7012 32.1379H58.7012V33.1379H59.7012V32.1379ZM58.3721 29.1758V32.467H60.3721V29.1758H58.3721ZM62.5974 28.1758H59.3721V30.1758H62.5974V28.1758ZM61.5974 26.8589V29.1758H63.5974V26.8589H61.5974ZM65.8885 25.8589H62.5974V27.8589H65.8885V25.8589ZM66.8885 29.1758V26.8589H64.8885V29.1758H66.8885ZM69.1138 28.1758H65.8885V30.1758H69.1138V28.1758ZM70.1138 32.467V29.1758H68.1138V32.467H70.1138ZM65.8885 33.467H69.1138V31.467H65.8885V33.467ZM66.8885 34.784V32.467H64.8885V34.784H66.8885ZM62.5974 35.784H65.8885V33.784H62.5974V35.784ZM61.5974 32.467V34.784H63.5974V32.467H61.5974ZM59.3721 33.467H62.5974V31.467H59.3721V33.467ZM62.9265 31.1379H59.7012V33.1379H62.9265V31.1379ZM63.9265 34.4548V32.1379H61.9265V34.4548H63.9265ZM65.5594 33.4548H62.9265V35.4548H65.5594V33.4548ZM64.5594 32.1379V34.4548H66.5594V32.1379H64.5594ZM68.7847 31.1379H65.5594V33.1379H68.7847V31.1379ZM67.7847 29.505V32.1379H69.7847V29.505H67.7847ZM65.5594 30.505H68.7847V28.505H65.5594V30.505ZM64.5594 27.188V29.505H66.5594V27.188H64.5594ZM62.9265 28.188H65.5594V26.188H62.9265V28.188ZM63.9265 29.505V27.188H61.9265V29.505H63.9265ZM59.7012 30.505H62.9265V28.505H59.7012V30.505ZM60.7012 32.1379V29.505H58.7012V32.1379H60.7012Z" fill="#E06121" mask="url(#path-5-inside-1_1_3608)"/>
<mask id="path-7-inside-2_1_3608" fill="white">
<path fill-rule="evenodd" clip-rule="evenodd" d="M49.2412 32.467V29.1758H52.4665V26.8589H55.7577V29.1758H58.983V32.467H55.7577V34.784H52.4665V32.467H49.2412ZM52.7956 32.1379V34.4548H55.4286V32.1379H58.6539V29.505H55.4286V27.188H52.7956V29.505H49.5703V32.1379H52.7956Z"/>
</mask>
<path d="M49.2412 32.467H48.2412V33.467H49.2412V32.467ZM49.2412 29.1758V28.1758H48.2412V29.1758H49.2412ZM52.4665 29.1758V30.1758H53.4665V29.1758H52.4665ZM52.4665 26.8589V25.8589H51.4665V26.8589H52.4665ZM55.7577 26.8589H56.7577V25.8589H55.7577V26.8589ZM55.7577 29.1758H54.7577V30.1758H55.7577V29.1758ZM58.983 29.1758H59.983V28.1758H58.983V29.1758ZM58.983 32.467V33.467H59.983V32.467H58.983ZM55.7577 32.467V31.467H54.7577V32.467H55.7577ZM55.7577 34.784V35.784H56.7577V34.784H55.7577ZM52.4665 34.784H51.4665V35.784H52.4665V34.784ZM52.4665 32.467H53.4665V31.467H52.4665V32.467ZM52.7956 32.1379H53.7956V31.1379H52.7956V32.1379ZM52.7956 34.4548H51.7956V35.4548H52.7956V34.4548ZM55.4286 34.4548V35.4548H56.4286V34.4548H55.4286ZM55.4286 32.1379V31.1379H54.4286V32.1379H55.4286ZM58.6539 32.1379V33.1379H59.6539V32.1379H58.6539ZM58.6539 29.505H59.6539V28.505H58.6539V29.505ZM55.4286 29.505H54.4286V30.505H55.4286V29.505ZM55.4286 27.188H56.4286V26.188H55.4286V27.188ZM52.7956 27.188V26.188H51.7956V27.188H52.7956ZM52.7956 29.505V30.505H53.7956V29.505H52.7956ZM49.5703 29.505V28.505H48.5703V29.505H49.5703ZM49.5703 32.1379H48.5703V33.1379H49.5703V32.1379ZM48.2412 29.1758V32.467H50.2412V29.1758H48.2412ZM52.4665 28.1758H49.2412V30.1758H52.4665V28.1758ZM51.4665 26.8589V29.1758H53.4665V26.8589H51.4665ZM55.7577 25.8589H52.4665V27.8589H55.7577V25.8589ZM56.7577 29.1758V26.8589H54.7577V29.1758H56.7577ZM58.983 28.1758H55.7577V30.1758H58.983V28.1758ZM59.983 32.467V29.1758H57.983V32.467H59.983ZM55.7577 33.467H58.983V31.467H55.7577V33.467ZM56.7577 34.784V32.467H54.7577V34.784H56.7577ZM52.4665 35.784H55.7577V33.784H52.4665V35.784ZM51.4665 32.467V34.784H53.4665V32.467H51.4665ZM49.2412 33.467H52.4665V31.467H49.2412V33.467ZM52.7956 31.1379H49.5703V33.1379H52.7956V31.1379ZM53.7956 34.4548V32.1379H51.7956V34.4548H53.7956ZM55.4286 33.4548H52.7956V35.4548H55.4286V33.4548ZM54.4286 32.1379V34.4548H56.4286V32.1379H54.4286ZM58.6539 31.1379H55.4286V33.1379H58.6539V31.1379ZM57.6539 29.505V32.1379H59.6539V29.505H57.6539ZM55.4286 30.505H58.6539V28.505H55.4286V30.505ZM54.4286 27.188V29.505H56.4286V27.188H54.4286ZM52.7956 28.188H55.4286V26.188H52.7956V28.188ZM53.7956 29.505V27.188H51.7956V29.505H53.7956ZM49.5703 30.505H52.7956V28.505H49.5703V30.505ZM50.5703 32.1379V29.505H48.5703V32.1379H50.5703Z" fill="#E06121" mask="url(#path-7-inside-2_1_3608)"/>
</g>
<g filter="url(#filter4_f_1_3608)">
<mask id="path-9-inside-3_1_3608" fill="white">
<path fill-rule="evenodd" clip-rule="evenodd" d="M59.3721 32.467V29.1758H62.5974V26.8589H65.8885V29.1758H69.1138V32.467H65.8885V34.784H62.5974V32.467H59.3721ZM62.9265 32.1379V34.4548H65.5594V32.1379H68.7847V29.505H65.5594V27.188H62.9265V29.505H59.7012V32.1379H62.9265Z"/>
</mask>
<path d="M59.3721 32.467H58.3721V33.467H59.3721V32.467ZM59.3721 29.1758V28.1758H58.3721V29.1758H59.3721ZM62.5974 29.1758V30.1758H63.5974V29.1758H62.5974ZM62.5974 26.8589V25.8589H61.5974V26.8589H62.5974ZM65.8885 26.8589H66.8885V25.8589H65.8885V26.8589ZM65.8885 29.1758H64.8885V30.1758H65.8885V29.1758ZM69.1138 29.1758H70.1138V28.1758H69.1138V29.1758ZM69.1138 32.467V33.467H70.1138V32.467H69.1138ZM65.8885 32.467V31.467H64.8885V32.467H65.8885ZM65.8885 34.784V35.784H66.8885V34.784H65.8885ZM62.5974 34.784H61.5974V35.784H62.5974V34.784ZM62.5974 32.467H63.5974V31.467H62.5974V32.467ZM62.9265 32.1379H63.9265V31.1379H62.9265V32.1379ZM62.9265 34.4548H61.9265V35.4548H62.9265V34.4548ZM65.5594 34.4548V35.4548H66.5594V34.4548H65.5594ZM65.5594 32.1379V31.1379H64.5594V32.1379H65.5594ZM68.7847 32.1379V33.1379H69.7847V32.1379H68.7847ZM68.7847 29.505H69.7847V28.505H68.7847V29.505ZM65.5594 29.505H64.5594V30.505H65.5594V29.505ZM65.5594 27.188H66.5594V26.188H65.5594V27.188ZM62.9265 27.188V26.188H61.9265V27.188H62.9265ZM62.9265 29.505V30.505H63.9265V29.505H62.9265ZM59.7012 29.505V28.505H58.7012V29.505H59.7012ZM59.7012 32.1379H58.7012V33.1379H59.7012V32.1379ZM58.3721 29.1758V32.467H60.3721V29.1758H58.3721ZM62.5974 28.1758H59.3721V30.1758H62.5974V28.1758ZM61.5974 26.8589V29.1758H63.5974V26.8589H61.5974ZM65.8885 25.8589H62.5974V27.8589H65.8885V25.8589ZM66.8885 29.1758V26.8589H64.8885V29.1758H66.8885ZM69.1138 28.1758H65.8885V30.1758H69.1138V28.1758ZM70.1138 32.467V29.1758H68.1138V32.467H70.1138ZM65.8885 33.467H69.1138V31.467H65.8885V33.467ZM66.8885 34.784V32.467H64.8885V34.784H66.8885ZM62.5974 35.784H65.8885V33.784H62.5974V35.784ZM61.5974 32.467V34.784H63.5974V32.467H61.5974ZM59.3721 33.467H62.5974V31.467H59.3721V33.467ZM62.9265 31.1379H59.7012V33.1379H62.9265V31.1379ZM63.9265 34.4548V32.1379H61.9265V34.4548H63.9265ZM65.5594 33.4548H62.9265V35.4548H65.5594V33.4548ZM64.5594 32.1379V34.4548H66.5594V32.1379H64.5594ZM68.7847 31.1379H65.5594V33.1379H68.7847V31.1379ZM67.7847 29.505V32.1379H69.7847V29.505H67.7847ZM65.5594 30.505H68.7847V28.505H65.5594V30.505ZM64.5594 27.188V29.505H66.5594V27.188H64.5594ZM62.9265 28.188H65.5594V26.188H62.9265V28.188ZM63.9265 29.505V27.188H61.9265V29.505H63.9265ZM59.7012 30.505H62.9265V28.505H59.7012V30.505ZM60.7012 32.1379V29.505H58.7012V32.1379H60.7012Z" fill="#E06121" mask="url(#path-9-inside-3_1_3608)"/>
<mask id="path-11-inside-4_1_3608" fill="white">
<path fill-rule="evenodd" clip-rule="evenodd" d="M49.2412 32.467V29.1758H52.4665V26.8589H55.7577V29.1758H58.983V32.467H55.7577V34.784H52.4665V32.467H49.2412ZM52.7956 32.1379V34.4548H55.4286V32.1379H58.6539V29.505H55.4286V27.188H52.7956V29.505H49.5703V32.1379H52.7956Z"/>
</mask>
<path d="M49.2412 32.467H48.2412V33.467H49.2412V32.467ZM49.2412 29.1758V28.1758H48.2412V29.1758H49.2412ZM52.4665 29.1758V30.1758H53.4665V29.1758H52.4665ZM52.4665 26.8589V25.8589H51.4665V26.8589H52.4665ZM55.7577 26.8589H56.7577V25.8589H55.7577V26.8589ZM55.7577 29.1758H54.7577V30.1758H55.7577V29.1758ZM58.983 29.1758H59.983V28.1758H58.983V29.1758ZM58.983 32.467V33.467H59.983V32.467H58.983ZM55.7577 32.467V31.467H54.7577V32.467H55.7577ZM55.7577 34.784V35.784H56.7577V34.784H55.7577ZM52.4665 34.784H51.4665V35.784H52.4665V34.784ZM52.4665 32.467H53.4665V31.467H52.4665V32.467ZM52.7956 32.1379H53.7956V31.1379H52.7956V32.1379ZM52.7956 34.4548H51.7956V35.4548H52.7956V34.4548ZM55.4286 34.4548V35.4548H56.4286V34.4548H55.4286ZM55.4286 32.1379V31.1379H54.4286V32.1379H55.4286ZM58.6539 32.1379V33.1379H59.6539V32.1379H58.6539ZM58.6539 29.505H59.6539V28.505H58.6539V29.505ZM55.4286 29.505H54.4286V30.505H55.4286V29.505ZM55.4286 27.188H56.4286V26.188H55.4286V27.188ZM52.7956 27.188V26.188H51.7956V27.188H52.7956ZM52.7956 29.505V30.505H53.7956V29.505H52.7956ZM49.5703 29.505V28.505H48.5703V29.505H49.5703ZM49.5703 32.1379H48.5703V33.1379H49.5703V32.1379ZM48.2412 29.1758V32.467H50.2412V29.1758H48.2412ZM52.4665 28.1758H49.2412V30.1758H52.4665V28.1758ZM51.4665 26.8589V29.1758H53.4665V26.8589H51.4665ZM55.7577 25.8589H52.4665V27.8589H55.7577V25.8589ZM56.7577 29.1758V26.8589H54.7577V29.1758H56.7577ZM58.983 28.1758H55.7577V30.1758H58.983V28.1758ZM59.983 32.467V29.1758H57.983V32.467H59.983ZM55.7577 33.467H58.983V31.467H55.7577V33.467ZM56.7577 34.784V32.467H54.7577V34.784H56.7577ZM52.4665 35.784H55.7577V33.784H52.4665V35.784ZM51.4665 32.467V34.784H53.4665V32.467H51.4665ZM49.2412 33.467H52.4665V31.467H49.2412V33.467ZM52.7956 31.1379H49.5703V33.1379H52.7956V31.1379ZM53.7956 34.4548V32.1379H51.7956V34.4548H53.7956ZM55.4286 33.4548H52.7956V35.4548H55.4286V33.4548ZM54.4286 32.1379V34.4548H56.4286V32.1379H54.4286ZM58.6539 31.1379H55.4286V33.1379H58.6539V31.1379ZM57.6539 29.505V32.1379H59.6539V29.505H57.6539ZM55.4286 30.505H58.6539V28.505H55.4286V30.505ZM54.4286 27.188V29.505H56.4286V27.188H54.4286ZM52.7956 28.188H55.4286V26.188H52.7956V28.188ZM53.7956 29.505V27.188H51.7956V29.505H53.7956ZM49.5703 30.505H52.7956V28.505H49.5703V30.505ZM50.5703 32.1379V29.505H48.5703V32.1379H50.5703Z" fill="#E06121" mask="url(#path-11-inside-4_1_3608)"/>
</g>
<g filter="url(#filter5_f_1_3608)">
<path fill-rule="evenodd" clip-rule="evenodd" d="M59.3721 32.467V29.1758H62.5974V26.8589H65.8885V29.1758H69.1138V32.467H65.8885V34.784H62.5974V32.467H59.3721ZM62.9265 32.1379V34.4548H65.5594V32.1379H68.7847V29.505H65.5594V27.188H62.9265V29.505H59.7012V32.1379H62.9265Z" stroke="#E06121"/>
<path fill-rule="evenodd" clip-rule="evenodd" d="M49.2412 32.467V29.1758H52.4665V26.8589H55.7577V29.1758H58.983V32.467H55.7577V34.784H52.4665V32.467H49.2412ZM52.7956 32.1379V34.4548H55.4286V32.1379H58.6539V29.505H55.4286V27.188H52.7956V29.505H49.5703V32.1379H52.7956Z" stroke="#E06121"/>
</g>
<path fill-rule="evenodd" clip-rule="evenodd" d="M59.3721 32.467V29.1758H62.5974V26.8589H65.8885V29.1758H69.1138V32.467H65.8885V34.784H62.5974V32.467H59.3721ZM62.9265 32.1379V34.4548H65.5594V32.1379H68.7847V29.505H65.5594V27.188H62.9265V29.505H59.7012V32.1379H62.9265Z" fill="white"/>
<path fill-rule="evenodd" clip-rule="evenodd" d="M49.2412 32.467V29.1758H52.4665V26.8589H55.7577V29.1758H58.983V32.467H55.7577V34.784H52.4665V32.467H49.2412ZM52.7956 32.1379V34.4548H55.4286V32.1379H58.6539V29.505H55.4286V27.188H52.7956V29.505H49.5703V32.1379H52.7956Z" fill="white"/>
<defs>
<filter id="filter0_f_1_3608" x="0.5" y="0.5" width="60.792" height="57" filterUnits="userSpaceOnUse" color-interpolation-filters="sRGB">
<feFlood flood-opacity="0" result="BackgroundImageFix"/>
<feBlend mode="normal" in="SourceGraphic" in2="BackgroundImageFix" result="shape"/>
<feGaussianBlur stdDeviation="7.5" result="effect1_foregroundBlur_1_3608"/>
</filter>
<filter id="filter1_f_1_3608" x="6.5" y="6.5" width="48.792" height="45" filterUnits="userSpaceOnUse" color-interpolation-filters="sRGB">
<feFlood flood-opacity="0" result="BackgroundImageFix"/>
<feBlend mode="normal" in="SourceGraphic" in2="BackgroundImageFix" result="shape"/>
<feGaussianBlur stdDeviation="4.5" result="effect1_foregroundBlur_1_3608"/>
</filter>
<filter id="filter2_f_1_3608" x="11.5" y="11.5" width="38.792" height="35" filterUnits="userSpaceOnUse" color-interpolation-filters="sRGB">
<feFlood flood-opacity="0" result="BackgroundImageFix"/>
<feBlend mode="normal" in="SourceGraphic" in2="BackgroundImageFix" result="shape"/>
<feGaussianBlur stdDeviation="2" result="effect1_foregroundBlur_1_3608"/>
</filter>
<filter id="filter3_f_1_3608" x="45.2412" y="22.8589" width="27.873" height="15.9253" filterUnits="userSpaceOnUse" color-interpolation-filters="sRGB">
<feFlood flood-opacity="0" result="BackgroundImageFix"/>
<feBlend mode="normal" in="SourceGraphic" in2="BackgroundImageFix" result="shape"/>
<feGaussianBlur stdDeviation="2" result="effect1_foregroundBlur_1_3608"/>
</filter>
<filter id="filter4_f_1_3608" x="46.2412" y="23.8589" width="25.873" height="13.9253" filterUnits="userSpaceOnUse" color-interpolation-filters="sRGB">
<feFlood flood-opacity="0" result="BackgroundImageFix"/>
<feBlend mode="normal" in="SourceGraphic" in2="BackgroundImageFix" result="shape"/>
<feGaussianBlur stdDeviation="1.5" result="effect1_foregroundBlur_1_3608"/>
</filter>
<filter id="filter5_f_1_3608" x="44.7412" y="22.3589" width="28.873" height="16.9253" filterUnits="userSpaceOnUse" color-interpolation-filters="sRGB">
<feFlood flood-opacity="0" result="BackgroundImageFix"/>
<feBlend mode="normal" in="SourceGraphic" in2="BackgroundImageFix" result="shape"/>
<feGaussianBlur stdDeviation="2" result="effect1_foregroundBlur_1_3608"/>
</filter>
</defs>
</svg>
