<svg width="183" height="207" viewBox="0 0 183 207" fill="none" xmlns="http://www.w3.org/2000/svg">
<g filter="url(#filter0_f_1_1493)">
<path d="M144.712 61.7089H144.849L144.712 61.5796V60.9321V60.5L144.397 60.2039L121.094 38.2718L120.805 38H120.409H119.658L119.646 37.9884V38H43.6822C39.4394 38 36 41.4395 36 45.6822V162.818C36 167.061 39.4395 170.5 43.6822 170.5H137.029C141.272 170.5 144.712 167.061 144.712 162.818V61.7089ZM141.926 62.495V162.818C141.926 165.522 139.733 167.714 137.029 167.714H43.6822C40.9782 167.714 38.7861 165.522 38.7861 162.818V45.6822C38.7861 42.9782 40.9782 40.7861 43.6822 40.7861H118.86V54.8128C118.86 59.0556 122.299 62.495 126.542 62.495H141.926ZM121.646 54.8128V42.6172L139.806 59.7089H126.542C123.838 59.7089 121.646 57.5168 121.646 54.8128Z" stroke="#E06121" stroke-width="2" stroke-linecap="round"/>
<path d="M50.4122 138.947H62.0765C63.1029 138.947 63.9349 139.779 63.9349 140.806V152.47C63.9349 153.496 63.1029 154.328 62.0765 154.328H50.4122C49.3858 154.328 48.5537 153.496 48.5537 152.47V140.806C48.5537 139.779 49.3858 138.947 50.4122 138.947ZM50.4122 137.161C48.3993 137.161 46.7676 138.793 46.7676 140.806V152.47C46.7676 154.483 48.3993 156.115 50.4122 156.115H62.0765C64.0893 156.115 65.7211 154.483 65.7211 152.47V140.806C65.7211 138.793 64.0893 137.161 62.0765 137.161H50.4122Z" stroke="#E06121"/>
<path d="M73.0821 138.947H84.7464C85.7728 138.947 86.6048 139.779 86.6048 140.806V152.47C86.6048 153.496 85.7728 154.328 84.7464 154.328H73.0821C72.0557 154.328 71.2236 153.496 71.2236 152.47V140.806C71.2236 139.779 72.0557 138.947 73.0821 138.947ZM73.0821 137.161C71.0692 137.161 69.4375 138.793 69.4375 140.806V152.47C69.4375 154.483 71.0692 156.115 73.0821 156.115H84.7464C86.7592 156.115 88.391 154.483 88.391 152.47V140.806C88.391 138.793 86.7592 137.161 84.7464 137.161H73.0821Z" stroke="#E06121"/>
<path d="M95.752 138.947H107.416C108.443 138.947 109.275 139.779 109.275 140.806V152.47C109.275 153.496 108.443 154.328 107.416 154.328H95.752C94.7256 154.328 93.8936 153.496 93.8936 152.47V140.806C93.8936 139.779 94.7256 138.947 95.752 138.947ZM95.752 137.161C93.7392 137.161 92.1074 138.793 92.1074 140.806V152.47C92.1074 154.483 93.7392 156.115 95.752 156.115H107.416C109.429 156.115 111.061 154.483 111.061 152.47V140.806C111.061 138.793 109.429 137.161 107.416 137.161H95.752Z" stroke="#E06121"/>
<path d="M50.4122 115.363H62.0765C63.1029 115.363 63.9349 116.195 63.9349 117.221V128.886C63.9349 129.912 63.1029 130.744 62.0765 130.744H50.4122C49.3858 130.744 48.5537 129.912 48.5537 128.886V117.221C48.5537 116.195 49.3858 115.363 50.4122 115.363ZM50.4122 113.577C48.3993 113.577 46.7676 115.209 46.7676 117.221V128.886C46.7676 130.899 48.3993 132.53 50.4122 132.53H62.0765C64.0893 132.53 65.7211 130.899 65.7211 128.886V117.221C65.7211 115.209 64.0893 113.577 62.0765 113.577H50.4122Z" stroke="#E06121"/>
<path d="M73.0821 115.363H84.7464C85.7728 115.363 86.6048 116.195 86.6048 117.221V128.886C86.6048 129.912 85.7728 130.744 84.7464 130.744H73.0821C72.0557 130.744 71.2236 129.912 71.2236 128.886V117.221C71.2236 116.195 72.0557 115.363 73.0821 115.363ZM73.0821 113.577C71.0692 113.577 69.4375 115.209 69.4375 117.221V128.886C69.4375 130.899 71.0692 132.53 73.0821 132.53H84.7464C86.7592 132.53 88.391 130.899 88.391 128.886V117.221C88.391 115.209 86.7592 113.577 84.7464 113.577H73.0821Z" stroke="#E06121"/>
<path d="M50.4122 90.8646H62.0765C63.1029 90.8646 63.9349 91.6967 63.9349 92.7231V104.387C63.9349 105.414 63.1029 106.246 62.0765 106.246H50.4122C49.3858 106.246 48.5537 105.414 48.5537 104.387V92.7231C48.5537 91.6967 49.3858 90.8646 50.4122 90.8646ZM50.4122 89.0785C48.3993 89.0785 46.7676 90.7102 46.7676 92.7231V104.387C46.7676 106.4 48.3993 108.032 50.4122 108.032H62.0765C64.0893 108.032 65.7211 106.4 65.7211 104.387V92.7231C65.7211 90.7102 64.0893 89.0785 62.0765 89.0785H50.4122Z" stroke="#E06121"/>
<path d="M73.0821 90.8646H84.7464C85.7728 90.8646 86.6048 91.6967 86.6048 92.7231V104.387C86.6048 105.414 85.7728 106.246 84.7464 106.246H73.0821C72.0557 106.246 71.2236 105.414 71.2236 104.387V92.7231C71.2236 91.6967 72.0557 90.8646 73.0821 90.8646ZM73.0821 89.0785C71.0692 89.0785 69.4375 90.7102 69.4375 92.7231V104.387C69.4375 106.4 71.0692 108.032 73.0821 108.032H84.7464C86.7592 108.032 88.391 106.4 88.391 104.387V92.7231C88.391 90.7102 86.7592 89.0785 84.7464 89.0785H73.0821Z" stroke="#E06121"/>
<path d="M50.4122 67.4081H62.0765C63.1029 67.4081 63.9349 68.2401 63.9349 69.2665V80.9308C63.9349 81.9572 63.1029 82.7893 62.0765 82.7893H50.4122C49.3858 82.7893 48.5537 81.9572 48.5537 80.9308V69.2665C48.5537 68.2401 49.3858 67.4081 50.4122 67.4081ZM50.4122 65.6219C48.3993 65.6219 46.7676 67.2537 46.7676 69.2665V80.9308C46.7676 82.9437 48.3993 84.5754 50.4122 84.5754H62.0765C64.0893 84.5754 65.7211 82.9437 65.7211 80.9308V69.2665C65.7211 67.2537 64.0893 65.6219 62.0765 65.6219H50.4122Z" stroke="#E06121"/>
<path d="M95.752 115.363H107.416C108.443 115.363 109.275 116.195 109.275 117.221V128.886C109.275 129.912 108.443 130.744 107.416 130.744H95.752C94.7256 130.744 93.8936 129.912 93.8936 128.886V117.221C93.8936 116.195 94.7256 115.363 95.752 115.363ZM95.752 113.577C93.7392 113.577 92.1074 115.209 92.1074 117.221V128.886C92.1074 130.899 93.7392 132.53 95.752 132.53H107.416C109.429 132.53 111.061 130.899 111.061 128.886V117.221C111.061 115.209 109.429 113.577 107.416 113.577H95.752Z" stroke="#E06121"/>
<path d="M118.422 138.947H130.086C131.113 138.947 131.945 139.779 131.945 140.806V152.47C131.945 153.496 131.113 154.328 130.086 154.328H118.422C117.396 154.328 116.563 153.496 116.563 152.47V140.806C116.563 139.779 117.396 138.947 118.422 138.947ZM118.422 137.161C116.409 137.161 114.777 138.793 114.777 140.806V152.47C114.777 154.483 116.409 156.115 118.422 156.115H130.086C132.099 156.115 133.731 154.483 133.731 152.47V140.806C133.731 138.793 132.099 137.161 130.086 137.161H118.422Z" stroke="#E06121"/>
</g>
<g filter="url(#filter1_f_1_1493)">
<path d="M144.712 61.7089H144.849L144.712 61.5796V60.9321V60.5L144.397 60.2039L121.094 38.2718L120.805 38H120.409H119.658L119.646 37.9884V38H43.6822C39.4394 38 36 41.4395 36 45.6822V162.818C36 167.061 39.4395 170.5 43.6822 170.5H137.029C141.272 170.5 144.712 167.061 144.712 162.818V61.7089ZM141.926 62.495V162.818C141.926 165.522 139.733 167.714 137.029 167.714H43.6822C40.9782 167.714 38.7861 165.522 38.7861 162.818V45.6822C38.7861 42.9782 40.9782 40.7861 43.6822 40.7861H118.86V54.8128C118.86 59.0556 122.299 62.495 126.542 62.495H141.926ZM121.646 54.8128V42.6172L139.806 59.7089H126.542C123.838 59.7089 121.646 57.5168 121.646 54.8128Z" stroke="#E06121" stroke-width="2" stroke-linecap="round"/>
<path d="M50.4122 138.947H62.0765C63.1029 138.947 63.9349 139.779 63.9349 140.806V152.47C63.9349 153.496 63.1029 154.328 62.0765 154.328H50.4122C49.3858 154.328 48.5537 153.496 48.5537 152.47V140.806C48.5537 139.779 49.3858 138.947 50.4122 138.947ZM50.4122 137.161C48.3993 137.161 46.7676 138.793 46.7676 140.806V152.47C46.7676 154.483 48.3993 156.115 50.4122 156.115H62.0765C64.0893 156.115 65.7211 154.483 65.7211 152.47V140.806C65.7211 138.793 64.0893 137.161 62.0765 137.161H50.4122Z" stroke="#E06121"/>
<path d="M73.0821 138.947H84.7464C85.7728 138.947 86.6048 139.779 86.6048 140.806V152.47C86.6048 153.496 85.7728 154.328 84.7464 154.328H73.0821C72.0557 154.328 71.2236 153.496 71.2236 152.47V140.806C71.2236 139.779 72.0557 138.947 73.0821 138.947ZM73.0821 137.161C71.0692 137.161 69.4375 138.793 69.4375 140.806V152.47C69.4375 154.483 71.0692 156.115 73.0821 156.115H84.7464C86.7592 156.115 88.391 154.483 88.391 152.47V140.806C88.391 138.793 86.7592 137.161 84.7464 137.161H73.0821Z" stroke="#E06121"/>
<path d="M95.752 138.947H107.416C108.443 138.947 109.275 139.779 109.275 140.806V152.47C109.275 153.496 108.443 154.328 107.416 154.328H95.752C94.7256 154.328 93.8936 153.496 93.8936 152.47V140.806C93.8936 139.779 94.7256 138.947 95.752 138.947ZM95.752 137.161C93.7392 137.161 92.1074 138.793 92.1074 140.806V152.47C92.1074 154.483 93.7392 156.115 95.752 156.115H107.416C109.429 156.115 111.061 154.483 111.061 152.47V140.806C111.061 138.793 109.429 137.161 107.416 137.161H95.752Z" stroke="#E06121"/>
<path d="M50.4122 115.363H62.0765C63.1029 115.363 63.9349 116.195 63.9349 117.221V128.886C63.9349 129.912 63.1029 130.744 62.0765 130.744H50.4122C49.3858 130.744 48.5537 129.912 48.5537 128.886V117.221C48.5537 116.195 49.3858 115.363 50.4122 115.363ZM50.4122 113.577C48.3993 113.577 46.7676 115.209 46.7676 117.221V128.886C46.7676 130.899 48.3993 132.53 50.4122 132.53H62.0765C64.0893 132.53 65.7211 130.899 65.7211 128.886V117.221C65.7211 115.209 64.0893 113.577 62.0765 113.577H50.4122Z" stroke="#E06121"/>
<path d="M73.0821 115.363H84.7464C85.7728 115.363 86.6048 116.195 86.6048 117.221V128.886C86.6048 129.912 85.7728 130.744 84.7464 130.744H73.0821C72.0557 130.744 71.2236 129.912 71.2236 128.886V117.221C71.2236 116.195 72.0557 115.363 73.0821 115.363ZM73.0821 113.577C71.0692 113.577 69.4375 115.209 69.4375 117.221V128.886C69.4375 130.899 71.0692 132.53 73.0821 132.53H84.7464C86.7592 132.53 88.391 130.899 88.391 128.886V117.221C88.391 115.209 86.7592 113.577 84.7464 113.577H73.0821Z" stroke="#E06121"/>
<path d="M50.4122 90.8646H62.0765C63.1029 90.8646 63.9349 91.6967 63.9349 92.7231V104.387C63.9349 105.414 63.1029 106.246 62.0765 106.246H50.4122C49.3858 106.246 48.5537 105.414 48.5537 104.387V92.7231C48.5537 91.6967 49.3858 90.8646 50.4122 90.8646ZM50.4122 89.0785C48.3993 89.0785 46.7676 90.7102 46.7676 92.7231V104.387C46.7676 106.4 48.3993 108.032 50.4122 108.032H62.0765C64.0893 108.032 65.7211 106.4 65.7211 104.387V92.7231C65.7211 90.7102 64.0893 89.0785 62.0765 89.0785H50.4122Z" stroke="#E06121"/>
<path d="M73.0821 90.8646H84.7464C85.7728 90.8646 86.6048 91.6967 86.6048 92.7231V104.387C86.6048 105.414 85.7728 106.246 84.7464 106.246H73.0821C72.0557 106.246 71.2236 105.414 71.2236 104.387V92.7231C71.2236 91.6967 72.0557 90.8646 73.0821 90.8646ZM73.0821 89.0785C71.0692 89.0785 69.4375 90.7102 69.4375 92.7231V104.387C69.4375 106.4 71.0692 108.032 73.0821 108.032H84.7464C86.7592 108.032 88.391 106.4 88.391 104.387V92.7231C88.391 90.7102 86.7592 89.0785 84.7464 89.0785H73.0821Z" stroke="#E06121"/>
<path d="M50.4122 67.4081H62.0765C63.1029 67.4081 63.9349 68.2401 63.9349 69.2665V80.9308C63.9349 81.9572 63.1029 82.7893 62.0765 82.7893H50.4122C49.3858 82.7893 48.5537 81.9572 48.5537 80.9308V69.2665C48.5537 68.2401 49.3858 67.4081 50.4122 67.4081ZM50.4122 65.6219C48.3993 65.6219 46.7676 67.2537 46.7676 69.2665V80.9308C46.7676 82.9437 48.3993 84.5754 50.4122 84.5754H62.0765C64.0893 84.5754 65.7211 82.9437 65.7211 80.9308V69.2665C65.7211 67.2537 64.0893 65.6219 62.0765 65.6219H50.4122Z" stroke="#E06121"/>
<path d="M95.752 115.363H107.416C108.443 115.363 109.275 116.195 109.275 117.221V128.886C109.275 129.912 108.443 130.744 107.416 130.744H95.752C94.7256 130.744 93.8936 129.912 93.8936 128.886V117.221C93.8936 116.195 94.7256 115.363 95.752 115.363ZM95.752 113.577C93.7392 113.577 92.1074 115.209 92.1074 117.221V128.886C92.1074 130.899 93.7392 132.53 95.752 132.53H107.416C109.429 132.53 111.061 130.899 111.061 128.886V117.221C111.061 115.209 109.429 113.577 107.416 113.577H95.752Z" stroke="#E06121"/>
<path d="M118.422 138.947H130.086C131.113 138.947 131.945 139.779 131.945 140.806V152.47C131.945 153.496 131.113 154.328 130.086 154.328H118.422C117.396 154.328 116.563 153.496 116.563 152.47V140.806C116.563 139.779 117.396 138.947 118.422 138.947ZM118.422 137.161C116.409 137.161 114.777 138.793 114.777 140.806V152.47C114.777 154.483 116.409 156.115 118.422 156.115H130.086C132.099 156.115 133.731 154.483 133.731 152.47V140.806C133.731 138.793 132.099 137.161 130.086 137.161H118.422Z" stroke="#E06121"/>
</g>
<g filter="url(#filter2_f_1_1493)">
<path d="M144.712 61.7089H144.849L144.712 61.5796V60.9321V60.5L144.397 60.2039L121.094 38.2718L120.805 38H120.409H119.658L119.646 37.9884V38H43.6822C39.4394 38 36 41.4395 36 45.6822V162.818C36 167.061 39.4395 170.5 43.6822 170.5H137.029C141.272 170.5 144.712 167.061 144.712 162.818V61.7089ZM141.926 62.495V162.818C141.926 165.522 139.733 167.714 137.029 167.714H43.6822C40.9782 167.714 38.7861 165.522 38.7861 162.818V45.6822C38.7861 42.9782 40.9782 40.7861 43.6822 40.7861H118.86V54.8128C118.86 59.0556 122.299 62.495 126.542 62.495H141.926ZM121.646 54.8128V42.6172L139.806 59.7089H126.542C123.838 59.7089 121.646 57.5168 121.646 54.8128Z" stroke="#E06121" stroke-width="2" stroke-linecap="round"/>
<path d="M50.4122 138.947H62.0765C63.1029 138.947 63.9349 139.779 63.9349 140.806V152.47C63.9349 153.496 63.1029 154.328 62.0765 154.328H50.4122C49.3858 154.328 48.5537 153.496 48.5537 152.47V140.806C48.5537 139.779 49.3858 138.947 50.4122 138.947ZM50.4122 137.161C48.3993 137.161 46.7676 138.793 46.7676 140.806V152.47C46.7676 154.483 48.3993 156.115 50.4122 156.115H62.0765C64.0893 156.115 65.7211 154.483 65.7211 152.47V140.806C65.7211 138.793 64.0893 137.161 62.0765 137.161H50.4122Z" stroke="#E06121"/>
<path d="M73.0821 138.947H84.7464C85.7728 138.947 86.6048 139.779 86.6048 140.806V152.47C86.6048 153.496 85.7728 154.328 84.7464 154.328H73.0821C72.0557 154.328 71.2236 153.496 71.2236 152.47V140.806C71.2236 139.779 72.0557 138.947 73.0821 138.947ZM73.0821 137.161C71.0692 137.161 69.4375 138.793 69.4375 140.806V152.47C69.4375 154.483 71.0692 156.115 73.0821 156.115H84.7464C86.7592 156.115 88.391 154.483 88.391 152.47V140.806C88.391 138.793 86.7592 137.161 84.7464 137.161H73.0821Z" stroke="#E06121"/>
<path d="M95.752 138.947H107.416C108.443 138.947 109.275 139.779 109.275 140.806V152.47C109.275 153.496 108.443 154.328 107.416 154.328H95.752C94.7256 154.328 93.8936 153.496 93.8936 152.47V140.806C93.8936 139.779 94.7256 138.947 95.752 138.947ZM95.752 137.161C93.7392 137.161 92.1074 138.793 92.1074 140.806V152.47C92.1074 154.483 93.7392 156.115 95.752 156.115H107.416C109.429 156.115 111.061 154.483 111.061 152.47V140.806C111.061 138.793 109.429 137.161 107.416 137.161H95.752Z" stroke="#E06121"/>
<path d="M50.4122 115.363H62.0765C63.1029 115.363 63.9349 116.195 63.9349 117.221V128.886C63.9349 129.912 63.1029 130.744 62.0765 130.744H50.4122C49.3858 130.744 48.5537 129.912 48.5537 128.886V117.221C48.5537 116.195 49.3858 115.363 50.4122 115.363ZM50.4122 113.577C48.3993 113.577 46.7676 115.209 46.7676 117.221V128.886C46.7676 130.899 48.3993 132.53 50.4122 132.53H62.0765C64.0893 132.53 65.7211 130.899 65.7211 128.886V117.221C65.7211 115.209 64.0893 113.577 62.0765 113.577H50.4122Z" stroke="#E06121"/>
<path d="M73.0821 115.363H84.7464C85.7728 115.363 86.6048 116.195 86.6048 117.221V128.886C86.6048 129.912 85.7728 130.744 84.7464 130.744H73.0821C72.0557 130.744 71.2236 129.912 71.2236 128.886V117.221C71.2236 116.195 72.0557 115.363 73.0821 115.363ZM73.0821 113.577C71.0692 113.577 69.4375 115.209 69.4375 117.221V128.886C69.4375 130.899 71.0692 132.53 73.0821 132.53H84.7464C86.7592 132.53 88.391 130.899 88.391 128.886V117.221C88.391 115.209 86.7592 113.577 84.7464 113.577H73.0821Z" stroke="#E06121"/>
<path d="M50.4122 90.8646H62.0765C63.1029 90.8646 63.9349 91.6967 63.9349 92.7231V104.387C63.9349 105.414 63.1029 106.246 62.0765 106.246H50.4122C49.3858 106.246 48.5537 105.414 48.5537 104.387V92.7231C48.5537 91.6967 49.3858 90.8646 50.4122 90.8646ZM50.4122 89.0785C48.3993 89.0785 46.7676 90.7102 46.7676 92.7231V104.387C46.7676 106.4 48.3993 108.032 50.4122 108.032H62.0765C64.0893 108.032 65.7211 106.4 65.7211 104.387V92.7231C65.7211 90.7102 64.0893 89.0785 62.0765 89.0785H50.4122Z" stroke="#E06121"/>
<path d="M73.0821 90.8646H84.7464C85.7728 90.8646 86.6048 91.6967 86.6048 92.7231V104.387C86.6048 105.414 85.7728 106.246 84.7464 106.246H73.0821C72.0557 106.246 71.2236 105.414 71.2236 104.387V92.7231C71.2236 91.6967 72.0557 90.8646 73.0821 90.8646ZM73.0821 89.0785C71.0692 89.0785 69.4375 90.7102 69.4375 92.7231V104.387C69.4375 106.4 71.0692 108.032 73.0821 108.032H84.7464C86.7592 108.032 88.391 106.4 88.391 104.387V92.7231C88.391 90.7102 86.7592 89.0785 84.7464 89.0785H73.0821Z" stroke="#E06121"/>
<path d="M50.4122 67.4081H62.0765C63.1029 67.4081 63.9349 68.2401 63.9349 69.2665V80.9308C63.9349 81.9572 63.1029 82.7893 62.0765 82.7893H50.4122C49.3858 82.7893 48.5537 81.9572 48.5537 80.9308V69.2665C48.5537 68.2401 49.3858 67.4081 50.4122 67.4081ZM50.4122 65.6219C48.3993 65.6219 46.7676 67.2537 46.7676 69.2665V80.9308C46.7676 82.9437 48.3993 84.5754 50.4122 84.5754H62.0765C64.0893 84.5754 65.7211 82.9437 65.7211 80.9308V69.2665C65.7211 67.2537 64.0893 65.6219 62.0765 65.6219H50.4122Z" stroke="#E06121"/>
<path d="M95.752 115.363H107.416C108.443 115.363 109.275 116.195 109.275 117.221V128.886C109.275 129.912 108.443 130.744 107.416 130.744H95.752C94.7256 130.744 93.8936 129.912 93.8936 128.886V117.221C93.8936 116.195 94.7256 115.363 95.752 115.363ZM95.752 113.577C93.7392 113.577 92.1074 115.209 92.1074 117.221V128.886C92.1074 130.899 93.7392 132.53 95.752 132.53H107.416C109.429 132.53 111.061 130.899 111.061 128.886V117.221C111.061 115.209 109.429 113.577 107.416 113.577H95.752Z" stroke="#E06121"/>
<path d="M118.422 138.947H130.086C131.113 138.947 131.945 139.779 131.945 140.806V152.47C131.945 153.496 131.113 154.328 130.086 154.328H118.422C117.396 154.328 116.563 153.496 116.563 152.47V140.806C116.563 139.779 117.396 138.947 118.422 138.947ZM118.422 137.161C116.409 137.161 114.777 138.793 114.777 140.806V152.47C114.777 154.483 116.409 156.115 118.422 156.115H130.086C132.099 156.115 133.731 154.483 133.731 152.47V140.806C133.731 138.793 132.099 137.161 130.086 137.161H118.422Z" stroke="#E06121"/>
</g>
<path fill-rule="evenodd" clip-rule="evenodd" d="M43.6822 39.7861C40.4259 39.7861 37.7861 42.4259 37.7861 45.6822V162.818C37.7861 166.074 40.4259 168.714 43.6822 168.714H137.029C140.286 168.714 142.926 166.074 142.926 162.818V61.495H126.542C122.852 61.495 119.86 58.5033 119.86 54.8128V39.7861H43.6822ZM120.646 40.3028L142.327 60.7089H126.542C123.286 60.7089 120.646 58.0691 120.646 54.8128V40.3028ZM37 45.6822C37 41.9917 39.9917 39 43.6822 39H120.409L143.712 60.9321V162.818C143.712 166.508 140.72 169.5 137.029 169.5H43.6822C39.9917 169.5 37 166.508 37 162.818V45.6822Z" fill="white"/>
<path fill-rule="evenodd" clip-rule="evenodd" d="M62.0765 138.447H50.4122C49.1096 138.447 48.0537 139.503 48.0537 140.806V152.47C48.0537 153.773 49.1096 154.828 50.4122 154.828H62.0765C63.379 154.828 64.4349 153.773 64.4349 152.47V140.806C64.4349 139.503 63.379 138.447 62.0765 138.447ZM50.4122 137.661C48.6755 137.661 47.2676 139.069 47.2676 140.806V152.47C47.2676 154.207 48.6755 155.615 50.4122 155.615H62.0765C63.8132 155.615 65.2211 154.207 65.2211 152.47V140.806C65.2211 139.069 63.8132 137.661 62.0765 137.661H50.4122Z" fill="white"/>
<path fill-rule="evenodd" clip-rule="evenodd" d="M84.7464 138.447H73.0821C71.7796 138.447 70.7236 139.503 70.7236 140.806V152.47C70.7236 153.773 71.7796 154.828 73.0821 154.828H84.7464C86.0489 154.828 87.1048 153.773 87.1048 152.47V140.806C87.1048 139.503 86.0489 138.447 84.7464 138.447ZM73.0821 137.661C71.3454 137.661 69.9375 139.069 69.9375 140.806V152.47C69.9375 154.207 71.3454 155.615 73.0821 155.615H84.7464C86.4831 155.615 87.891 154.207 87.891 152.47V140.806C87.891 139.069 86.4831 137.661 84.7464 137.661H73.0821Z" fill="white"/>
<path fill-rule="evenodd" clip-rule="evenodd" d="M107.416 138.447H95.752C94.4495 138.447 93.3936 139.503 93.3936 140.806V152.47C93.3936 153.773 94.4495 154.828 95.752 154.828H107.416C108.719 154.828 109.775 153.773 109.775 152.47V140.806C109.775 139.503 108.719 138.447 107.416 138.447ZM95.752 137.661C94.0153 137.661 92.6074 139.069 92.6074 140.806V152.47C92.6074 154.207 94.0153 155.615 95.752 155.615H107.416C109.153 155.615 110.561 154.207 110.561 152.47V140.806C110.561 139.069 109.153 137.661 107.416 137.661H95.752Z" fill="white"/>
<path fill-rule="evenodd" clip-rule="evenodd" d="M62.0765 114.863H50.4122C49.1096 114.863 48.0537 115.919 48.0537 117.221V128.886C48.0537 130.188 49.1096 131.244 50.4122 131.244H62.0765C63.379 131.244 64.4349 130.188 64.4349 128.886V117.221C64.4349 115.919 63.379 114.863 62.0765 114.863ZM50.4122 114.077C48.6755 114.077 47.2676 115.485 47.2676 117.221V128.886C47.2676 130.622 48.6755 132.03 50.4122 132.03H62.0765C63.8132 132.03 65.2211 130.622 65.2211 128.886V117.221C65.2211 115.485 63.8132 114.077 62.0765 114.077H50.4122Z" fill="white"/>
<path fill-rule="evenodd" clip-rule="evenodd" d="M84.7464 114.863H73.0821C71.7796 114.863 70.7236 115.919 70.7236 117.221V128.886C70.7236 130.188 71.7796 131.244 73.0821 131.244H84.7464C86.0489 131.244 87.1048 130.188 87.1048 128.886V117.221C87.1048 115.919 86.0489 114.863 84.7464 114.863ZM73.0821 114.077C71.3454 114.077 69.9375 115.485 69.9375 117.221V128.886C69.9375 130.622 71.3454 132.03 73.0821 132.03H84.7464C86.4831 132.03 87.891 130.622 87.891 128.886V117.221C87.891 115.485 86.4831 114.077 84.7464 114.077H73.0821Z" fill="white"/>
<path fill-rule="evenodd" clip-rule="evenodd" d="M62.0765 90.3646H50.4122C49.1096 90.3646 48.0537 91.4205 48.0537 92.7231V104.387C48.0537 105.69 49.1096 106.746 50.4122 106.746H62.0765C63.379 106.746 64.4349 105.69 64.4349 104.387V92.7231C64.4349 91.4205 63.379 90.3646 62.0765 90.3646ZM50.4122 89.5785C48.6755 89.5785 47.2676 90.9864 47.2676 92.7231V104.387C47.2676 106.124 48.6755 107.532 50.4122 107.532H62.0765C63.8132 107.532 65.2211 106.124 65.2211 104.387V92.7231C65.2211 90.9864 63.8132 89.5785 62.0765 89.5785H50.4122Z" fill="white"/>
<path fill-rule="evenodd" clip-rule="evenodd" d="M84.7464 90.3646H73.0821C71.7796 90.3646 70.7236 91.4205 70.7236 92.7231V104.387C70.7236 105.69 71.7796 106.746 73.0821 106.746H84.7464C86.0489 106.746 87.1048 105.69 87.1048 104.387V92.7231C87.1048 91.4205 86.0489 90.3646 84.7464 90.3646ZM73.0821 89.5785C71.3454 89.5785 69.9375 90.9864 69.9375 92.7231V104.387C69.9375 106.124 71.3454 107.532 73.0821 107.532H84.7464C86.4831 107.532 87.891 106.124 87.891 104.387V92.7231C87.891 90.9864 86.4831 89.5785 84.7464 89.5785H73.0821Z" fill="white"/>
<path fill-rule="evenodd" clip-rule="evenodd" d="M62.0765 66.9081H50.4122C49.1096 66.9081 48.0537 67.964 48.0537 69.2665V80.9308C48.0537 82.2334 49.1096 83.2893 50.4122 83.2893H62.0765C63.379 83.2893 64.4349 82.2334 64.4349 80.9308V69.2665C64.4349 67.964 63.379 66.9081 62.0765 66.9081ZM50.4122 66.1219C48.6755 66.1219 47.2676 67.5298 47.2676 69.2665V80.9308C47.2676 82.6675 48.6755 84.0754 50.4122 84.0754H62.0765C63.8132 84.0754 65.2211 82.6675 65.2211 80.9308V69.2665C65.2211 67.5298 63.8132 66.1219 62.0765 66.1219H50.4122Z" fill="white"/>
<path fill-rule="evenodd" clip-rule="evenodd" d="M107.416 114.863H95.752C94.4495 114.863 93.3936 115.919 93.3936 117.221V128.886C93.3936 130.188 94.4495 131.244 95.752 131.244H107.416C108.719 131.244 109.775 130.188 109.775 128.886V117.221C109.775 115.919 108.719 114.863 107.416 114.863ZM95.752 114.077C94.0153 114.077 92.6074 115.485 92.6074 117.221V128.886C92.6074 130.622 94.0153 132.03 95.752 132.03H107.416C109.153 132.03 110.561 130.622 110.561 128.886V117.221C110.561 115.485 109.153 114.077 107.416 114.077H95.752Z" fill="white"/>
<path fill-rule="evenodd" clip-rule="evenodd" d="M130.086 138.447H118.422C117.119 138.447 116.063 139.503 116.063 140.806V152.47C116.063 153.773 117.119 154.828 118.422 154.828H130.086C131.389 154.828 132.445 153.773 132.445 152.47V140.806C132.445 139.503 131.389 138.447 130.086 138.447ZM118.422 137.661C116.685 137.661 115.277 139.069 115.277 140.806V152.47C115.277 154.207 116.685 155.615 118.422 155.615H130.086C131.823 155.615 133.231 154.207 133.231 152.47V140.806C133.231 139.069 131.823 137.661 130.086 137.661H118.422Z" fill="white"/>
<defs>
<filter id="filter0_f_1_1493" x="0" y="0.67395" width="182.371" height="205.826" filterUnits="userSpaceOnUse" color-interpolation-filters="sRGB">
<feFlood flood-opacity="0" result="BackgroundImageFix"/>
<feBlend mode="normal" in="SourceGraphic" in2="BackgroundImageFix" result="shape"/>
<feGaussianBlur stdDeviation="17.5" result="effect1_foregroundBlur_1_1493"/>
</filter>
<filter id="filter1_f_1_1493" x="20" y="20.674" width="142.371" height="165.826" filterUnits="userSpaceOnUse" color-interpolation-filters="sRGB">
<feFlood flood-opacity="0" result="BackgroundImageFix"/>
<feBlend mode="normal" in="SourceGraphic" in2="BackgroundImageFix" result="shape"/>
<feGaussianBlur stdDeviation="7.5" result="effect1_foregroundBlur_1_1493"/>
</filter>
<filter id="filter2_f_1_1493" x="31" y="31.674" width="120.371" height="143.826" filterUnits="userSpaceOnUse" color-interpolation-filters="sRGB">
<feFlood flood-opacity="0" result="BackgroundImageFix"/>
<feBlend mode="normal" in="SourceGraphic" in2="BackgroundImageFix" result="shape"/>
<feGaussianBlur stdDeviation="2" result="effect1_foregroundBlur_1_1493"/>
</filter>
</defs>
</svg>
