<svg width="183" height="183" viewBox="0 0 183 183" fill="none" xmlns="http://www.w3.org/2000/svg">
<g filter="url(#filter0_f_1_1437)">
<path fill-rule="evenodd" clip-rule="evenodd" d="M63.7107 31.1386C63.7982 31.0499 63.9176 31 64.0421 31H151.069C151.326 31 151.534 31.2084 151.534 31.4654V118.492C151.534 118.615 151.485 118.734 151.398 118.821L118.821 151.398C118.734 151.485 118.615 151.534 118.492 151.534H31.4654C31.2084 151.534 31 151.326 31 151.069V64.5075C31 64.3852 31.0481 64.2679 31.134 64.1808L63.7107 31.1386ZM64.2368 31.9308L32.5777 64.0421H118.297L149.956 31.9308H64.2368ZM150.603 32.6003L118.957 64.6984V149.945L150.603 118.299V32.6003ZM118.026 150.603V64.9729H31.9308V150.603H118.026Z" stroke="#E06121" stroke-width="2" stroke-linejoin="round"/>
<path fill-rule="evenodd" clip-rule="evenodd" d="M64.0436 33.7438V31.9308H64.9743V33.7438C64.9743 34.0009 64.766 34.2092 64.509 34.2092C64.2519 34.2092 64.0436 34.0009 64.0436 33.7438ZM64.509 36.9046C64.766 36.9046 64.9743 37.1129 64.9743 37.3699V40.996C64.9743 41.2531 64.766 41.4614 64.509 41.4614C64.2519 41.4614 64.0436 41.2531 64.0436 40.996V37.3699C64.0436 37.1129 64.2519 36.9046 64.509 36.9046ZM64.509 44.1568C64.766 44.1568 64.9743 44.3651 64.9743 44.6221V48.2483C64.9743 48.5053 64.766 48.7136 64.509 48.7136C64.2519 48.7136 64.0436 48.5053 64.0436 48.2483V44.6221C64.0436 44.3651 64.2519 44.1568 64.509 44.1568ZM64.509 51.409C64.766 51.409 64.9743 51.6173 64.9743 51.8744V55.5005C64.9743 55.7575 64.766 55.9658 64.509 55.9658C64.2519 55.9658 64.0436 55.7575 64.0436 55.5005V51.8744C64.0436 51.6173 64.2519 51.409 64.509 51.409ZM64.509 58.6612C64.766 58.6612 64.9743 58.8695 64.9743 59.1266V62.7527C64.9743 63.0097 64.766 63.2181 64.509 63.2181C64.2519 63.2181 64.0436 63.0097 64.0436 62.7527V59.1266C64.0436 58.8695 64.2519 58.6612 64.509 58.6612ZM64.509 65.9134C64.766 65.9134 64.9743 66.1217 64.9743 66.3788V70.0049C64.9743 70.2619 64.766 70.4703 64.509 70.4703C64.2519 70.4703 64.0436 70.2619 64.0436 70.0049V66.3788C64.0436 66.1217 64.2519 65.9134 64.509 65.9134ZM64.509 73.1656C64.766 73.1656 64.9743 73.374 64.9743 73.631V77.2571C64.9743 77.5141 64.766 77.7225 64.509 77.7225C64.2519 77.7225 64.0436 77.5141 64.0436 77.2571V73.631C64.0436 73.374 64.2519 73.1656 64.509 73.1656ZM64.509 80.4178C64.766 80.4178 64.9743 80.6262 64.9743 80.8832V84.5093C64.9743 84.7663 64.766 84.9747 64.509 84.9747C64.2519 84.9747 64.0436 84.7663 64.0436 84.5093V80.8832C64.0436 80.6262 64.2519 80.4178 64.509 80.4178ZM64.509 87.67C64.766 87.67 64.9743 87.8784 64.9743 88.1354V91.7615C64.9743 92.0185 64.766 92.2269 64.509 92.2269C64.2519 92.2269 64.0436 92.0185 64.0436 91.7615V88.1354C64.0436 87.8784 64.2519 87.67 64.509 87.67ZM64.509 94.9222C64.766 94.9222 64.9743 95.1306 64.9743 95.3876V99.0137C64.9743 99.2707 64.766 99.4791 64.509 99.4791C64.2519 99.4791 64.0436 99.2707 64.0436 99.0137V95.3876C64.0436 95.1306 64.2519 94.9222 64.509 94.9222ZM64.509 102.174C64.766 102.174 64.9743 102.383 64.9743 102.64V106.266C64.9743 106.523 64.766 106.731 64.509 106.731C64.2519 106.731 64.0436 106.523 64.0436 106.266V102.64C64.0436 102.383 64.2519 102.174 64.509 102.174ZM64.509 109.427C64.766 109.427 64.9743 109.635 64.9743 109.892V113.518C64.9743 113.775 64.766 113.984 64.509 113.984C64.2519 113.984 64.0436 113.775 64.0436 113.518V109.892C64.0436 109.635 64.2519 109.427 64.509 109.427ZM64.509 116.679C64.766 116.679 64.9743 116.887 64.9743 117.144V118.492H66.3317C66.5887 118.492 66.7971 118.7 66.7971 118.957C66.7971 119.214 66.5887 119.423 66.3317 119.423H64.7037L63.5218 120.622C63.3414 120.805 63.0468 120.807 62.8637 120.627C62.6806 120.446 62.6785 120.152 62.8589 119.969L64.0436 118.766V117.144C64.0436 116.887 64.2519 116.679 64.509 116.679ZM69.5118 118.957C69.5118 118.7 69.7202 118.492 69.9772 118.492H73.6227C73.8797 118.492 74.0881 118.7 74.0881 118.957C74.0881 119.214 73.8797 119.423 73.6227 119.423H69.9772C69.7202 119.423 69.5118 119.214 69.5118 118.957ZM76.8028 118.957C76.8028 118.7 77.0112 118.492 77.2682 118.492H80.9137C81.1707 118.492 81.3791 118.7 81.3791 118.957C81.3791 119.214 81.1707 119.423 80.9137 119.423H77.2682C77.0112 119.423 76.8028 119.214 76.8028 118.957ZM84.0938 118.957C84.0938 118.7 84.3022 118.492 84.5592 118.492H88.2047C88.4617 118.492 88.6701 118.7 88.6701 118.957C88.6701 119.214 88.4617 119.423 88.2047 119.423H84.5592C84.3022 119.423 84.0938 119.214 84.0938 118.957ZM91.3848 118.957C91.3848 118.7 91.5931 118.492 91.8502 118.492H95.4957C95.7527 118.492 95.961 118.7 95.961 118.957C95.961 119.214 95.7527 119.423 95.4957 119.423H91.8502C91.5931 119.423 91.3848 119.214 91.3848 118.957ZM98.6758 118.957C98.6758 118.7 98.8841 118.492 99.1412 118.492H102.787C103.044 118.492 103.252 118.7 103.252 118.957C103.252 119.214 103.044 119.423 102.787 119.423H99.1412C98.8841 119.423 98.6758 119.214 98.6758 118.957ZM105.967 118.957C105.967 118.7 106.175 118.492 106.432 118.492H110.078C110.335 118.492 110.543 118.7 110.543 118.957C110.543 119.214 110.335 119.423 110.078 119.423H106.432C106.175 119.423 105.967 119.214 105.967 118.957ZM113.258 118.957C113.258 118.7 113.466 118.492 113.723 118.492H117.369C117.626 118.492 117.834 118.7 117.834 118.957C117.834 119.214 117.626 119.423 117.369 119.423H113.723C113.466 119.423 113.258 119.214 113.258 118.957ZM120.549 118.957C120.549 118.7 120.757 118.492 121.014 118.492H124.66C124.917 118.492 125.125 118.7 125.125 118.957C125.125 119.214 124.917 119.423 124.66 119.423H121.014C120.757 119.423 120.549 119.214 120.549 118.957ZM127.84 118.957C127.84 118.7 128.048 118.492 128.305 118.492H131.951C132.208 118.492 132.416 118.7 132.416 118.957C132.416 119.214 132.208 119.423 131.951 119.423H128.305C128.048 119.423 127.84 119.214 127.84 118.957ZM135.131 118.957C135.131 118.7 135.339 118.492 135.596 118.492H139.242C139.499 118.492 139.707 118.7 139.707 118.957C139.707 119.214 139.499 119.423 139.242 119.423H135.596C135.339 119.423 135.131 119.214 135.131 118.957ZM142.422 118.957C142.422 118.7 142.63 118.492 142.887 118.492H146.533C146.79 118.492 146.998 118.7 146.998 118.957C146.998 119.214 146.79 119.423 146.533 119.423H142.887C142.63 119.423 142.422 119.214 142.422 118.957ZM149.713 118.957C149.713 118.7 149.921 118.492 150.178 118.492H152.001V119.423H150.178C149.921 119.423 149.713 119.214 149.713 118.957ZM60.8799 122.64C61.0629 122.82 61.0651 123.115 60.8847 123.298L58.2475 125.974C58.0671 126.157 57.7724 126.159 57.5894 125.979C57.4063 125.798 57.4042 125.504 57.5846 125.32L60.2217 122.645C60.4022 122.461 60.6968 122.459 60.8799 122.64ZM55.6055 127.992C55.7886 128.172 55.7908 128.467 55.6103 128.65L52.9732 131.326C52.7928 131.509 52.4981 131.511 52.315 131.331C52.132 131.15 52.1298 130.855 52.3102 130.672L54.9474 127.996C55.1278 127.813 55.4225 127.811 55.6055 127.992ZM50.3312 133.344C50.5143 133.524 50.5164 133.819 50.336 134.002L47.6988 136.678C47.5184 136.861 47.2238 136.863 47.0407 136.682C46.8576 136.502 46.8555 136.207 47.0359 136.024L49.6731 133.348C49.8535 133.165 50.1481 133.163 50.3312 133.344ZM45.0569 138.695C45.2399 138.876 45.2421 139.17 45.0617 139.354L42.4245 142.029C42.2441 142.213 41.9494 142.215 41.7664 142.034C41.5833 141.854 41.5812 141.559 41.7616 141.376L44.3987 138.7C44.5792 138.517 44.8738 138.515 45.0569 138.695ZM39.7825 144.047C39.9656 144.228 39.9678 144.522 39.7873 144.705L37.1502 147.381C36.9698 147.564 36.6751 147.567 36.492 147.386C36.309 147.206 36.3068 146.911 36.4872 146.728L39.1244 144.052C39.3048 143.869 39.5995 143.867 39.7825 144.047ZM34.5082 149.399C34.6913 149.58 34.6934 149.874 34.513 150.057L33.1944 151.395L32.5315 150.742L33.8501 149.404C34.0305 149.221 34.3251 149.219 34.5082 149.399Z" stroke="#E06121" stroke-width="2" stroke-linecap="round" stroke-linejoin="round" stroke-dasharray="4 4"/>
</g>
<g filter="url(#filter1_f_1_1437)">
<path fill-rule="evenodd" clip-rule="evenodd" d="M63.7107 31.1386C63.7982 31.0499 63.9176 31 64.0421 31H151.069C151.326 31 151.534 31.2084 151.534 31.4654V118.492C151.534 118.615 151.485 118.734 151.398 118.821L118.821 151.398C118.734 151.485 118.615 151.534 118.492 151.534H31.4654C31.2084 151.534 31 151.326 31 151.069V64.5075C31 64.3852 31.0481 64.2679 31.134 64.1808L63.7107 31.1386ZM64.2368 31.9308L32.5777 64.0421H118.297L149.956 31.9308H64.2368ZM150.603 32.6003L118.957 64.6984V149.945L150.603 118.299V32.6003ZM118.026 150.603V64.9729H31.9308V150.603H118.026Z" stroke="#E06121" stroke-width="2" stroke-linejoin="round"/>
<path fill-rule="evenodd" clip-rule="evenodd" d="M64.0436 33.7438V31.9308H64.9743V33.7438C64.9743 34.0009 64.766 34.2092 64.509 34.2092C64.2519 34.2092 64.0436 34.0009 64.0436 33.7438ZM64.509 36.9046C64.766 36.9046 64.9743 37.1129 64.9743 37.3699V40.996C64.9743 41.2531 64.766 41.4614 64.509 41.4614C64.2519 41.4614 64.0436 41.2531 64.0436 40.996V37.3699C64.0436 37.1129 64.2519 36.9046 64.509 36.9046ZM64.509 44.1568C64.766 44.1568 64.9743 44.3651 64.9743 44.6221V48.2483C64.9743 48.5053 64.766 48.7136 64.509 48.7136C64.2519 48.7136 64.0436 48.5053 64.0436 48.2483V44.6221C64.0436 44.3651 64.2519 44.1568 64.509 44.1568ZM64.509 51.409C64.766 51.409 64.9743 51.6173 64.9743 51.8744V55.5005C64.9743 55.7575 64.766 55.9658 64.509 55.9658C64.2519 55.9658 64.0436 55.7575 64.0436 55.5005V51.8744C64.0436 51.6173 64.2519 51.409 64.509 51.409ZM64.509 58.6612C64.766 58.6612 64.9743 58.8695 64.9743 59.1266V62.7527C64.9743 63.0097 64.766 63.2181 64.509 63.2181C64.2519 63.2181 64.0436 63.0097 64.0436 62.7527V59.1266C64.0436 58.8695 64.2519 58.6612 64.509 58.6612ZM64.509 65.9134C64.766 65.9134 64.9743 66.1217 64.9743 66.3788V70.0049C64.9743 70.2619 64.766 70.4703 64.509 70.4703C64.2519 70.4703 64.0436 70.2619 64.0436 70.0049V66.3788C64.0436 66.1217 64.2519 65.9134 64.509 65.9134ZM64.509 73.1656C64.766 73.1656 64.9743 73.374 64.9743 73.631V77.2571C64.9743 77.5141 64.766 77.7225 64.509 77.7225C64.2519 77.7225 64.0436 77.5141 64.0436 77.2571V73.631C64.0436 73.374 64.2519 73.1656 64.509 73.1656ZM64.509 80.4178C64.766 80.4178 64.9743 80.6262 64.9743 80.8832V84.5093C64.9743 84.7663 64.766 84.9747 64.509 84.9747C64.2519 84.9747 64.0436 84.7663 64.0436 84.5093V80.8832C64.0436 80.6262 64.2519 80.4178 64.509 80.4178ZM64.509 87.67C64.766 87.67 64.9743 87.8784 64.9743 88.1354V91.7615C64.9743 92.0185 64.766 92.2269 64.509 92.2269C64.2519 92.2269 64.0436 92.0185 64.0436 91.7615V88.1354C64.0436 87.8784 64.2519 87.67 64.509 87.67ZM64.509 94.9222C64.766 94.9222 64.9743 95.1306 64.9743 95.3876V99.0137C64.9743 99.2707 64.766 99.4791 64.509 99.4791C64.2519 99.4791 64.0436 99.2707 64.0436 99.0137V95.3876C64.0436 95.1306 64.2519 94.9222 64.509 94.9222ZM64.509 102.174C64.766 102.174 64.9743 102.383 64.9743 102.64V106.266C64.9743 106.523 64.766 106.731 64.509 106.731C64.2519 106.731 64.0436 106.523 64.0436 106.266V102.64C64.0436 102.383 64.2519 102.174 64.509 102.174ZM64.509 109.427C64.766 109.427 64.9743 109.635 64.9743 109.892V113.518C64.9743 113.775 64.766 113.984 64.509 113.984C64.2519 113.984 64.0436 113.775 64.0436 113.518V109.892C64.0436 109.635 64.2519 109.427 64.509 109.427ZM64.509 116.679C64.766 116.679 64.9743 116.887 64.9743 117.144V118.492H66.3317C66.5887 118.492 66.7971 118.7 66.7971 118.957C66.7971 119.214 66.5887 119.423 66.3317 119.423H64.7037L63.5218 120.622C63.3414 120.805 63.0468 120.807 62.8637 120.627C62.6806 120.446 62.6785 120.152 62.8589 119.969L64.0436 118.766V117.144C64.0436 116.887 64.2519 116.679 64.509 116.679ZM69.5118 118.957C69.5118 118.7 69.7202 118.492 69.9772 118.492H73.6227C73.8797 118.492 74.0881 118.7 74.0881 118.957C74.0881 119.214 73.8797 119.423 73.6227 119.423H69.9772C69.7202 119.423 69.5118 119.214 69.5118 118.957ZM76.8028 118.957C76.8028 118.7 77.0112 118.492 77.2682 118.492H80.9137C81.1707 118.492 81.3791 118.7 81.3791 118.957C81.3791 119.214 81.1707 119.423 80.9137 119.423H77.2682C77.0112 119.423 76.8028 119.214 76.8028 118.957ZM84.0938 118.957C84.0938 118.7 84.3022 118.492 84.5592 118.492H88.2047C88.4617 118.492 88.6701 118.7 88.6701 118.957C88.6701 119.214 88.4617 119.423 88.2047 119.423H84.5592C84.3022 119.423 84.0938 119.214 84.0938 118.957ZM91.3848 118.957C91.3848 118.7 91.5931 118.492 91.8502 118.492H95.4957C95.7527 118.492 95.961 118.7 95.961 118.957C95.961 119.214 95.7527 119.423 95.4957 119.423H91.8502C91.5931 119.423 91.3848 119.214 91.3848 118.957ZM98.6758 118.957C98.6758 118.7 98.8841 118.492 99.1412 118.492H102.787C103.044 118.492 103.252 118.7 103.252 118.957C103.252 119.214 103.044 119.423 102.787 119.423H99.1412C98.8841 119.423 98.6758 119.214 98.6758 118.957ZM105.967 118.957C105.967 118.7 106.175 118.492 106.432 118.492H110.078C110.335 118.492 110.543 118.7 110.543 118.957C110.543 119.214 110.335 119.423 110.078 119.423H106.432C106.175 119.423 105.967 119.214 105.967 118.957ZM113.258 118.957C113.258 118.7 113.466 118.492 113.723 118.492H117.369C117.626 118.492 117.834 118.7 117.834 118.957C117.834 119.214 117.626 119.423 117.369 119.423H113.723C113.466 119.423 113.258 119.214 113.258 118.957ZM120.549 118.957C120.549 118.7 120.757 118.492 121.014 118.492H124.66C124.917 118.492 125.125 118.7 125.125 118.957C125.125 119.214 124.917 119.423 124.66 119.423H121.014C120.757 119.423 120.549 119.214 120.549 118.957ZM127.84 118.957C127.84 118.7 128.048 118.492 128.305 118.492H131.951C132.208 118.492 132.416 118.7 132.416 118.957C132.416 119.214 132.208 119.423 131.951 119.423H128.305C128.048 119.423 127.84 119.214 127.84 118.957ZM135.131 118.957C135.131 118.7 135.339 118.492 135.596 118.492H139.242C139.499 118.492 139.707 118.7 139.707 118.957C139.707 119.214 139.499 119.423 139.242 119.423H135.596C135.339 119.423 135.131 119.214 135.131 118.957ZM142.422 118.957C142.422 118.7 142.63 118.492 142.887 118.492H146.533C146.79 118.492 146.998 118.7 146.998 118.957C146.998 119.214 146.79 119.423 146.533 119.423H142.887C142.63 119.423 142.422 119.214 142.422 118.957ZM149.713 118.957C149.713 118.7 149.921 118.492 150.178 118.492H152.001V119.423H150.178C149.921 119.423 149.713 119.214 149.713 118.957ZM60.8799 122.64C61.0629 122.82 61.0651 123.115 60.8847 123.298L58.2475 125.974C58.0671 126.157 57.7724 126.159 57.5894 125.979C57.4063 125.798 57.4042 125.504 57.5846 125.32L60.2217 122.645C60.4022 122.461 60.6968 122.459 60.8799 122.64ZM55.6055 127.992C55.7886 128.172 55.7908 128.467 55.6103 128.65L52.9732 131.326C52.7928 131.509 52.4981 131.511 52.315 131.331C52.132 131.15 52.1298 130.855 52.3102 130.672L54.9474 127.996C55.1278 127.813 55.4225 127.811 55.6055 127.992ZM50.3312 133.344C50.5143 133.524 50.5164 133.819 50.336 134.002L47.6988 136.678C47.5184 136.861 47.2238 136.863 47.0407 136.682C46.8576 136.502 46.8555 136.207 47.0359 136.024L49.6731 133.348C49.8535 133.165 50.1481 133.163 50.3312 133.344ZM45.0569 138.695C45.2399 138.876 45.2421 139.17 45.0617 139.354L42.4245 142.029C42.2441 142.213 41.9494 142.215 41.7664 142.034C41.5833 141.854 41.5812 141.559 41.7616 141.376L44.3987 138.7C44.5792 138.517 44.8738 138.515 45.0569 138.695ZM39.7825 144.047C39.9656 144.228 39.9678 144.522 39.7873 144.705L37.1502 147.381C36.9698 147.564 36.6751 147.567 36.492 147.386C36.309 147.206 36.3068 146.911 36.4872 146.728L39.1244 144.052C39.3048 143.869 39.5995 143.867 39.7825 144.047ZM34.5082 149.399C34.6913 149.58 34.6934 149.874 34.513 150.057L33.1944 151.395L32.5315 150.742L33.8501 149.404C34.0305 149.221 34.3251 149.219 34.5082 149.399Z" stroke="#E06121" stroke-width="2" stroke-linecap="round" stroke-linejoin="round" stroke-dasharray="4 4"/>
</g>
<g filter="url(#filter2_f_1_1437)">
<path fill-rule="evenodd" clip-rule="evenodd" d="M63.7107 31.1386C63.7982 31.0499 63.9176 31 64.0421 31H151.069C151.326 31 151.534 31.2084 151.534 31.4654V118.492C151.534 118.615 151.485 118.734 151.398 118.821L118.821 151.398C118.734 151.485 118.615 151.534 118.492 151.534H31.4654C31.2084 151.534 31 151.326 31 151.069V64.5075C31 64.3852 31.0481 64.2679 31.134 64.1808L63.7107 31.1386ZM64.2368 31.9308L32.5777 64.0421H118.297L149.956 31.9308H64.2368ZM150.603 32.6003L118.957 64.6984V149.945L150.603 118.299V32.6003ZM118.026 150.603V64.9729H31.9308V150.603H118.026Z" stroke="#E06121" stroke-width="2" stroke-linejoin="round"/>
<path fill-rule="evenodd" clip-rule="evenodd" d="M64.0436 33.7438V31.9308H64.9743V33.7438C64.9743 34.0009 64.766 34.2092 64.509 34.2092C64.2519 34.2092 64.0436 34.0009 64.0436 33.7438ZM64.509 36.9046C64.766 36.9046 64.9743 37.1129 64.9743 37.3699V40.996C64.9743 41.2531 64.766 41.4614 64.509 41.4614C64.2519 41.4614 64.0436 41.2531 64.0436 40.996V37.3699C64.0436 37.1129 64.2519 36.9046 64.509 36.9046ZM64.509 44.1568C64.766 44.1568 64.9743 44.3651 64.9743 44.6221V48.2483C64.9743 48.5053 64.766 48.7136 64.509 48.7136C64.2519 48.7136 64.0436 48.5053 64.0436 48.2483V44.6221C64.0436 44.3651 64.2519 44.1568 64.509 44.1568ZM64.509 51.409C64.766 51.409 64.9743 51.6173 64.9743 51.8744V55.5005C64.9743 55.7575 64.766 55.9658 64.509 55.9658C64.2519 55.9658 64.0436 55.7575 64.0436 55.5005V51.8744C64.0436 51.6173 64.2519 51.409 64.509 51.409ZM64.509 58.6612C64.766 58.6612 64.9743 58.8695 64.9743 59.1266V62.7527C64.9743 63.0097 64.766 63.2181 64.509 63.2181C64.2519 63.2181 64.0436 63.0097 64.0436 62.7527V59.1266C64.0436 58.8695 64.2519 58.6612 64.509 58.6612ZM64.509 65.9134C64.766 65.9134 64.9743 66.1217 64.9743 66.3788V70.0049C64.9743 70.2619 64.766 70.4703 64.509 70.4703C64.2519 70.4703 64.0436 70.2619 64.0436 70.0049V66.3788C64.0436 66.1217 64.2519 65.9134 64.509 65.9134ZM64.509 73.1656C64.766 73.1656 64.9743 73.374 64.9743 73.631V77.2571C64.9743 77.5141 64.766 77.7225 64.509 77.7225C64.2519 77.7225 64.0436 77.5141 64.0436 77.2571V73.631C64.0436 73.374 64.2519 73.1656 64.509 73.1656ZM64.509 80.4178C64.766 80.4178 64.9743 80.6262 64.9743 80.8832V84.5093C64.9743 84.7663 64.766 84.9747 64.509 84.9747C64.2519 84.9747 64.0436 84.7663 64.0436 84.5093V80.8832C64.0436 80.6262 64.2519 80.4178 64.509 80.4178ZM64.509 87.67C64.766 87.67 64.9743 87.8784 64.9743 88.1354V91.7615C64.9743 92.0185 64.766 92.2269 64.509 92.2269C64.2519 92.2269 64.0436 92.0185 64.0436 91.7615V88.1354C64.0436 87.8784 64.2519 87.67 64.509 87.67ZM64.509 94.9222C64.766 94.9222 64.9743 95.1306 64.9743 95.3876V99.0137C64.9743 99.2707 64.766 99.4791 64.509 99.4791C64.2519 99.4791 64.0436 99.2707 64.0436 99.0137V95.3876C64.0436 95.1306 64.2519 94.9222 64.509 94.9222ZM64.509 102.174C64.766 102.174 64.9743 102.383 64.9743 102.64V106.266C64.9743 106.523 64.766 106.731 64.509 106.731C64.2519 106.731 64.0436 106.523 64.0436 106.266V102.64C64.0436 102.383 64.2519 102.174 64.509 102.174ZM64.509 109.427C64.766 109.427 64.9743 109.635 64.9743 109.892V113.518C64.9743 113.775 64.766 113.984 64.509 113.984C64.2519 113.984 64.0436 113.775 64.0436 113.518V109.892C64.0436 109.635 64.2519 109.427 64.509 109.427ZM64.509 116.679C64.766 116.679 64.9743 116.887 64.9743 117.144V118.492H66.3317C66.5887 118.492 66.7971 118.7 66.7971 118.957C66.7971 119.214 66.5887 119.423 66.3317 119.423H64.7037L63.5218 120.622C63.3414 120.805 63.0468 120.807 62.8637 120.627C62.6806 120.446 62.6785 120.152 62.8589 119.969L64.0436 118.766V117.144C64.0436 116.887 64.2519 116.679 64.509 116.679ZM69.5118 118.957C69.5118 118.7 69.7202 118.492 69.9772 118.492H73.6227C73.8797 118.492 74.0881 118.7 74.0881 118.957C74.0881 119.214 73.8797 119.423 73.6227 119.423H69.9772C69.7202 119.423 69.5118 119.214 69.5118 118.957ZM76.8028 118.957C76.8028 118.7 77.0112 118.492 77.2682 118.492H80.9137C81.1707 118.492 81.3791 118.7 81.3791 118.957C81.3791 119.214 81.1707 119.423 80.9137 119.423H77.2682C77.0112 119.423 76.8028 119.214 76.8028 118.957ZM84.0938 118.957C84.0938 118.7 84.3022 118.492 84.5592 118.492H88.2047C88.4617 118.492 88.6701 118.7 88.6701 118.957C88.6701 119.214 88.4617 119.423 88.2047 119.423H84.5592C84.3022 119.423 84.0938 119.214 84.0938 118.957ZM91.3848 118.957C91.3848 118.7 91.5931 118.492 91.8502 118.492H95.4957C95.7527 118.492 95.961 118.7 95.961 118.957C95.961 119.214 95.7527 119.423 95.4957 119.423H91.8502C91.5931 119.423 91.3848 119.214 91.3848 118.957ZM98.6758 118.957C98.6758 118.7 98.8841 118.492 99.1412 118.492H102.787C103.044 118.492 103.252 118.7 103.252 118.957C103.252 119.214 103.044 119.423 102.787 119.423H99.1412C98.8841 119.423 98.6758 119.214 98.6758 118.957ZM105.967 118.957C105.967 118.7 106.175 118.492 106.432 118.492H110.078C110.335 118.492 110.543 118.7 110.543 118.957C110.543 119.214 110.335 119.423 110.078 119.423H106.432C106.175 119.423 105.967 119.214 105.967 118.957ZM113.258 118.957C113.258 118.7 113.466 118.492 113.723 118.492H117.369C117.626 118.492 117.834 118.7 117.834 118.957C117.834 119.214 117.626 119.423 117.369 119.423H113.723C113.466 119.423 113.258 119.214 113.258 118.957ZM120.549 118.957C120.549 118.7 120.757 118.492 121.014 118.492H124.66C124.917 118.492 125.125 118.7 125.125 118.957C125.125 119.214 124.917 119.423 124.66 119.423H121.014C120.757 119.423 120.549 119.214 120.549 118.957ZM127.84 118.957C127.84 118.7 128.048 118.492 128.305 118.492H131.951C132.208 118.492 132.416 118.7 132.416 118.957C132.416 119.214 132.208 119.423 131.951 119.423H128.305C128.048 119.423 127.84 119.214 127.84 118.957ZM135.131 118.957C135.131 118.7 135.339 118.492 135.596 118.492H139.242C139.499 118.492 139.707 118.7 139.707 118.957C139.707 119.214 139.499 119.423 139.242 119.423H135.596C135.339 119.423 135.131 119.214 135.131 118.957ZM142.422 118.957C142.422 118.7 142.63 118.492 142.887 118.492H146.533C146.79 118.492 146.998 118.7 146.998 118.957C146.998 119.214 146.79 119.423 146.533 119.423H142.887C142.63 119.423 142.422 119.214 142.422 118.957ZM149.713 118.957C149.713 118.7 149.921 118.492 150.178 118.492H152.001V119.423H150.178C149.921 119.423 149.713 119.214 149.713 118.957ZM60.8799 122.64C61.0629 122.82 61.0651 123.115 60.8847 123.298L58.2475 125.974C58.0671 126.157 57.7724 126.159 57.5894 125.979C57.4063 125.798 57.4042 125.504 57.5846 125.32L60.2217 122.645C60.4022 122.461 60.6968 122.459 60.8799 122.64ZM55.6055 127.992C55.7886 128.172 55.7908 128.467 55.6103 128.65L52.9732 131.326C52.7928 131.509 52.4981 131.511 52.315 131.331C52.132 131.15 52.1298 130.855 52.3102 130.672L54.9474 127.996C55.1278 127.813 55.4225 127.811 55.6055 127.992ZM50.3312 133.344C50.5143 133.524 50.5164 133.819 50.336 134.002L47.6988 136.678C47.5184 136.861 47.2238 136.863 47.0407 136.682C46.8576 136.502 46.8555 136.207 47.0359 136.024L49.6731 133.348C49.8535 133.165 50.1481 133.163 50.3312 133.344ZM45.0569 138.695C45.2399 138.876 45.2421 139.17 45.0617 139.354L42.4245 142.029C42.2441 142.213 41.9494 142.215 41.7664 142.034C41.5833 141.854 41.5812 141.559 41.7616 141.376L44.3987 138.7C44.5792 138.517 44.8738 138.515 45.0569 138.695ZM39.7825 144.047C39.9656 144.228 39.9678 144.522 39.7873 144.705L37.1502 147.381C36.9698 147.564 36.6751 147.567 36.492 147.386C36.309 147.206 36.3068 146.911 36.4872 146.728L39.1244 144.052C39.3048 143.869 39.5995 143.867 39.7825 144.047ZM34.5082 149.399C34.6913 149.58 34.6934 149.874 34.513 150.057L33.1944 151.395L32.5315 150.742L33.8501 149.404C34.0305 149.221 34.3251 149.219 34.5082 149.399Z" stroke="#E06121" stroke-width="2" stroke-linecap="round" stroke-linejoin="round" stroke-dasharray="4 4"/>
</g>
<path fill-rule="evenodd" clip-rule="evenodd" d="M63.7107 31.1386C63.7982 31.0499 63.9176 31 64.0421 31H151.069C151.326 31 151.534 31.2084 151.534 31.4654V118.492C151.534 118.615 151.485 118.734 151.398 118.821L118.821 151.398C118.734 151.485 118.615 151.534 118.492 151.534H31.4654C31.2084 151.534 31 151.326 31 151.069V64.5075C31 64.3852 31.0481 64.2679 31.134 64.1808L63.7107 31.1386ZM64.2368 31.9308L32.5777 64.0421H118.297L149.956 31.9308H64.2368ZM150.603 32.6003L118.957 64.6984V149.945L150.603 118.299V32.6003ZM118.026 150.603V64.9729H31.9308V150.603H118.026Z" fill="white"/>
<path fill-rule="evenodd" clip-rule="evenodd" d="M64.0436 33.7438V31.9308H64.9743V33.7438C64.9743 34.0009 64.766 34.2092 64.509 34.2092C64.2519 34.2092 64.0436 34.0009 64.0436 33.7438ZM64.509 36.9046C64.766 36.9046 64.9743 37.1129 64.9743 37.3699V40.996C64.9743 41.2531 64.766 41.4614 64.509 41.4614C64.2519 41.4614 64.0436 41.2531 64.0436 40.996V37.3699C64.0436 37.1129 64.2519 36.9046 64.509 36.9046ZM64.509 44.1568C64.766 44.1568 64.9743 44.3651 64.9743 44.6221V48.2483C64.9743 48.5053 64.766 48.7136 64.509 48.7136C64.2519 48.7136 64.0436 48.5053 64.0436 48.2483V44.6221C64.0436 44.3651 64.2519 44.1568 64.509 44.1568ZM64.509 51.409C64.766 51.409 64.9743 51.6173 64.9743 51.8744V55.5005C64.9743 55.7575 64.766 55.9658 64.509 55.9658C64.2519 55.9658 64.0436 55.7575 64.0436 55.5005V51.8744C64.0436 51.6173 64.2519 51.409 64.509 51.409ZM64.509 58.6612C64.766 58.6612 64.9743 58.8695 64.9743 59.1266V62.7527C64.9743 63.0097 64.766 63.2181 64.509 63.2181C64.2519 63.2181 64.0436 63.0097 64.0436 62.7527V59.1266C64.0436 58.8695 64.2519 58.6612 64.509 58.6612ZM64.509 65.9134C64.766 65.9134 64.9743 66.1217 64.9743 66.3788V70.0049C64.9743 70.2619 64.766 70.4703 64.509 70.4703C64.2519 70.4703 64.0436 70.2619 64.0436 70.0049V66.3788C64.0436 66.1217 64.2519 65.9134 64.509 65.9134ZM64.509 73.1656C64.766 73.1656 64.9743 73.374 64.9743 73.631V77.2571C64.9743 77.5141 64.766 77.7225 64.509 77.7225C64.2519 77.7225 64.0436 77.5141 64.0436 77.2571V73.631C64.0436 73.374 64.2519 73.1656 64.509 73.1656ZM64.509 80.4178C64.766 80.4178 64.9743 80.6262 64.9743 80.8832V84.5093C64.9743 84.7663 64.766 84.9747 64.509 84.9747C64.2519 84.9747 64.0436 84.7663 64.0436 84.5093V80.8832C64.0436 80.6262 64.2519 80.4178 64.509 80.4178ZM64.509 87.67C64.766 87.67 64.9743 87.8784 64.9743 88.1354V91.7615C64.9743 92.0185 64.766 92.2269 64.509 92.2269C64.2519 92.2269 64.0436 92.0185 64.0436 91.7615V88.1354C64.0436 87.8784 64.2519 87.67 64.509 87.67ZM64.509 94.9222C64.766 94.9222 64.9743 95.1306 64.9743 95.3876V99.0137C64.9743 99.2707 64.766 99.4791 64.509 99.4791C64.2519 99.4791 64.0436 99.2707 64.0436 99.0137V95.3876C64.0436 95.1306 64.2519 94.9222 64.509 94.9222ZM64.509 102.174C64.766 102.174 64.9743 102.383 64.9743 102.64V106.266C64.9743 106.523 64.766 106.731 64.509 106.731C64.2519 106.731 64.0436 106.523 64.0436 106.266V102.64C64.0436 102.383 64.2519 102.174 64.509 102.174ZM64.509 109.427C64.766 109.427 64.9743 109.635 64.9743 109.892V113.518C64.9743 113.775 64.766 113.984 64.509 113.984C64.2519 113.984 64.0436 113.775 64.0436 113.518V109.892C64.0436 109.635 64.2519 109.427 64.509 109.427ZM64.509 116.679C64.766 116.679 64.9743 116.887 64.9743 117.144V118.492H66.3317C66.5887 118.492 66.7971 118.7 66.7971 118.957C66.7971 119.214 66.5887 119.423 66.3317 119.423H64.7037L63.5218 120.622C63.3414 120.805 63.0468 120.807 62.8637 120.627C62.6806 120.446 62.6785 120.152 62.8589 119.969L64.0436 118.766V117.144C64.0436 116.887 64.2519 116.679 64.509 116.679ZM69.5118 118.957C69.5118 118.7 69.7202 118.492 69.9772 118.492H73.6227C73.8797 118.492 74.0881 118.7 74.0881 118.957C74.0881 119.214 73.8797 119.423 73.6227 119.423H69.9772C69.7202 119.423 69.5118 119.214 69.5118 118.957ZM76.8028 118.957C76.8028 118.7 77.0112 118.492 77.2682 118.492H80.9137C81.1707 118.492 81.3791 118.7 81.3791 118.957C81.3791 119.214 81.1707 119.423 80.9137 119.423H77.2682C77.0112 119.423 76.8028 119.214 76.8028 118.957ZM84.0938 118.957C84.0938 118.7 84.3022 118.492 84.5592 118.492H88.2047C88.4617 118.492 88.6701 118.7 88.6701 118.957C88.6701 119.214 88.4617 119.423 88.2047 119.423H84.5592C84.3022 119.423 84.0938 119.214 84.0938 118.957ZM91.3848 118.957C91.3848 118.7 91.5931 118.492 91.8502 118.492H95.4957C95.7527 118.492 95.961 118.7 95.961 118.957C95.961 119.214 95.7527 119.423 95.4957 119.423H91.8502C91.5931 119.423 91.3848 119.214 91.3848 118.957ZM98.6758 118.957C98.6758 118.7 98.8841 118.492 99.1412 118.492H102.787C103.044 118.492 103.252 118.7 103.252 118.957C103.252 119.214 103.044 119.423 102.787 119.423H99.1412C98.8841 119.423 98.6758 119.214 98.6758 118.957ZM105.967 118.957C105.967 118.7 106.175 118.492 106.432 118.492H110.078C110.335 118.492 110.543 118.7 110.543 118.957C110.543 119.214 110.335 119.423 110.078 119.423H106.432C106.175 119.423 105.967 119.214 105.967 118.957ZM113.258 118.957C113.258 118.7 113.466 118.492 113.723 118.492H117.369C117.626 118.492 117.834 118.7 117.834 118.957C117.834 119.214 117.626 119.423 117.369 119.423H113.723C113.466 119.423 113.258 119.214 113.258 118.957ZM120.549 118.957C120.549 118.7 120.757 118.492 121.014 118.492H124.66C124.917 118.492 125.125 118.7 125.125 118.957C125.125 119.214 124.917 119.423 124.66 119.423H121.014C120.757 119.423 120.549 119.214 120.549 118.957ZM127.84 118.957C127.84 118.7 128.048 118.492 128.305 118.492H131.951C132.208 118.492 132.416 118.7 132.416 118.957C132.416 119.214 132.208 119.423 131.951 119.423H128.305C128.048 119.423 127.84 119.214 127.84 118.957ZM135.131 118.957C135.131 118.7 135.339 118.492 135.596 118.492H139.242C139.499 118.492 139.707 118.7 139.707 118.957C139.707 119.214 139.499 119.423 139.242 119.423H135.596C135.339 119.423 135.131 119.214 135.131 118.957ZM142.422 118.957C142.422 118.7 142.63 118.492 142.887 118.492H146.533C146.79 118.492 146.998 118.7 146.998 118.957C146.998 119.214 146.79 119.423 146.533 119.423H142.887C142.63 119.423 142.422 119.214 142.422 118.957ZM149.713 118.957C149.713 118.7 149.921 118.492 150.178 118.492H152.001V119.423H150.178C149.921 119.423 149.713 119.214 149.713 118.957ZM60.8799 122.64C61.0629 122.82 61.0651 123.115 60.8847 123.298L58.2475 125.974C58.0671 126.157 57.7724 126.159 57.5894 125.979C57.4063 125.798 57.4042 125.504 57.5846 125.32L60.2217 122.645C60.4022 122.461 60.6968 122.459 60.8799 122.64ZM55.6055 127.992C55.7886 128.172 55.7908 128.467 55.6103 128.65L52.9732 131.326C52.7928 131.509 52.4981 131.511 52.315 131.331C52.132 131.15 52.1298 130.855 52.3102 130.672L54.9474 127.996C55.1278 127.813 55.4225 127.811 55.6055 127.992ZM50.3312 133.344C50.5143 133.524 50.5164 133.819 50.336 134.002L47.6988 136.678C47.5184 136.861 47.2238 136.863 47.0407 136.682C46.8576 136.502 46.8555 136.207 47.0359 136.024L49.6731 133.348C49.8535 133.165 50.1481 133.163 50.3312 133.344ZM45.0569 138.695C45.2399 138.876 45.2421 139.17 45.0617 139.354L42.4245 142.029C42.2441 142.213 41.9494 142.215 41.7664 142.034C41.5833 141.854 41.5812 141.559 41.7616 141.376L44.3987 138.7C44.5792 138.517 44.8738 138.515 45.0569 138.695ZM39.7825 144.047C39.9656 144.228 39.9678 144.522 39.7873 144.705L37.1502 147.381C36.9698 147.564 36.6751 147.567 36.492 147.386C36.309 147.206 36.3068 146.911 36.4872 146.728L39.1244 144.052C39.3048 143.869 39.5995 143.867 39.7825 144.047ZM34.5082 149.399C34.6913 149.58 34.6934 149.874 34.513 150.057L33.1944 151.395L32.5315 150.742L33.8501 149.404C34.0305 149.221 34.3251 149.219 34.5082 149.399Z" fill="white"/>
<defs>
<filter id="filter0_f_1_1437" x="0" y="0" width="183.001" height="182.534" filterUnits="userSpaceOnUse" color-interpolation-filters="sRGB">
<feFlood flood-opacity="0" result="BackgroundImageFix"/>
<feBlend mode="normal" in="SourceGraphic" in2="BackgroundImageFix" result="shape"/>
<feGaussianBlur stdDeviation="15" result="effect1_foregroundBlur_1_1437"/>
</filter>
<filter id="filter1_f_1_1437" x="15" y="15" width="153.001" height="152.534" filterUnits="userSpaceOnUse" color-interpolation-filters="sRGB">
<feFlood flood-opacity="0" result="BackgroundImageFix"/>
<feBlend mode="normal" in="SourceGraphic" in2="BackgroundImageFix" result="shape"/>
<feGaussianBlur stdDeviation="7.5" result="effect1_foregroundBlur_1_1437"/>
</filter>
<filter id="filter2_f_1_1437" x="26" y="26" width="131.001" height="130.534" filterUnits="userSpaceOnUse" color-interpolation-filters="sRGB">
<feFlood flood-opacity="0" result="BackgroundImageFix"/>
<feBlend mode="normal" in="SourceGraphic" in2="BackgroundImageFix" result="shape"/>
<feGaussianBlur stdDeviation="2" result="effect1_foregroundBlur_1_1437"/>
</filter>
</defs>
</svg>
