<svg width="130" height="164" viewBox="0 0 130 164" fill="none" xmlns="http://www.w3.org/2000/svg">
<g filter="url(#filter0_f_1_1618)">
<path d="M42.3736 37.2426H52.5714C55.4988 37.2426 57.8077 39.4381 57.8077 42.0701V121.391C57.8077 124.024 55.4988 126.219 52.5714 126.219H42.3736C39.4463 126.219 37.1374 124.024 37.1374 121.391V42.0701C37.1374 39.4381 39.4463 37.2426 42.3736 37.2426ZM42.3736 35.6506C38.6129 35.6506 35.5 38.4906 35.5 42.0701V121.391C35.5 124.971 38.6129 127.811 42.3736 127.811H52.5714C56.3322 127.811 59.4451 124.971 59.4451 121.391V42.0701C59.4451 38.4906 56.3322 35.6506 52.5714 35.6506H42.3736Z" stroke="#E06121"/>
<path d="M77.4286 37.2423H87.6264C90.5537 37.2423 92.8626 39.4379 92.8626 42.0699V121.391C92.8626 124.023 90.5537 126.219 87.6264 126.219H77.4286C74.5012 126.219 72.1923 124.023 72.1923 121.391V42.0699C72.1923 39.4379 74.5012 37.2423 77.4286 37.2423ZM77.4286 35.6504C73.6678 35.6504 70.5549 38.4903 70.5549 42.0699V121.391C70.5549 124.971 73.6678 127.811 77.4286 127.811H87.6264C91.3871 127.811 94.5 124.971 94.5 121.391V42.0699C94.5 38.4903 91.3871 35.6504 87.6264 35.6504H77.4286Z" stroke="#E06121"/>
</g>
<g filter="url(#filter1_f_1_1618)">
<path d="M42.3736 37.2426H52.5714C55.4988 37.2426 57.8077 39.4381 57.8077 42.0701V121.391C57.8077 124.024 55.4988 126.219 52.5714 126.219H42.3736C39.4463 126.219 37.1374 124.024 37.1374 121.391V42.0701C37.1374 39.4381 39.4463 37.2426 42.3736 37.2426ZM42.3736 35.6506C38.6129 35.6506 35.5 38.4906 35.5 42.0701V121.391C35.5 124.971 38.6129 127.811 42.3736 127.811H52.5714C56.3322 127.811 59.4451 124.971 59.4451 121.391V42.0701C59.4451 38.4906 56.3322 35.6506 52.5714 35.6506H42.3736Z" stroke="#E06121"/>
<path d="M77.4286 37.2423H87.6264C90.5537 37.2423 92.8626 39.4379 92.8626 42.0699V121.391C92.8626 124.023 90.5537 126.219 87.6264 126.219H77.4286C74.5012 126.219 72.1923 124.023 72.1923 121.391V42.0699C72.1923 39.4379 74.5012 37.2423 77.4286 37.2423ZM77.4286 35.6504C73.6678 35.6504 70.5549 38.4903 70.5549 42.0699V121.391C70.5549 124.971 73.6678 127.811 77.4286 127.811H87.6264C91.3871 127.811 94.5 124.971 94.5 121.391V42.0699C94.5 38.4903 91.3871 35.6504 87.6264 35.6504H77.4286Z" stroke="#E06121"/>
</g>
<g filter="url(#filter2_f_1_1618)">
<path d="M42.3736 37.7426H52.5714C55.2581 37.7426 57.3077 39.7484 57.3077 42.0701V121.391C57.3077 123.713 55.2581 125.719 52.5714 125.719H42.3736C39.687 125.719 37.6374 123.713 37.6374 121.391V42.0701C37.6374 39.7484 39.687 37.7426 42.3736 37.7426ZM42.3736 35.1506C38.3722 35.1506 35 38.1803 35 42.0701V121.391C35 125.281 38.3722 128.311 42.3736 128.311H52.5714C56.5729 128.311 59.9451 125.281 59.9451 121.391V42.0701C59.9451 38.1803 56.5729 35.1506 52.5714 35.1506H42.3736Z" stroke="#E06121" stroke-width="2"/>
<path d="M77.4286 37.7423H87.6264C90.313 37.7423 92.3626 39.7482 92.3626 42.0699V121.391C92.3626 123.713 90.313 125.719 87.6264 125.719H77.4286C74.7419 125.719 72.6923 123.713 72.6923 121.391V42.0699C72.6923 39.7482 74.7419 37.7423 77.4286 37.7423ZM77.4286 35.1504C73.4271 35.1504 70.0549 38.18 70.0549 42.0699V121.391C70.0549 125.281 73.4271 128.311 77.4286 128.311H87.6264C91.6278 128.311 95 125.281 95 121.391V42.0699C95 38.18 91.6278 35.1504 87.6264 35.1504H77.4286Z" stroke="#E06121" stroke-width="2"/>
</g>
<path fill-rule="evenodd" clip-rule="evenodd" d="M52.5714 36.7426H42.3736C39.2056 36.7426 36.6374 39.1278 36.6374 42.0701V121.391C36.6374 124.334 39.2056 126.719 42.3736 126.719H52.5714C55.7395 126.719 58.3077 124.334 58.3077 121.391V42.0701C58.3077 39.1278 55.7395 36.7426 52.5714 36.7426ZM42.3736 36.1506C38.8536 36.1506 36 38.8009 36 42.0701V121.391C36 124.661 38.8536 127.311 42.3736 127.311H52.5714C56.0915 127.311 58.9451 124.661 58.9451 121.391V42.0701C58.9451 38.8009 56.0915 36.1506 52.5714 36.1506H42.3736Z" fill="white"/>
<path fill-rule="evenodd" clip-rule="evenodd" d="M87.6264 36.7423H77.4286C74.2605 36.7423 71.6923 39.1276 71.6923 42.0699V121.391C71.6923 124.334 74.2605 126.719 77.4286 126.719H87.6264C90.7944 126.719 93.3626 124.334 93.3626 121.391V42.0699C93.3626 39.1276 90.7944 36.7423 87.6264 36.7423ZM77.4286 36.1504C73.9085 36.1504 71.0549 38.8006 71.0549 42.0699V121.391C71.0549 124.66 73.9085 127.311 77.4286 127.311H87.6264C91.1464 127.311 94 124.66 94 121.391V42.0699C94 38.8006 91.1464 36.1504 87.6264 36.1504H77.4286Z" fill="white"/>
<defs>
<filter id="filter0_f_1_1618" x="0" y="0.150391" width="130" height="163.161" filterUnits="userSpaceOnUse" color-interpolation-filters="sRGB">
<feFlood flood-opacity="0" result="BackgroundImageFix"/>
<feBlend mode="normal" in="SourceGraphic" in2="BackgroundImageFix" result="shape"/>
<feGaussianBlur stdDeviation="17.5" result="effect1_foregroundBlur_1_1618"/>
</filter>
<filter id="filter1_f_1_1618" x="20" y="20.1504" width="90" height="123.161" filterUnits="userSpaceOnUse" color-interpolation-filters="sRGB">
<feFlood flood-opacity="0" result="BackgroundImageFix"/>
<feBlend mode="normal" in="SourceGraphic" in2="BackgroundImageFix" result="shape"/>
<feGaussianBlur stdDeviation="7.5" result="effect1_foregroundBlur_1_1618"/>
</filter>
<filter id="filter2_f_1_1618" x="30" y="30.1504" width="70" height="103.161" filterUnits="userSpaceOnUse" color-interpolation-filters="sRGB">
<feFlood flood-opacity="0" result="BackgroundImageFix"/>
<feBlend mode="normal" in="SourceGraphic" in2="BackgroundImageFix" result="shape"/>
<feGaussianBlur stdDeviation="2" result="effect1_foregroundBlur_1_1618"/>
</filter>
</defs>
</svg>
