<svg width="50" height="55" viewBox="0 0 50 55" fill="none" xmlns="http://www.w3.org/2000/svg">
<g filter="url(#filter0_f_1_3638)">
<path fill-rule="evenodd" clip-rule="evenodd" d="M12.7154 11.2018C11.8794 11.2018 11.2018 11.8794 11.2018 12.7154V42.7846C11.2018 43.6206 11.8794 44.2982 12.7154 44.2982H36.6781C37.514 44.2982 38.1916 43.6206 38.1916 42.7846V16.7746H33.9859C33.0385 16.7746 32.2705 16.0066 32.2705 15.0592V11.2018H12.7154ZM32.4724 11.3344L38.0381 16.5728H33.9859C33.15 16.5728 32.4724 15.8951 32.4724 15.0592V11.3344ZM11 12.7154C11 11.768 11.768 11 12.7154 11H32.4115L38.3934 16.6301V42.7846C38.3934 43.732 37.6254 44.5 36.6781 44.5H12.7154C11.768 44.5 11 43.732 11 42.7846V12.7154Z" stroke="#E06121" stroke-linecap="round"/>
<path fill-rule="evenodd" clip-rule="evenodd" d="M17.4373 36.5285H14.443C14.1086 36.5285 13.8375 36.7995 13.8375 37.1339V40.1282C13.8375 40.4625 14.1086 40.7336 14.443 40.7336H17.4373C17.7716 40.7336 18.0427 40.4625 18.0427 40.1282V37.1339C18.0427 36.7995 17.7716 36.5285 17.4373 36.5285ZM14.443 36.3267C13.9972 36.3267 13.6357 36.6881 13.6357 37.1339V40.1282C13.6357 40.574 13.9972 40.9354 14.443 40.9354H17.4373C17.8831 40.9354 18.2445 40.574 18.2445 40.1282V37.1339C18.2445 36.6881 17.8831 36.3267 17.4373 36.3267H14.443Z" stroke="#E06121"/>
<path fill-rule="evenodd" clip-rule="evenodd" d="M23.2566 36.5285H20.2623C19.9279 36.5285 19.6569 36.7995 19.6569 37.1339V40.1282C19.6569 40.4625 19.9279 40.7336 20.2623 40.7336H23.2566C23.591 40.7336 23.862 40.4625 23.862 40.1282V37.1339C23.862 36.7995 23.591 36.5285 23.2566 36.5285ZM20.2623 36.3267C19.8165 36.3267 19.4551 36.6881 19.4551 37.1339V40.1282C19.4551 40.574 19.8165 40.9354 20.2623 40.9354H23.2566C23.7024 40.9354 24.0638 40.574 24.0638 40.1282V37.1339C24.0638 36.6881 23.7024 36.3267 23.2566 36.3267H20.2623Z" stroke="#E06121"/>
<path fill-rule="evenodd" clip-rule="evenodd" d="M29.0759 36.5285H26.0816C25.7473 36.5285 25.4762 36.7995 25.4762 37.1339V40.1282C25.4762 40.4625 25.7473 40.7336 26.0816 40.7336H29.0759C29.4103 40.7336 29.6814 40.4625 29.6814 40.1282V37.1339C29.6814 36.7995 29.4103 36.5285 29.0759 36.5285ZM26.0816 36.3267C25.6358 36.3267 25.2744 36.6881 25.2744 37.1339V40.1282C25.2744 40.574 25.6358 40.9354 26.0816 40.9354H29.0759C29.5218 40.9354 29.8832 40.574 29.8832 40.1282V37.1339C29.8832 36.6881 29.5218 36.3267 29.0759 36.3267H26.0816Z" stroke="#E06121"/>
<path fill-rule="evenodd" clip-rule="evenodd" d="M17.4373 30.4743H14.443C14.1086 30.4743 13.8375 30.7453 13.8375 31.0797V34.074C13.8375 34.4083 14.1086 34.6794 14.443 34.6794H17.4373C17.7716 34.6794 18.0427 34.4083 18.0427 34.074V31.0797C18.0427 30.7453 17.7716 30.4743 17.4373 30.4743ZM14.443 30.2725C13.9972 30.2725 13.6357 30.6339 13.6357 31.0797V34.074C13.6357 34.5198 13.9972 34.8812 14.443 34.8812H17.4373C17.8831 34.8812 18.2445 34.5198 18.2445 34.074V31.0797C18.2445 30.6339 17.8831 30.2725 17.4373 30.2725H14.443Z" stroke="#E06121"/>
<path fill-rule="evenodd" clip-rule="evenodd" d="M23.2566 30.4743H20.2623C19.9279 30.4743 19.6569 30.7453 19.6569 31.0797V34.074C19.6569 34.4083 19.9279 34.6794 20.2623 34.6794H23.2566C23.591 34.6794 23.862 34.4083 23.862 34.074V31.0797C23.862 30.7453 23.591 30.4743 23.2566 30.4743ZM20.2623 30.2725C19.8165 30.2725 19.4551 30.6339 19.4551 31.0797V34.074C19.4551 34.5198 19.8165 34.8812 20.2623 34.8812H23.2566C23.7024 34.8812 24.0638 34.5198 24.0638 34.074V31.0797C24.0638 30.6339 23.7024 30.2725 23.2566 30.2725H20.2623Z" stroke="#E06121"/>
<path fill-rule="evenodd" clip-rule="evenodd" d="M17.4373 24.1857H14.443C14.1086 24.1857 13.8375 24.4568 13.8375 24.7911V27.7854C13.8375 28.1198 14.1086 28.3908 14.443 28.3908H17.4373C17.7716 28.3908 18.0427 28.1198 18.0427 27.7854V24.7911C18.0427 24.4568 17.7716 24.1857 17.4373 24.1857ZM14.443 23.9839C13.9972 23.9839 13.6357 24.3453 13.6357 24.7911V27.7854C13.6357 28.2312 13.9972 28.5926 14.443 28.5926H17.4373C17.8831 28.5926 18.2445 28.2312 18.2445 27.7854V24.7911C18.2445 24.3453 17.8831 23.9839 17.4373 23.9839H14.443Z" stroke="#E06121"/>
<path fill-rule="evenodd" clip-rule="evenodd" d="M23.2566 24.1857H20.2623C19.9279 24.1857 19.6569 24.4568 19.6569 24.7911V27.7854C19.6569 28.1198 19.9279 28.3908 20.2623 28.3908H23.2566C23.591 28.3908 23.862 28.1198 23.862 27.7854V24.7911C23.862 24.4568 23.591 24.1857 23.2566 24.1857ZM20.2623 23.9839C19.8165 23.9839 19.4551 24.3453 19.4551 24.7911V27.7854C19.4551 28.2312 19.8165 28.5926 20.2623 28.5926H23.2566C23.7024 28.5926 24.0638 28.2312 24.0638 27.7854V24.7911C24.0638 24.3453 23.7024 23.9839 23.2566 23.9839H20.2623Z" stroke="#E06121"/>
<path fill-rule="evenodd" clip-rule="evenodd" d="M17.4373 18.1637H14.443C14.1086 18.1637 13.8375 18.4348 13.8375 18.7691V21.7634C13.8375 22.0978 14.1086 22.3689 14.443 22.3689H17.4373C17.7716 22.3689 18.0427 22.0978 18.0427 21.7634V18.7691C18.0427 18.4348 17.7716 18.1637 17.4373 18.1637ZM14.443 17.9619C13.9972 17.9619 13.6357 18.3233 13.6357 18.7691V21.7634C13.6357 22.2093 13.9972 22.5707 14.443 22.5707H17.4373C17.8831 22.5707 18.2445 22.2093 18.2445 21.7634V18.7691C18.2445 18.3233 17.8831 17.9619 17.4373 17.9619H14.443Z" stroke="#E06121"/>
<path fill-rule="evenodd" clip-rule="evenodd" d="M29.0759 30.4743H26.0816C25.7473 30.4743 25.4762 30.7453 25.4762 31.0797V34.074C25.4762 34.4083 25.7473 34.6794 26.0816 34.6794H29.0759C29.4103 34.6794 29.6814 34.4083 29.6814 34.074V31.0797C29.6814 30.7453 29.4103 30.4743 29.0759 30.4743ZM26.0816 30.2725C25.6358 30.2725 25.2744 30.6339 25.2744 31.0797V34.074C25.2744 34.5198 25.6358 34.8812 26.0816 34.8812H29.0759C29.5218 34.8812 29.8832 34.5198 29.8832 34.074V31.0797C29.8832 30.6339 29.5218 30.2725 29.0759 30.2725H26.0816Z" stroke="#E06121"/>
<path fill-rule="evenodd" clip-rule="evenodd" d="M34.8962 36.5285H31.902C31.5676 36.5285 31.2965 36.7995 31.2965 37.1339V40.1282C31.2965 40.4625 31.5676 40.7336 31.902 40.7336H34.8962C35.2306 40.7336 35.5017 40.4625 35.5017 40.1282V37.1339C35.5017 36.7995 35.2306 36.5285 34.8962 36.5285ZM31.902 36.3267C31.4561 36.3267 31.0947 36.6881 31.0947 37.1339V40.1282C31.0947 40.574 31.4561 40.9354 31.902 40.9354H34.8962C35.3421 40.9354 35.7035 40.574 35.7035 40.1282V37.1339C35.7035 36.6881 35.3421 36.3267 34.8962 36.3267H31.902Z" stroke="#E06121"/>
</g>
<g filter="url(#filter1_f_1_3638)">
<path fill-rule="evenodd" clip-rule="evenodd" d="M12.7154 11.2018C11.8794 11.2018 11.2018 11.8794 11.2018 12.7154V42.7846C11.2018 43.6206 11.8794 44.2982 12.7154 44.2982H36.6781C37.514 44.2982 38.1916 43.6206 38.1916 42.7846V16.7746H33.9859C33.0385 16.7746 32.2705 16.0066 32.2705 15.0592V11.2018H12.7154ZM32.4724 11.3344L38.0381 16.5728H33.9859C33.15 16.5728 32.4724 15.8951 32.4724 15.0592V11.3344ZM11 12.7154C11 11.768 11.768 11 12.7154 11H32.4115L38.3934 16.6301V42.7846C38.3934 43.732 37.6254 44.5 36.6781 44.5H12.7154C11.768 44.5 11 43.732 11 42.7846V12.7154Z" stroke="#E06121" stroke-linecap="round"/>
<path fill-rule="evenodd" clip-rule="evenodd" d="M17.4373 36.5285H14.443C14.1086 36.5285 13.8375 36.7995 13.8375 37.1339V40.1282C13.8375 40.4625 14.1086 40.7336 14.443 40.7336H17.4373C17.7716 40.7336 18.0427 40.4625 18.0427 40.1282V37.1339C18.0427 36.7995 17.7716 36.5285 17.4373 36.5285ZM14.443 36.3267C13.9972 36.3267 13.6357 36.6881 13.6357 37.1339V40.1282C13.6357 40.574 13.9972 40.9354 14.443 40.9354H17.4373C17.8831 40.9354 18.2445 40.574 18.2445 40.1282V37.1339C18.2445 36.6881 17.8831 36.3267 17.4373 36.3267H14.443Z" stroke="#E06121"/>
<path fill-rule="evenodd" clip-rule="evenodd" d="M23.2566 36.5285H20.2623C19.9279 36.5285 19.6569 36.7995 19.6569 37.1339V40.1282C19.6569 40.4625 19.9279 40.7336 20.2623 40.7336H23.2566C23.591 40.7336 23.862 40.4625 23.862 40.1282V37.1339C23.862 36.7995 23.591 36.5285 23.2566 36.5285ZM20.2623 36.3267C19.8165 36.3267 19.4551 36.6881 19.4551 37.1339V40.1282C19.4551 40.574 19.8165 40.9354 20.2623 40.9354H23.2566C23.7024 40.9354 24.0638 40.574 24.0638 40.1282V37.1339C24.0638 36.6881 23.7024 36.3267 23.2566 36.3267H20.2623Z" stroke="#E06121"/>
<path fill-rule="evenodd" clip-rule="evenodd" d="M29.0759 36.5285H26.0816C25.7473 36.5285 25.4762 36.7995 25.4762 37.1339V40.1282C25.4762 40.4625 25.7473 40.7336 26.0816 40.7336H29.0759C29.4103 40.7336 29.6814 40.4625 29.6814 40.1282V37.1339C29.6814 36.7995 29.4103 36.5285 29.0759 36.5285ZM26.0816 36.3267C25.6358 36.3267 25.2744 36.6881 25.2744 37.1339V40.1282C25.2744 40.574 25.6358 40.9354 26.0816 40.9354H29.0759C29.5218 40.9354 29.8832 40.574 29.8832 40.1282V37.1339C29.8832 36.6881 29.5218 36.3267 29.0759 36.3267H26.0816Z" stroke="#E06121"/>
<path fill-rule="evenodd" clip-rule="evenodd" d="M17.4373 30.4743H14.443C14.1086 30.4743 13.8375 30.7453 13.8375 31.0797V34.074C13.8375 34.4083 14.1086 34.6794 14.443 34.6794H17.4373C17.7716 34.6794 18.0427 34.4083 18.0427 34.074V31.0797C18.0427 30.7453 17.7716 30.4743 17.4373 30.4743ZM14.443 30.2725C13.9972 30.2725 13.6357 30.6339 13.6357 31.0797V34.074C13.6357 34.5198 13.9972 34.8812 14.443 34.8812H17.4373C17.8831 34.8812 18.2445 34.5198 18.2445 34.074V31.0797C18.2445 30.6339 17.8831 30.2725 17.4373 30.2725H14.443Z" stroke="#E06121"/>
<path fill-rule="evenodd" clip-rule="evenodd" d="M23.2566 30.4743H20.2623C19.9279 30.4743 19.6569 30.7453 19.6569 31.0797V34.074C19.6569 34.4083 19.9279 34.6794 20.2623 34.6794H23.2566C23.591 34.6794 23.862 34.4083 23.862 34.074V31.0797C23.862 30.7453 23.591 30.4743 23.2566 30.4743ZM20.2623 30.2725C19.8165 30.2725 19.4551 30.6339 19.4551 31.0797V34.074C19.4551 34.5198 19.8165 34.8812 20.2623 34.8812H23.2566C23.7024 34.8812 24.0638 34.5198 24.0638 34.074V31.0797C24.0638 30.6339 23.7024 30.2725 23.2566 30.2725H20.2623Z" stroke="#E06121"/>
<path fill-rule="evenodd" clip-rule="evenodd" d="M17.4373 24.1857H14.443C14.1086 24.1857 13.8375 24.4568 13.8375 24.7911V27.7854C13.8375 28.1198 14.1086 28.3908 14.443 28.3908H17.4373C17.7716 28.3908 18.0427 28.1198 18.0427 27.7854V24.7911C18.0427 24.4568 17.7716 24.1857 17.4373 24.1857ZM14.443 23.9839C13.9972 23.9839 13.6357 24.3453 13.6357 24.7911V27.7854C13.6357 28.2312 13.9972 28.5926 14.443 28.5926H17.4373C17.8831 28.5926 18.2445 28.2312 18.2445 27.7854V24.7911C18.2445 24.3453 17.8831 23.9839 17.4373 23.9839H14.443Z" stroke="#E06121"/>
<path fill-rule="evenodd" clip-rule="evenodd" d="M23.2566 24.1857H20.2623C19.9279 24.1857 19.6569 24.4568 19.6569 24.7911V27.7854C19.6569 28.1198 19.9279 28.3908 20.2623 28.3908H23.2566C23.591 28.3908 23.862 28.1198 23.862 27.7854V24.7911C23.862 24.4568 23.591 24.1857 23.2566 24.1857ZM20.2623 23.9839C19.8165 23.9839 19.4551 24.3453 19.4551 24.7911V27.7854C19.4551 28.2312 19.8165 28.5926 20.2623 28.5926H23.2566C23.7024 28.5926 24.0638 28.2312 24.0638 27.7854V24.7911C24.0638 24.3453 23.7024 23.9839 23.2566 23.9839H20.2623Z" stroke="#E06121"/>
<path fill-rule="evenodd" clip-rule="evenodd" d="M17.4373 18.1637H14.443C14.1086 18.1637 13.8375 18.4348 13.8375 18.7691V21.7634C13.8375 22.0978 14.1086 22.3689 14.443 22.3689H17.4373C17.7716 22.3689 18.0427 22.0978 18.0427 21.7634V18.7691C18.0427 18.4348 17.7716 18.1637 17.4373 18.1637ZM14.443 17.9619C13.9972 17.9619 13.6357 18.3233 13.6357 18.7691V21.7634C13.6357 22.2093 13.9972 22.5707 14.443 22.5707H17.4373C17.8831 22.5707 18.2445 22.2093 18.2445 21.7634V18.7691C18.2445 18.3233 17.8831 17.9619 17.4373 17.9619H14.443Z" stroke="#E06121"/>
<path fill-rule="evenodd" clip-rule="evenodd" d="M29.0759 30.4743H26.0816C25.7473 30.4743 25.4762 30.7453 25.4762 31.0797V34.074C25.4762 34.4083 25.7473 34.6794 26.0816 34.6794H29.0759C29.4103 34.6794 29.6814 34.4083 29.6814 34.074V31.0797C29.6814 30.7453 29.4103 30.4743 29.0759 30.4743ZM26.0816 30.2725C25.6358 30.2725 25.2744 30.6339 25.2744 31.0797V34.074C25.2744 34.5198 25.6358 34.8812 26.0816 34.8812H29.0759C29.5218 34.8812 29.8832 34.5198 29.8832 34.074V31.0797C29.8832 30.6339 29.5218 30.2725 29.0759 30.2725H26.0816Z" stroke="#E06121"/>
<path fill-rule="evenodd" clip-rule="evenodd" d="M34.8962 36.5285H31.902C31.5676 36.5285 31.2965 36.7995 31.2965 37.1339V40.1282C31.2965 40.4625 31.5676 40.7336 31.902 40.7336H34.8962C35.2306 40.7336 35.5017 40.4625 35.5017 40.1282V37.1339C35.5017 36.7995 35.2306 36.5285 34.8962 36.5285ZM31.902 36.3267C31.4561 36.3267 31.0947 36.6881 31.0947 37.1339V40.1282C31.0947 40.574 31.4561 40.9354 31.902 40.9354H34.8962C35.3421 40.9354 35.7035 40.574 35.7035 40.1282V37.1339C35.7035 36.6881 35.3421 36.3267 34.8962 36.3267H31.902Z" stroke="#E06121"/>
</g>
<g filter="url(#filter2_f_1_3638)">
<path fill-rule="evenodd" clip-rule="evenodd" d="M12.7154 11.2018C11.8794 11.2018 11.2018 11.8794 11.2018 12.7154V42.7846C11.2018 43.6206 11.8794 44.2982 12.7154 44.2982H36.6781C37.514 44.2982 38.1916 43.6206 38.1916 42.7846V16.7746H33.9859C33.0385 16.7746 32.2705 16.0066 32.2705 15.0592V11.2018H12.7154ZM32.4724 11.3344L38.0381 16.5728H33.9859C33.15 16.5728 32.4724 15.8951 32.4724 15.0592V11.3344ZM11 12.7154C11 11.768 11.768 11 12.7154 11H32.4115L38.3934 16.6301V42.7846C38.3934 43.732 37.6254 44.5 36.6781 44.5H12.7154C11.768 44.5 11 43.732 11 42.7846V12.7154Z" stroke="#E06121" stroke-linecap="round"/>
<path fill-rule="evenodd" clip-rule="evenodd" d="M17.4373 36.5285H14.443C14.1086 36.5285 13.8375 36.7995 13.8375 37.1339V40.1282C13.8375 40.4625 14.1086 40.7336 14.443 40.7336H17.4373C17.7716 40.7336 18.0427 40.4625 18.0427 40.1282V37.1339C18.0427 36.7995 17.7716 36.5285 17.4373 36.5285ZM14.443 36.3267C13.9972 36.3267 13.6357 36.6881 13.6357 37.1339V40.1282C13.6357 40.574 13.9972 40.9354 14.443 40.9354H17.4373C17.8831 40.9354 18.2445 40.574 18.2445 40.1282V37.1339C18.2445 36.6881 17.8831 36.3267 17.4373 36.3267H14.443Z" stroke="#E06121"/>
<path fill-rule="evenodd" clip-rule="evenodd" d="M23.2566 36.5285H20.2623C19.9279 36.5285 19.6569 36.7995 19.6569 37.1339V40.1282C19.6569 40.4625 19.9279 40.7336 20.2623 40.7336H23.2566C23.591 40.7336 23.862 40.4625 23.862 40.1282V37.1339C23.862 36.7995 23.591 36.5285 23.2566 36.5285ZM20.2623 36.3267C19.8165 36.3267 19.4551 36.6881 19.4551 37.1339V40.1282C19.4551 40.574 19.8165 40.9354 20.2623 40.9354H23.2566C23.7024 40.9354 24.0638 40.574 24.0638 40.1282V37.1339C24.0638 36.6881 23.7024 36.3267 23.2566 36.3267H20.2623Z" stroke="#E06121"/>
<path fill-rule="evenodd" clip-rule="evenodd" d="M29.0759 36.5285H26.0816C25.7473 36.5285 25.4762 36.7995 25.4762 37.1339V40.1282C25.4762 40.4625 25.7473 40.7336 26.0816 40.7336H29.0759C29.4103 40.7336 29.6814 40.4625 29.6814 40.1282V37.1339C29.6814 36.7995 29.4103 36.5285 29.0759 36.5285ZM26.0816 36.3267C25.6358 36.3267 25.2744 36.6881 25.2744 37.1339V40.1282C25.2744 40.574 25.6358 40.9354 26.0816 40.9354H29.0759C29.5218 40.9354 29.8832 40.574 29.8832 40.1282V37.1339C29.8832 36.6881 29.5218 36.3267 29.0759 36.3267H26.0816Z" stroke="#E06121"/>
<path fill-rule="evenodd" clip-rule="evenodd" d="M17.4373 30.4743H14.443C14.1086 30.4743 13.8375 30.7453 13.8375 31.0797V34.074C13.8375 34.4083 14.1086 34.6794 14.443 34.6794H17.4373C17.7716 34.6794 18.0427 34.4083 18.0427 34.074V31.0797C18.0427 30.7453 17.7716 30.4743 17.4373 30.4743ZM14.443 30.2725C13.9972 30.2725 13.6357 30.6339 13.6357 31.0797V34.074C13.6357 34.5198 13.9972 34.8812 14.443 34.8812H17.4373C17.8831 34.8812 18.2445 34.5198 18.2445 34.074V31.0797C18.2445 30.6339 17.8831 30.2725 17.4373 30.2725H14.443Z" stroke="#E06121"/>
<path fill-rule="evenodd" clip-rule="evenodd" d="M23.2566 30.4743H20.2623C19.9279 30.4743 19.6569 30.7453 19.6569 31.0797V34.074C19.6569 34.4083 19.9279 34.6794 20.2623 34.6794H23.2566C23.591 34.6794 23.862 34.4083 23.862 34.074V31.0797C23.862 30.7453 23.591 30.4743 23.2566 30.4743ZM20.2623 30.2725C19.8165 30.2725 19.4551 30.6339 19.4551 31.0797V34.074C19.4551 34.5198 19.8165 34.8812 20.2623 34.8812H23.2566C23.7024 34.8812 24.0638 34.5198 24.0638 34.074V31.0797C24.0638 30.6339 23.7024 30.2725 23.2566 30.2725H20.2623Z" stroke="#E06121"/>
<path fill-rule="evenodd" clip-rule="evenodd" d="M17.4373 24.1857H14.443C14.1086 24.1857 13.8375 24.4568 13.8375 24.7911V27.7854C13.8375 28.1198 14.1086 28.3908 14.443 28.3908H17.4373C17.7716 28.3908 18.0427 28.1198 18.0427 27.7854V24.7911C18.0427 24.4568 17.7716 24.1857 17.4373 24.1857ZM14.443 23.9839C13.9972 23.9839 13.6357 24.3453 13.6357 24.7911V27.7854C13.6357 28.2312 13.9972 28.5926 14.443 28.5926H17.4373C17.8831 28.5926 18.2445 28.2312 18.2445 27.7854V24.7911C18.2445 24.3453 17.8831 23.9839 17.4373 23.9839H14.443Z" stroke="#E06121"/>
<path fill-rule="evenodd" clip-rule="evenodd" d="M23.2566 24.1857H20.2623C19.9279 24.1857 19.6569 24.4568 19.6569 24.7911V27.7854C19.6569 28.1198 19.9279 28.3908 20.2623 28.3908H23.2566C23.591 28.3908 23.862 28.1198 23.862 27.7854V24.7911C23.862 24.4568 23.591 24.1857 23.2566 24.1857ZM20.2623 23.9839C19.8165 23.9839 19.4551 24.3453 19.4551 24.7911V27.7854C19.4551 28.2312 19.8165 28.5926 20.2623 28.5926H23.2566C23.7024 28.5926 24.0638 28.2312 24.0638 27.7854V24.7911C24.0638 24.3453 23.7024 23.9839 23.2566 23.9839H20.2623Z" stroke="#E06121"/>
<path fill-rule="evenodd" clip-rule="evenodd" d="M17.4373 18.1637H14.443C14.1086 18.1637 13.8375 18.4348 13.8375 18.7691V21.7634C13.8375 22.0978 14.1086 22.3689 14.443 22.3689H17.4373C17.7716 22.3689 18.0427 22.0978 18.0427 21.7634V18.7691C18.0427 18.4348 17.7716 18.1637 17.4373 18.1637ZM14.443 17.9619C13.9972 17.9619 13.6357 18.3233 13.6357 18.7691V21.7634C13.6357 22.2093 13.9972 22.5707 14.443 22.5707H17.4373C17.8831 22.5707 18.2445 22.2093 18.2445 21.7634V18.7691C18.2445 18.3233 17.8831 17.9619 17.4373 17.9619H14.443Z" stroke="#E06121"/>
<path fill-rule="evenodd" clip-rule="evenodd" d="M29.0759 30.4743H26.0816C25.7473 30.4743 25.4762 30.7453 25.4762 31.0797V34.074C25.4762 34.4083 25.7473 34.6794 26.0816 34.6794H29.0759C29.4103 34.6794 29.6814 34.4083 29.6814 34.074V31.0797C29.6814 30.7453 29.4103 30.4743 29.0759 30.4743ZM26.0816 30.2725C25.6358 30.2725 25.2744 30.6339 25.2744 31.0797V34.074C25.2744 34.5198 25.6358 34.8812 26.0816 34.8812H29.0759C29.5218 34.8812 29.8832 34.5198 29.8832 34.074V31.0797C29.8832 30.6339 29.5218 30.2725 29.0759 30.2725H26.0816Z" stroke="#E06121"/>
<path fill-rule="evenodd" clip-rule="evenodd" d="M34.8962 36.5285H31.902C31.5676 36.5285 31.2965 36.7995 31.2965 37.1339V40.1282C31.2965 40.4625 31.5676 40.7336 31.902 40.7336H34.8962C35.2306 40.7336 35.5017 40.4625 35.5017 40.1282V37.1339C35.5017 36.7995 35.2306 36.5285 34.8962 36.5285ZM31.902 36.3267C31.4561 36.3267 31.0947 36.6881 31.0947 37.1339V40.1282C31.0947 40.574 31.4561 40.9354 31.902 40.9354H34.8962C35.3421 40.9354 35.7035 40.574 35.7035 40.1282V37.1339C35.7035 36.6881 35.3421 36.3267 34.8962 36.3267H31.902Z" stroke="#E06121"/>
</g>
<path fill-rule="evenodd" clip-rule="evenodd" d="M12.7154 11.2018C11.8794 11.2018 11.2018 11.8794 11.2018 12.7154V42.7846C11.2018 43.6206 11.8794 44.2982 12.7154 44.2982H36.6781C37.514 44.2982 38.1916 43.6206 38.1916 42.7846V16.7746H33.9859C33.0385 16.7746 32.2705 16.0066 32.2705 15.0592V11.2018H12.7154ZM32.4724 11.3344L38.0381 16.5728H33.9859C33.15 16.5728 32.4724 15.8951 32.4724 15.0592V11.3344ZM11 12.7154C11 11.768 11.768 11 12.7154 11H32.4115L38.3934 16.6301V42.7846C38.3934 43.732 37.6254 44.5 36.6781 44.5H12.7154C11.768 44.5 11 43.732 11 42.7846V12.7154Z" fill="white"/>
<path fill-rule="evenodd" clip-rule="evenodd" d="M17.4373 36.5285H14.443C14.1086 36.5285 13.8375 36.7995 13.8375 37.1339V40.1282C13.8375 40.4625 14.1086 40.7336 14.443 40.7336H17.4373C17.7716 40.7336 18.0427 40.4625 18.0427 40.1282V37.1339C18.0427 36.7995 17.7716 36.5285 17.4373 36.5285ZM14.443 36.3267C13.9972 36.3267 13.6357 36.6881 13.6357 37.1339V40.1282C13.6357 40.574 13.9972 40.9354 14.443 40.9354H17.4373C17.8831 40.9354 18.2445 40.574 18.2445 40.1282V37.1339C18.2445 36.6881 17.8831 36.3267 17.4373 36.3267H14.443Z" fill="white"/>
<path fill-rule="evenodd" clip-rule="evenodd" d="M23.2566 36.5285H20.2623C19.9279 36.5285 19.6569 36.7995 19.6569 37.1339V40.1282C19.6569 40.4625 19.9279 40.7336 20.2623 40.7336H23.2566C23.591 40.7336 23.862 40.4625 23.862 40.1282V37.1339C23.862 36.7995 23.591 36.5285 23.2566 36.5285ZM20.2623 36.3267C19.8165 36.3267 19.4551 36.6881 19.4551 37.1339V40.1282C19.4551 40.574 19.8165 40.9354 20.2623 40.9354H23.2566C23.7024 40.9354 24.0638 40.574 24.0638 40.1282V37.1339C24.0638 36.6881 23.7024 36.3267 23.2566 36.3267H20.2623Z" fill="white"/>
<path fill-rule="evenodd" clip-rule="evenodd" d="M29.0759 36.5285H26.0816C25.7473 36.5285 25.4762 36.7995 25.4762 37.1339V40.1282C25.4762 40.4625 25.7473 40.7336 26.0816 40.7336H29.0759C29.4103 40.7336 29.6814 40.4625 29.6814 40.1282V37.1339C29.6814 36.7995 29.4103 36.5285 29.0759 36.5285ZM26.0816 36.3267C25.6358 36.3267 25.2744 36.6881 25.2744 37.1339V40.1282C25.2744 40.574 25.6358 40.9354 26.0816 40.9354H29.0759C29.5218 40.9354 29.8832 40.574 29.8832 40.1282V37.1339C29.8832 36.6881 29.5218 36.3267 29.0759 36.3267H26.0816Z" fill="white"/>
<path fill-rule="evenodd" clip-rule="evenodd" d="M17.4373 30.4743H14.443C14.1086 30.4743 13.8375 30.7453 13.8375 31.0797V34.074C13.8375 34.4083 14.1086 34.6794 14.443 34.6794H17.4373C17.7716 34.6794 18.0427 34.4083 18.0427 34.074V31.0797C18.0427 30.7453 17.7716 30.4743 17.4373 30.4743ZM14.443 30.2725C13.9972 30.2725 13.6357 30.6339 13.6357 31.0797V34.074C13.6357 34.5198 13.9972 34.8812 14.443 34.8812H17.4373C17.8831 34.8812 18.2445 34.5198 18.2445 34.074V31.0797C18.2445 30.6339 17.8831 30.2725 17.4373 30.2725H14.443Z" fill="white"/>
<path fill-rule="evenodd" clip-rule="evenodd" d="M23.2566 30.4743H20.2623C19.9279 30.4743 19.6569 30.7453 19.6569 31.0797V34.074C19.6569 34.4083 19.9279 34.6794 20.2623 34.6794H23.2566C23.591 34.6794 23.862 34.4083 23.862 34.074V31.0797C23.862 30.7453 23.591 30.4743 23.2566 30.4743ZM20.2623 30.2725C19.8165 30.2725 19.4551 30.6339 19.4551 31.0797V34.074C19.4551 34.5198 19.8165 34.8812 20.2623 34.8812H23.2566C23.7024 34.8812 24.0638 34.5198 24.0638 34.074V31.0797C24.0638 30.6339 23.7024 30.2725 23.2566 30.2725H20.2623Z" fill="white"/>
<path fill-rule="evenodd" clip-rule="evenodd" d="M17.4373 24.1857H14.443C14.1086 24.1857 13.8375 24.4568 13.8375 24.7911V27.7854C13.8375 28.1198 14.1086 28.3908 14.443 28.3908H17.4373C17.7716 28.3908 18.0427 28.1198 18.0427 27.7854V24.7911C18.0427 24.4568 17.7716 24.1857 17.4373 24.1857ZM14.443 23.9839C13.9972 23.9839 13.6357 24.3453 13.6357 24.7911V27.7854C13.6357 28.2312 13.9972 28.5926 14.443 28.5926H17.4373C17.8831 28.5926 18.2445 28.2312 18.2445 27.7854V24.7911C18.2445 24.3453 17.8831 23.9839 17.4373 23.9839H14.443Z" fill="white"/>
<path fill-rule="evenodd" clip-rule="evenodd" d="M23.2566 24.1857H20.2623C19.9279 24.1857 19.6569 24.4568 19.6569 24.7911V27.7854C19.6569 28.1198 19.9279 28.3908 20.2623 28.3908H23.2566C23.591 28.3908 23.862 28.1198 23.862 27.7854V24.7911C23.862 24.4568 23.591 24.1857 23.2566 24.1857ZM20.2623 23.9839C19.8165 23.9839 19.4551 24.3453 19.4551 24.7911V27.7854C19.4551 28.2312 19.8165 28.5926 20.2623 28.5926H23.2566C23.7024 28.5926 24.0638 28.2312 24.0638 27.7854V24.7911C24.0638 24.3453 23.7024 23.9839 23.2566 23.9839H20.2623Z" fill="white"/>
<path fill-rule="evenodd" clip-rule="evenodd" d="M17.4373 18.1637H14.443C14.1086 18.1637 13.8375 18.4348 13.8375 18.7691V21.7634C13.8375 22.0978 14.1086 22.3689 14.443 22.3689H17.4373C17.7716 22.3689 18.0427 22.0978 18.0427 21.7634V18.7691C18.0427 18.4348 17.7716 18.1637 17.4373 18.1637ZM14.443 17.9619C13.9972 17.9619 13.6357 18.3233 13.6357 18.7691V21.7634C13.6357 22.2093 13.9972 22.5707 14.443 22.5707H17.4373C17.8831 22.5707 18.2445 22.2093 18.2445 21.7634V18.7691C18.2445 18.3233 17.8831 17.9619 17.4373 17.9619H14.443Z" fill="white"/>
<path fill-rule="evenodd" clip-rule="evenodd" d="M29.0759 30.4743H26.0816C25.7473 30.4743 25.4762 30.7453 25.4762 31.0797V34.074C25.4762 34.4083 25.7473 34.6794 26.0816 34.6794H29.0759C29.4103 34.6794 29.6814 34.4083 29.6814 34.074V31.0797C29.6814 30.7453 29.4103 30.4743 29.0759 30.4743ZM26.0816 30.2725C25.6358 30.2725 25.2744 30.6339 25.2744 31.0797V34.074C25.2744 34.5198 25.6358 34.8812 26.0816 34.8812H29.0759C29.5218 34.8812 29.8832 34.5198 29.8832 34.074V31.0797C29.8832 30.6339 29.5218 30.2725 29.0759 30.2725H26.0816Z" fill="white"/>
<path fill-rule="evenodd" clip-rule="evenodd" d="M34.8962 36.5285H31.902C31.5676 36.5285 31.2965 36.7995 31.2965 37.1339V40.1282C31.2965 40.4625 31.5676 40.7336 31.902 40.7336H34.8962C35.2306 40.7336 35.5017 40.4625 35.5017 40.1282V37.1339C35.5017 36.7995 35.2306 36.5285 34.8962 36.5285ZM31.902 36.3267C31.4561 36.3267 31.0947 36.6881 31.0947 37.1339V40.1282C31.0947 40.574 31.4561 40.9354 31.902 40.9354H34.8962C35.3421 40.9354 35.7035 40.574 35.7035 40.1282V37.1339C35.7035 36.6881 35.3421 36.3267 34.8962 36.3267H31.902Z" fill="white"/>
<defs>
<filter id="filter0_f_1_3638" x="2.5" y="2.17725" width="44.7988" height="50.8228" filterUnits="userSpaceOnUse" color-interpolation-filters="sRGB">
<feFlood flood-opacity="0" result="BackgroundImageFix"/>
<feBlend mode="normal" in="SourceGraphic" in2="BackgroundImageFix" result="shape"/>
<feGaussianBlur stdDeviation="4" result="effect1_foregroundBlur_1_3638"/>
</filter>
<filter id="filter1_f_1_3638" x="0.5" y="0.177246" width="48.7988" height="54.8228" filterUnits="userSpaceOnUse" color-interpolation-filters="sRGB">
<feFlood flood-opacity="0" result="BackgroundImageFix"/>
<feBlend mode="normal" in="SourceGraphic" in2="BackgroundImageFix" result="shape"/>
<feGaussianBlur stdDeviation="5" result="effect1_foregroundBlur_1_3638"/>
</filter>
<filter id="filter2_f_1_3638" x="6.5" y="6.17725" width="36.7988" height="42.8228" filterUnits="userSpaceOnUse" color-interpolation-filters="sRGB">
<feFlood flood-opacity="0" result="BackgroundImageFix"/>
<feBlend mode="normal" in="SourceGraphic" in2="BackgroundImageFix" result="shape"/>
<feGaussianBlur stdDeviation="2" result="effect1_foregroundBlur_1_3638"/>
</filter>
</defs>
</svg>
