<svg width="208" height="179" viewBox="0 0 208 179" fill="none" xmlns="http://www.w3.org/2000/svg">
<g filter="url(#filter0_f_1_1701)">
<path fill-rule="evenodd" clip-rule="evenodd" d="M104.143 37.744C99.1648 37.744 95.1292 41.7803 95.1292 46.7593V132.225C95.1292 137.801 90.6095 142.322 85.034 142.322C79.4586 142.322 74.9388 137.801 74.9388 132.225V74.1659C74.9388 69.1869 70.9032 65.1506 65.9252 65.1506C60.9471 65.1506 56.9116 69.1869 56.9116 74.1659V87.5086C56.9116 91.8902 53.3603 95.4421 48.9796 95.4421H36V93.9997H48.9796C52.5638 93.9997 55.4694 91.0935 55.4694 87.5086V74.1659C55.4694 68.3902 60.1506 63.7081 65.9252 63.7081C71.6997 63.7081 76.381 68.3902 76.381 74.1659V132.225C76.381 137.005 80.2551 140.879 85.034 140.879C89.813 140.879 93.6871 137.005 93.6871 132.225V46.7593C93.6871 40.9836 98.3683 36.3015 104.143 36.3015C109.917 36.3015 114.599 40.9836 114.599 46.7593V106.261C114.599 111.04 118.473 114.915 123.252 114.915C128.031 114.915 131.905 111.04 131.905 106.261V59.7414C131.905 54.7624 135.94 50.726 140.918 50.726C145.896 50.726 149.932 54.7624 149.932 59.7414V87.5086C149.932 91.0935 152.838 93.9997 156.422 93.9997H171.565V95.4421H156.422C152.041 95.4421 148.49 91.8902 148.49 87.5086V59.7414C148.49 55.559 145.1 52.1685 140.918 52.1685C136.737 52.1685 133.347 55.559 133.347 59.7414V106.261C133.347 111.837 128.827 116.358 123.252 116.358C117.676 116.358 113.156 111.837 113.156 106.261V46.7593C113.156 41.7803 109.121 37.744 104.143 37.744Z" stroke="#E06121" stroke-width="2"/>
</g>
<g filter="url(#filter1_f_1_1701)">
<path fill-rule="evenodd" clip-rule="evenodd" d="M104.143 37.744C99.1648 37.744 95.1292 41.7803 95.1292 46.7593V132.225C95.1292 137.801 90.6095 142.322 85.034 142.322C79.4586 142.322 74.9388 137.801 74.9388 132.225V74.1659C74.9388 69.1869 70.9032 65.1506 65.9252 65.1506C60.9471 65.1506 56.9116 69.1869 56.9116 74.1659V87.5086C56.9116 91.8902 53.3603 95.4421 48.9796 95.4421H36V93.9997H48.9796C52.5638 93.9997 55.4694 91.0935 55.4694 87.5086V74.1659C55.4694 68.3902 60.1506 63.7081 65.9252 63.7081C71.6997 63.7081 76.381 68.3902 76.381 74.1659V132.225C76.381 137.005 80.2551 140.879 85.034 140.879C89.813 140.879 93.6871 137.005 93.6871 132.225V46.7593C93.6871 40.9836 98.3683 36.3015 104.143 36.3015C109.917 36.3015 114.599 40.9836 114.599 46.7593V106.261C114.599 111.04 118.473 114.915 123.252 114.915C128.031 114.915 131.905 111.04 131.905 106.261V59.7414C131.905 54.7624 135.94 50.726 140.918 50.726C145.896 50.726 149.932 54.7624 149.932 59.7414V87.5086C149.932 91.0935 152.838 93.9997 156.422 93.9997H171.565V95.4421H156.422C152.041 95.4421 148.49 91.8902 148.49 87.5086V59.7414C148.49 55.559 145.1 52.1685 140.918 52.1685C136.737 52.1685 133.347 55.559 133.347 59.7414V106.261C133.347 111.837 128.827 116.358 123.252 116.358C117.676 116.358 113.156 111.837 113.156 106.261V46.7593C113.156 41.7803 109.121 37.744 104.143 37.744Z" stroke="#E06121" stroke-width="2"/>
</g>
<g filter="url(#filter2_f_1_1701)">
<path fill-rule="evenodd" clip-rule="evenodd" d="M104.143 37.744C99.1648 37.744 95.1292 41.7803 95.1292 46.7593V132.225C95.1292 137.801 90.6095 142.322 85.034 142.322C79.4586 142.322 74.9388 137.801 74.9388 132.225V74.1659C74.9388 69.1869 70.9032 65.1506 65.9252 65.1506C60.9471 65.1506 56.9116 69.1869 56.9116 74.1659V87.5086C56.9116 91.8902 53.3603 95.4421 48.9796 95.4421H36V93.9997H48.9796C52.5638 93.9997 55.4694 91.0935 55.4694 87.5086V74.1659C55.4694 68.3902 60.1506 63.7081 65.9252 63.7081C71.6997 63.7081 76.381 68.3902 76.381 74.1659V132.225C76.381 137.005 80.2551 140.879 85.034 140.879C89.813 140.879 93.6871 137.005 93.6871 132.225V46.7593C93.6871 40.9836 98.3683 36.3015 104.143 36.3015C109.917 36.3015 114.599 40.9836 114.599 46.7593V106.261C114.599 111.04 118.473 114.915 123.252 114.915C128.031 114.915 131.905 111.04 131.905 106.261V59.7414C131.905 54.7624 135.94 50.726 140.918 50.726C145.896 50.726 149.932 54.7624 149.932 59.7414V87.5086C149.932 91.0935 152.838 93.9997 156.422 93.9997H171.565V95.4421H156.422C152.041 95.4421 148.49 91.8902 148.49 87.5086V59.7414C148.49 55.559 145.1 52.1685 140.918 52.1685C136.737 52.1685 133.347 55.559 133.347 59.7414V106.261C133.347 111.837 128.827 116.358 123.252 116.358C117.676 116.358 113.156 111.837 113.156 106.261V46.7593C113.156 41.7803 109.121 37.744 104.143 37.744Z" stroke="#E06121" stroke-width="2"/>
</g>
<path fill-rule="evenodd" clip-rule="evenodd" d="M104.143 37.744C99.1648 37.744 95.1292 41.7803 95.1292 46.7593V132.225C95.1292 137.801 90.6095 142.322 85.034 142.322C79.4586 142.322 74.9388 137.801 74.9388 132.225V74.1659C74.9388 69.1869 70.9032 65.1506 65.9252 65.1506C60.9471 65.1506 56.9116 69.1869 56.9116 74.1659V87.5086C56.9116 91.8902 53.3603 95.4421 48.9796 95.4421H36V93.9997H48.9796C52.5638 93.9997 55.4694 91.0935 55.4694 87.5086V74.1659C55.4694 68.3902 60.1506 63.7081 65.9252 63.7081C71.6997 63.7081 76.381 68.3902 76.381 74.1659V132.225C76.381 137.005 80.2551 140.879 85.034 140.879C89.813 140.879 93.6871 137.005 93.6871 132.225V46.7593C93.6871 40.9836 98.3683 36.3015 104.143 36.3015C109.917 36.3015 114.599 40.9836 114.599 46.7593V106.261C114.599 111.04 118.473 114.915 123.252 114.915C128.031 114.915 131.905 111.04 131.905 106.261V59.7414C131.905 54.7624 135.94 50.726 140.918 50.726C145.896 50.726 149.932 54.7624 149.932 59.7414V87.5086C149.932 91.0935 152.838 93.9997 156.422 93.9997H171.565V95.4421H156.422C152.041 95.4421 148.49 91.8902 148.49 87.5086V59.7414C148.49 55.559 145.1 52.1685 140.918 52.1685C136.737 52.1685 133.347 55.559 133.347 59.7414V106.261C133.347 111.837 128.827 116.358 123.252 116.358C117.676 116.358 113.156 111.837 113.156 106.261V46.7593C113.156 41.7803 109.121 37.744 104.143 37.744Z" fill="white"/>
<defs>
<filter id="filter0_f_1_1701" x="0" y="0.301514" width="207.565" height="178.02" filterUnits="userSpaceOnUse" color-interpolation-filters="sRGB">
<feFlood flood-opacity="0" result="BackgroundImageFix"/>
<feBlend mode="normal" in="SourceGraphic" in2="BackgroundImageFix" result="shape"/>
<feGaussianBlur stdDeviation="17.5" result="effect1_foregroundBlur_1_1701"/>
</filter>
<filter id="filter1_f_1_1701" x="20" y="20.3015" width="167.565" height="138.02" filterUnits="userSpaceOnUse" color-interpolation-filters="sRGB">
<feFlood flood-opacity="0" result="BackgroundImageFix"/>
<feBlend mode="normal" in="SourceGraphic" in2="BackgroundImageFix" result="shape"/>
<feGaussianBlur stdDeviation="7.5" result="effect1_foregroundBlur_1_1701"/>
</filter>
<filter id="filter2_f_1_1701" x="31" y="31.3015" width="145.565" height="116.02" filterUnits="userSpaceOnUse" color-interpolation-filters="sRGB">
<feFlood flood-opacity="0" result="BackgroundImageFix"/>
<feBlend mode="normal" in="SourceGraphic" in2="BackgroundImageFix" result="shape"/>
<feGaussianBlur stdDeviation="2" result="effect1_foregroundBlur_1_1701"/>
</filter>
</defs>
</svg>
