<svg width="771" height="409" viewBox="0 0 771 409" fill="none" xmlns="http://www.w3.org/2000/svg">
<path d="M427.98 69.892H254.231L265.892 80.1441H417.485L427.98 69.892Z" fill="white"/>
<path d="M730 247.904L688.02 216.216V94.1241L672.861 104.376V223.672L730 268.408V247.904Z" fill="white"/>
<path d="M489.783 350.424H525.932L535.261 360.677H499.112L489.783 350.424Z" fill="white"/>
<path d="M445.471 350.424H481.62L490.949 360.677H454.8L445.471 350.424Z" fill="white"/>
<path d="M401.159 350.424H437.309L446.637 360.677H410.488L401.159 350.424Z" fill="white"/>
<path d="M372.007 346.696L397.661 367.201H410.488L367.342 330.852H130.624L111.966 346.696H372.007Z" fill="white"/>
<path d="M48.9966 55.912L42 307.552L48.9966 302.892L57.1593 61.504L48.9966 55.912Z" fill="white"/>
<path d="M48.9966 55.912L42 307.552M48.9966 55.912L64.1559 41H218.081L254.231 69.892M48.9966 55.912L57.1593 61.504L48.9966 302.892L42 307.552M42 307.552L89.8102 346.696H111.966M427.98 69.892L437.309 61.504H665.864L688.02 80.1441V94.1241M427.98 69.892H254.231M427.98 69.892L417.485 80.1441H265.892L254.231 69.892M111.966 346.696H372.007L397.661 367.201H410.488M111.966 346.696L130.624 330.852H367.342L410.488 367.201M410.488 367.201H538.759L564.414 346.696H730V268.408M688.02 94.1241V216.216L730 247.904V268.408M688.02 94.1241L672.861 104.376V223.672L730 268.408M401.159 350.424H437.309L446.637 360.677H410.488L401.159 350.424ZM445.471 350.424H481.62L490.949 360.677H454.8L445.471 350.424ZM489.783 350.424H525.932L535.261 360.677H499.112L489.783 350.424Z" stroke="#E06121"/>
<g filter="url(#filter0_f_1_4516)">
<path fill-rule="evenodd" clip-rule="evenodd" d="M64.325 41H218.41L254.521 69.9117H427.775L437.094 61.518H665.726L688.065 80.3442V216.5L730 248.209V347.482H564.377L538.75 368H397.501L371.874 347.482H89.9719L42 308.137L48.9953 56.1057L64.325 41ZM427.176 70.4894H255.187L266.18 80.1707H417.282L427.176 70.4894ZM254.11 70.3999L218.11 41.5777H64.6687L49.8552 56.1748L57.8731 61.6771L49.7099 303.498L42.8952 308.044L90.2761 346.904H112.101L130.739 331.049H367.519L410.619 367.422H538.45L564.078 346.904H729.278V268.973L672.199 224.207V104.574L687.343 94.3151V80.5748L665.416 62.0957H437.418L428.216 70.3834L428.207 70.3924L417.624 80.7484H265.86L254.11 70.3999ZM687.343 95.0721L672.921 104.842V223.964L729.278 268.164V248.458L687.343 216.749V95.0721ZM409.624 367.422L367.209 331.627H131.051L113.092 346.904H372.173L397.8 367.422H409.624ZM42.7427 307.394L49.6974 56.8276L57.1421 61.9366L48.9971 303.221L42.7427 307.394ZM400.436 350.635H437.44L447.284 361.472H410.28L400.436 350.635ZM401.854 351.213L410.648 360.894H445.866L437.072 351.213H401.854ZM444.702 350.635H481.705L491.549 361.472H454.545L444.702 350.635ZM446.119 351.213L454.913 360.894H490.132L481.337 351.213H446.119ZM488.967 350.635H525.97L535.814 361.472H498.81L488.967 350.635ZM490.384 351.213L499.178 360.894H534.397L525.602 351.213H490.384Z" stroke="#E06121" stroke-width="2"/>
</g>
<g filter="url(#filter1_f_1_4516)">
<path fill-rule="evenodd" clip-rule="evenodd" d="M64.325 41H218.41L254.521 69.9117H427.775L437.094 61.518H665.726L688.065 80.3442V216.5L730 248.209V347.482H564.377L538.75 368H397.501L371.874 347.482H89.9719L42 308.137L48.9953 56.1057L64.325 41ZM427.176 70.4894H255.187L266.18 80.1707H417.282L427.176 70.4894ZM254.11 70.3999L218.11 41.5777H64.6687L49.8552 56.1748L57.8731 61.6771L49.7099 303.498L42.8952 308.044L90.2761 346.904H112.101L130.739 331.049H367.519L410.619 367.422H538.45L564.078 346.904H729.278V268.973L672.199 224.207V104.574L687.343 94.3151V80.5748L665.416 62.0957H437.418L428.216 70.3834L428.207 70.3924L417.624 80.7484H265.86L254.11 70.3999ZM687.343 95.0721L672.921 104.842V223.964L729.278 268.164V248.458L687.343 216.749V95.0721ZM409.624 367.422L367.209 331.627H131.051L113.092 346.904H372.173L397.8 367.422H409.624ZM42.7427 307.394L49.6974 56.8276L57.1421 61.9366L48.9971 303.221L42.7427 307.394ZM400.436 350.635H437.44L447.284 361.472H410.28L400.436 350.635ZM401.854 351.213L410.648 360.894H445.866L437.072 351.213H401.854ZM444.702 350.635H481.705L491.549 361.472H454.545L444.702 350.635ZM446.119 351.213L454.913 360.894H490.132L481.337 351.213H446.119ZM488.967 350.635H525.97L535.814 361.472H498.81L488.967 350.635ZM490.384 351.213L499.178 360.894H534.397L525.602 351.213H490.384Z" stroke="#E06121" stroke-width="2"/>
</g>
<g filter="url(#filter2_f_1_4516)">
<path fill-rule="evenodd" clip-rule="evenodd" d="M64.325 41H218.41L254.521 69.9117H427.775L437.094 61.518H665.726L688.065 80.3442V216.5L730 248.209V347.482H564.377L538.75 368H397.501L371.874 347.482H89.9719L42 308.137L48.9953 56.1057L64.325 41ZM427.176 70.4894H255.187L266.18 80.1707H417.282L427.176 70.4894ZM254.11 70.3999L218.11 41.5777H64.6687L49.8552 56.1748L57.8731 61.6771L49.7099 303.498L42.8952 308.044L90.2761 346.904H112.101L130.739 331.049H367.519L410.619 367.422H538.45L564.078 346.904H729.278V268.973L672.199 224.207V104.574L687.343 94.3151V80.5748L665.416 62.0957H437.418L428.216 70.3834L428.207 70.3924L417.624 80.7484H265.86L254.11 70.3999ZM687.343 95.0721L672.921 104.842V223.964L729.278 268.164V248.458L687.343 216.749V95.0721ZM409.624 367.422L367.209 331.627H131.051L113.092 346.904H372.173L397.8 367.422H409.624ZM42.7427 307.394L49.6974 56.8276L57.1421 61.9366L48.9971 303.221L42.7427 307.394ZM400.436 350.635H437.44L447.284 361.472H410.28L400.436 350.635ZM401.854 351.213L410.648 360.894H445.866L437.072 351.213H401.854ZM444.702 350.635H481.705L491.549 361.472H454.545L444.702 350.635ZM446.119 351.213L454.913 360.894H490.132L481.337 351.213H446.119ZM488.967 350.635H525.97L535.814 361.472H498.81L488.967 350.635ZM490.384 351.213L499.178 360.894H534.397L525.602 351.213H490.384Z" stroke="#E06121" stroke-width="2"/>
</g>
<path fill-rule="evenodd" clip-rule="evenodd" d="M64.325 41H218.41L254.521 69.9117H427.775L437.094 61.518H665.726L688.065 80.3442V216.5L730 248.209V347.482H564.377L538.75 368H397.501L371.874 347.482H89.9719L42 308.137L48.9953 56.1057L64.325 41ZM427.176 70.4894H255.187L266.18 80.1707H417.282L427.176 70.4894ZM254.11 70.3999L218.11 41.5777H64.6687L49.8552 56.1748L57.8731 61.6771L49.7099 303.498L42.8952 308.044L90.2761 346.904H112.101L130.739 331.049H367.519L410.619 367.422H538.45L564.078 346.904H729.278V268.973L672.199 224.207V104.574L687.343 94.3151V80.5748L665.416 62.0957H437.418L428.216 70.3834L428.207 70.3924L417.624 80.7484H265.86L254.11 70.3999ZM687.343 95.0721L672.921 104.842V223.964L729.278 268.164V248.458L687.343 216.749V95.0721ZM409.624 367.422L367.209 331.627H131.051L113.092 346.904H372.173L397.8 367.422H409.624ZM42.7427 307.394L49.6974 56.8276L57.1421 61.9366L48.9971 303.221L42.7427 307.394ZM400.436 350.635H437.44L447.284 361.472H410.28L400.436 350.635ZM401.854 351.213L410.648 360.894H445.866L437.072 351.213H401.854ZM444.702 350.635H481.705L491.549 361.472H454.545L444.702 350.635ZM446.119 351.213L454.913 360.894H490.132L481.337 351.213H446.119ZM488.967 350.635H525.97L535.814 361.472H498.81L488.967 350.635ZM490.384 351.213L499.178 360.894H534.397L525.602 351.213H490.384Z" fill="white" stroke="#E06121"/>
<defs>
<filter id="filter0_f_1_4516" x="0.986328" y="0" width="770.014" height="409" filterUnits="userSpaceOnUse" color-interpolation-filters="sRGB">
<feFlood flood-opacity="0" result="BackgroundImageFix"/>
<feBlend mode="normal" in="SourceGraphic" in2="BackgroundImageFix" result="shape"/>
<feGaussianBlur stdDeviation="20" result="effect1_foregroundBlur_1_4516"/>
</filter>
<filter id="filter1_f_1_4516" x="25.9863" y="25" width="720.014" height="359" filterUnits="userSpaceOnUse" color-interpolation-filters="sRGB">
<feFlood flood-opacity="0" result="BackgroundImageFix"/>
<feBlend mode="normal" in="SourceGraphic" in2="BackgroundImageFix" result="shape"/>
<feGaussianBlur stdDeviation="7.5" result="effect1_foregroundBlur_1_4516"/>
</filter>
<filter id="filter2_f_1_4516" x="36.9863" y="36" width="698.014" height="337" filterUnits="userSpaceOnUse" color-interpolation-filters="sRGB">
<feFlood flood-opacity="0" result="BackgroundImageFix"/>
<feBlend mode="normal" in="SourceGraphic" in2="BackgroundImageFix" result="shape"/>
<feGaussianBlur stdDeviation="2" result="effect1_foregroundBlur_1_4516"/>
</filter>
</defs>
</svg>
