<svg width="162" height="189" viewBox="0 0 162 189" fill="none" xmlns="http://www.w3.org/2000/svg">
<g filter="url(#filter0_f_1_1643)">
<path d="M103.078 38.9326C95.111 34.4752 85.0403 37.3212 80.5839 45.289L61.812 78.8523C57.3556 86.8201 60.2008 96.8928 68.1673 101.35L81.7191 108.933C82.5576 109.402 83.6174 109.102 84.0863 108.264C84.5552 107.425 84.2559 106.365 83.4174 105.896L69.8656 98.3137C63.576 94.7946 61.3294 86.842 64.848 80.551L83.62 46.9877C87.1385 40.6967 95.0897 38.4499 101.379 41.969L115.576 49.9125C121.866 53.4316 124.113 61.3842 120.594 67.6752L106.876 92.2022C106.407 93.0406 106.706 94.1007 107.545 94.5698C108.383 95.0389 109.443 94.7393 109.912 93.9009L123.63 69.3739C128.086 61.4061 125.241 51.3335 117.275 46.8761L103.078 38.9326Z" stroke="#E06121" stroke-width="2" stroke-linecap="round"/>
<path d="M59.2604 150.602C67.2269 155.059 77.2976 152.213 81.754 144.245L100.526 110.682C104.982 102.714 102.137 92.6414 94.1706 88.184L80.6188 80.6016C79.7803 80.1325 78.7205 80.4321 78.2516 81.2705C77.7827 82.1089 78.082 83.1689 78.9205 83.638L92.4723 91.2205C98.7619 94.7396 101.008 102.692 97.4899 108.983L78.7179 142.546C75.1994 148.837 67.2482 151.084 60.9586 147.565L46.7615 139.622C40.4719 136.103 38.2253 128.15 41.7439 121.859L55.4619 97.3319C55.9308 96.4935 55.6315 95.4335 54.793 94.9644C53.9545 94.4952 52.8948 94.7948 52.4259 95.6332L38.7079 120.16C34.2515 128.128 37.0967 138.201 45.0633 142.658L59.2604 150.602Z" stroke="#E06121" stroke-width="2" stroke-linecap="round"/>
</g>
<g filter="url(#filter1_f_1_1643)">
<path d="M103.078 38.9326C95.111 34.4752 85.0403 37.3212 80.5839 45.289L61.812 78.8523C57.3556 86.8201 60.2008 96.8928 68.1673 101.35L81.7191 108.933C82.5576 109.402 83.6174 109.102 84.0863 108.264C84.5552 107.425 84.2559 106.365 83.4174 105.896L69.8656 98.3137C63.576 94.7946 61.3294 86.842 64.848 80.551L83.62 46.9877C87.1385 40.6967 95.0897 38.4499 101.379 41.969L115.576 49.9125C121.866 53.4316 124.113 61.3842 120.594 67.6752L106.876 92.2022C106.407 93.0406 106.706 94.1007 107.545 94.5698C108.383 95.0389 109.443 94.7393 109.912 93.9009L123.63 69.3739C128.086 61.4061 125.241 51.3335 117.275 46.8761L103.078 38.9326Z" stroke="#E06121" stroke-width="2" stroke-linecap="round"/>
<path d="M59.2604 150.602C67.2269 155.059 77.2976 152.213 81.754 144.245L100.526 110.682C104.982 102.714 102.137 92.6414 94.1706 88.184L80.6188 80.6016C79.7803 80.1325 78.7205 80.4321 78.2516 81.2705C77.7827 82.1089 78.082 83.1689 78.9205 83.638L92.4723 91.2205C98.7619 94.7396 101.008 102.692 97.4899 108.983L78.7179 142.546C75.1994 148.837 67.2482 151.084 60.9586 147.565L46.7615 139.622C40.4719 136.103 38.2253 128.15 41.7439 121.859L55.4619 97.3319C55.9308 96.4935 55.6315 95.4335 54.793 94.9644C53.9545 94.4952 52.8948 94.7948 52.4259 95.6332L38.7079 120.16C34.2515 128.128 37.0967 138.201 45.0633 142.658L59.2604 150.602Z" stroke="#E06121" stroke-width="2" stroke-linecap="round"/>
</g>
<g filter="url(#filter2_f_1_1643)">
<path d="M103.078 38.9326C95.111 34.4752 85.0403 37.3212 80.5839 45.289L61.812 78.8523C57.3556 86.8201 60.2008 96.8928 68.1673 101.35L81.7191 108.933C82.5576 109.402 83.6174 109.102 84.0863 108.264C84.5552 107.425 84.2559 106.365 83.4174 105.896L69.8656 98.3137C63.576 94.7946 61.3294 86.842 64.848 80.551L83.62 46.9877C87.1385 40.6967 95.0897 38.4499 101.379 41.969L115.576 49.9125C121.866 53.4316 124.113 61.3842 120.594 67.6752L106.876 92.2022C106.407 93.0406 106.706 94.1007 107.545 94.5698C108.383 95.0389 109.443 94.7393 109.912 93.9009L123.63 69.3739C128.086 61.4061 125.241 51.3335 117.275 46.8761L103.078 38.9326Z" stroke="#E06121" stroke-width="2" stroke-linecap="round"/>
<path d="M59.2604 150.602C67.2269 155.059 77.2976 152.213 81.754 144.245L100.526 110.682C104.982 102.714 102.137 92.6414 94.1706 88.184L80.6188 80.6016C79.7803 80.1325 78.7205 80.4321 78.2516 81.2705C77.7827 82.1089 78.082 83.1689 78.9205 83.638L92.4723 91.2205C98.7619 94.7396 101.008 102.692 97.4899 108.983L78.7179 142.546C75.1994 148.837 67.2482 151.084 60.9586 147.565L46.7615 139.622C40.4719 136.103 38.2253 128.15 41.7439 121.859L55.4619 97.3319C55.9308 96.4935 55.6315 95.4335 54.793 94.9644C53.9545 94.4952 52.8948 94.7948 52.4259 95.6332L38.7079 120.16C34.2515 128.128 37.0967 138.201 45.0633 142.658L59.2604 150.602Z" stroke="#E06121" stroke-width="2" stroke-linecap="round"/>
</g>
<g filter="url(#filter3_d_1_1643)">
<path fill-rule="evenodd" clip-rule="evenodd" d="M81.4566 45.7773C85.6435 38.2914 95.1049 35.6177 102.589 39.8053L116.787 47.7488C124.271 51.9365 126.944 61.3998 122.757 68.8857L109.039 93.4127C108.84 93.7691 108.389 93.8964 108.033 93.697C107.677 93.4976 107.549 93.047 107.749 92.6905L121.467 68.1635C125.255 61.3906 122.836 52.8286 116.065 49.0397L101.867 41.0962C95.0957 37.3074 86.5354 39.7265 82.7473 46.4994L63.9753 80.0627C60.1872 86.8356 62.6058 95.3976 69.3775 99.1865L82.9293 106.769C83.2857 106.968 83.413 107.419 83.2136 107.775C83.0142 108.132 82.5637 108.259 82.2073 108.06L68.6555 100.477C61.171 96.2897 58.4978 86.8264 62.6847 79.3405L81.4566 45.7773Z" fill="white"/>
<path fill-rule="evenodd" clip-rule="evenodd" d="M80.8813 143.757C76.6944 151.243 67.233 153.917 59.7485 149.729L45.5514 141.785C38.0669 137.598 35.3937 128.134 39.5806 120.649L53.2985 96.1215C53.4979 95.7651 53.9485 95.6377 54.3049 95.8371C54.6613 96.0366 54.7886 96.4872 54.5892 96.8437L40.8712 121.371C37.0831 128.144 39.5017 136.706 46.2734 140.494L60.4705 148.438C67.2421 152.227 75.8025 149.808 79.5906 143.035L98.3626 109.472C102.151 102.699 99.7321 94.1365 92.9604 90.3477L79.4086 82.7653C79.0522 82.5659 78.9249 82.1152 79.1243 81.7588C79.3237 81.4023 79.7742 81.275 80.1306 81.4744L93.6824 89.0568C101.167 93.2445 103.84 102.708 99.6532 110.194L80.8813 143.757Z" fill="white"/>
</g>
<defs>
<filter id="filter0_f_1_1643" x="0.601318" y="0.825439" width="161.135" height="187.883" filterUnits="userSpaceOnUse" color-interpolation-filters="sRGB">
<feFlood flood-opacity="0" result="BackgroundImageFix"/>
<feBlend mode="normal" in="SourceGraphic" in2="BackgroundImageFix" result="shape"/>
<feGaussianBlur stdDeviation="17.5" result="effect1_foregroundBlur_1_1643"/>
</filter>
<filter id="filter1_f_1_1643" x="20.6013" y="20.8254" width="121.135" height="147.883" filterUnits="userSpaceOnUse" color-interpolation-filters="sRGB">
<feFlood flood-opacity="0" result="BackgroundImageFix"/>
<feBlend mode="normal" in="SourceGraphic" in2="BackgroundImageFix" result="shape"/>
<feGaussianBlur stdDeviation="7.5" result="effect1_foregroundBlur_1_1643"/>
</filter>
<filter id="filter2_f_1_1643" x="31.6013" y="31.8254" width="99.1353" height="125.883" filterUnits="userSpaceOnUse" color-interpolation-filters="sRGB">
<feFlood flood-opacity="0" result="BackgroundImageFix"/>
<feBlend mode="normal" in="SourceGraphic" in2="BackgroundImageFix" result="shape"/>
<feGaussianBlur stdDeviation="2" result="effect1_foregroundBlur_1_1643"/>
</filter>
<filter id="filter3_d_1_1643" x="33.6016" y="37.8259" width="95.1348" height="121.882" filterUnits="userSpaceOnUse" color-interpolation-filters="sRGB">
<feFlood flood-opacity="0" result="BackgroundImageFix"/>
<feColorMatrix in="SourceAlpha" type="matrix" values="0 0 0 0 0 0 0 0 0 0 0 0 0 0 0 0 0 0 127 0" result="hardAlpha"/>
<feOffset dy="4"/>
<feGaussianBlur stdDeviation="2"/>
<feComposite in2="hardAlpha" operator="out"/>
<feColorMatrix type="matrix" values="0 0 0 0 0 0 0 0 0 0 0 0 0 0 0 0 0 0 0.25 0"/>
<feBlend mode="normal" in2="BackgroundImageFix" result="effect1_dropShadow_1_1643"/>
<feBlend mode="normal" in="SourceGraphic" in2="effect1_dropShadow_1_1643" result="shape"/>
</filter>
</defs>
</svg>
