<svg width="67" height="67" viewBox="0 0 67 67" fill="none" xmlns="http://www.w3.org/2000/svg">
<g filter="url(#filter0_f_1_3698)">
<path fill-rule="evenodd" clip-rule="evenodd" d="M25.4617 16.0401C25.487 16.0144 25.5215 16 25.5576 16H50.7303C50.8047 16 50.865 16.0603 50.865 16.1346V41.3074C50.865 41.3431 50.8508 41.3773 50.8255 41.4026L41.4026 50.8255C41.3773 50.8508 41.3431 50.865 41.3074 50.865H16.1346C16.0603 50.865 16 50.8047 16 50.7303V25.6922C16 25.6568 16.0139 25.6229 16.0388 25.5977L25.4617 16.0401ZM25.6139 16.2692L16.4564 25.5576H41.2511L50.4086 16.2692H25.6139ZM50.5957 16.4629L41.442 25.7474V50.4054L50.5957 41.2516V16.4629ZM41.1728 50.5957V25.8268H16.2692V50.5957H41.1728Z" stroke="#E06121" stroke-linejoin="round"/>
<path fill-rule="evenodd" clip-rule="evenodd" d="M25.5574 16.7935V16.269H25.8266V16.7935C25.8266 16.8678 25.7663 16.9281 25.692 16.9281C25.6177 16.9281 25.5574 16.8678 25.5574 16.7935ZM25.692 17.7077C25.7663 17.7077 25.8266 17.768 25.8266 17.8423V18.8912C25.8266 18.9656 25.7663 19.0258 25.692 19.0258C25.6177 19.0258 25.5574 18.9656 25.5574 18.8912V17.8423C25.5574 17.768 25.6177 17.7077 25.692 17.7077ZM25.692 19.8055C25.7663 19.8055 25.8266 19.8657 25.8266 19.9401V20.9889C25.8266 21.0633 25.7663 21.1236 25.692 21.1236C25.6177 21.1236 25.5574 21.0633 25.5574 20.9889V19.9401C25.5574 19.8657 25.6177 19.8055 25.692 19.8055ZM25.692 21.9032C25.7663 21.9032 25.8266 21.9635 25.8266 22.0378V23.0867C25.8266 23.161 25.7663 23.2213 25.692 23.2213C25.6177 23.2213 25.5574 23.161 25.5574 23.0867V22.0378C25.5574 21.9635 25.6177 21.9032 25.692 21.9032ZM25.692 24.0009C25.7663 24.0009 25.8266 24.0612 25.8266 24.1355V25.1844C25.8266 25.2587 25.7663 25.319 25.692 25.319C25.6177 25.319 25.5574 25.2587 25.5574 25.1844V24.1355C25.5574 24.0612 25.6177 24.0009 25.692 24.0009ZM25.692 26.0987C25.7663 26.0987 25.8266 26.1589 25.8266 26.2333V27.2821C25.8266 27.3565 25.7663 27.4167 25.692 27.4167C25.6177 27.4167 25.5574 27.3565 25.5574 27.2821V26.2333C25.5574 26.1589 25.6177 26.0987 25.692 26.0987ZM25.692 28.1964C25.7663 28.1964 25.8266 28.2567 25.8266 28.331V29.3799C25.8266 29.4542 25.7663 29.5145 25.692 29.5145C25.6177 29.5145 25.5574 29.4542 25.5574 29.3799V28.331C25.5574 28.2567 25.6177 28.1964 25.692 28.1964ZM25.692 30.2941C25.7663 30.2941 25.8266 30.3544 25.8266 30.4287V31.4776C25.8266 31.5519 25.7663 31.6122 25.692 31.6122C25.6177 31.6122 25.5574 31.5519 25.5574 31.4776V30.4287C25.5574 30.3544 25.6177 30.2941 25.692 30.2941ZM25.692 32.3918C25.7663 32.3918 25.8266 32.4521 25.8266 32.5265V33.5753C25.8266 33.6497 25.7663 33.7099 25.692 33.7099C25.6177 33.7099 25.5574 33.6497 25.5574 33.5753V32.5265C25.5574 32.4521 25.6177 32.3918 25.692 32.3918ZM25.692 34.4896C25.7663 34.4896 25.8266 34.5498 25.8266 34.6242V35.6731C25.8266 35.7474 25.7663 35.8077 25.692 35.8077C25.6177 35.8077 25.5574 35.7474 25.5574 35.6731V34.6242C25.5574 34.5498 25.6177 34.4896 25.692 34.4896ZM25.692 36.5873C25.7663 36.5873 25.8266 36.6476 25.8266 36.7219V37.7708C25.8266 37.8451 25.7663 37.9054 25.692 37.9054C25.6177 37.9054 25.5574 37.8451 25.5574 37.7708V36.7219C25.5574 36.6476 25.6177 36.5873 25.692 36.5873ZM25.692 38.685C25.7663 38.685 25.8266 38.7453 25.8266 38.8197V39.8685C25.8266 39.9429 25.7663 40.0031 25.692 40.0031C25.6177 40.0031 25.5574 39.9429 25.5574 39.8685V38.8197C25.5574 38.7453 25.6177 38.685 25.692 38.685ZM25.692 40.7828C25.7663 40.7828 25.8266 40.843 25.8266 40.9174V41.3072H26.2192C26.2936 41.3072 26.3538 41.3675 26.3538 41.4418C26.3538 41.5162 26.2936 41.5764 26.2192 41.5764H25.7483L25.4065 41.9233C25.3543 41.9763 25.2691 41.9769 25.2161 41.9247C25.1632 41.8725 25.1625 41.7873 25.2147 41.7343L25.5574 41.3866V40.9174C25.5574 40.843 25.6177 40.7828 25.692 40.7828ZM27.1391 41.4418C27.1391 41.3675 27.1994 41.3072 27.2737 41.3072H28.3282C28.4025 41.3072 28.4628 41.3675 28.4628 41.4418C28.4628 41.5162 28.4025 41.5764 28.3282 41.5764H27.2737C27.1994 41.5764 27.1391 41.5162 27.1391 41.4418ZM29.248 41.4418C29.248 41.3675 29.3083 41.3072 29.3827 41.3072H30.4371C30.5115 41.3072 30.5717 41.3675 30.5717 41.4418C30.5717 41.5162 30.5115 41.5764 30.4371 41.5764H29.3827C29.3083 41.5764 29.248 41.5162 29.248 41.4418ZM31.357 41.4418C31.357 41.3675 31.4173 41.3072 31.4916 41.3072H32.5461C32.6204 41.3072 32.6807 41.3675 32.6807 41.4418C32.6807 41.5162 32.6204 41.5764 32.5461 41.5764H31.4916C31.4173 41.5764 31.357 41.5162 31.357 41.4418ZM33.4659 41.4418C33.4659 41.3675 33.5262 41.3072 33.6006 41.3072H34.655C34.7294 41.3072 34.7896 41.3675 34.7896 41.4418C34.7896 41.5162 34.7294 41.5764 34.655 41.5764H33.6006C33.5262 41.5764 33.4659 41.5162 33.4659 41.4418ZM35.5749 41.4418C35.5749 41.3675 35.6352 41.3072 35.7095 41.3072H36.764C36.8383 41.3072 36.8986 41.3675 36.8986 41.4418C36.8986 41.5162 36.8383 41.5764 36.764 41.5764H35.7095C35.6352 41.5764 35.5749 41.5162 35.5749 41.4418ZM37.6838 41.4418C37.6838 41.3675 37.7441 41.3072 37.8185 41.3072H38.8729C38.9473 41.3072 39.0075 41.3675 39.0075 41.4418C39.0075 41.5162 38.9473 41.5764 38.8729 41.5764H37.8185C37.7441 41.5764 37.6838 41.5162 37.6838 41.4418ZM39.7928 41.4418C39.7928 41.3675 39.8531 41.3072 39.9274 41.3072H40.9819C41.0562 41.3072 41.1165 41.3675 41.1165 41.4418C41.1165 41.5162 41.0562 41.5764 40.9819 41.5764H39.9274C39.8531 41.5764 39.7928 41.5162 39.7928 41.4418ZM41.9017 41.4418C41.9017 41.3675 41.962 41.3072 42.0364 41.3072H43.0908C43.1652 41.3072 43.2254 41.3675 43.2254 41.4418C43.2254 41.5162 43.1652 41.5764 43.0908 41.5764H42.0364C41.962 41.5764 41.9017 41.5162 41.9017 41.4418ZM44.0107 41.4418C44.0107 41.3675 44.071 41.3072 44.1453 41.3072H45.1998C45.2741 41.3072 45.3344 41.3675 45.3344 41.4418C45.3344 41.5162 45.2741 41.5764 45.1998 41.5764H44.1453C44.071 41.5764 44.0107 41.5162 44.0107 41.4418ZM46.1196 41.4418C46.1196 41.3675 46.1799 41.3072 46.2542 41.3072H47.3087C47.3831 41.3072 47.4433 41.3675 47.4433 41.4418C47.4433 41.5162 47.3831 41.5764 47.3087 41.5764H46.2542C46.1799 41.5764 46.1196 41.5162 46.1196 41.4418ZM48.2286 41.4418C48.2286 41.3675 48.2888 41.3072 48.3632 41.3072H49.4177C49.492 41.3072 49.5523 41.3675 49.5523 41.4418C49.5523 41.5162 49.492 41.5764 49.4177 41.5764H48.3632C48.2888 41.5764 48.2286 41.5162 48.2286 41.4418ZM50.3375 41.4418C50.3375 41.3675 50.3978 41.3072 50.4721 41.3072H50.9994V41.5764H50.4721C50.3978 41.5764 50.3375 41.5162 50.3375 41.4418ZM24.6423 42.507C24.6952 42.5592 24.6958 42.6444 24.6437 42.6973L23.8808 43.4714C23.8287 43.5243 23.7434 43.525 23.6905 43.4728C23.6375 43.4206 23.6369 43.3354 23.6891 43.2824L24.4519 42.5084C24.5041 42.4554 24.5893 42.4548 24.6423 42.507ZM23.1166 44.055C23.1696 44.1072 23.1702 44.1925 23.118 44.2454L22.3552 45.0194C22.303 45.0724 22.2178 45.073 22.1649 45.0208C22.1119 44.9686 22.1113 44.8834 22.1635 44.8305L22.9263 44.0564C22.9785 44.0035 23.0637 44.0029 23.1166 44.055ZM21.591 45.6031C21.644 45.6553 21.6446 45.7405 21.5924 45.7935L20.8296 46.5675C20.7774 46.6204 20.6922 46.6211 20.6392 46.5689C20.5863 46.5167 20.5857 46.4315 20.6378 46.3785L21.4007 45.6045C21.4528 45.5515 21.5381 45.5509 21.591 45.6031ZM20.0654 47.1512C20.1184 47.2033 20.119 47.2886 20.0668 47.3415L19.304 48.1156C19.2518 48.1685 19.1666 48.1691 19.1136 48.1169C19.0607 48.0648 19.06 47.9795 19.1122 47.9266L19.875 47.1525C19.9272 47.0996 20.0124 47.099 20.0654 47.1512ZM18.5398 48.6992C18.5927 48.7514 18.5934 48.8366 18.5412 48.8896L17.7784 49.6636C17.7262 49.7166 17.6409 49.7172 17.588 49.665C17.535 49.6128 17.5344 49.5276 17.5866 49.4746L18.3494 48.7006C18.4016 48.6477 18.4868 48.647 18.5398 48.6992ZM17.0142 50.2473C17.0671 50.2995 17.0677 50.3847 17.0155 50.4376L16.6341 50.8247L16.4424 50.6357L16.8238 50.2487C16.876 50.1957 16.9612 50.1951 17.0142 50.2473Z" stroke="#E06121" stroke-linecap="round" stroke-linejoin="round" stroke-dasharray="4 4"/>
</g>
<g filter="url(#filter1_f_1_3698)">
<path fill-rule="evenodd" clip-rule="evenodd" d="M25.4617 16.0401C25.487 16.0144 25.5215 16 25.5576 16H50.7303C50.8047 16 50.865 16.0603 50.865 16.1346V41.3074C50.865 41.3431 50.8508 41.3773 50.8255 41.4026L41.4026 50.8255C41.3773 50.8508 41.3431 50.865 41.3074 50.865H16.1346C16.0603 50.865 16 50.8047 16 50.7303V25.6922C16 25.6568 16.0139 25.6229 16.0388 25.5977L25.4617 16.0401ZM25.6139 16.2692L16.4564 25.5576H41.2511L50.4086 16.2692H25.6139ZM50.5957 16.4629L41.442 25.7474V50.4054L50.5957 41.2516V16.4629ZM41.1728 50.5957V25.8268H16.2692V50.5957H41.1728Z" stroke="#E06121" stroke-linejoin="round"/>
<path fill-rule="evenodd" clip-rule="evenodd" d="M25.5574 16.7935V16.269H25.8266V16.7935C25.8266 16.8678 25.7663 16.9281 25.692 16.9281C25.6177 16.9281 25.5574 16.8678 25.5574 16.7935ZM25.692 17.7077C25.7663 17.7077 25.8266 17.768 25.8266 17.8423V18.8912C25.8266 18.9656 25.7663 19.0258 25.692 19.0258C25.6177 19.0258 25.5574 18.9656 25.5574 18.8912V17.8423C25.5574 17.768 25.6177 17.7077 25.692 17.7077ZM25.692 19.8055C25.7663 19.8055 25.8266 19.8657 25.8266 19.9401V20.9889C25.8266 21.0633 25.7663 21.1236 25.692 21.1236C25.6177 21.1236 25.5574 21.0633 25.5574 20.9889V19.9401C25.5574 19.8657 25.6177 19.8055 25.692 19.8055ZM25.692 21.9032C25.7663 21.9032 25.8266 21.9635 25.8266 22.0378V23.0867C25.8266 23.161 25.7663 23.2213 25.692 23.2213C25.6177 23.2213 25.5574 23.161 25.5574 23.0867V22.0378C25.5574 21.9635 25.6177 21.9032 25.692 21.9032ZM25.692 24.0009C25.7663 24.0009 25.8266 24.0612 25.8266 24.1355V25.1844C25.8266 25.2587 25.7663 25.319 25.692 25.319C25.6177 25.319 25.5574 25.2587 25.5574 25.1844V24.1355C25.5574 24.0612 25.6177 24.0009 25.692 24.0009ZM25.692 26.0987C25.7663 26.0987 25.8266 26.1589 25.8266 26.2333V27.2821C25.8266 27.3565 25.7663 27.4167 25.692 27.4167C25.6177 27.4167 25.5574 27.3565 25.5574 27.2821V26.2333C25.5574 26.1589 25.6177 26.0987 25.692 26.0987ZM25.692 28.1964C25.7663 28.1964 25.8266 28.2567 25.8266 28.331V29.3799C25.8266 29.4542 25.7663 29.5145 25.692 29.5145C25.6177 29.5145 25.5574 29.4542 25.5574 29.3799V28.331C25.5574 28.2567 25.6177 28.1964 25.692 28.1964ZM25.692 30.2941C25.7663 30.2941 25.8266 30.3544 25.8266 30.4287V31.4776C25.8266 31.5519 25.7663 31.6122 25.692 31.6122C25.6177 31.6122 25.5574 31.5519 25.5574 31.4776V30.4287C25.5574 30.3544 25.6177 30.2941 25.692 30.2941ZM25.692 32.3918C25.7663 32.3918 25.8266 32.4521 25.8266 32.5265V33.5753C25.8266 33.6497 25.7663 33.7099 25.692 33.7099C25.6177 33.7099 25.5574 33.6497 25.5574 33.5753V32.5265C25.5574 32.4521 25.6177 32.3918 25.692 32.3918ZM25.692 34.4896C25.7663 34.4896 25.8266 34.5498 25.8266 34.6242V35.6731C25.8266 35.7474 25.7663 35.8077 25.692 35.8077C25.6177 35.8077 25.5574 35.7474 25.5574 35.6731V34.6242C25.5574 34.5498 25.6177 34.4896 25.692 34.4896ZM25.692 36.5873C25.7663 36.5873 25.8266 36.6476 25.8266 36.7219V37.7708C25.8266 37.8451 25.7663 37.9054 25.692 37.9054C25.6177 37.9054 25.5574 37.8451 25.5574 37.7708V36.7219C25.5574 36.6476 25.6177 36.5873 25.692 36.5873ZM25.692 38.685C25.7663 38.685 25.8266 38.7453 25.8266 38.8197V39.8685C25.8266 39.9429 25.7663 40.0031 25.692 40.0031C25.6177 40.0031 25.5574 39.9429 25.5574 39.8685V38.8197C25.5574 38.7453 25.6177 38.685 25.692 38.685ZM25.692 40.7828C25.7663 40.7828 25.8266 40.843 25.8266 40.9174V41.3072H26.2192C26.2936 41.3072 26.3538 41.3675 26.3538 41.4418C26.3538 41.5162 26.2936 41.5764 26.2192 41.5764H25.7483L25.4065 41.9233C25.3543 41.9763 25.2691 41.9769 25.2161 41.9247C25.1632 41.8725 25.1625 41.7873 25.2147 41.7343L25.5574 41.3866V40.9174C25.5574 40.843 25.6177 40.7828 25.692 40.7828ZM27.1391 41.4418C27.1391 41.3675 27.1994 41.3072 27.2737 41.3072H28.3282C28.4025 41.3072 28.4628 41.3675 28.4628 41.4418C28.4628 41.5162 28.4025 41.5764 28.3282 41.5764H27.2737C27.1994 41.5764 27.1391 41.5162 27.1391 41.4418ZM29.248 41.4418C29.248 41.3675 29.3083 41.3072 29.3827 41.3072H30.4371C30.5115 41.3072 30.5717 41.3675 30.5717 41.4418C30.5717 41.5162 30.5115 41.5764 30.4371 41.5764H29.3827C29.3083 41.5764 29.248 41.5162 29.248 41.4418ZM31.357 41.4418C31.357 41.3675 31.4173 41.3072 31.4916 41.3072H32.5461C32.6204 41.3072 32.6807 41.3675 32.6807 41.4418C32.6807 41.5162 32.6204 41.5764 32.5461 41.5764H31.4916C31.4173 41.5764 31.357 41.5162 31.357 41.4418ZM33.4659 41.4418C33.4659 41.3675 33.5262 41.3072 33.6006 41.3072H34.655C34.7294 41.3072 34.7896 41.3675 34.7896 41.4418C34.7896 41.5162 34.7294 41.5764 34.655 41.5764H33.6006C33.5262 41.5764 33.4659 41.5162 33.4659 41.4418ZM35.5749 41.4418C35.5749 41.3675 35.6352 41.3072 35.7095 41.3072H36.764C36.8383 41.3072 36.8986 41.3675 36.8986 41.4418C36.8986 41.5162 36.8383 41.5764 36.764 41.5764H35.7095C35.6352 41.5764 35.5749 41.5162 35.5749 41.4418ZM37.6838 41.4418C37.6838 41.3675 37.7441 41.3072 37.8185 41.3072H38.8729C38.9473 41.3072 39.0075 41.3675 39.0075 41.4418C39.0075 41.5162 38.9473 41.5764 38.8729 41.5764H37.8185C37.7441 41.5764 37.6838 41.5162 37.6838 41.4418ZM39.7928 41.4418C39.7928 41.3675 39.8531 41.3072 39.9274 41.3072H40.9819C41.0562 41.3072 41.1165 41.3675 41.1165 41.4418C41.1165 41.5162 41.0562 41.5764 40.9819 41.5764H39.9274C39.8531 41.5764 39.7928 41.5162 39.7928 41.4418ZM41.9017 41.4418C41.9017 41.3675 41.962 41.3072 42.0364 41.3072H43.0908C43.1652 41.3072 43.2254 41.3675 43.2254 41.4418C43.2254 41.5162 43.1652 41.5764 43.0908 41.5764H42.0364C41.962 41.5764 41.9017 41.5162 41.9017 41.4418ZM44.0107 41.4418C44.0107 41.3675 44.071 41.3072 44.1453 41.3072H45.1998C45.2741 41.3072 45.3344 41.3675 45.3344 41.4418C45.3344 41.5162 45.2741 41.5764 45.1998 41.5764H44.1453C44.071 41.5764 44.0107 41.5162 44.0107 41.4418ZM46.1196 41.4418C46.1196 41.3675 46.1799 41.3072 46.2542 41.3072H47.3087C47.3831 41.3072 47.4433 41.3675 47.4433 41.4418C47.4433 41.5162 47.3831 41.5764 47.3087 41.5764H46.2542C46.1799 41.5764 46.1196 41.5162 46.1196 41.4418ZM48.2286 41.4418C48.2286 41.3675 48.2888 41.3072 48.3632 41.3072H49.4177C49.492 41.3072 49.5523 41.3675 49.5523 41.4418C49.5523 41.5162 49.492 41.5764 49.4177 41.5764H48.3632C48.2888 41.5764 48.2286 41.5162 48.2286 41.4418ZM50.3375 41.4418C50.3375 41.3675 50.3978 41.3072 50.4721 41.3072H50.9994V41.5764H50.4721C50.3978 41.5764 50.3375 41.5162 50.3375 41.4418ZM24.6423 42.507C24.6952 42.5592 24.6958 42.6444 24.6437 42.6973L23.8808 43.4714C23.8287 43.5243 23.7434 43.525 23.6905 43.4728C23.6375 43.4206 23.6369 43.3354 23.6891 43.2824L24.4519 42.5084C24.5041 42.4554 24.5893 42.4548 24.6423 42.507ZM23.1166 44.055C23.1696 44.1072 23.1702 44.1925 23.118 44.2454L22.3552 45.0194C22.303 45.0724 22.2178 45.073 22.1649 45.0208C22.1119 44.9686 22.1113 44.8834 22.1635 44.8305L22.9263 44.0564C22.9785 44.0035 23.0637 44.0029 23.1166 44.055ZM21.591 45.6031C21.644 45.6553 21.6446 45.7405 21.5924 45.7935L20.8296 46.5675C20.7774 46.6204 20.6922 46.6211 20.6392 46.5689C20.5863 46.5167 20.5857 46.4315 20.6378 46.3785L21.4007 45.6045C21.4528 45.5515 21.5381 45.5509 21.591 45.6031ZM20.0654 47.1512C20.1184 47.2033 20.119 47.2886 20.0668 47.3415L19.304 48.1156C19.2518 48.1685 19.1666 48.1691 19.1136 48.1169C19.0607 48.0648 19.06 47.9795 19.1122 47.9266L19.875 47.1525C19.9272 47.0996 20.0124 47.099 20.0654 47.1512ZM18.5398 48.6992C18.5927 48.7514 18.5934 48.8366 18.5412 48.8896L17.7784 49.6636C17.7262 49.7166 17.6409 49.7172 17.588 49.665C17.535 49.6128 17.5344 49.5276 17.5866 49.4746L18.3494 48.7006C18.4016 48.6477 18.4868 48.647 18.5398 48.6992ZM17.0142 50.2473C17.0671 50.2995 17.0677 50.3847 17.0155 50.4376L16.6341 50.8247L16.4424 50.6357L16.8238 50.2487C16.876 50.1957 16.9612 50.1951 17.0142 50.2473Z" stroke="#E06121" stroke-linecap="round" stroke-linejoin="round" stroke-dasharray="4 4"/>
</g>
<g filter="url(#filter2_f_1_3698)">
<path fill-rule="evenodd" clip-rule="evenodd" d="M25.4617 16.0401C25.487 16.0144 25.5215 16 25.5576 16H50.7303C50.8047 16 50.865 16.0603 50.865 16.1346V41.3074C50.865 41.3431 50.8508 41.3773 50.8255 41.4026L41.4026 50.8255C41.3773 50.8508 41.3431 50.865 41.3074 50.865H16.1346C16.0603 50.865 16 50.8047 16 50.7303V25.6922C16 25.6568 16.0139 25.6229 16.0388 25.5977L25.4617 16.0401ZM25.6139 16.2692L16.4564 25.5576H41.2511L50.4086 16.2692H25.6139ZM50.5957 16.4629L41.442 25.7474V50.4054L50.5957 41.2516V16.4629ZM41.1728 50.5957V25.8268H16.2692V50.5957H41.1728Z" stroke="#E06121" stroke-linejoin="round"/>
<path fill-rule="evenodd" clip-rule="evenodd" d="M25.5574 16.7935V16.269H25.8266V16.7935C25.8266 16.8678 25.7663 16.9281 25.692 16.9281C25.6177 16.9281 25.5574 16.8678 25.5574 16.7935ZM25.692 17.7077C25.7663 17.7077 25.8266 17.768 25.8266 17.8423V18.8912C25.8266 18.9656 25.7663 19.0258 25.692 19.0258C25.6177 19.0258 25.5574 18.9656 25.5574 18.8912V17.8423C25.5574 17.768 25.6177 17.7077 25.692 17.7077ZM25.692 19.8055C25.7663 19.8055 25.8266 19.8657 25.8266 19.9401V20.9889C25.8266 21.0633 25.7663 21.1236 25.692 21.1236C25.6177 21.1236 25.5574 21.0633 25.5574 20.9889V19.9401C25.5574 19.8657 25.6177 19.8055 25.692 19.8055ZM25.692 21.9032C25.7663 21.9032 25.8266 21.9635 25.8266 22.0378V23.0867C25.8266 23.161 25.7663 23.2213 25.692 23.2213C25.6177 23.2213 25.5574 23.161 25.5574 23.0867V22.0378C25.5574 21.9635 25.6177 21.9032 25.692 21.9032ZM25.692 24.0009C25.7663 24.0009 25.8266 24.0612 25.8266 24.1355V25.1844C25.8266 25.2587 25.7663 25.319 25.692 25.319C25.6177 25.319 25.5574 25.2587 25.5574 25.1844V24.1355C25.5574 24.0612 25.6177 24.0009 25.692 24.0009ZM25.692 26.0987C25.7663 26.0987 25.8266 26.1589 25.8266 26.2333V27.2821C25.8266 27.3565 25.7663 27.4167 25.692 27.4167C25.6177 27.4167 25.5574 27.3565 25.5574 27.2821V26.2333C25.5574 26.1589 25.6177 26.0987 25.692 26.0987ZM25.692 28.1964C25.7663 28.1964 25.8266 28.2567 25.8266 28.331V29.3799C25.8266 29.4542 25.7663 29.5145 25.692 29.5145C25.6177 29.5145 25.5574 29.4542 25.5574 29.3799V28.331C25.5574 28.2567 25.6177 28.1964 25.692 28.1964ZM25.692 30.2941C25.7663 30.2941 25.8266 30.3544 25.8266 30.4287V31.4776C25.8266 31.5519 25.7663 31.6122 25.692 31.6122C25.6177 31.6122 25.5574 31.5519 25.5574 31.4776V30.4287C25.5574 30.3544 25.6177 30.2941 25.692 30.2941ZM25.692 32.3918C25.7663 32.3918 25.8266 32.4521 25.8266 32.5265V33.5753C25.8266 33.6497 25.7663 33.7099 25.692 33.7099C25.6177 33.7099 25.5574 33.6497 25.5574 33.5753V32.5265C25.5574 32.4521 25.6177 32.3918 25.692 32.3918ZM25.692 34.4896C25.7663 34.4896 25.8266 34.5498 25.8266 34.6242V35.6731C25.8266 35.7474 25.7663 35.8077 25.692 35.8077C25.6177 35.8077 25.5574 35.7474 25.5574 35.6731V34.6242C25.5574 34.5498 25.6177 34.4896 25.692 34.4896ZM25.692 36.5873C25.7663 36.5873 25.8266 36.6476 25.8266 36.7219V37.7708C25.8266 37.8451 25.7663 37.9054 25.692 37.9054C25.6177 37.9054 25.5574 37.8451 25.5574 37.7708V36.7219C25.5574 36.6476 25.6177 36.5873 25.692 36.5873ZM25.692 38.685C25.7663 38.685 25.8266 38.7453 25.8266 38.8197V39.8685C25.8266 39.9429 25.7663 40.0031 25.692 40.0031C25.6177 40.0031 25.5574 39.9429 25.5574 39.8685V38.8197C25.5574 38.7453 25.6177 38.685 25.692 38.685ZM25.692 40.7828C25.7663 40.7828 25.8266 40.843 25.8266 40.9174V41.3072H26.2192C26.2936 41.3072 26.3538 41.3675 26.3538 41.4418C26.3538 41.5162 26.2936 41.5764 26.2192 41.5764H25.7483L25.4065 41.9233C25.3543 41.9763 25.2691 41.9769 25.2161 41.9247C25.1632 41.8725 25.1625 41.7873 25.2147 41.7343L25.5574 41.3866V40.9174C25.5574 40.843 25.6177 40.7828 25.692 40.7828ZM27.1391 41.4418C27.1391 41.3675 27.1994 41.3072 27.2737 41.3072H28.3282C28.4025 41.3072 28.4628 41.3675 28.4628 41.4418C28.4628 41.5162 28.4025 41.5764 28.3282 41.5764H27.2737C27.1994 41.5764 27.1391 41.5162 27.1391 41.4418ZM29.248 41.4418C29.248 41.3675 29.3083 41.3072 29.3827 41.3072H30.4371C30.5115 41.3072 30.5717 41.3675 30.5717 41.4418C30.5717 41.5162 30.5115 41.5764 30.4371 41.5764H29.3827C29.3083 41.5764 29.248 41.5162 29.248 41.4418ZM31.357 41.4418C31.357 41.3675 31.4173 41.3072 31.4916 41.3072H32.5461C32.6204 41.3072 32.6807 41.3675 32.6807 41.4418C32.6807 41.5162 32.6204 41.5764 32.5461 41.5764H31.4916C31.4173 41.5764 31.357 41.5162 31.357 41.4418ZM33.4659 41.4418C33.4659 41.3675 33.5262 41.3072 33.6006 41.3072H34.655C34.7294 41.3072 34.7896 41.3675 34.7896 41.4418C34.7896 41.5162 34.7294 41.5764 34.655 41.5764H33.6006C33.5262 41.5764 33.4659 41.5162 33.4659 41.4418ZM35.5749 41.4418C35.5749 41.3675 35.6352 41.3072 35.7095 41.3072H36.764C36.8383 41.3072 36.8986 41.3675 36.8986 41.4418C36.8986 41.5162 36.8383 41.5764 36.764 41.5764H35.7095C35.6352 41.5764 35.5749 41.5162 35.5749 41.4418ZM37.6838 41.4418C37.6838 41.3675 37.7441 41.3072 37.8185 41.3072H38.8729C38.9473 41.3072 39.0075 41.3675 39.0075 41.4418C39.0075 41.5162 38.9473 41.5764 38.8729 41.5764H37.8185C37.7441 41.5764 37.6838 41.5162 37.6838 41.4418ZM39.7928 41.4418C39.7928 41.3675 39.8531 41.3072 39.9274 41.3072H40.9819C41.0562 41.3072 41.1165 41.3675 41.1165 41.4418C41.1165 41.5162 41.0562 41.5764 40.9819 41.5764H39.9274C39.8531 41.5764 39.7928 41.5162 39.7928 41.4418ZM41.9017 41.4418C41.9017 41.3675 41.962 41.3072 42.0364 41.3072H43.0908C43.1652 41.3072 43.2254 41.3675 43.2254 41.4418C43.2254 41.5162 43.1652 41.5764 43.0908 41.5764H42.0364C41.962 41.5764 41.9017 41.5162 41.9017 41.4418ZM44.0107 41.4418C44.0107 41.3675 44.071 41.3072 44.1453 41.3072H45.1998C45.2741 41.3072 45.3344 41.3675 45.3344 41.4418C45.3344 41.5162 45.2741 41.5764 45.1998 41.5764H44.1453C44.071 41.5764 44.0107 41.5162 44.0107 41.4418ZM46.1196 41.4418C46.1196 41.3675 46.1799 41.3072 46.2542 41.3072H47.3087C47.3831 41.3072 47.4433 41.3675 47.4433 41.4418C47.4433 41.5162 47.3831 41.5764 47.3087 41.5764H46.2542C46.1799 41.5764 46.1196 41.5162 46.1196 41.4418ZM48.2286 41.4418C48.2286 41.3675 48.2888 41.3072 48.3632 41.3072H49.4177C49.492 41.3072 49.5523 41.3675 49.5523 41.4418C49.5523 41.5162 49.492 41.5764 49.4177 41.5764H48.3632C48.2888 41.5764 48.2286 41.5162 48.2286 41.4418ZM50.3375 41.4418C50.3375 41.3675 50.3978 41.3072 50.4721 41.3072H50.9994V41.5764H50.4721C50.3978 41.5764 50.3375 41.5162 50.3375 41.4418ZM24.6423 42.507C24.6952 42.5592 24.6958 42.6444 24.6437 42.6973L23.8808 43.4714C23.8287 43.5243 23.7434 43.525 23.6905 43.4728C23.6375 43.4206 23.6369 43.3354 23.6891 43.2824L24.4519 42.5084C24.5041 42.4554 24.5893 42.4548 24.6423 42.507ZM23.1166 44.055C23.1696 44.1072 23.1702 44.1925 23.118 44.2454L22.3552 45.0194C22.303 45.0724 22.2178 45.073 22.1649 45.0208C22.1119 44.9686 22.1113 44.8834 22.1635 44.8305L22.9263 44.0564C22.9785 44.0035 23.0637 44.0029 23.1166 44.055ZM21.591 45.6031C21.644 45.6553 21.6446 45.7405 21.5924 45.7935L20.8296 46.5675C20.7774 46.6204 20.6922 46.6211 20.6392 46.5689C20.5863 46.5167 20.5857 46.4315 20.6378 46.3785L21.4007 45.6045C21.4528 45.5515 21.5381 45.5509 21.591 45.6031ZM20.0654 47.1512C20.1184 47.2033 20.119 47.2886 20.0668 47.3415L19.304 48.1156C19.2518 48.1685 19.1666 48.1691 19.1136 48.1169C19.0607 48.0648 19.06 47.9795 19.1122 47.9266L19.875 47.1525C19.9272 47.0996 20.0124 47.099 20.0654 47.1512ZM18.5398 48.6992C18.5927 48.7514 18.5934 48.8366 18.5412 48.8896L17.7784 49.6636C17.7262 49.7166 17.6409 49.7172 17.588 49.665C17.535 49.6128 17.5344 49.5276 17.5866 49.4746L18.3494 48.7006C18.4016 48.6477 18.4868 48.647 18.5398 48.6992ZM17.0142 50.2473C17.0671 50.2995 17.0677 50.3847 17.0155 50.4376L16.6341 50.8247L16.4424 50.6357L16.8238 50.2487C16.876 50.1957 16.9612 50.1951 17.0142 50.2473Z" stroke="#E06121" stroke-linecap="round" stroke-linejoin="round" stroke-dasharray="4 4"/>
</g>
<path fill-rule="evenodd" clip-rule="evenodd" d="M25.4617 16.0401C25.487 16.0144 25.5215 16 25.5576 16H50.7303C50.8047 16 50.865 16.0603 50.865 16.1346V41.3074C50.865 41.3431 50.8508 41.3773 50.8255 41.4026L41.4026 50.8255C41.3773 50.8508 41.3431 50.865 41.3074 50.865H16.1346C16.0603 50.865 16 50.8047 16 50.7303V25.6922C16 25.6568 16.0139 25.6229 16.0388 25.5977L25.4617 16.0401ZM25.6139 16.2692L16.4564 25.5576H41.2511L50.4086 16.2692H25.6139ZM50.5957 16.4629L41.442 25.7474V50.4054L50.5957 41.2516V16.4629ZM41.1728 50.5957V25.8268H16.2692V50.5957H41.1728Z" fill="white"/>
<path fill-rule="evenodd" clip-rule="evenodd" d="M25.5574 16.7935V16.269H25.8266V16.7935C25.8266 16.8678 25.7663 16.9281 25.692 16.9281C25.6177 16.9281 25.5574 16.8678 25.5574 16.7935ZM25.692 17.7077C25.7663 17.7077 25.8266 17.768 25.8266 17.8423V18.8912C25.8266 18.9656 25.7663 19.0258 25.692 19.0258C25.6177 19.0258 25.5574 18.9656 25.5574 18.8912V17.8423C25.5574 17.768 25.6177 17.7077 25.692 17.7077ZM25.692 19.8055C25.7663 19.8055 25.8266 19.8657 25.8266 19.9401V20.9889C25.8266 21.0633 25.7663 21.1236 25.692 21.1236C25.6177 21.1236 25.5574 21.0633 25.5574 20.9889V19.9401C25.5574 19.8657 25.6177 19.8055 25.692 19.8055ZM25.692 21.9032C25.7663 21.9032 25.8266 21.9635 25.8266 22.0378V23.0867C25.8266 23.161 25.7663 23.2213 25.692 23.2213C25.6177 23.2213 25.5574 23.161 25.5574 23.0867V22.0378C25.5574 21.9635 25.6177 21.9032 25.692 21.9032ZM25.692 24.0009C25.7663 24.0009 25.8266 24.0612 25.8266 24.1355V25.1844C25.8266 25.2587 25.7663 25.319 25.692 25.319C25.6177 25.319 25.5574 25.2587 25.5574 25.1844V24.1355C25.5574 24.0612 25.6177 24.0009 25.692 24.0009ZM25.692 26.0987C25.7663 26.0987 25.8266 26.1589 25.8266 26.2333V27.2821C25.8266 27.3565 25.7663 27.4167 25.692 27.4167C25.6177 27.4167 25.5574 27.3565 25.5574 27.2821V26.2333C25.5574 26.1589 25.6177 26.0987 25.692 26.0987ZM25.692 28.1964C25.7663 28.1964 25.8266 28.2567 25.8266 28.331V29.3799C25.8266 29.4542 25.7663 29.5145 25.692 29.5145C25.6177 29.5145 25.5574 29.4542 25.5574 29.3799V28.331C25.5574 28.2567 25.6177 28.1964 25.692 28.1964ZM25.692 30.2941C25.7663 30.2941 25.8266 30.3544 25.8266 30.4287V31.4776C25.8266 31.5519 25.7663 31.6122 25.692 31.6122C25.6177 31.6122 25.5574 31.5519 25.5574 31.4776V30.4287C25.5574 30.3544 25.6177 30.2941 25.692 30.2941ZM25.692 32.3918C25.7663 32.3918 25.8266 32.4521 25.8266 32.5265V33.5753C25.8266 33.6497 25.7663 33.7099 25.692 33.7099C25.6177 33.7099 25.5574 33.6497 25.5574 33.5753V32.5265C25.5574 32.4521 25.6177 32.3918 25.692 32.3918ZM25.692 34.4896C25.7663 34.4896 25.8266 34.5498 25.8266 34.6242V35.6731C25.8266 35.7474 25.7663 35.8077 25.692 35.8077C25.6177 35.8077 25.5574 35.7474 25.5574 35.6731V34.6242C25.5574 34.5498 25.6177 34.4896 25.692 34.4896ZM25.692 36.5873C25.7663 36.5873 25.8266 36.6476 25.8266 36.7219V37.7708C25.8266 37.8451 25.7663 37.9054 25.692 37.9054C25.6177 37.9054 25.5574 37.8451 25.5574 37.7708V36.7219C25.5574 36.6476 25.6177 36.5873 25.692 36.5873ZM25.692 38.685C25.7663 38.685 25.8266 38.7453 25.8266 38.8197V39.8685C25.8266 39.9429 25.7663 40.0031 25.692 40.0031C25.6177 40.0031 25.5574 39.9429 25.5574 39.8685V38.8197C25.5574 38.7453 25.6177 38.685 25.692 38.685ZM25.692 40.7828C25.7663 40.7828 25.8266 40.843 25.8266 40.9174V41.3072H26.2192C26.2936 41.3072 26.3538 41.3675 26.3538 41.4418C26.3538 41.5162 26.2936 41.5764 26.2192 41.5764H25.7483L25.4065 41.9233C25.3543 41.9763 25.2691 41.9769 25.2161 41.9247C25.1632 41.8725 25.1625 41.7873 25.2147 41.7343L25.5574 41.3866V40.9174C25.5574 40.843 25.6177 40.7828 25.692 40.7828ZM27.1391 41.4418C27.1391 41.3675 27.1994 41.3072 27.2737 41.3072H28.3282C28.4025 41.3072 28.4628 41.3675 28.4628 41.4418C28.4628 41.5162 28.4025 41.5764 28.3282 41.5764H27.2737C27.1994 41.5764 27.1391 41.5162 27.1391 41.4418ZM29.248 41.4418C29.248 41.3675 29.3083 41.3072 29.3827 41.3072H30.4371C30.5115 41.3072 30.5717 41.3675 30.5717 41.4418C30.5717 41.5162 30.5115 41.5764 30.4371 41.5764H29.3827C29.3083 41.5764 29.248 41.5162 29.248 41.4418ZM31.357 41.4418C31.357 41.3675 31.4173 41.3072 31.4916 41.3072H32.5461C32.6204 41.3072 32.6807 41.3675 32.6807 41.4418C32.6807 41.5162 32.6204 41.5764 32.5461 41.5764H31.4916C31.4173 41.5764 31.357 41.5162 31.357 41.4418ZM33.4659 41.4418C33.4659 41.3675 33.5262 41.3072 33.6006 41.3072H34.655C34.7294 41.3072 34.7896 41.3675 34.7896 41.4418C34.7896 41.5162 34.7294 41.5764 34.655 41.5764H33.6006C33.5262 41.5764 33.4659 41.5162 33.4659 41.4418ZM35.5749 41.4418C35.5749 41.3675 35.6352 41.3072 35.7095 41.3072H36.764C36.8383 41.3072 36.8986 41.3675 36.8986 41.4418C36.8986 41.5162 36.8383 41.5764 36.764 41.5764H35.7095C35.6352 41.5764 35.5749 41.5162 35.5749 41.4418ZM37.6838 41.4418C37.6838 41.3675 37.7441 41.3072 37.8185 41.3072H38.8729C38.9473 41.3072 39.0075 41.3675 39.0075 41.4418C39.0075 41.5162 38.9473 41.5764 38.8729 41.5764H37.8185C37.7441 41.5764 37.6838 41.5162 37.6838 41.4418ZM39.7928 41.4418C39.7928 41.3675 39.8531 41.3072 39.9274 41.3072H40.9819C41.0562 41.3072 41.1165 41.3675 41.1165 41.4418C41.1165 41.5162 41.0562 41.5764 40.9819 41.5764H39.9274C39.8531 41.5764 39.7928 41.5162 39.7928 41.4418ZM41.9017 41.4418C41.9017 41.3675 41.962 41.3072 42.0364 41.3072H43.0908C43.1652 41.3072 43.2254 41.3675 43.2254 41.4418C43.2254 41.5162 43.1652 41.5764 43.0908 41.5764H42.0364C41.962 41.5764 41.9017 41.5162 41.9017 41.4418ZM44.0107 41.4418C44.0107 41.3675 44.071 41.3072 44.1453 41.3072H45.1998C45.2741 41.3072 45.3344 41.3675 45.3344 41.4418C45.3344 41.5162 45.2741 41.5764 45.1998 41.5764H44.1453C44.071 41.5764 44.0107 41.5162 44.0107 41.4418ZM46.1196 41.4418C46.1196 41.3675 46.1799 41.3072 46.2542 41.3072H47.3087C47.3831 41.3072 47.4433 41.3675 47.4433 41.4418C47.4433 41.5162 47.3831 41.5764 47.3087 41.5764H46.2542C46.1799 41.5764 46.1196 41.5162 46.1196 41.4418ZM48.2286 41.4418C48.2286 41.3675 48.2888 41.3072 48.3632 41.3072H49.4177C49.492 41.3072 49.5523 41.3675 49.5523 41.4418C49.5523 41.5162 49.492 41.5764 49.4177 41.5764H48.3632C48.2888 41.5764 48.2286 41.5162 48.2286 41.4418ZM50.3375 41.4418C50.3375 41.3675 50.3978 41.3072 50.4721 41.3072H50.9994V41.5764H50.4721C50.3978 41.5764 50.3375 41.5162 50.3375 41.4418ZM24.6423 42.507C24.6952 42.5592 24.6958 42.6444 24.6437 42.6973L23.8808 43.4714C23.8287 43.5243 23.7434 43.525 23.6905 43.4728C23.6375 43.4206 23.6369 43.3354 23.6891 43.2824L24.4519 42.5084C24.5041 42.4554 24.5893 42.4548 24.6423 42.507ZM23.1166 44.055C23.1696 44.1072 23.1702 44.1925 23.118 44.2454L22.3552 45.0194C22.303 45.0724 22.2178 45.073 22.1649 45.0208C22.1119 44.9686 22.1113 44.8834 22.1635 44.8305L22.9263 44.0564C22.9785 44.0035 23.0637 44.0029 23.1166 44.055ZM21.591 45.6031C21.644 45.6553 21.6446 45.7405 21.5924 45.7935L20.8296 46.5675C20.7774 46.6204 20.6922 46.6211 20.6392 46.5689C20.5863 46.5167 20.5857 46.4315 20.6378 46.3785L21.4007 45.6045C21.4528 45.5515 21.5381 45.5509 21.591 45.6031ZM20.0654 47.1512C20.1184 47.2033 20.119 47.2886 20.0668 47.3415L19.304 48.1156C19.2518 48.1685 19.1666 48.1691 19.1136 48.1169C19.0607 48.0648 19.06 47.9795 19.1122 47.9266L19.875 47.1525C19.9272 47.0996 20.0124 47.099 20.0654 47.1512ZM18.5398 48.6992C18.5927 48.7514 18.5934 48.8366 18.5412 48.8896L17.7784 49.6636C17.7262 49.7166 17.6409 49.7172 17.588 49.665C17.535 49.6128 17.5344 49.5276 17.5866 49.4746L18.3494 48.7006C18.4016 48.6477 18.4868 48.647 18.5398 48.6992ZM17.0142 50.2473C17.0671 50.2995 17.0677 50.3847 17.0155 50.4376L16.6341 50.8247L16.4424 50.6357L16.8238 50.2487C16.876 50.1957 16.9612 50.1951 17.0142 50.2473Z" fill="white"/>
<defs>
<filter id="filter0_f_1_3698" x="0.5" y="0.5" width="65.999" height="65.8647" filterUnits="userSpaceOnUse" color-interpolation-filters="sRGB">
<feFlood flood-opacity="0" result="BackgroundImageFix"/>
<feBlend mode="normal" in="SourceGraphic" in2="BackgroundImageFix" result="shape"/>
<feGaussianBlur stdDeviation="7.5" result="effect1_foregroundBlur_1_3698"/>
</filter>
<filter id="filter1_f_1_3698" x="7.5" y="7.5" width="51.999" height="51.8647" filterUnits="userSpaceOnUse" color-interpolation-filters="sRGB">
<feFlood flood-opacity="0" result="BackgroundImageFix"/>
<feBlend mode="normal" in="SourceGraphic" in2="BackgroundImageFix" result="shape"/>
<feGaussianBlur stdDeviation="4" result="effect1_foregroundBlur_1_3698"/>
</filter>
<filter id="filter2_f_1_3698" x="11.5" y="11.5" width="43.999" height="43.8647" filterUnits="userSpaceOnUse" color-interpolation-filters="sRGB">
<feFlood flood-opacity="0" result="BackgroundImageFix"/>
<feBlend mode="normal" in="SourceGraphic" in2="BackgroundImageFix" result="shape"/>
<feGaussianBlur stdDeviation="2" result="effect1_foregroundBlur_1_3698"/>
</filter>
</defs>
</svg>
