<svg width="235" height="143" viewBox="0 0 235 143" fill="none" xmlns="http://www.w3.org/2000/svg">
<g filter="url(#filter0_f_1_1462)">
<path d="M123.521 80.6226V79.6226H122.521H78.6405C73.3172 79.6226 69.423 76.3313 69.423 71.5C69.423 66.6687 73.3172 63.3774 78.6405 63.3774H79.0968H79.6513L79.945 62.907L98.9133 32.5296L99.8684 31H98.0651H71.4642C49.1479 31 31 49.1672 31 71.5C31 93.8328 49.1479 112 71.4642 112H122.521H123.521V111V80.6226ZM123.521 32V31H122.521H116.814H116.246L115.955 31.4883L97.8621 61.8657L96.9617 63.3774H98.7212H122.521H123.521V62.3774V32ZM78.0794 60.565C71.8419 60.799 66.6001 64.9326 66.6001 71.5C66.6001 78.2635 72.1595 82.4455 78.6405 82.4455H120.698V109.177H71.4642C50.7095 109.177 33.8229 92.2762 33.8229 71.5C33.8229 50.7238 50.7095 33.8229 71.4642 33.8229H94.7777L78.0794 60.565ZM117.85 33.8229H120.698V60.5545H101.929L117.85 33.8229Z" stroke="#E06121" stroke-width="2"/>
</g>
<g filter="url(#filter1_f_1_1462)">
<path d="M123.021 80.6226V80.1226H122.521H78.6405C73.1109 80.1226 68.923 76.6724 68.923 71.5C68.923 66.3276 73.1109 62.8774 78.6405 62.8774H79.0968H79.374L79.5209 62.6422L98.4892 32.2648L98.9668 31.5H98.0651H71.4642C49.4245 31.5 31.5 49.4429 31.5 71.5C31.5 93.5571 49.4245 111.5 71.4642 111.5H122.521H123.021V111V80.6226ZM123.021 32V31.5H122.521H116.814H116.53L116.384 31.7441L98.2917 62.1215L97.8415 62.8774H98.7212H122.521H123.021V62.3774V32ZM78.6405 81.9455H121.198V109.677H71.4642C50.4329 109.677 33.3229 92.5519 33.3229 71.5C33.3229 50.4481 50.4329 33.3229 71.4642 33.3229H95.6794L78.3615 61.0571C72.2087 61.1745 67.1001 65.1747 67.1001 71.5C67.1001 77.9206 72.3639 81.9455 78.6405 81.9455ZM101.049 61.0545L117.566 33.3229H121.198V61.0545H101.049Z" stroke="#E06121"/>
</g>
<g filter="url(#filter2_f_1_1462)">
<path d="M123.021 80.6226V80.1226H122.521H78.6405C73.1109 80.1226 68.923 76.6724 68.923 71.5C68.923 66.3276 73.1109 62.8774 78.6405 62.8774H79.0968H79.374L79.5209 62.6422L98.4892 32.2648L98.9668 31.5H98.0651H71.4642C49.4245 31.5 31.5 49.4429 31.5 71.5C31.5 93.5571 49.4245 111.5 71.4642 111.5H122.521H123.021V111V80.6226ZM123.021 32V31.5H122.521H116.814H116.53L116.384 31.7441L98.2917 62.1215L97.8415 62.8774H98.7212H122.521H123.021V62.3774V32ZM78.6405 81.9455H121.198V109.677H71.4642C50.4329 109.677 33.3229 92.5519 33.3229 71.5C33.3229 50.4481 50.4329 33.3229 71.4642 33.3229H95.6794L78.3615 61.0571C72.2087 61.1745 67.1001 65.1747 67.1001 71.5C67.1001 77.9206 72.3639 81.9455 78.6405 81.9455ZM101.049 61.0545L117.566 33.3229H121.198V61.0545H101.049Z" stroke="#E06121"/>
</g>
<path fill-rule="evenodd" clip-rule="evenodd" d="M122.521 80.6226V111H71.4642C49.7011 111 32 93.2814 32 71.5C32 49.7186 49.7011 32 71.4642 32H98.0651L79.0968 62.3774H78.6405C72.9046 62.3774 68.423 65.9864 68.423 71.5C68.423 77.0136 72.9046 80.6226 78.6405 80.6226H122.521ZM122.521 32V62.3774H98.7212L116.814 32H122.521ZM78.6405 61.5545C72.5683 61.5545 67.6001 65.4222 67.6001 71.5C67.6001 77.5778 72.5683 81.4455 78.6405 81.4455H121.698V110.177H71.4642C50.1563 110.177 32.8229 92.8276 32.8229 71.5C32.8229 50.1723 50.1563 32.8229 71.4642 32.8229H96.5811L78.6405 61.5545ZM117.282 32.8229H121.698V61.5545H100.169L117.282 32.8229Z" fill="white"/>
<g filter="url(#filter3_f_1_1462)">
<path d="M163.281 82.04V82.54H163.781H173.081V89.08V89.58H173.581H183.581H184.081V89.08V82.54H193.381H193.881V82.04V72.04V71.54H193.381H184.081V65V64.5H183.581H173.581H173.081V65V71.54H163.781H163.281V72.04V82.04ZM175.081 81.04V80.54H174.581H165.281V73.54H174.581H175.081V73.04V66.5H182.081V73.04V73.54H182.581H191.881V80.54H182.581H182.081V81.04V87.58H175.081V81.04Z" stroke="#E06121"/>
<path d="M132.5 82.04V82.54H133H142.3V89.08V89.58H142.8H152.8H153.3V89.08V82.54H162.6H163.1V82.04V72.04V71.54H162.6H153.3V65V64.5H152.8H142.8H142.3V65V71.54H133H132.5V72.04V82.04ZM144.3 81.04V80.54H143.8H134.5V73.54H143.8H144.3V73.04V66.5H151.3V73.04V73.54H151.8H161.1V80.54H151.8H151.3V81.04V87.58H144.3V81.04Z" stroke="#E06121"/>
</g>
<g filter="url(#filter4_f_1_1462)">
<path d="M163.281 82.04V82.54H163.781H173.081V89.08V89.58H173.581H183.581H184.081V89.08V82.54H193.381H193.881V82.04V72.04V71.54H193.381H184.081V65V64.5H183.581H173.581H173.081V65V71.54H163.781H163.281V72.04V82.04ZM175.081 81.04V80.54H174.581H165.281V73.54H174.581H175.081V73.04V66.5H182.081V73.04V73.54H182.581H191.881V80.54H182.581H182.081V81.04V87.58H175.081V81.04Z" stroke="#E06121"/>
<path d="M132.5 82.04V82.54H133H142.3V89.08V89.58H142.8H152.8H153.3V89.08V82.54H162.6H163.1V82.04V72.04V71.54H162.6H153.3V65V64.5H152.8H142.8H142.3V65V71.54H133H132.5V72.04V82.04ZM144.3 81.04V80.54H143.8H134.5V73.54H143.8H144.3V73.04V66.5H151.3V73.04V73.54H151.8H161.1V80.54H151.8H151.3V81.04V87.58H144.3V81.04Z" stroke="#E06121"/>
</g>
<g filter="url(#filter5_f_1_1462)">
<path d="M163.281 82.04V82.54H163.781H173.081V89.08V89.58H173.581H183.581H184.081V89.08V82.54H193.381H193.881V82.04V72.04V71.54H193.381H184.081V65V64.5H183.581H173.581H173.081V65V71.54H163.781H163.281V72.04V82.04ZM175.081 81.04V80.54H174.581H165.281V73.54H174.581H175.081V73.04V66.5H182.081V73.04V73.54H182.581H191.881V80.54H182.581H182.081V81.04V87.58H175.081V81.04Z" stroke="#E06121"/>
<path d="M132.5 82.04V82.54H133H142.3V89.08V89.58H142.8H152.8H153.3V89.08V82.54H162.6H163.1V82.04V72.04V71.54H162.6H153.3V65V64.5H152.8H142.8H142.3V65V71.54H133H132.5V72.04V82.04ZM144.3 81.04V80.54H143.8H134.5V73.54H143.8H144.3V73.04V66.5H151.3V73.04V73.54H151.8H161.1V80.54H151.8H151.3V81.04V87.58H144.3V81.04Z" stroke="#E06121"/>
</g>
<path fill-rule="evenodd" clip-rule="evenodd" d="M163.781 82.04V72.04H173.581V65H183.581V72.04H193.381V82.04H183.581V89.08H173.581V82.04H163.781ZM174.581 81.04V88.08H182.581V81.04H192.381V73.04H182.581V66H174.581V73.04H164.781V81.04H174.581Z" fill="white"/>
<path fill-rule="evenodd" clip-rule="evenodd" d="M133 82.04V72.04H142.8V65H152.8V72.04H162.6V82.04H152.8V89.08H142.8V82.04H133ZM143.8 81.04V88.08H151.8V81.04H161.6V73.04H151.8V66H143.8V73.04H134V81.04H143.8Z" fill="white"/>
<defs>
<filter id="filter0_f_1_1462" x="0" y="0" width="154.521" height="143" filterUnits="userSpaceOnUse" color-interpolation-filters="sRGB">
<feFlood flood-opacity="0" result="BackgroundImageFix"/>
<feBlend mode="normal" in="SourceGraphic" in2="BackgroundImageFix" result="shape"/>
<feGaussianBlur stdDeviation="15" result="effect1_foregroundBlur_1_1462"/>
</filter>
<filter id="filter1_f_1_1462" x="16" y="16" width="122.521" height="111" filterUnits="userSpaceOnUse" color-interpolation-filters="sRGB">
<feFlood flood-opacity="0" result="BackgroundImageFix"/>
<feBlend mode="normal" in="SourceGraphic" in2="BackgroundImageFix" result="shape"/>
<feGaussianBlur stdDeviation="7.5" result="effect1_foregroundBlur_1_1462"/>
</filter>
<filter id="filter2_f_1_1462" x="27" y="27" width="100.521" height="89" filterUnits="userSpaceOnUse" color-interpolation-filters="sRGB">
<feFlood flood-opacity="0" result="BackgroundImageFix"/>
<feBlend mode="normal" in="SourceGraphic" in2="BackgroundImageFix" result="shape"/>
<feGaussianBlur stdDeviation="2" result="effect1_foregroundBlur_1_1462"/>
</filter>
<filter id="filter3_f_1_1462" x="92" y="24" width="142.381" height="106.08" filterUnits="userSpaceOnUse" color-interpolation-filters="sRGB">
<feFlood flood-opacity="0" result="BackgroundImageFix"/>
<feBlend mode="normal" in="SourceGraphic" in2="BackgroundImageFix" result="shape"/>
<feGaussianBlur stdDeviation="20" result="effect1_foregroundBlur_1_1462"/>
</filter>
<filter id="filter4_f_1_1462" x="117" y="49" width="92.3812" height="56.08" filterUnits="userSpaceOnUse" color-interpolation-filters="sRGB">
<feFlood flood-opacity="0" result="BackgroundImageFix"/>
<feBlend mode="normal" in="SourceGraphic" in2="BackgroundImageFix" result="shape"/>
<feGaussianBlur stdDeviation="7.5" result="effect1_foregroundBlur_1_1462"/>
</filter>
<filter id="filter5_f_1_1462" x="128" y="60" width="70.3812" height="34.08" filterUnits="userSpaceOnUse" color-interpolation-filters="sRGB">
<feFlood flood-opacity="0" result="BackgroundImageFix"/>
<feBlend mode="normal" in="SourceGraphic" in2="BackgroundImageFix" result="shape"/>
<feGaussianBlur stdDeviation="2" result="effect1_foregroundBlur_1_1462"/>
</filter>
</defs>
</svg>
