<svg width="185" height="171" viewBox="0 0 185 171" fill="none" xmlns="http://www.w3.org/2000/svg">
<rect x="44.8477" y="47.5183" width="7.52339" height="7.52493" rx="1.75" stroke="white" stroke-width="0.5"/>
<rect x="59.1738" y="47.5183" width="7.52339" height="7.52493" rx="1.75" stroke="white" stroke-width="0.5"/>
<rect x="73.5015" y="47.5183" width="7.52339" height="7.52493" rx="1.75" stroke="white" stroke-width="0.5"/>
<rect x="44.8477" y="81.9116" width="7.52339" height="7.52493" rx="1.75" stroke="white" stroke-width="0.5"/>
<rect x="59.1738" y="81.9116" width="7.52339" height="7.52493" rx="1.75" stroke="white" stroke-width="0.5"/>
<rect x="73.5015" y="81.9116" width="7.52339" height="7.52493" rx="1.75" stroke="white" stroke-width="0.5"/>
<g filter="url(#filter0_f_1_1749)">
<path d="M41.731 37.4514H142.596C145.169 37.4514 147.254 39.5371 147.254 42.1103V59.8798C147.254 62.4529 145.169 64.5386 142.596 64.5386H41.731C39.1586 64.5386 37.0731 62.4529 37.0731 59.8798V42.1103C37.0731 39.5371 39.1586 37.4514 41.731 37.4514ZM41.731 35.8782C38.2896 35.8782 35.5 38.6685 35.5 42.1103V59.8798C35.5 63.3216 38.2896 66.1119 41.731 66.1119H142.596C146.038 66.1119 148.827 63.3216 148.827 59.8798V42.1103C148.827 38.6685 146.038 35.8782 142.596 35.8782H41.731Z" stroke="#E06121"/>
<path d="M41.731 71.8447H142.596C145.169 71.8447 147.254 73.9305 147.254 76.5036V94.2731C147.254 96.8462 145.169 98.932 142.596 98.932H41.731C39.1586 98.932 37.0731 96.8462 37.0731 94.2731V76.5036C37.0731 73.9305 39.1586 71.8447 41.731 71.8447ZM41.731 70.2715C38.2896 70.2715 35.5 73.0618 35.5 76.5036V94.2731C35.5 97.7149 38.2896 100.505 41.731 100.505H142.596C146.038 100.505 148.827 97.7149 148.827 94.2731V76.5036C148.827 73.0618 146.038 70.2715 142.596 70.2715H41.731Z" stroke="#E06121"/>
<path d="M41.731 106.236H142.596C145.169 106.236 147.254 108.322 147.254 110.895V128.664C147.254 131.238 145.169 133.323 142.596 133.323H41.731C39.1586 133.323 37.0731 131.238 37.0731 128.664V110.895C37.0731 108.322 39.1586 106.236 41.731 106.236ZM41.731 104.663C38.2896 104.663 35.5 107.453 35.5 110.895V128.664C35.5 132.106 38.2896 134.897 41.731 134.897H142.596C146.038 134.897 148.827 132.106 148.827 128.664V110.895C148.827 107.453 146.038 104.663 142.596 104.663H41.731Z" stroke="#E06121"/>
</g>
<g filter="url(#filter1_f_1_1749)">
<path d="M41.731 37.4514H142.596C145.169 37.4514 147.254 39.5371 147.254 42.1103V59.8798C147.254 62.4529 145.169 64.5386 142.596 64.5386H41.731C39.1586 64.5386 37.0731 62.4529 37.0731 59.8798V42.1103C37.0731 39.5371 39.1586 37.4514 41.731 37.4514ZM41.731 35.8782C38.2896 35.8782 35.5 38.6685 35.5 42.1103V59.8798C35.5 63.3216 38.2896 66.1119 41.731 66.1119H142.596C146.038 66.1119 148.827 63.3216 148.827 59.8798V42.1103C148.827 38.6685 146.038 35.8782 142.596 35.8782H41.731Z" stroke="#E06121"/>
<path d="M41.731 71.8447H142.596C145.169 71.8447 147.254 73.9305 147.254 76.5036V94.2731C147.254 96.8462 145.169 98.932 142.596 98.932H41.731C39.1586 98.932 37.0731 96.8462 37.0731 94.2731V76.5036C37.0731 73.9305 39.1586 71.8447 41.731 71.8447ZM41.731 70.2715C38.2896 70.2715 35.5 73.0618 35.5 76.5036V94.2731C35.5 97.7149 38.2896 100.505 41.731 100.505H142.596C146.038 100.505 148.827 97.7149 148.827 94.2731V76.5036C148.827 73.0618 146.038 70.2715 142.596 70.2715H41.731Z" stroke="#E06121"/>
<path d="M41.731 106.236H142.596C145.169 106.236 147.254 108.322 147.254 110.895V128.664C147.254 131.238 145.169 133.323 142.596 133.323H41.731C39.1586 133.323 37.0731 131.238 37.0731 128.664V110.895C37.0731 108.322 39.1586 106.236 41.731 106.236ZM41.731 104.663C38.2896 104.663 35.5 107.453 35.5 110.895V128.664C35.5 132.106 38.2896 134.897 41.731 134.897H142.596C146.038 134.897 148.827 132.106 148.827 128.664V110.895C148.827 107.453 146.038 104.663 142.596 104.663H41.731Z" stroke="#E06121"/>
</g>
<g filter="url(#filter2_f_1_1749)">
<path d="M41.731 37.9514H142.596C144.893 37.9514 146.754 39.8132 146.754 42.1103V59.8798C146.754 62.1768 144.893 64.0386 142.596 64.0386H41.731C39.4348 64.0386 37.5731 62.1768 37.5731 59.8798V42.1103C37.5731 39.8132 39.4348 37.9514 41.731 37.9514ZM41.731 35.3782C38.0134 35.3782 35 38.3924 35 42.1103V59.8798C35 63.5976 38.0134 66.6119 41.731 66.6119H142.596C146.314 66.6119 149.327 63.5976 149.327 59.8798V42.1103C149.327 38.3924 146.314 35.3782 142.596 35.3782H41.731Z" stroke="#E06121" stroke-width="2"/>
<path d="M41.731 72.3447H142.596C144.893 72.3447 146.754 74.2065 146.754 76.5036V94.2731C146.754 96.5701 144.893 98.432 142.596 98.432H41.731C39.4348 98.432 37.5731 96.5701 37.5731 94.2731V76.5036C37.5731 74.2065 39.4348 72.3447 41.731 72.3447ZM41.731 69.7715C38.0134 69.7715 35 72.7857 35 76.5036V94.2731C35 97.9909 38.0134 101.005 41.731 101.005H142.596C146.314 101.005 149.327 97.9909 149.327 94.2731V76.5036C149.327 72.7857 146.314 69.7715 142.596 69.7715H41.731Z" stroke="#E06121" stroke-width="2"/>
<path d="M41.731 106.736H142.596C144.893 106.736 146.754 108.598 146.754 110.895V128.664C146.754 130.961 144.893 132.823 142.596 132.823H41.731C39.4348 132.823 37.5731 130.961 37.5731 128.664V110.895C37.5731 108.598 39.4348 106.736 41.731 106.736ZM41.731 104.163C38.0134 104.163 35 107.177 35 110.895V128.664C35 132.382 38.0134 135.397 41.731 135.397H142.596C146.314 135.397 149.327 132.382 149.327 128.664V110.895C149.327 107.177 146.314 104.163 142.596 104.163H41.731Z" stroke="#E06121" stroke-width="2"/>
</g>
<path fill-rule="evenodd" clip-rule="evenodd" d="M142.596 36.9514H41.731C38.8824 36.9514 36.5731 39.2611 36.5731 42.1103V59.8798C36.5731 62.7289 38.8824 65.0386 41.731 65.0386H142.596C145.445 65.0386 147.754 62.7289 147.754 59.8798V42.1103C147.754 39.2611 145.445 36.9514 142.596 36.9514ZM41.731 36.3782C38.5659 36.3782 36 38.9445 36 42.1103V59.8798C36 63.0455 38.5659 65.6119 41.731 65.6119H142.596C145.762 65.6119 148.327 63.0455 148.327 59.8798V42.1103C148.327 38.9445 145.762 36.3782 142.596 36.3782H41.731Z" fill="white"/>
<path fill-rule="evenodd" clip-rule="evenodd" d="M142.596 71.3447H41.731C38.8824 71.3447 36.5731 73.6544 36.5731 76.5036V94.2731C36.5731 97.1222 38.8824 99.432 41.731 99.432H142.596C145.445 99.432 147.754 97.1222 147.754 94.2731V76.5036C147.754 73.6544 145.445 71.3447 142.596 71.3447ZM41.731 70.7715C38.5659 70.7715 36 73.3378 36 76.5036V94.2731C36 97.4388 38.5659 100.005 41.731 100.005H142.596C145.762 100.005 148.327 97.4388 148.327 94.2731V76.5036C148.327 73.3378 145.762 70.7715 142.596 70.7715H41.731Z" fill="white"/>
<path fill-rule="evenodd" clip-rule="evenodd" d="M142.596 105.736H41.731C38.8824 105.736 36.5731 108.046 36.5731 110.895V128.664C36.5731 131.514 38.8824 133.823 41.731 133.823H142.596C145.445 133.823 147.754 131.514 147.754 128.664V110.895C147.754 108.046 145.445 105.736 142.596 105.736ZM41.731 105.163C38.5659 105.163 36 107.729 36 110.895V128.664C36 131.83 38.5659 134.397 41.731 134.397H142.596C145.762 134.397 148.327 131.83 148.327 128.664V110.895C148.327 107.729 145.762 105.163 142.596 105.163H41.731Z" fill="white"/>
<rect x="44.8477" y="116.303" width="7.52339" height="7.52493" rx="1.75" stroke="white" stroke-width="0.5"/>
<rect x="59.1738" y="116.303" width="7.52339" height="7.52493" rx="1.75" stroke="white" stroke-width="0.5"/>
<rect x="73.5015" y="116.303" width="7.52339" height="7.52493" rx="1.75" stroke="white" stroke-width="0.5"/>
<defs>
<filter id="filter0_f_1_1749" x="0" y="0.378174" width="184.327" height="170.018" filterUnits="userSpaceOnUse" color-interpolation-filters="sRGB">
<feFlood flood-opacity="0" result="BackgroundImageFix"/>
<feBlend mode="normal" in="SourceGraphic" in2="BackgroundImageFix" result="shape"/>
<feGaussianBlur stdDeviation="17.5" result="effect1_foregroundBlur_1_1749"/>
</filter>
<filter id="filter1_f_1_1749" x="20" y="20.3782" width="144.327" height="130.018" filterUnits="userSpaceOnUse" color-interpolation-filters="sRGB">
<feFlood flood-opacity="0" result="BackgroundImageFix"/>
<feBlend mode="normal" in="SourceGraphic" in2="BackgroundImageFix" result="shape"/>
<feGaussianBlur stdDeviation="7.5" result="effect1_foregroundBlur_1_1749"/>
</filter>
<filter id="filter2_f_1_1749" x="30" y="30.3782" width="124.327" height="110.018" filterUnits="userSpaceOnUse" color-interpolation-filters="sRGB">
<feFlood flood-opacity="0" result="BackgroundImageFix"/>
<feBlend mode="normal" in="SourceGraphic" in2="BackgroundImageFix" result="shape"/>
<feGaussianBlur stdDeviation="2" result="effect1_foregroundBlur_1_1749"/>
</filter>
</defs>
</svg>
