<svg width="195" height="166" viewBox="0 0 195 166" fill="none" xmlns="http://www.w3.org/2000/svg">
<g filter="url(#filter0_f_1_1812)">
<path d="M123.531 54.6227H122.531V55.6227H123.531V54.6227ZM124.103 112.333V111.333H121.689L123.396 113.04L124.103 112.333ZM125.986 114.216L125.279 114.923L125.279 114.923L125.986 114.216ZM125.986 114.788L125.279 114.081L125.279 114.081L125.986 114.788ZM122.841 112.215L122.134 112.922L122.134 112.922L122.841 112.215ZM122.841 111.643L123.548 112.35L123.548 112.35L122.841 111.643ZM125.414 109.069L124.707 108.362L124.707 108.362L125.414 109.069ZM125.986 109.641L125.279 108.934L125.279 108.934L125.986 109.641ZM124.103 111.524L123.396 110.817L121.689 112.524H124.103V111.524ZM123.531 55.4316V54.4316H122.531V55.4316H123.531ZM73.3912 41.5586C73.3912 39.6537 74.935 38.1099 76.839 38.1099V36.1099C73.8301 36.1099 71.3912 38.5495 71.3912 41.5586H73.3912ZM73.3912 68.4957V41.5586H71.3912V68.4957H73.3912ZM76.839 71.9444C74.935 71.9444 73.3912 70.4005 73.3912 68.4957H71.3912C71.3912 71.5047 73.8301 73.9444 76.839 73.9444V71.9444ZM118.275 71.9444H76.839V73.9444H118.275V71.9444ZM121.722 68.4957C121.722 70.4005 120.179 71.9444 118.275 71.9444V73.9444C121.284 73.9444 123.722 71.5047 123.722 68.4957H121.722ZM118.275 38.1099C120.179 38.1099 121.722 39.6537 121.722 41.5586H123.722C123.722 38.5495 121.284 36.1099 118.275 36.1099V38.1099ZM76.839 38.1099H118.275V36.1099H76.839V38.1099ZM76.839 35.301C73.3835 35.301 70.5825 38.1028 70.5825 41.5586H72.5825C72.5825 39.207 74.4884 37.301 76.839 37.301V35.301ZM118.275 35.301H76.839V37.301H118.275V35.301ZM124.531 41.5586C124.531 38.1028 121.73 35.301 118.275 35.301V37.301C120.625 37.301 122.531 39.207 122.531 41.5586H124.531ZM124.531 54.6227V41.5586H122.531V54.6227H124.531ZM152.856 53.6227H123.531V55.6227H152.856V53.6227ZM159.113 59.8802C159.113 56.4245 156.312 53.6227 152.856 53.6227V55.6227C155.207 55.6227 157.113 57.5287 157.113 59.8802H159.113ZM159.113 107.075V59.8802H157.113V107.075H159.113ZM152.856 113.333C156.312 113.333 159.113 110.531 159.113 107.075H157.113C157.113 109.427 155.207 111.333 152.856 111.333V113.333ZM124.103 113.333H152.856V111.333H124.103V113.333ZM126.693 113.509L124.81 111.626L123.396 113.04L125.279 114.923L126.693 113.509ZM126.693 115.495C127.242 114.947 127.242 114.058 126.693 113.509L125.279 114.923C125.046 114.691 125.046 114.314 125.279 114.081L126.693 115.495ZM124.707 115.495C125.255 116.044 126.145 116.044 126.693 115.495L125.279 114.081C125.511 113.849 125.889 113.849 126.121 114.081L124.707 115.495ZM122.134 112.922L124.707 115.495L126.121 114.081L123.548 111.508L122.134 112.922ZM122.134 110.936C121.585 111.484 121.585 112.373 122.134 112.922L123.548 111.508C123.781 111.74 123.781 112.117 123.548 112.35L122.134 110.936ZM124.707 108.362L122.134 110.936L123.548 112.35L126.121 109.776L124.707 108.362ZM126.693 108.362C126.145 107.813 125.255 107.813 124.707 108.362L126.121 109.776C125.889 110.009 125.511 110.009 125.279 109.776L126.693 108.362ZM126.693 110.348C127.242 109.799 127.242 108.91 126.693 108.362L125.279 109.776C125.046 109.543 125.046 109.166 125.279 108.934L126.693 110.348ZM124.81 112.231L126.693 110.348L125.279 108.934L123.396 110.817L124.81 112.231ZM152.856 110.524H124.103V112.524H152.856V110.524ZM156.304 107.075C156.304 108.98 154.76 110.524 152.856 110.524V112.524C155.865 112.524 158.304 110.085 158.304 107.075H156.304ZM156.304 59.8802V107.075H158.304V59.8802H156.304ZM152.856 56.4316C154.76 56.4316 156.304 57.9754 156.304 59.8802H158.304C158.304 56.8712 155.865 54.4316 152.856 54.4316V56.4316ZM123.531 56.4316H152.856V54.4316H123.531V56.4316ZM124.531 68.4957V55.4316H122.531V68.4957H124.531ZM118.275 74.7532C121.73 74.7532 124.531 71.9515 124.531 68.4957H122.531C122.531 70.8472 120.625 72.7532 118.275 72.7532V74.7532ZM76.839 74.7532H118.275V72.7532H76.839V74.7532ZM70.5825 68.4957C70.5825 71.9515 73.3835 74.7532 76.839 74.7532V72.7532C74.4884 72.7532 72.5825 70.8472 72.5825 68.4957H70.5825ZM70.5825 41.5586V68.4957H72.5825V41.5586H70.5825ZM121.722 41.5586V68.4957H123.722V41.5586H121.722Z" fill="#E06121"/>
<path d="M70.9082 110.997H71.9082V109.997H70.9082V110.997ZM70.3364 53.2869V54.2869H72.7503L71.0436 52.5798L70.3364 53.2869ZM68.4534 51.4035L69.1606 50.6965L69.1606 50.6965L68.4534 51.4035ZM68.4534 50.8316L69.1606 51.5386L69.1606 51.5386L68.4534 50.8316ZM71.5985 53.4053L72.3057 52.6983L72.3057 52.6983L71.5985 53.4053ZM71.5985 53.9773L70.8913 53.2702L70.8913 53.2702L71.5985 53.9773ZM69.0252 56.551L69.7324 57.2581L69.7324 57.258L69.0252 56.551ZM68.4534 55.9791L69.1606 56.6861L69.1606 56.6861L68.4534 55.9791ZM70.3364 54.0957L71.0436 54.8027L72.7503 53.0957H70.3364V54.0957ZM70.9082 110.188V111.188H71.9082V110.188H70.9082ZM121.531 124.061C121.531 125.966 119.987 127.51 118.083 127.51V129.51C121.092 129.51 123.531 127.07 123.531 124.061H121.531ZM121.531 97.1242V124.061H123.531V97.1242H121.531ZM118.083 93.6755C119.987 93.6755 121.531 95.2193 121.531 97.1242H123.531C123.531 94.1151 121.092 91.6755 118.083 91.6755V93.6755ZM76.1647 93.6755H118.083V91.6755H76.1647V93.6755ZM72.7169 97.1242C72.7169 95.2193 74.2607 93.6755 76.1647 93.6755V91.6755C73.1558 91.6755 70.7169 94.1151 70.7169 97.1242H72.7169ZM76.1647 127.51C74.2607 127.51 72.7169 125.966 72.7169 124.061H70.7169C70.7169 127.07 73.1558 129.51 76.1647 129.51V127.51ZM118.083 127.51H76.1647V129.51H118.083V127.51ZM118.083 130.319C121.538 130.319 124.339 127.517 124.339 124.061H122.339C122.339 126.413 120.433 128.319 118.083 128.319V130.319ZM76.1647 130.319H118.083V128.319H76.1647V130.319ZM69.9082 124.061C69.9082 127.517 72.7092 130.319 76.1647 130.319V128.319C73.8141 128.319 71.9082 126.413 71.9082 124.061H69.9082ZM69.9082 110.997V124.061H71.9082V110.997H69.9082ZM41.2568 111.997H70.9082V109.997H41.2568V111.997ZM35.0002 105.74C35.0002 109.195 37.8012 111.997 41.2568 111.997V109.997C38.9061 109.997 37.0002 108.091 37.0002 105.74H35.0002ZM35.0002 58.5444V105.74H37.0002V58.5444H35.0002ZM41.2567 52.2869C37.8012 52.2869 35.0002 55.0886 35.0002 58.5444H37.0002C37.0002 56.1928 38.9061 54.2869 41.2567 54.2869V52.2869ZM70.3364 52.2869H41.2567V54.2869H70.3364V52.2869ZM67.7462 52.1105L69.6292 53.9939L71.0436 52.5798L69.1606 50.6965L67.7462 52.1105ZM67.7462 50.1245C67.1979 50.673 67.1979 51.5621 67.7462 52.1106L69.1606 50.6965C69.3931 50.929 69.3931 51.3061 69.1606 51.5386L67.7462 50.1245ZM69.7324 50.1245C69.184 49.576 68.2947 49.576 67.7462 50.1245L69.1606 51.5386C68.9279 51.7713 68.5507 51.7713 68.3181 51.5386L69.7324 50.1245ZM72.3057 52.6983L69.7324 50.1245L68.3181 51.5386L70.8913 54.1124L72.3057 52.6983ZM72.3057 54.6843C72.854 54.1359 72.854 53.2467 72.3057 52.6983L70.8913 54.1124C70.6588 53.8798 70.6588 53.5028 70.8913 53.2702L72.3057 54.6843ZM69.7324 57.258L72.3057 54.6843L70.8913 53.2702L68.3181 55.844L69.7324 57.258ZM67.7462 57.258C68.2947 57.8066 69.184 57.8066 69.7324 57.2581L68.3181 55.844C68.5507 55.6113 68.9279 55.6113 69.1606 55.844L67.7462 57.258ZM67.7462 55.272C67.1979 55.8205 67.1979 56.7096 67.7462 57.258L69.1606 55.844C69.3931 56.0765 69.3931 56.4535 69.1606 56.6861L67.7462 55.272ZM69.6292 53.3887L67.7462 55.272L69.1606 56.6861L71.0436 54.8027L69.6292 53.3887ZM41.2567 55.0957H70.3364V53.0957H41.2567V55.0957ZM37.8089 58.5444C37.8089 56.6396 39.3527 55.0957 41.2567 55.0957V53.0957C38.2478 53.0957 35.8089 55.5353 35.8089 58.5444H37.8089ZM37.8089 105.74V58.5444H35.8089V105.74H37.8089ZM41.2568 109.188C39.3527 109.188 37.8089 107.644 37.8089 105.74H35.8089C35.8089 108.749 38.2478 111.188 41.2568 111.188V109.188ZM70.9082 109.188H41.2568V111.188H70.9082V109.188ZM69.9082 97.1242V110.188H71.9082V97.1242H69.9082ZM76.1647 90.8666C72.7092 90.8666 69.9082 93.6684 69.9082 97.1242H71.9082C71.9082 94.7726 73.8141 92.8666 76.1647 92.8666V90.8666ZM118.083 90.8666H76.1647V92.8666H118.083V90.8666ZM124.339 97.1242C124.339 93.6684 121.538 90.8666 118.083 90.8666V92.8666C120.433 92.8666 122.339 94.7726 122.339 97.1242H124.339ZM124.339 124.061V97.1242H122.339V124.061H124.339ZM72.7169 124.061V97.1242H70.7169V124.061H72.7169Z" fill="#E06121"/>
</g>
<g filter="url(#filter1_f_1_1812)">
<path d="M123.531 54.6227H122.531V55.6227H123.531V54.6227ZM124.103 112.333V111.333H121.689L123.396 113.04L124.103 112.333ZM125.986 114.216L125.279 114.923L125.279 114.923L125.986 114.216ZM125.986 114.788L125.279 114.081L125.279 114.081L125.986 114.788ZM122.841 112.215L122.134 112.922L122.134 112.922L122.841 112.215ZM122.841 111.643L123.548 112.35L123.548 112.35L122.841 111.643ZM125.414 109.069L124.707 108.362L124.707 108.362L125.414 109.069ZM125.986 109.641L125.279 108.934L125.279 108.934L125.986 109.641ZM124.103 111.524L123.396 110.817L121.689 112.524H124.103V111.524ZM123.531 55.4316V54.4316H122.531V55.4316H123.531ZM73.3912 41.5586C73.3912 39.6537 74.935 38.1099 76.839 38.1099V36.1099C73.8301 36.1099 71.3912 38.5495 71.3912 41.5586H73.3912ZM73.3912 68.4957V41.5586H71.3912V68.4957H73.3912ZM76.839 71.9444C74.935 71.9444 73.3912 70.4005 73.3912 68.4957H71.3912C71.3912 71.5047 73.8301 73.9444 76.839 73.9444V71.9444ZM118.275 71.9444H76.839V73.9444H118.275V71.9444ZM121.722 68.4957C121.722 70.4005 120.179 71.9444 118.275 71.9444V73.9444C121.284 73.9444 123.722 71.5047 123.722 68.4957H121.722ZM118.275 38.1099C120.179 38.1099 121.722 39.6537 121.722 41.5586H123.722C123.722 38.5495 121.284 36.1099 118.275 36.1099V38.1099ZM76.839 38.1099H118.275V36.1099H76.839V38.1099ZM76.839 35.301C73.3835 35.301 70.5825 38.1028 70.5825 41.5586H72.5825C72.5825 39.207 74.4884 37.301 76.839 37.301V35.301ZM118.275 35.301H76.839V37.301H118.275V35.301ZM124.531 41.5586C124.531 38.1028 121.73 35.301 118.275 35.301V37.301C120.625 37.301 122.531 39.207 122.531 41.5586H124.531ZM124.531 54.6227V41.5586H122.531V54.6227H124.531ZM152.856 53.6227H123.531V55.6227H152.856V53.6227ZM159.113 59.8802C159.113 56.4245 156.312 53.6227 152.856 53.6227V55.6227C155.207 55.6227 157.113 57.5287 157.113 59.8802H159.113ZM159.113 107.075V59.8802H157.113V107.075H159.113ZM152.856 113.333C156.312 113.333 159.113 110.531 159.113 107.075H157.113C157.113 109.427 155.207 111.333 152.856 111.333V113.333ZM124.103 113.333H152.856V111.333H124.103V113.333ZM126.693 113.509L124.81 111.626L123.396 113.04L125.279 114.923L126.693 113.509ZM126.693 115.495C127.242 114.947 127.242 114.058 126.693 113.509L125.279 114.923C125.046 114.691 125.046 114.314 125.279 114.081L126.693 115.495ZM124.707 115.495C125.255 116.044 126.145 116.044 126.693 115.495L125.279 114.081C125.511 113.849 125.889 113.849 126.121 114.081L124.707 115.495ZM122.134 112.922L124.707 115.495L126.121 114.081L123.548 111.508L122.134 112.922ZM122.134 110.936C121.585 111.484 121.585 112.373 122.134 112.922L123.548 111.508C123.781 111.74 123.781 112.117 123.548 112.35L122.134 110.936ZM124.707 108.362L122.134 110.936L123.548 112.35L126.121 109.776L124.707 108.362ZM126.693 108.362C126.145 107.813 125.255 107.813 124.707 108.362L126.121 109.776C125.889 110.009 125.511 110.009 125.279 109.776L126.693 108.362ZM126.693 110.348C127.242 109.799 127.242 108.91 126.693 108.362L125.279 109.776C125.046 109.543 125.046 109.166 125.279 108.934L126.693 110.348ZM124.81 112.231L126.693 110.348L125.279 108.934L123.396 110.817L124.81 112.231ZM152.856 110.524H124.103V112.524H152.856V110.524ZM156.304 107.075C156.304 108.98 154.76 110.524 152.856 110.524V112.524C155.865 112.524 158.304 110.085 158.304 107.075H156.304ZM156.304 59.8802V107.075H158.304V59.8802H156.304ZM152.856 56.4316C154.76 56.4316 156.304 57.9754 156.304 59.8802H158.304C158.304 56.8712 155.865 54.4316 152.856 54.4316V56.4316ZM123.531 56.4316H152.856V54.4316H123.531V56.4316ZM124.531 68.4957V55.4316H122.531V68.4957H124.531ZM118.275 74.7532C121.73 74.7532 124.531 71.9515 124.531 68.4957H122.531C122.531 70.8472 120.625 72.7532 118.275 72.7532V74.7532ZM76.839 74.7532H118.275V72.7532H76.839V74.7532ZM70.5825 68.4957C70.5825 71.9515 73.3835 74.7532 76.839 74.7532V72.7532C74.4884 72.7532 72.5825 70.8472 72.5825 68.4957H70.5825ZM70.5825 41.5586V68.4957H72.5825V41.5586H70.5825ZM121.722 41.5586V68.4957H123.722V41.5586H121.722Z" fill="#E06121"/>
<path d="M70.9082 110.997H71.9082V109.997H70.9082V110.997ZM70.3364 53.2869V54.2869H72.7503L71.0436 52.5798L70.3364 53.2869ZM68.4534 51.4035L69.1606 50.6965L69.1606 50.6965L68.4534 51.4035ZM68.4534 50.8316L69.1606 51.5386L69.1606 51.5386L68.4534 50.8316ZM71.5985 53.4053L72.3057 52.6983L72.3057 52.6983L71.5985 53.4053ZM71.5985 53.9773L70.8913 53.2702L70.8913 53.2702L71.5985 53.9773ZM69.0252 56.551L69.7324 57.2581L69.7324 57.258L69.0252 56.551ZM68.4534 55.9791L69.1606 56.6861L69.1606 56.6861L68.4534 55.9791ZM70.3364 54.0957L71.0436 54.8027L72.7503 53.0957H70.3364V54.0957ZM70.9082 110.188V111.188H71.9082V110.188H70.9082ZM121.531 124.061C121.531 125.966 119.987 127.51 118.083 127.51V129.51C121.092 129.51 123.531 127.07 123.531 124.061H121.531ZM121.531 97.1242V124.061H123.531V97.1242H121.531ZM118.083 93.6755C119.987 93.6755 121.531 95.2193 121.531 97.1242H123.531C123.531 94.1151 121.092 91.6755 118.083 91.6755V93.6755ZM76.1647 93.6755H118.083V91.6755H76.1647V93.6755ZM72.7169 97.1242C72.7169 95.2193 74.2607 93.6755 76.1647 93.6755V91.6755C73.1558 91.6755 70.7169 94.1151 70.7169 97.1242H72.7169ZM76.1647 127.51C74.2607 127.51 72.7169 125.966 72.7169 124.061H70.7169C70.7169 127.07 73.1558 129.51 76.1647 129.51V127.51ZM118.083 127.51H76.1647V129.51H118.083V127.51ZM118.083 130.319C121.538 130.319 124.339 127.517 124.339 124.061H122.339C122.339 126.413 120.433 128.319 118.083 128.319V130.319ZM76.1647 130.319H118.083V128.319H76.1647V130.319ZM69.9082 124.061C69.9082 127.517 72.7092 130.319 76.1647 130.319V128.319C73.8141 128.319 71.9082 126.413 71.9082 124.061H69.9082ZM69.9082 110.997V124.061H71.9082V110.997H69.9082ZM41.2568 111.997H70.9082V109.997H41.2568V111.997ZM35.0002 105.74C35.0002 109.195 37.8012 111.997 41.2568 111.997V109.997C38.9061 109.997 37.0002 108.091 37.0002 105.74H35.0002ZM35.0002 58.5444V105.74H37.0002V58.5444H35.0002ZM41.2567 52.2869C37.8012 52.2869 35.0002 55.0886 35.0002 58.5444H37.0002C37.0002 56.1928 38.9061 54.2869 41.2567 54.2869V52.2869ZM70.3364 52.2869H41.2567V54.2869H70.3364V52.2869ZM67.7462 52.1105L69.6292 53.9939L71.0436 52.5798L69.1606 50.6965L67.7462 52.1105ZM67.7462 50.1245C67.1979 50.673 67.1979 51.5621 67.7462 52.1106L69.1606 50.6965C69.3931 50.929 69.3931 51.3061 69.1606 51.5386L67.7462 50.1245ZM69.7324 50.1245C69.184 49.576 68.2947 49.576 67.7462 50.1245L69.1606 51.5386C68.9279 51.7713 68.5507 51.7713 68.3181 51.5386L69.7324 50.1245ZM72.3057 52.6983L69.7324 50.1245L68.3181 51.5386L70.8913 54.1124L72.3057 52.6983ZM72.3057 54.6843C72.854 54.1359 72.854 53.2467 72.3057 52.6983L70.8913 54.1124C70.6588 53.8798 70.6588 53.5028 70.8913 53.2702L72.3057 54.6843ZM69.7324 57.258L72.3057 54.6843L70.8913 53.2702L68.3181 55.844L69.7324 57.258ZM67.7462 57.258C68.2947 57.8066 69.184 57.8066 69.7324 57.2581L68.3181 55.844C68.5507 55.6113 68.9279 55.6113 69.1606 55.844L67.7462 57.258ZM67.7462 55.272C67.1979 55.8205 67.1979 56.7096 67.7462 57.258L69.1606 55.844C69.3931 56.0765 69.3931 56.4535 69.1606 56.6861L67.7462 55.272ZM69.6292 53.3887L67.7462 55.272L69.1606 56.6861L71.0436 54.8027L69.6292 53.3887ZM41.2567 55.0957H70.3364V53.0957H41.2567V55.0957ZM37.8089 58.5444C37.8089 56.6396 39.3527 55.0957 41.2567 55.0957V53.0957C38.2478 53.0957 35.8089 55.5353 35.8089 58.5444H37.8089ZM37.8089 105.74V58.5444H35.8089V105.74H37.8089ZM41.2568 109.188C39.3527 109.188 37.8089 107.644 37.8089 105.74H35.8089C35.8089 108.749 38.2478 111.188 41.2568 111.188V109.188ZM70.9082 109.188H41.2568V111.188H70.9082V109.188ZM69.9082 97.1242V110.188H71.9082V97.1242H69.9082ZM76.1647 90.8666C72.7092 90.8666 69.9082 93.6684 69.9082 97.1242H71.9082C71.9082 94.7726 73.8141 92.8666 76.1647 92.8666V90.8666ZM118.083 90.8666H76.1647V92.8666H118.083V90.8666ZM124.339 97.1242C124.339 93.6684 121.538 90.8666 118.083 90.8666V92.8666C120.433 92.8666 122.339 94.7726 122.339 97.1242H124.339ZM124.339 124.061V97.1242H122.339V124.061H124.339ZM72.7169 124.061V97.1242H70.7169V124.061H72.7169Z" fill="#E06121"/>
</g>
<g filter="url(#filter2_f_1_1812)">
<path d="M123.531 54.6227H122.531V55.6227H123.531V54.6227ZM124.103 112.333V111.333H121.689L123.396 113.04L124.103 112.333ZM125.986 114.216L125.279 114.923L125.279 114.923L125.986 114.216ZM125.986 114.788L125.279 114.081L125.279 114.081L125.986 114.788ZM122.841 112.215L122.134 112.922L122.134 112.922L122.841 112.215ZM122.841 111.643L123.548 112.35L123.548 112.35L122.841 111.643ZM125.414 109.069L124.707 108.362L124.707 108.362L125.414 109.069ZM125.986 109.641L125.279 108.934L125.279 108.934L125.986 109.641ZM124.103 111.524L123.396 110.817L121.689 112.524H124.103V111.524ZM123.531 55.4316V54.4316H122.531V55.4316H123.531ZM73.3912 41.5586C73.3912 39.6537 74.935 38.1099 76.839 38.1099V36.1099C73.8301 36.1099 71.3912 38.5495 71.3912 41.5586H73.3912ZM73.3912 68.4957V41.5586H71.3912V68.4957H73.3912ZM76.839 71.9444C74.935 71.9444 73.3912 70.4005 73.3912 68.4957H71.3912C71.3912 71.5047 73.8301 73.9444 76.839 73.9444V71.9444ZM118.275 71.9444H76.839V73.9444H118.275V71.9444ZM121.722 68.4957C121.722 70.4005 120.179 71.9444 118.275 71.9444V73.9444C121.284 73.9444 123.722 71.5047 123.722 68.4957H121.722ZM118.275 38.1099C120.179 38.1099 121.722 39.6537 121.722 41.5586H123.722C123.722 38.5495 121.284 36.1099 118.275 36.1099V38.1099ZM76.839 38.1099H118.275V36.1099H76.839V38.1099ZM76.839 35.301C73.3835 35.301 70.5825 38.1028 70.5825 41.5586H72.5825C72.5825 39.207 74.4884 37.301 76.839 37.301V35.301ZM118.275 35.301H76.839V37.301H118.275V35.301ZM124.531 41.5586C124.531 38.1028 121.73 35.301 118.275 35.301V37.301C120.625 37.301 122.531 39.207 122.531 41.5586H124.531ZM124.531 54.6227V41.5586H122.531V54.6227H124.531ZM152.856 53.6227H123.531V55.6227H152.856V53.6227ZM159.113 59.8802C159.113 56.4245 156.312 53.6227 152.856 53.6227V55.6227C155.207 55.6227 157.113 57.5287 157.113 59.8802H159.113ZM159.113 107.075V59.8802H157.113V107.075H159.113ZM152.856 113.333C156.312 113.333 159.113 110.531 159.113 107.075H157.113C157.113 109.427 155.207 111.333 152.856 111.333V113.333ZM124.103 113.333H152.856V111.333H124.103V113.333ZM126.693 113.509L124.81 111.626L123.396 113.04L125.279 114.923L126.693 113.509ZM126.693 115.495C127.242 114.947 127.242 114.058 126.693 113.509L125.279 114.923C125.046 114.691 125.046 114.314 125.279 114.081L126.693 115.495ZM124.707 115.495C125.255 116.044 126.145 116.044 126.693 115.495L125.279 114.081C125.511 113.849 125.889 113.849 126.121 114.081L124.707 115.495ZM122.134 112.922L124.707 115.495L126.121 114.081L123.548 111.508L122.134 112.922ZM122.134 110.936C121.585 111.484 121.585 112.373 122.134 112.922L123.548 111.508C123.781 111.74 123.781 112.117 123.548 112.35L122.134 110.936ZM124.707 108.362L122.134 110.936L123.548 112.35L126.121 109.776L124.707 108.362ZM126.693 108.362C126.145 107.813 125.255 107.813 124.707 108.362L126.121 109.776C125.889 110.009 125.511 110.009 125.279 109.776L126.693 108.362ZM126.693 110.348C127.242 109.799 127.242 108.91 126.693 108.362L125.279 109.776C125.046 109.543 125.046 109.166 125.279 108.934L126.693 110.348ZM124.81 112.231L126.693 110.348L125.279 108.934L123.396 110.817L124.81 112.231ZM152.856 110.524H124.103V112.524H152.856V110.524ZM156.304 107.075C156.304 108.98 154.76 110.524 152.856 110.524V112.524C155.865 112.524 158.304 110.085 158.304 107.075H156.304ZM156.304 59.8802V107.075H158.304V59.8802H156.304ZM152.856 56.4316C154.76 56.4316 156.304 57.9754 156.304 59.8802H158.304C158.304 56.8712 155.865 54.4316 152.856 54.4316V56.4316ZM123.531 56.4316H152.856V54.4316H123.531V56.4316ZM124.531 68.4957V55.4316H122.531V68.4957H124.531ZM118.275 74.7532C121.73 74.7532 124.531 71.9515 124.531 68.4957H122.531C122.531 70.8472 120.625 72.7532 118.275 72.7532V74.7532ZM76.839 74.7532H118.275V72.7532H76.839V74.7532ZM70.5825 68.4957C70.5825 71.9515 73.3835 74.7532 76.839 74.7532V72.7532C74.4884 72.7532 72.5825 70.8472 72.5825 68.4957H70.5825ZM70.5825 41.5586V68.4957H72.5825V41.5586H70.5825ZM121.722 41.5586V68.4957H123.722V41.5586H121.722Z" fill="#E06121"/>
<path d="M70.9082 110.997H71.9082V109.997H70.9082V110.997ZM70.3364 53.2869V54.2869H72.7503L71.0436 52.5798L70.3364 53.2869ZM68.4534 51.4035L69.1606 50.6965L69.1606 50.6965L68.4534 51.4035ZM68.4534 50.8316L69.1606 51.5386L69.1606 51.5386L68.4534 50.8316ZM71.5985 53.4053L72.3057 52.6983L72.3057 52.6983L71.5985 53.4053ZM71.5985 53.9773L70.8913 53.2702L70.8913 53.2702L71.5985 53.9773ZM69.0252 56.551L69.7324 57.2581L69.7324 57.258L69.0252 56.551ZM68.4534 55.9791L69.1606 56.6861L69.1606 56.6861L68.4534 55.9791ZM70.3364 54.0957L71.0436 54.8027L72.7503 53.0957H70.3364V54.0957ZM70.9082 110.188V111.188H71.9082V110.188H70.9082ZM121.531 124.061C121.531 125.966 119.987 127.51 118.083 127.51V129.51C121.092 129.51 123.531 127.07 123.531 124.061H121.531ZM121.531 97.1242V124.061H123.531V97.1242H121.531ZM118.083 93.6755C119.987 93.6755 121.531 95.2193 121.531 97.1242H123.531C123.531 94.1151 121.092 91.6755 118.083 91.6755V93.6755ZM76.1647 93.6755H118.083V91.6755H76.1647V93.6755ZM72.7169 97.1242C72.7169 95.2193 74.2607 93.6755 76.1647 93.6755V91.6755C73.1558 91.6755 70.7169 94.1151 70.7169 97.1242H72.7169ZM76.1647 127.51C74.2607 127.51 72.7169 125.966 72.7169 124.061H70.7169C70.7169 127.07 73.1558 129.51 76.1647 129.51V127.51ZM118.083 127.51H76.1647V129.51H118.083V127.51ZM118.083 130.319C121.538 130.319 124.339 127.517 124.339 124.061H122.339C122.339 126.413 120.433 128.319 118.083 128.319V130.319ZM76.1647 130.319H118.083V128.319H76.1647V130.319ZM69.9082 124.061C69.9082 127.517 72.7092 130.319 76.1647 130.319V128.319C73.8141 128.319 71.9082 126.413 71.9082 124.061H69.9082ZM69.9082 110.997V124.061H71.9082V110.997H69.9082ZM41.2568 111.997H70.9082V109.997H41.2568V111.997ZM35.0002 105.74C35.0002 109.195 37.8012 111.997 41.2568 111.997V109.997C38.9061 109.997 37.0002 108.091 37.0002 105.74H35.0002ZM35.0002 58.5444V105.74H37.0002V58.5444H35.0002ZM41.2567 52.2869C37.8012 52.2869 35.0002 55.0886 35.0002 58.5444H37.0002C37.0002 56.1928 38.9061 54.2869 41.2567 54.2869V52.2869ZM70.3364 52.2869H41.2567V54.2869H70.3364V52.2869ZM67.7462 52.1105L69.6292 53.9939L71.0436 52.5798L69.1606 50.6965L67.7462 52.1105ZM67.7462 50.1245C67.1979 50.673 67.1979 51.5621 67.7462 52.1106L69.1606 50.6965C69.3931 50.929 69.3931 51.3061 69.1606 51.5386L67.7462 50.1245ZM69.7324 50.1245C69.184 49.576 68.2947 49.576 67.7462 50.1245L69.1606 51.5386C68.9279 51.7713 68.5507 51.7713 68.3181 51.5386L69.7324 50.1245ZM72.3057 52.6983L69.7324 50.1245L68.3181 51.5386L70.8913 54.1124L72.3057 52.6983ZM72.3057 54.6843C72.854 54.1359 72.854 53.2467 72.3057 52.6983L70.8913 54.1124C70.6588 53.8798 70.6588 53.5028 70.8913 53.2702L72.3057 54.6843ZM69.7324 57.258L72.3057 54.6843L70.8913 53.2702L68.3181 55.844L69.7324 57.258ZM67.7462 57.258C68.2947 57.8066 69.184 57.8066 69.7324 57.2581L68.3181 55.844C68.5507 55.6113 68.9279 55.6113 69.1606 55.844L67.7462 57.258ZM67.7462 55.272C67.1979 55.8205 67.1979 56.7096 67.7462 57.258L69.1606 55.844C69.3931 56.0765 69.3931 56.4535 69.1606 56.6861L67.7462 55.272ZM69.6292 53.3887L67.7462 55.272L69.1606 56.6861L71.0436 54.8027L69.6292 53.3887ZM41.2567 55.0957H70.3364V53.0957H41.2567V55.0957ZM37.8089 58.5444C37.8089 56.6396 39.3527 55.0957 41.2567 55.0957V53.0957C38.2478 53.0957 35.8089 55.5353 35.8089 58.5444H37.8089ZM37.8089 105.74V58.5444H35.8089V105.74H37.8089ZM41.2568 109.188C39.3527 109.188 37.8089 107.644 37.8089 105.74H35.8089C35.8089 108.749 38.2478 111.188 41.2568 111.188V109.188ZM70.9082 109.188H41.2568V111.188H70.9082V109.188ZM69.9082 97.1242V110.188H71.9082V97.1242H69.9082ZM76.1647 90.8666C72.7092 90.8666 69.9082 93.6684 69.9082 97.1242H71.9082C71.9082 94.7726 73.8141 92.8666 76.1647 92.8666V90.8666ZM118.083 90.8666H76.1647V92.8666H118.083V90.8666ZM124.339 97.1242C124.339 93.6684 121.538 90.8666 118.083 90.8666V92.8666C120.433 92.8666 122.339 94.7726 122.339 97.1242H124.339ZM124.339 124.061V97.1242H122.339V124.061H124.339ZM72.7169 124.061V97.1242H70.7169V124.061H72.7169Z" fill="#E06121"/>
</g>
<path fill-rule="evenodd" clip-rule="evenodd" d="M76.839 37.1099C74.3826 37.1099 72.3912 39.1016 72.3912 41.5586V68.4957C72.3912 70.9526 74.3826 72.9444 76.839 72.9444H118.275C120.731 72.9444 122.722 70.9526 122.722 68.4957V41.5586C122.722 39.1016 120.731 37.1099 118.275 37.1099H76.839ZM71.5825 41.5586C71.5825 38.6549 73.9359 36.301 76.839 36.301H118.275C121.178 36.301 123.531 38.6549 123.531 41.5586V54.6227H152.856C155.76 54.6227 158.113 56.9766 158.113 59.8802V107.075C158.113 109.979 155.76 112.333 152.856 112.333H124.103L125.986 114.216C126.144 114.374 126.144 114.63 125.986 114.788C125.828 114.946 125.572 114.946 125.414 114.788L122.841 112.215C122.683 112.057 122.683 111.801 122.841 111.643L125.414 109.069C125.572 108.911 125.828 108.911 125.986 109.069C126.144 109.227 126.144 109.483 125.986 109.641L124.103 111.524H152.856C155.313 111.524 157.304 109.532 157.304 107.075V59.8802C157.304 57.4233 155.313 55.4316 152.856 55.4316H123.531V68.4957C123.531 71.3993 121.178 73.7532 118.275 73.7532H76.839C73.9359 73.7532 71.5825 71.3993 71.5825 68.4957V41.5586Z" fill="white"/>
<path fill-rule="evenodd" clip-rule="evenodd" d="M118.083 128.51C120.539 128.51 122.531 126.518 122.531 124.061V97.1242C122.531 94.6672 120.539 92.6755 118.083 92.6755H76.1647C73.7083 92.6755 71.7169 94.6672 71.7169 97.1242V124.061C71.7169 126.518 73.7083 128.51 76.1647 128.51H118.083ZM123.339 124.061C123.339 126.965 120.986 129.319 118.083 129.319H76.1647C73.2617 129.319 70.9082 126.965 70.9082 124.061V110.997H41.2568C38.3537 110.997 36.0002 108.643 36.0002 105.74V58.5444C36.0002 55.6407 38.3536 53.2869 41.2567 53.2869H70.3364L68.4534 51.4035C68.2955 51.2456 68.2955 50.9895 68.4534 50.8316C68.6113 50.6736 68.8673 50.6736 69.0252 50.8316L71.5985 53.4053C71.7564 53.5633 71.7564 53.8193 71.5985 53.9773L69.0252 56.551C68.8673 56.7089 68.6113 56.7089 68.4534 56.551C68.2955 56.3931 68.2955 56.137 68.4534 55.9791L70.3364 54.0957H41.2567C38.8003 54.0957 36.8089 56.0874 36.8089 58.5444V105.74C36.8089 108.197 38.8003 110.188 41.2568 110.188H70.9082V97.1242C70.9082 94.2205 73.2617 91.8666 76.1647 91.8666H118.083C120.986 91.8666 123.339 94.2205 123.339 97.1242V124.061Z" fill="white"/>
<defs>
<filter id="filter0_f_1_1812" x="0.000244141" y="0.301025" width="194.113" height="165.018" filterUnits="userSpaceOnUse" color-interpolation-filters="sRGB">
<feFlood flood-opacity="0" result="BackgroundImageFix"/>
<feBlend mode="normal" in="SourceGraphic" in2="BackgroundImageFix" result="shape"/>
<feGaussianBlur stdDeviation="17.5" result="effect1_foregroundBlur_1_1812"/>
</filter>
<filter id="filter1_f_1_1812" x="20.0002" y="20.301" width="154.113" height="125.018" filterUnits="userSpaceOnUse" color-interpolation-filters="sRGB">
<feFlood flood-opacity="0" result="BackgroundImageFix"/>
<feBlend mode="normal" in="SourceGraphic" in2="BackgroundImageFix" result="shape"/>
<feGaussianBlur stdDeviation="7.5" result="effect1_foregroundBlur_1_1812"/>
</filter>
<filter id="filter2_f_1_1812" x="31.0002" y="31.301" width="132.113" height="103.018" filterUnits="userSpaceOnUse" color-interpolation-filters="sRGB">
<feFlood flood-opacity="0" result="BackgroundImageFix"/>
<feBlend mode="normal" in="SourceGraphic" in2="BackgroundImageFix" result="shape"/>
<feGaussianBlur stdDeviation="2" result="effect1_foregroundBlur_1_1812"/>
</filter>
</defs>
</svg>
