<svg width="46" height="46" viewBox="0 0 46 46" fill="none" xmlns="http://www.w3.org/2000/svg">
<g filter="url(#filter0_f_1_1969)">
<path d="M36 5H10C7.23858 5 5 7.23858 5 10V36C5 38.7614 7.23858 41 10 41H36C38.7614 41 41 38.7614 41 36V10C41 7.23858 38.7614 5 36 5ZM8 10C8 8.89543 8.89543 8 10 8H36C37.1046 8 38 8.89543 38 10V36C38 37.1046 37.1046 38 36 38H10C8.89543 38 8 37.1046 8 36V10Z" stroke="#E06121" stroke-width="2"/>
</g>
<g filter="url(#filter1_f_1_1969)">
<path d="M36 5H10C7.23858 5 5 7.23858 5 10V36C5 38.7614 7.23858 41 10 41H36C38.7614 41 41 38.7614 41 36V10C41 7.23858 38.7614 5 36 5ZM8 10C8 8.89543 8.89543 8 10 8H36C37.1046 8 38 8.89543 38 10V36C38 37.1046 37.1046 38 36 38H10C8.89543 38 8 37.1046 8 36V10Z" stroke="#E06121" stroke-width="2"/>
</g>
<path fill-rule="evenodd" clip-rule="evenodd" d="M10 6H36C38.2091 6 40 7.79086 40 10V36C40 38.2091 38.2091 40 36 40H10C7.79086 40 6 38.2091 6 36V10C6 7.79086 7.79086 6 10 6ZM10 7C8.34315 7 7 8.34315 7 10V36C7 37.6569 8.34315 39 10 39H36C37.6569 39 39 37.6569 39 36V10C39 8.34315 37.6569 7 36 7H10Z" fill="white"/>
<defs>
<filter id="filter0_f_1_1969" x="0" y="0" width="46" height="46" filterUnits="userSpaceOnUse" color-interpolation-filters="sRGB">
<feFlood flood-opacity="0" result="BackgroundImageFix"/>
<feBlend mode="normal" in="SourceGraphic" in2="BackgroundImageFix" result="shape"/>
<feGaussianBlur stdDeviation="2" result="effect1_foregroundBlur_1_1969"/>
</filter>
<filter id="filter1_f_1_1969" x="2" y="2" width="42" height="42" filterUnits="userSpaceOnUse" color-interpolation-filters="sRGB">
<feFlood flood-opacity="0" result="BackgroundImageFix"/>
<feBlend mode="normal" in="SourceGraphic" in2="BackgroundImageFix" result="shape"/>
<feGaussianBlur stdDeviation="1" result="effect1_foregroundBlur_1_1969"/>
</filter>
</defs>
</svg>
