<svg width="1320" height="171" viewBox="0 0 1320 171" fill="none" xmlns="http://www.w3.org/2000/svg">
<g filter="url(#filter0_f_1_1898)">
<path fill-rule="evenodd" clip-rule="evenodd" d="M1266.62 42.87H53.3776C47.9053 42.87 43.4691 46.3756 43.4691 50.7V120.3C43.4691 124.624 47.9053 128.13 53.3777 128.13H1266.62C1272.09 128.13 1276.53 124.624 1276.53 120.3V50.7C1276.53 46.3756 1272.09 42.87 1266.62 42.87ZM53.3776 42C47.2973 42 42.3682 45.8951 42.3682 50.7V120.3C42.3682 125.105 47.2973 129 53.3777 129H1266.62C1272.7 129 1277.63 125.105 1277.63 120.3V50.7C1277.63 45.8951 1272.7 42 1266.62 42H53.3776Z" fill="white"/>
<path d="M53.3776 43.87H1266.62C1271.77 43.87 1275.53 47.1345 1275.53 50.7V120.3C1275.53 123.865 1271.77 127.13 1266.62 127.13H53.3777C48.2254 127.13 44.4691 123.865 44.4691 120.3V50.7C44.4691 47.1345 48.2253 43.87 53.3776 43.87ZM53.3776 41C46.9773 41 41.3682 45.1362 41.3682 50.7V120.3C41.3682 125.864 46.9773 130 53.3777 130H1266.62C1273.02 130 1278.63 125.864 1278.63 120.3V50.7C1278.63 45.1362 1273.02 41 1266.62 41H53.3776Z" stroke="#E06121" stroke-width="2"/>
</g>
<g filter="url(#filter1_f_1_1898)">
<path fill-rule="evenodd" clip-rule="evenodd" d="M1266.62 42.87H53.3776C47.9053 42.87 43.4691 46.3756 43.4691 50.7V120.3C43.4691 124.624 47.9053 128.13 53.3777 128.13H1266.62C1272.09 128.13 1276.53 124.624 1276.53 120.3V50.7C1276.53 46.3756 1272.09 42.87 1266.62 42.87ZM53.3776 42C47.2973 42 42.3682 45.8951 42.3682 50.7V120.3C42.3682 125.105 47.2973 129 53.3777 129H1266.62C1272.7 129 1277.63 125.105 1277.63 120.3V50.7C1277.63 45.8951 1272.7 42 1266.62 42H53.3776Z" fill="white"/>
<path d="M53.3776 43.87H1266.62C1271.77 43.87 1275.53 47.1345 1275.53 50.7V120.3C1275.53 123.865 1271.77 127.13 1266.62 127.13H53.3777C48.2254 127.13 44.4691 123.865 44.4691 120.3V50.7C44.4691 47.1345 48.2253 43.87 53.3776 43.87ZM53.3776 41C46.9773 41 41.3682 45.1362 41.3682 50.7V120.3C41.3682 125.864 46.9773 130 53.3777 130H1266.62C1273.02 130 1278.63 125.864 1278.63 120.3V50.7C1278.63 45.1362 1273.02 41 1266.62 41H53.3776Z" stroke="#E06121" stroke-width="2"/>
</g>
<g filter="url(#filter2_f_1_1898)">
<path fill-rule="evenodd" clip-rule="evenodd" d="M1266.62 42.87H53.3776C47.9053 42.87 43.4691 46.3756 43.4691 50.7V120.3C43.4691 124.624 47.9053 128.13 53.3777 128.13H1266.62C1272.09 128.13 1276.53 124.624 1276.53 120.3V50.7C1276.53 46.3756 1272.09 42.87 1266.62 42.87ZM53.3776 42C47.2973 42 42.3682 45.8951 42.3682 50.7V120.3C42.3682 125.105 47.2973 129 53.3777 129H1266.62C1272.7 129 1277.63 125.105 1277.63 120.3V50.7C1277.63 45.8951 1272.7 42 1266.62 42H53.3776Z" fill="white"/>
<path d="M53.3776 44.37H1266.62C1271.61 44.37 1275.03 47.514 1275.03 50.7V120.3C1275.03 123.486 1271.61 126.63 1266.62 126.63H53.3777C48.3854 126.63 44.9691 123.486 44.9691 120.3V50.7C44.9691 47.514 48.3853 44.37 53.3776 44.37ZM53.3776 40.5C46.8172 40.5 40.8682 44.7567 40.8682 50.7V120.3C40.8682 126.243 46.8173 130.5 53.3777 130.5H1266.62C1273.18 130.5 1279.13 126.243 1279.13 120.3V50.7C1279.13 44.7567 1273.18 40.5 1266.62 40.5H53.3776Z" stroke="#E06121" stroke-width="3"/>
</g>
<path fill-rule="evenodd" clip-rule="evenodd" d="M1266.62 42.87H53.3776C47.9053 42.87 43.4691 46.3756 43.4691 50.7V120.3C43.4691 124.624 47.9053 128.13 53.3777 128.13H1266.62C1272.09 128.13 1276.53 124.624 1276.53 120.3V50.7C1276.53 46.3756 1272.09 42.87 1266.62 42.87ZM53.3776 42C47.2973 42 42.3682 45.8951 42.3682 50.7V120.3C42.3682 125.105 47.2973 129 53.3777 129H1266.62C1272.7 129 1277.63 125.105 1277.63 120.3V50.7C1277.63 45.8951 1272.7 42 1266.62 42H53.3776Z" fill="white"/>
<defs>
<filter id="filter0_f_1_1898" x="0.368164" y="0" width="1319.26" height="171" filterUnits="userSpaceOnUse" color-interpolation-filters="sRGB">
<feFlood flood-opacity="0" result="BackgroundImageFix"/>
<feBlend mode="normal" in="SourceGraphic" in2="BackgroundImageFix" result="shape"/>
<feGaussianBlur stdDeviation="20" result="effect1_foregroundBlur_1_1898"/>
</filter>
<filter id="filter1_f_1_1898" x="25.3682" y="25" width="1269.26" height="121" filterUnits="userSpaceOnUse" color-interpolation-filters="sRGB">
<feFlood flood-opacity="0" result="BackgroundImageFix"/>
<feBlend mode="normal" in="SourceGraphic" in2="BackgroundImageFix" result="shape"/>
<feGaussianBlur stdDeviation="7.5" result="effect1_foregroundBlur_1_1898"/>
</filter>
<filter id="filter2_f_1_1898" x="35.3682" y="35" width="1249.26" height="101" filterUnits="userSpaceOnUse" color-interpolation-filters="sRGB">
<feFlood flood-opacity="0" result="BackgroundImageFix"/>
<feBlend mode="normal" in="SourceGraphic" in2="BackgroundImageFix" result="shape"/>
<feGaussianBlur stdDeviation="2" result="effect1_foregroundBlur_1_1898"/>
</filter>
</defs>
</svg>
