<svg width="348" height="341" viewBox="0 0 348 341" fill="none" xmlns="http://www.w3.org/2000/svg">
<g filter="url(#filter0_f_1_2066)">
<path d="M296.207 170.5C296.207 236.053 241.582 289.419 173.916 289.419C106.25 289.419 51.6253 236.053 51.6253 170.5C51.6253 104.947 106.25 51.5813 173.916 51.5813C241.582 51.5813 296.207 104.947 296.207 170.5ZM173.916 298.5C246.431 298.5 305.332 241.255 305.332 170.5C305.332 99.7447 246.431 42.5 173.916 42.5C101.401 42.5 42.5 99.7447 42.5 170.5C42.5 241.255 101.401 298.5 173.916 298.5Z" stroke="#E06121" stroke-width="5"/>
<path d="M160.145 226.501L162.298 228.587L163.963 226.094L239.597 112.815C241.002 110.709 240.407 107.882 238.301 106.506C236.211 105.14 233.391 105.7 231.996 107.789L160.784 214.447L115.22 170.308C113.422 168.567 110.548 168.596 108.786 170.375C107.01 172.17 107.042 175.059 108.855 176.815L110.587 175.027L108.855 176.815L160.145 226.501Z" stroke="#E06121" stroke-width="5" stroke-linecap="round"/>
</g>
<g filter="url(#filter1_f_1_2066)">
<path d="M296.707 170.5C296.707 236.341 241.845 289.919 173.916 289.919C105.987 289.919 51.1253 236.341 51.1253 170.5C51.1253 104.659 105.987 51.0813 173.916 51.0813C241.845 51.0813 296.707 104.659 296.707 170.5ZM173.916 298C246.168 298 304.832 240.967 304.832 170.5C304.832 100.033 246.168 43 173.916 43C101.664 43 43 100.033 43 170.5C43 240.967 101.664 298 173.916 298Z" stroke="#E06121" stroke-width="4"/>
<path d="M160.492 226.142L162.215 227.811L163.547 225.816L239.181 112.537C240.431 110.665 239.902 108.15 238.027 106.925C236.165 105.708 233.653 106.207 232.412 108.066L160.866 215.223L114.872 170.667L113.48 172.104L114.872 170.667C113.271 169.116 110.71 169.143 109.142 170.727C107.562 172.324 107.589 174.894 109.202 176.456L110.594 175.02L109.202 176.456L160.492 226.142Z" stroke="#E06121" stroke-width="4" stroke-linecap="round"/>
</g>
<g filter="url(#filter2_f_1_2066)">
<path d="M296.707 170.5C296.707 236.341 241.845 289.919 173.916 289.919C105.987 289.919 51.1253 236.341 51.1253 170.5C51.1253 104.659 105.987 51.0813 173.916 51.0813C241.845 51.0813 296.707 104.659 296.707 170.5ZM173.916 298C246.168 298 304.832 240.967 304.832 170.5C304.832 100.033 246.168 43 173.916 43C101.664 43 43 100.033 43 170.5C43 240.967 101.664 298 173.916 298Z" stroke="#E06121" stroke-width="4"/>
<path d="M160.492 226.142L162.215 227.811L163.547 225.816L239.181 112.537C240.431 110.665 239.902 108.15 238.027 106.925C236.165 105.708 233.653 106.207 232.412 108.066L160.866 215.223L114.872 170.667L113.48 172.104L114.872 170.667C113.271 169.116 110.71 169.143 109.142 170.727C107.562 172.324 107.589 174.894 109.202 176.456L110.594 175.02L109.202 176.456L160.492 226.142Z" stroke="#E06121" stroke-width="4" stroke-linecap="round"/>
</g>
<path fill-rule="evenodd" clip-rule="evenodd" d="M173.916 291.919C242.899 291.919 298.707 237.496 298.707 170.5C298.707 103.504 242.899 49.0813 173.916 49.0813C104.933 49.0813 49.1253 103.504 49.1253 170.5C49.1253 237.496 104.933 291.919 173.916 291.919ZM173.916 296C245.114 296 302.832 239.812 302.832 170.5C302.832 101.188 245.114 45 173.916 45C102.718 45 45 101.188 45 170.5C45 239.812 102.718 296 173.916 296Z" fill="white"/>
<path fill-rule="evenodd" clip-rule="evenodd" d="M236.933 108.599C237.884 109.22 238.145 110.486 237.518 111.426L161.884 224.706L110.594 175.02C109.78 174.231 109.766 172.939 110.563 172.134C111.36 171.329 112.666 171.315 113.48 172.104L161.198 218.329L234.075 109.177C234.703 108.237 235.983 107.978 236.933 108.599Z" fill="white"/>
<defs>
<filter id="filter0_f_1_2066" x="0" y="0" width="347.832" height="341" filterUnits="userSpaceOnUse" color-interpolation-filters="sRGB">
<feFlood flood-opacity="0" result="BackgroundImageFix"/>
<feBlend mode="normal" in="SourceGraphic" in2="BackgroundImageFix" result="shape"/>
<feGaussianBlur stdDeviation="20" result="effect1_foregroundBlur_1_2066"/>
</filter>
<filter id="filter1_f_1_2066" x="26" y="26" width="295.832" height="289" filterUnits="userSpaceOnUse" color-interpolation-filters="sRGB">
<feFlood flood-opacity="0" result="BackgroundImageFix"/>
<feBlend mode="normal" in="SourceGraphic" in2="BackgroundImageFix" result="shape"/>
<feGaussianBlur stdDeviation="7.5" result="effect1_foregroundBlur_1_2066"/>
</filter>
<filter id="filter2_f_1_2066" x="37" y="37" width="273.832" height="267" filterUnits="userSpaceOnUse" color-interpolation-filters="sRGB">
<feFlood flood-opacity="0" result="BackgroundImageFix"/>
<feBlend mode="normal" in="SourceGraphic" in2="BackgroundImageFix" result="shape"/>
<feGaussianBlur stdDeviation="2" result="effect1_foregroundBlur_1_2066"/>
</filter>
</defs>
</svg>
