<svg width="2986" height="954" viewBox="0 0 2986 954" fill="none" xmlns="http://www.w3.org/2000/svg">
<g opacity="0.142857">
<g filter="url(#filter0_f_0_219)">
<path d="M770.414 644.441L770.386 644.457L770.362 644.475L770.328 644.502C755.399 656.083 736.236 668.405 714.74 678.862C693.205 689.338 669.494 697.859 645.549 701.943C633.609 703.979 621.731 704.891 610.11 704.434C598.526 703.979 587.022 702.158 575.759 698.615C553.086 691.482 531.203 677.304 512.421 653.147C503.958 642.262 507.568 631.183 519.6 620.798C531.625 610.419 552.011 600.778 576.886 592.776C701.759 552.604 866.742 476.93 912.408 372.313C936.708 316.642 1056.8 277.008 1209.59 249.482C1362.33 221.964 1547.31 206.63 1700.45 199.467C1792.38 195.167 1880.66 209.081 1952.8 228.54C2085.01 264.204 2274.67 296.201 2471.16 294.004C2533.11 293.312 2583.49 297.435 2624.71 305.136C2665.89 312.832 2698.11 324.134 2723.68 337.916C2774.94 365.546 2799.42 403.112 2815.28 441.37C2824.5 463.619 2809.42 486.621 2763.79 503.314C2681.83 533.295 2559.46 562.161 2409.91 568.264C2260.47 574.362 2083.59 557.747 1892.25 496.579C1780.66 460.903 1666.32 445.518 1554.68 444.24C1443.12 442.963 1334.41 455.777 1233.93 476.392C1033.01 517.615 864.35 590.156 770.458 644.416L770.414 644.441ZM1698.84 197.424C1545.38 204.602 1359.81 219.974 1206.42 247.608C1053.08 275.234 931.449 315.197 906.809 371.647C861.359 475.769 697.093 551.135 572.725 591.145C547.498 599.261 526.648 609.093 514.306 619.742C501.97 630.385 498.081 641.891 506.987 653.347C525.844 677.601 548.197 692.414 572.577 700.084C584.841 703.942 597.569 705.975 610.448 706.481C623.291 706.986 636.109 705.966 648.625 703.832C673.591 699.574 697.831 690.798 719.506 680.254C741.193 669.704 760.479 657.301 775.493 645.661C869.183 591.532 1037.34 519.253 1237.32 478.223C1337.32 457.706 1445.13 445.035 1555.44 446.298C1665.7 447.56 1778.62 462.739 1889.02 498.034C2081.7 559.632 2260.3 576.477 2411.43 570.31C2562.44 564.148 2685.73 535.025 2768.15 504.874C2814.88 487.78 2830.32 464.23 2820.88 441.444C2805.02 403.181 2780.4 365.136 2728.17 336.984C2702 322.876 2668.88 311.244 2626.5 303.326C2584.16 295.414 2532.75 291.246 2470.06 291.946C2275.22 294.125 2086.92 262.383 1955.56 226.948C1882.55 207.254 1792.69 193.035 1698.84 197.424Z" stroke="#E06121" stroke-width="2"/>
</g>
<g filter="url(#filter1_f_0_219)">
<path d="M770.414 644.441L770.386 644.457L770.362 644.475L770.328 644.502C755.399 656.083 736.236 668.405 714.74 678.862C693.205 689.338 669.494 697.859 645.549 701.943C633.609 703.979 621.731 704.891 610.11 704.434C598.526 703.979 587.022 702.158 575.759 698.615C553.086 691.482 531.203 677.304 512.421 653.147C503.958 642.262 507.568 631.183 519.6 620.798C531.625 610.419 552.011 600.778 576.886 592.776C701.759 552.604 866.742 476.93 912.408 372.313C936.708 316.642 1056.8 277.008 1209.59 249.482C1362.33 221.964 1547.31 206.63 1700.45 199.467C1792.38 195.167 1880.66 209.081 1952.8 228.54C2085.01 264.204 2274.67 296.201 2471.16 294.004C2533.11 293.312 2583.49 297.435 2624.71 305.136C2665.89 312.832 2698.11 324.134 2723.68 337.916C2774.94 365.546 2799.42 403.112 2815.28 441.37C2824.5 463.619 2809.42 486.621 2763.79 503.314C2681.83 533.295 2559.46 562.161 2409.91 568.264C2260.47 574.362 2083.59 557.747 1892.25 496.579C1780.66 460.903 1666.32 445.518 1554.68 444.24C1443.12 442.963 1334.41 455.777 1233.93 476.392C1033.01 517.615 864.35 590.156 770.458 644.416L770.414 644.441ZM1698.84 197.424C1545.38 204.602 1359.81 219.974 1206.42 247.608C1053.08 275.234 931.449 315.197 906.809 371.647C861.359 475.769 697.093 551.135 572.725 591.145C547.498 599.261 526.648 609.093 514.306 619.742C501.97 630.385 498.081 641.891 506.987 653.347C525.844 677.601 548.197 692.414 572.577 700.084C584.841 703.942 597.569 705.975 610.448 706.481C623.291 706.986 636.109 705.966 648.625 703.832C673.591 699.574 697.831 690.798 719.506 680.254C741.193 669.704 760.479 657.301 775.493 645.661C869.183 591.532 1037.34 519.253 1237.32 478.223C1337.32 457.706 1445.13 445.035 1555.44 446.298C1665.7 447.56 1778.62 462.739 1889.02 498.034C2081.7 559.632 2260.3 576.477 2411.43 570.31C2562.44 564.148 2685.73 535.025 2768.15 504.874C2814.88 487.78 2830.32 464.23 2820.88 441.444C2805.02 403.181 2780.4 365.136 2728.17 336.984C2702 322.876 2668.88 311.244 2626.5 303.326C2584.16 295.414 2532.75 291.246 2470.06 291.946C2275.22 294.125 2086.92 262.383 1955.56 226.948C1882.55 207.254 1792.69 193.035 1698.84 197.424Z" stroke="#E06121" stroke-width="2"/>
</g>
<g filter="url(#filter2_f_0_219)">
<path d="M770.414 644.441L770.386 644.457L770.362 644.475L770.328 644.502C755.399 656.083 736.236 668.405 714.74 678.862C693.205 689.338 669.494 697.859 645.549 701.943C633.609 703.979 621.731 704.891 610.11 704.434C598.526 703.979 587.022 702.158 575.759 698.615C553.086 691.482 531.203 677.304 512.421 653.147C503.958 642.262 507.568 631.183 519.6 620.798C531.625 610.419 552.011 600.778 576.886 592.776C701.759 552.604 866.742 476.93 912.408 372.313C936.708 316.642 1056.8 277.008 1209.59 249.482C1362.33 221.964 1547.31 206.63 1700.45 199.467C1792.38 195.167 1880.66 209.081 1952.8 228.54C2085.01 264.204 2274.67 296.201 2471.16 294.004C2533.11 293.312 2583.49 297.435 2624.71 305.136C2665.89 312.832 2698.11 324.134 2723.68 337.916C2774.94 365.546 2799.42 403.112 2815.28 441.37C2824.5 463.619 2809.42 486.621 2763.79 503.314C2681.83 533.295 2559.46 562.161 2409.91 568.264C2260.47 574.362 2083.59 557.747 1892.25 496.579C1780.66 460.903 1666.32 445.518 1554.68 444.24C1443.12 442.963 1334.41 455.777 1233.93 476.392C1033.01 517.615 864.35 590.156 770.458 644.416L770.414 644.441ZM1698.84 197.424C1545.38 204.602 1359.81 219.974 1206.42 247.608C1053.08 275.234 931.449 315.197 906.809 371.647C861.359 475.769 697.093 551.135 572.725 591.145C547.498 599.261 526.648 609.093 514.306 619.742C501.97 630.385 498.081 641.891 506.987 653.347C525.844 677.601 548.197 692.414 572.577 700.084C584.841 703.942 597.569 705.975 610.448 706.481C623.291 706.986 636.109 705.966 648.625 703.832C673.591 699.574 697.831 690.798 719.506 680.254C741.193 669.704 760.479 657.301 775.493 645.661C869.183 591.532 1037.34 519.253 1237.32 478.223C1337.32 457.706 1445.13 445.035 1555.44 446.298C1665.7 447.56 1778.62 462.739 1889.02 498.034C2081.7 559.632 2260.3 576.477 2411.43 570.31C2562.44 564.148 2685.73 535.025 2768.15 504.874C2814.88 487.78 2830.32 464.23 2820.88 441.444C2805.02 403.181 2780.4 365.136 2728.17 336.984C2702 322.876 2668.88 311.244 2626.5 303.326C2584.16 295.414 2532.75 291.246 2470.06 291.946C2275.22 294.125 2086.92 262.383 1955.56 226.948C1882.55 207.254 1792.69 193.035 1698.84 197.424Z" stroke="#E06121" stroke-width="2"/>
</g>
<path fill-rule="evenodd" clip-rule="evenodd" d="M1208.74 248.984C1055.88 276.521 935.486 316.21 911.112 372.051C865.496 476.555 700.665 552.17 575.867 592.318C525.988 608.364 493.99 631.018 511.176 653.123C529.978 677.308 552.011 691.687 575.218 698.988C586.788 702.628 598.61 704.496 610.459 704.961C622.318 705.427 634.36 704.495 646.388 702.443C670.501 698.331 694.301 689.768 715.865 679.278C737.402 668.801 756.593 656.46 771.541 644.864L771.576 644.837L771.62 644.812C865.469 590.578 1034.05 518.076 1234.82 476.883C1335.23 456.283 1443.78 443.495 1555.12 444.769C1666.49 446.044 1780.47 461.389 1891.7 496.948C2083.45 558.249 2260.75 574.901 2410.48 568.791C2560.29 562.678 2682.81 533.77 2764.84 503.76C2810.65 486.999 2825.86 463.882 2816.57 441.475C2800.72 403.22 2776.2 365.507 2724.63 337.711C2698.86 323.822 2666.37 312.422 2624.86 304.666C2583.35 296.911 2532.74 292.781 2470.67 293.475C2274.49 295.668 2085.16 263.723 1953.22 228.131C1880.8 208.595 1792.15 194.624 1699.86 198.941C1546.66 206.106 1361.59 221.447 1208.74 248.984ZM1207.28 248.106C1360.56 220.491 1546.03 205.126 1699.43 197.951C1792.93 193.578 1882.42 207.739 1955.14 227.357C2086.77 262.864 2275.4 294.658 2470.56 292.476C2533.12 291.776 2584.3 295.938 2626.35 303.796C2668.41 311.653 2701.25 323.188 2727.22 337.19C2779.14 365.176 2803.72 403.072 2819.58 441.34C2828.96 463.967 2813.64 487.402 2767.1 504.429C2684.76 534.551 2561.62 563.631 2410.86 569.783C2260.02 575.938 2081.84 559.13 1889.58 497.665C1778.81 462.254 1665.53 447.033 1555.01 445.768C1444.46 444.503 1336.5 457.2 1236.43 477.732C1036.28 518.796 868.031 591.125 774.303 645.281C759.305 656.912 740.039 669.303 718.381 679.838C696.734 690.369 672.585 699.102 647.786 703.331C635.358 705.451 622.704 706.45 610.099 705.954C597.484 705.459 585.075 703.472 573.119 699.711C549.271 692.209 527.068 677.598 508.233 653.371C490.68 630.794 523.417 607.793 573.744 591.603C698.186 551.569 862.605 476.145 908.105 371.909C932.671 315.629 1054 275.721 1207.28 248.106Z" fill="white"/>
</g>
<g opacity="0.285714">
<g filter="url(#filter3_f_0_219)">
<path d="M701.852 656.92L701.824 656.933L701.8 656.949L701.758 656.974L702.897 657.446L701.758 656.974C683.817 668.084 661.46 679.812 637.271 689.615C613.041 699.435 587.148 707.25 562.183 710.635C549.731 712.324 537.632 712.893 526.147 712.103C514.692 711.315 503.724 709.166 493.491 705.332C472.915 697.621 454.897 682.928 442.583 658.324C437.048 647.263 443.559 636.332 458.31 626.321C473.045 616.321 495.918 607.297 522.83 600.035C657.846 563.603 842.222 492.958 915.409 390.055C954.366 335.281 1084.53 299.235 1244.05 276.194C1403.52 253.16 1591.87 243.19 1746.32 240.448C1839.11 238.801 1923.38 255.205 1990.05 276.646C2112.35 315.98 2292.81 353.289 2489.09 356.737C2551.01 357.824 2600.12 363.38 2639.14 372.234C2678.11 381.078 2707.16 393.244 2728.93 407.671C2750.74 422.128 2765.28 438.882 2775.08 456.867C2784.87 474.849 2789.89 494.019 2792.72 513.286C2796.01 535.7 2774.9 558.192 2724.99 573.525C2635.39 601.045 2505.82 626.297 2355.18 628.086C2204.63 629.874 2032.82 608.236 1858.47 541.835C1756.69 503.072 1646.85 484.472 1536.03 479.998C1425.25 475.527 1313.6 485.171 1208.06 502.822C997.012 538.119 809.798 605.54 701.903 656.896L701.852 656.92ZM1745 238.258C1590.24 241.005 1401.33 250.995 1241.22 274.121C1081.17 297.238 949.455 333.552 909.971 389.067C837.121 491.496 653.51 561.87 519.004 598.164C491.736 605.522 468.375 614.713 453.267 624.963C438.176 635.201 431.237 646.553 437.089 658.246C449.452 682.95 467.826 698.406 490.205 706.792C501.45 711.005 513.601 713.391 526.262 714.262C538.894 715.132 551.907 714.486 564.923 712.721C590.892 709.199 617.347 701.159 641.728 691.278C666.12 681.393 688.614 669.592 706.651 658.427C814.322 607.189 1000.99 540.002 1211.11 504.861C1316.17 487.289 1426.95 477.755 1536.54 482.18C1646.09 486.602 1754.55 504.971 1855.14 543.278C2030.84 610.192 2204.29 632.085 2356.42 630.278C2508.45 628.472 2638.95 603.003 2729.02 575.336C2780.06 559.66 2801.69 536.653 2798.31 513.669C2795.48 494.365 2790.44 475.067 2780.55 456.906C2770.66 438.749 2755.9 421.685 2733.55 406.873C2711.16 392.031 2681.19 379.475 2641.05 370.368C2600.96 361.271 2550.87 355.646 2488.26 354.546C2293.54 351.126 2114.35 314.095 1992.9 275.038C1925.35 253.311 1839.61 236.579 1745 238.258Z" stroke="#E06121" stroke-width="2"/>
</g>
<g filter="url(#filter4_f_0_219)">
<path d="M701.852 656.92L701.824 656.933L701.8 656.949L701.758 656.974L702.897 657.446L701.758 656.974C683.817 668.084 661.46 679.812 637.271 689.615C613.041 699.435 587.148 707.25 562.183 710.635C549.731 712.324 537.632 712.893 526.147 712.103C514.692 711.315 503.724 709.166 493.491 705.332C472.915 697.621 454.897 682.928 442.583 658.324C437.048 647.263 443.559 636.332 458.31 626.321C473.045 616.321 495.918 607.297 522.83 600.035C657.846 563.603 842.222 492.958 915.409 390.055C954.366 335.281 1084.53 299.235 1244.05 276.194C1403.52 253.16 1591.87 243.19 1746.32 240.448C1839.11 238.801 1923.38 255.205 1990.05 276.646C2112.35 315.98 2292.81 353.289 2489.09 356.737C2551.01 357.824 2600.12 363.38 2639.14 372.234C2678.11 381.078 2707.16 393.244 2728.93 407.671C2750.74 422.128 2765.28 438.882 2775.08 456.867C2784.87 474.849 2789.89 494.019 2792.72 513.286C2796.01 535.7 2774.9 558.192 2724.99 573.525C2635.39 601.045 2505.82 626.297 2355.18 628.086C2204.63 629.874 2032.82 608.236 1858.47 541.835C1756.69 503.072 1646.85 484.472 1536.03 479.998C1425.25 475.527 1313.6 485.171 1208.06 502.822C997.012 538.119 809.798 605.54 701.903 656.896L701.852 656.92ZM1745 238.258C1590.24 241.005 1401.33 250.995 1241.22 274.121C1081.17 297.238 949.455 333.552 909.971 389.067C837.121 491.496 653.51 561.87 519.004 598.164C491.736 605.522 468.375 614.713 453.267 624.963C438.176 635.201 431.237 646.553 437.089 658.246C449.452 682.95 467.826 698.406 490.205 706.792C501.45 711.005 513.601 713.391 526.262 714.262C538.894 715.132 551.907 714.486 564.923 712.721C590.892 709.199 617.347 701.159 641.728 691.278C666.12 681.393 688.614 669.592 706.651 658.427C814.322 607.189 1000.99 540.002 1211.11 504.861C1316.17 487.289 1426.95 477.755 1536.54 482.18C1646.09 486.602 1754.55 504.971 1855.14 543.278C2030.84 610.192 2204.29 632.085 2356.42 630.278C2508.45 628.472 2638.95 603.003 2729.02 575.336C2780.06 559.66 2801.69 536.653 2798.31 513.669C2795.48 494.365 2790.44 475.067 2780.55 456.906C2770.66 438.749 2755.9 421.685 2733.55 406.873C2711.16 392.031 2681.19 379.475 2641.05 370.368C2600.96 361.271 2550.87 355.646 2488.26 354.546C2293.54 351.126 2114.35 314.095 1992.9 275.038C1925.35 253.311 1839.61 236.579 1745 238.258Z" stroke="#E06121" stroke-width="2"/>
</g>
<g filter="url(#filter5_f_0_219)">
<path d="M701.852 656.92L701.824 656.933L701.8 656.949L701.758 656.974L702.897 657.446L701.758 656.974C683.817 668.084 661.46 679.812 637.271 689.615C613.041 699.435 587.148 707.25 562.183 710.635C549.731 712.324 537.632 712.893 526.147 712.103C514.692 711.315 503.724 709.166 493.491 705.332C472.915 697.621 454.897 682.928 442.583 658.324C437.048 647.263 443.559 636.332 458.31 626.321C473.045 616.321 495.918 607.297 522.83 600.035C657.846 563.603 842.222 492.958 915.409 390.055C954.366 335.281 1084.53 299.235 1244.05 276.194C1403.52 253.16 1591.87 243.19 1746.32 240.448C1839.11 238.801 1923.38 255.205 1990.05 276.646C2112.35 315.98 2292.81 353.289 2489.09 356.737C2551.01 357.824 2600.12 363.38 2639.14 372.234C2678.11 381.078 2707.16 393.244 2728.93 407.671C2750.74 422.128 2765.28 438.882 2775.08 456.867C2784.87 474.849 2789.89 494.019 2792.72 513.286C2796.01 535.7 2774.9 558.192 2724.99 573.525C2635.39 601.045 2505.82 626.297 2355.18 628.086C2204.63 629.874 2032.82 608.236 1858.47 541.835C1756.69 503.072 1646.85 484.472 1536.03 479.998C1425.25 475.527 1313.6 485.171 1208.06 502.822C997.012 538.119 809.798 605.54 701.903 656.896L701.852 656.92ZM1745 238.258C1590.24 241.005 1401.33 250.995 1241.22 274.121C1081.17 297.238 949.455 333.552 909.971 389.067C837.121 491.496 653.51 561.87 519.004 598.164C491.736 605.522 468.375 614.713 453.267 624.963C438.176 635.201 431.237 646.553 437.089 658.246C449.452 682.95 467.826 698.406 490.205 706.792C501.45 711.005 513.601 713.391 526.262 714.262C538.894 715.132 551.907 714.486 564.923 712.721C590.892 709.199 617.347 701.159 641.728 691.278C666.12 681.393 688.614 669.592 706.651 658.427C814.322 607.189 1000.99 540.002 1211.11 504.861C1316.17 487.289 1426.95 477.755 1536.54 482.18C1646.09 486.602 1754.55 504.971 1855.14 543.278C2030.84 610.192 2204.29 632.085 2356.42 630.278C2508.45 628.472 2638.95 603.003 2729.02 575.336C2780.06 559.66 2801.69 536.653 2798.31 513.669C2795.48 494.365 2790.44 475.067 2780.55 456.906C2770.66 438.749 2755.9 421.685 2733.55 406.873C2711.16 392.031 2681.19 379.475 2641.05 370.368C2600.96 361.271 2550.87 355.646 2488.26 354.546C2293.54 351.126 2114.35 314.095 1992.9 275.038C1925.35 253.311 1839.61 236.579 1745 238.258Z" stroke="#E06121" stroke-width="2"/>
</g>
<path fill-rule="evenodd" clip-rule="evenodd" d="M1243.25 275.615C1083.68 298.663 953.236 334.746 914.169 389.675C841.057 492.473 656.833 563.071 521.88 599.486C467.942 614.041 430.067 635.69 441.335 658.204C453.663 682.836 471.804 697.793 492.989 705.732C503.552 709.69 514.835 711.89 526.515 712.693C538.206 713.498 550.449 712.914 562.974 711.216C588.084 707.811 614.061 699.963 638.32 690.132C662.549 680.313 684.935 668.569 702.897 657.446L702.938 657.42L702.988 657.396C810.84 606.061 997.974 538.672 1208.89 503.396C1314.37 485.755 1425.89 476.129 1536.47 480.593C1647.08 485.058 1756.56 503.614 1857.95 542.229C2032.75 608.799 2204.96 630.473 2355.74 628.682C2506.6 626.891 2636.3 601.607 2725.97 574.065C2776.05 558.683 2797.32 536.089 2794 513.501C2788.33 474.938 2773.89 436.664 2729.88 407.495C2707.89 392.919 2678.53 380.63 2639.23 371.713C2599.94 362.796 2550.62 357.23 2488.59 356.141C2292.59 352.698 2112.43 315.442 1990.41 276.2C1923.44 254.661 1838.83 238.2 1745.75 239.853C1591.24 242.595 1402.8 252.568 1243.25 275.615ZM1242.02 274.699C1402.04 251.587 1590.87 241.6 1745.58 238.854C1839.88 237.18 1925.28 253.855 1992.54 275.485C2114.27 314.633 2293.76 351.717 2488.75 355.142C2551.26 356.24 2601.14 361.855 2640.96 370.889C2680.77 379.923 2710.43 392.356 2732.6 407.05C2776.91 436.419 2791.36 474.876 2797.03 513.453C2800.38 536.264 2778.92 559.169 2728.04 574.796C2638.04 602.441 2507.67 627.879 2355.85 629.682C2203.96 631.486 2030.91 609.63 1855.65 542.883C1754.68 504.429 1645.86 486.016 1536.1 481.585C1426.31 477.153 1315.4 486.705 1210.27 504.287C1000.01 539.453 813.247 606.68 705.538 657.941C687.517 669.097 665.043 680.888 640.679 690.762C616.326 700.631 589.956 708.639 564.131 712.14C551.19 713.895 538.319 714.527 525.894 713.672C513.458 712.816 501.622 710.482 490.707 706.392C468.937 698.234 450.687 683.041 438.337 658.366C426.829 635.372 465.532 613.398 519.954 598.713C654.523 562.402 838.286 491.981 911.211 389.447C950.585 334.087 1082.02 297.811 1242.02 274.699Z" fill="white"/>
</g>
<g opacity="0.428571">
<g filter="url(#filter6_f_0_219)">
<path d="M628.864 667.79L628.836 667.801L628.811 667.814L628.763 667.839C607.946 678.393 582.565 689.437 555.866 698.511C529.124 707.599 501.246 714.647 475.455 717.305C462.59 718.631 450.364 718.853 439.107 717.733C427.867 716.616 417.516 714.155 408.378 710.06C390.06 701.851 376.018 686.775 370.265 661.909C367.684 650.756 377.05 640.051 394.414 630.491C411.749 620.947 436.936 612.61 465.678 606.146C609.812 573.729 812.175 508.649 912.322 408.244C965.646 354.783 1104.89 322.602 1269.92 304.224C1434.9 285.851 1625.18 281.323 1779.79 283.023C1872.7 284.044 1952.33 302.814 2013.03 326.075C2124.49 368.779 2294.37 411.114 2488.95 420.178C2550.36 423.039 2597.83 429.986 2634.36 439.926C2670.84 449.853 2696.49 462.787 2714.3 477.732C2732.15 492.72 2742.19 509.797 2747.19 527.988C2752.18 546.173 2752.1 565.408 2749.82 584.683C2747.17 607.095 2720.19 628.909 2666.37 642.76C2569.81 667.609 2434.03 689.051 2283.45 686.511C2132.94 683.973 1967.51 657.475 1811.45 586.346C1720.28 544.791 1615.78 523.118 1506.61 515.485C1397.47 507.855 1283.7 514.257 1173.9 528.811C954.336 557.916 749.997 619.705 628.921 667.768C628.921 667.768 628.921 667.768 628.921 667.768L628.864 667.79ZM1778.81 280.661C1623.92 278.958 1433.09 283.49 1267.49 301.932C1101.94 320.369 961.148 352.759 907.129 406.917C807.428 506.874 605.865 571.718 462.247 604.019C433.145 610.564 407.45 619.047 389.696 628.819C371.969 638.575 362.036 649.683 364.775 661.523C370.55 686.486 384.777 702.488 404.99 711.546C415.118 716.085 426.596 718.805 438.942 720.033C451.27 721.258 464.383 720.989 477.802 719.606C504.58 716.846 533.049 709.599 559.949 700.457C586.862 691.311 612.392 680.201 633.314 669.598C754.147 621.641 957.909 560.059 1176.55 531.076C1285.88 516.584 1398.78 510.263 1506.82 517.816C1614.82 525.367 1718.01 546.787 1808.02 587.813C1965.38 659.536 2132.38 686.309 2284.35 688.872C2436.24 691.434 2572.97 669.811 2670.01 644.836C2724.97 630.693 2752.61 608.406 2755.33 585.402C2757.62 566.09 2757.71 546.715 2752.66 528.33C2747.62 509.951 2737.42 492.499 2719.03 477.062C2700.59 461.583 2674 448.196 2636.42 437.971C2598.89 427.758 2550.5 420.721 2488.44 417.83C2295.32 408.834 2126.61 366.795 2016 324.414C1954.42 300.819 1873.45 281.702 1778.81 280.661Z" stroke="#E06121" stroke-width="2"/>
</g>
<g filter="url(#filter7_f_0_219)">
<path d="M628.864 667.79L628.836 667.801L628.811 667.814L628.763 667.839C607.946 678.393 582.565 689.437 555.866 698.511C529.124 707.599 501.246 714.647 475.455 717.305C462.59 718.631 450.364 718.853 439.107 717.733C427.867 716.616 417.516 714.155 408.378 710.06C390.06 701.851 376.018 686.775 370.265 661.909C367.684 650.756 377.05 640.051 394.414 630.491C411.749 620.947 436.936 612.61 465.678 606.146C609.812 573.729 812.175 508.649 912.322 408.244C965.646 354.783 1104.89 322.602 1269.92 304.224C1434.9 285.851 1625.18 281.323 1779.79 283.023C1872.7 284.044 1952.33 302.814 2013.03 326.075C2124.49 368.779 2294.37 411.114 2488.95 420.178C2550.36 423.039 2597.83 429.986 2634.36 439.926C2670.84 449.853 2696.49 462.787 2714.3 477.732C2732.15 492.72 2742.19 509.797 2747.19 527.988C2752.18 546.173 2752.1 565.408 2749.82 584.683C2747.17 607.095 2720.19 628.909 2666.37 642.76C2569.81 667.609 2434.03 689.051 2283.45 686.511C2132.94 683.973 1967.51 657.475 1811.45 586.346C1720.28 544.791 1615.78 523.118 1506.61 515.485C1397.47 507.855 1283.7 514.257 1173.9 528.811C954.336 557.916 749.997 619.705 628.921 667.768C628.921 667.768 628.921 667.768 628.921 667.768L628.864 667.79ZM1778.81 280.661C1623.92 278.958 1433.09 283.49 1267.49 301.932C1101.94 320.369 961.148 352.759 907.129 406.917C807.428 506.874 605.865 571.718 462.247 604.019C433.145 610.564 407.45 619.047 389.696 628.819C371.969 638.575 362.036 649.683 364.775 661.523C370.55 686.486 384.777 702.488 404.99 711.546C415.118 716.085 426.596 718.805 438.942 720.033C451.27 721.258 464.383 720.989 477.802 719.606C504.58 716.846 533.049 709.599 559.949 700.457C586.862 691.311 612.392 680.201 633.314 669.598C754.147 621.641 957.909 560.059 1176.55 531.076C1285.88 516.584 1398.78 510.263 1506.82 517.816C1614.82 525.367 1718.01 546.787 1808.02 587.813C1965.38 659.536 2132.38 686.309 2284.35 688.872C2436.24 691.434 2572.97 669.811 2670.01 644.836C2724.97 630.693 2752.61 608.406 2755.33 585.402C2757.62 566.09 2757.71 546.715 2752.66 528.33C2747.62 509.951 2737.42 492.499 2719.03 477.062C2700.59 461.583 2674 448.196 2636.42 437.971C2598.89 427.758 2550.5 420.721 2488.44 417.83C2295.32 408.834 2126.61 366.795 2016 324.414C1954.42 300.819 1873.45 281.702 1778.81 280.661Z" stroke="#E06121" stroke-width="2"/>
</g>
<g filter="url(#filter8_f_0_219)">
<path d="M628.864 667.79L628.836 667.801L628.811 667.814L628.763 667.839C607.946 678.393 582.565 689.437 555.866 698.511C529.124 707.599 501.246 714.647 475.455 717.305C462.59 718.631 450.364 718.853 439.107 717.733C427.867 716.616 417.516 714.155 408.378 710.06C390.06 701.851 376.018 686.775 370.265 661.909C367.684 650.756 377.05 640.051 394.414 630.491C411.749 620.947 436.936 612.61 465.678 606.146C609.812 573.729 812.175 508.649 912.322 408.244C965.646 354.783 1104.89 322.602 1269.92 304.224C1434.9 285.851 1625.18 281.323 1779.79 283.023C1872.7 284.044 1952.33 302.814 2013.03 326.075C2124.49 368.779 2294.37 411.114 2488.95 420.178C2550.36 423.039 2597.83 429.986 2634.36 439.926C2670.84 449.853 2696.49 462.787 2714.3 477.732C2732.15 492.72 2742.19 509.797 2747.19 527.988C2752.18 546.173 2752.1 565.408 2749.82 584.683C2747.17 607.095 2720.19 628.909 2666.37 642.76C2569.81 667.609 2434.03 689.051 2283.45 686.511C2132.94 683.973 1967.51 657.475 1811.45 586.346C1720.28 544.791 1615.78 523.118 1506.61 515.485C1397.47 507.855 1283.7 514.257 1173.9 528.811C954.336 557.916 749.997 619.705 628.921 667.768C628.921 667.768 628.921 667.768 628.921 667.768L628.864 667.79ZM1778.81 280.661C1623.92 278.958 1433.09 283.49 1267.49 301.932C1101.94 320.369 961.148 352.759 907.129 406.917C807.428 506.874 605.865 571.718 462.247 604.019C433.145 610.564 407.45 619.047 389.696 628.819C371.969 638.575 362.036 649.683 364.775 661.523C370.55 686.486 384.777 702.488 404.99 711.546C415.118 716.085 426.596 718.805 438.942 720.033C451.27 721.258 464.383 720.989 477.802 719.606C504.58 716.846 533.049 709.599 559.949 700.457C586.862 691.311 612.392 680.201 633.314 669.598C754.147 621.641 957.909 560.059 1176.55 531.076C1285.88 516.584 1398.78 510.263 1506.82 517.816C1614.82 525.367 1718.01 546.787 1808.02 587.813C1965.38 659.536 2132.38 686.309 2284.35 688.872C2436.24 691.434 2572.97 669.811 2670.01 644.836C2724.97 630.693 2752.61 608.406 2755.33 585.402C2757.62 566.09 2757.71 546.715 2752.66 528.33C2747.62 509.951 2737.42 492.499 2719.03 477.062C2700.59 461.583 2674 448.196 2636.42 437.971C2598.89 427.758 2550.5 420.721 2488.44 417.83C2295.32 408.834 2126.61 366.795 2016 324.414C1954.42 300.819 1873.45 281.702 1778.81 280.661Z" stroke="#E06121" stroke-width="2"/>
</g>
<path fill-rule="evenodd" clip-rule="evenodd" d="M1269.19 303.552C1104.13 321.934 964.63 354.138 911.168 407.737C811.116 508.046 608.901 573.09 464.82 605.495C407.233 618.447 363.771 638.927 369.034 661.678C374.793 686.571 388.905 701.991 407.908 710.507C417.383 714.753 428.04 717.269 439.463 718.404C450.897 719.541 463.247 719.311 476.175 717.978C502.09 715.307 530.047 708.234 556.817 699.136C583.553 690.05 608.963 678.993 629.802 668.427L629.85 668.403L629.906 668.38C750.939 620.335 955.205 558.571 1174.66 529.48C1284.41 514.932 1398.06 508.543 1507.03 516.162C1616.03 523.783 1720.19 545.41 1810.97 586.787C1967.47 658.118 2133.29 684.651 2283.97 687.192C2434.73 689.735 2570.64 668.269 2667.25 643.404C2721.21 629.517 2748.38 607.62 2751.06 585.023C2755.62 546.443 2751.37 507.901 2715.25 477.58C2697.2 462.429 2671.21 449.345 2634.42 439.334C2597.64 429.324 2549.98 422.364 2488.48 419.499C2294.13 410.446 2124.53 368.164 2013.36 325.57C1952.35 302.192 1872.42 283.366 1779.25 282.342C1624.6 280.641 1434.25 285.17 1269.19 303.552ZM1268.22 302.604C1433.74 284.171 1624.5 279.64 1779.35 281.342C1873.74 282.38 1954.4 301.442 2015.67 324.918C2126.57 367.41 2295.56 409.502 2488.91 418.509C2550.88 421.396 2599.09 428.42 2636.36 438.563C2673.63 448.704 2699.89 461.941 2718.08 477.215C2754.45 507.744 2758.66 546.469 2754.09 585.062C2751.39 607.882 2723.94 630.084 2669.12 644.192C2572.15 669.15 2435.54 690.75 2283.82 688.191C2132.03 685.631 1965.42 658.893 1808.51 587.372C1718.1 546.167 1614.57 524.703 1506.4 517.14C1398.19 509.575 1285.18 515.908 1175.8 530.408C957.024 559.407 753.174 621.02 632.301 668.996C611.396 679.593 585.885 690.694 558.999 699.832C532.126 708.965 503.736 716.185 477.083 718.933C463.726 720.309 450.737 720.57 438.585 719.362C426.423 718.152 415.251 715.487 405.46 711.099C385.932 702.348 371.774 686.69 366.005 661.754C360.629 638.517 405.003 617.737 463.106 604.669C606.777 572.357 808.486 507.477 908.282 407.425C962.164 353.405 1102.7 321.038 1268.22 302.604Z" fill="white"/>
</g>
<g opacity="0.571429">
<g filter="url(#filter9_f_0_219)">
<path d="M551.897 676.932L551.87 676.941L551.845 676.952L551.79 676.974C528.256 686.893 500.043 697.168 471.038 705.443C441.987 713.731 412.336 719.955 385.921 721.865C372.743 722.817 360.486 722.688 349.547 721.247C338.613 719.807 328.952 717.052 320.964 712.727C312.986 708.407 306.517 702.434 302.132 694.402C297.737 686.352 295.46 676.272 295.886 663.837C296.268 652.672 308.423 642.273 328.27 633.239C348.076 624.224 375.385 616.639 405.738 611.022C557.895 582.866 776.702 523.843 903.042 426.702C970.335 374.961 1117.61 346.895 1286.88 333.319C1456.11 319.749 1646.88 320.697 1800.45 326.826C1892.78 330.511 1967.15 351.505 2021.45 376.409C2121.19 422.156 2279.2 469.197 2470.61 483.806C2531.05 488.419 2576.51 496.704 2610.28 507.656C2644 518.596 2666.06 532.196 2679.78 547.528C2693.55 562.918 2699.03 580.182 2699.19 598.441C2699.35 616.691 2694.18 635.845 2686.81 654.981C2678.23 677.227 2645.57 698.194 2588.26 710.455C2485.48 732.441 2344.52 749.91 2195.16 743.058C2045.85 736.209 1888.05 705.054 1751.46 629.739C1671.6 585.707 1573.24 561.127 1466.54 550.395C1359.86 539.665 1244.85 542.777 1131.62 554.126C905.205 576.819 685.295 632.507 551.959 676.911L551.897 676.932ZM1799.9 324.275C1646.06 318.135 1454.76 317.175 1284.92 330.795C1115.13 344.411 966.331 372.636 898.194 425.025C772.397 521.749 554.415 580.568 402.78 608.628C372.063 614.311 344.231 622.022 323.966 631.243C303.742 640.446 290.897 651.222 290.49 663.116C289.634 688.142 299.564 704.591 317.448 714.273C326.366 719.102 337.081 722.135 349.021 723.707C360.956 725.279 374.073 725.388 387.796 724.396C415.184 722.415 445.45 716.017 474.665 707.682C503.893 699.344 532.265 689.01 555.913 679.048C688.989 634.738 908.294 579.233 1133.8 556.631C1246.56 545.329 1360.72 542.27 1466.37 552.896C1572 563.521 1669.13 587.828 1747.9 631.261C1885.71 707.246 2044.97 738.695 2195.63 745.607C2346.24 752.516 2488.16 734.9 2591.43 712.807C2649.89 700.301 2683.33 678.902 2692.13 656.059C2699.52 636.886 2704.75 617.582 2704.59 599.113C2704.43 580.654 2698.89 562.94 2684.61 546.98C2670.28 530.963 2647.26 516.844 2612.55 505.583C2577.88 494.336 2531.54 485.939 2470.5 481.28C2280.46 466.775 2123.51 420.048 2024.56 374.662C1969.44 349.382 1893.86 328.025 1799.9 324.275Z" stroke="#E06121" stroke-width="2"/>
</g>
<g filter="url(#filter10_f_0_219)">
<path d="M551.897 676.932L551.87 676.941L551.845 676.952L551.79 676.974C528.256 686.893 500.043 697.168 471.038 705.443C441.987 713.731 412.336 719.955 385.921 721.865C372.743 722.817 360.486 722.688 349.547 721.247C338.613 719.807 328.952 717.052 320.964 712.727C312.986 708.407 306.517 702.434 302.132 694.402C297.737 686.352 295.46 676.272 295.886 663.837C296.268 652.672 308.423 642.273 328.27 633.239C348.076 624.224 375.385 616.639 405.738 611.022C557.895 582.866 776.702 523.843 903.042 426.702C970.335 374.961 1117.61 346.895 1286.88 333.319C1456.11 319.749 1646.88 320.697 1800.45 326.826C1892.78 330.511 1967.15 351.505 2021.45 376.409C2121.19 422.156 2279.2 469.197 2470.61 483.806C2531.05 488.419 2576.51 496.704 2610.28 507.656C2644 518.596 2666.06 532.196 2679.78 547.528C2693.55 562.918 2699.03 580.182 2699.19 598.441C2699.35 616.691 2694.18 635.845 2686.81 654.981C2678.23 677.227 2645.57 698.194 2588.26 710.455C2485.48 732.441 2344.52 749.91 2195.16 743.058C2045.85 736.209 1888.05 705.054 1751.46 629.739C1671.6 585.707 1573.24 561.127 1466.54 550.395C1359.86 539.665 1244.85 542.777 1131.62 554.126C905.205 576.819 685.295 632.507 551.959 676.911L551.897 676.932ZM1799.9 324.275C1646.06 318.135 1454.76 317.175 1284.92 330.795C1115.13 344.411 966.331 372.636 898.194 425.025C772.397 521.749 554.415 580.568 402.78 608.628C372.063 614.311 344.231 622.022 323.966 631.243C303.742 640.446 290.897 651.222 290.49 663.116C289.634 688.142 299.564 704.591 317.448 714.273C326.366 719.102 337.081 722.135 349.021 723.707C360.956 725.279 374.073 725.388 387.796 724.396C415.184 722.415 445.45 716.017 474.665 707.682C503.893 699.344 532.265 689.01 555.913 679.048C688.989 634.738 908.294 579.233 1133.8 556.631C1246.56 545.329 1360.72 542.27 1466.37 552.896C1572 563.521 1669.13 587.828 1747.9 631.261C1885.71 707.246 2044.97 738.695 2195.63 745.607C2346.24 752.516 2488.16 734.9 2591.43 712.807C2649.89 700.301 2683.33 678.902 2692.13 656.059C2699.52 636.886 2704.75 617.582 2704.59 599.113C2704.43 580.654 2698.89 562.94 2684.61 546.98C2670.28 530.963 2647.26 516.844 2612.55 505.583C2577.88 494.336 2531.54 485.939 2470.5 481.28C2280.46 466.775 2123.51 420.048 2024.56 374.662C1969.44 349.382 1893.86 328.025 1799.9 324.275Z" stroke="#E06121" stroke-width="2"/>
</g>
<g filter="url(#filter11_f_0_219)">
<path d="M551.897 676.932L551.87 676.941L551.845 676.952L551.79 676.974C528.256 686.893 500.043 697.168 471.038 705.443C441.987 713.731 412.336 719.955 385.921 721.865C372.743 722.817 360.486 722.688 349.547 721.247C338.613 719.807 328.952 717.052 320.964 712.727C312.986 708.407 306.517 702.434 302.132 694.402C297.737 686.352 295.46 676.272 295.886 663.837C296.268 652.672 308.423 642.273 328.27 633.239C348.076 624.224 375.385 616.639 405.738 611.022C557.895 582.866 776.702 523.843 903.042 426.702C970.335 374.961 1117.61 346.895 1286.88 333.319C1456.11 319.749 1646.88 320.697 1800.45 326.826C1892.78 330.511 1967.15 351.505 2021.45 376.409C2121.19 422.156 2279.2 469.197 2470.61 483.806C2531.05 488.419 2576.51 496.704 2610.28 507.656C2644 518.596 2666.06 532.196 2679.78 547.528C2693.55 562.918 2699.03 580.182 2699.19 598.441C2699.35 616.691 2694.18 635.845 2686.81 654.981C2678.23 677.227 2645.57 698.194 2588.26 710.455C2485.48 732.441 2344.52 749.91 2195.16 743.058C2045.85 736.209 1888.05 705.054 1751.46 629.739C1671.6 585.707 1573.24 561.127 1466.54 550.395C1359.86 539.665 1244.85 542.777 1131.62 554.126C905.205 576.819 685.295 632.507 551.959 676.911L551.897 676.932ZM1799.9 324.275C1646.06 318.135 1454.76 317.175 1284.92 330.795C1115.13 344.411 966.331 372.636 898.194 425.025C772.397 521.749 554.415 580.568 402.78 608.628C372.063 614.311 344.231 622.022 323.966 631.243C303.742 640.446 290.897 651.222 290.49 663.116C289.634 688.142 299.564 704.591 317.448 714.273C326.366 719.102 337.081 722.135 349.021 723.707C360.956 725.279 374.073 725.388 387.796 724.396C415.184 722.415 445.45 716.017 474.665 707.682C503.893 699.344 532.265 689.01 555.913 679.048C688.989 634.738 908.294 579.233 1133.8 556.631C1246.56 545.329 1360.72 542.27 1466.37 552.896C1572 563.521 1669.13 587.828 1747.9 631.261C1885.71 707.246 2044.97 738.695 2195.63 745.607C2346.24 752.516 2488.16 734.9 2591.43 712.807C2649.89 700.301 2683.33 678.902 2692.13 656.059C2699.52 636.886 2704.75 617.582 2704.59 599.113C2704.43 580.654 2698.89 562.94 2684.61 546.98C2670.28 530.963 2647.26 516.844 2612.55 505.583C2577.88 494.336 2531.54 485.939 2470.5 481.28C2280.46 466.775 2123.51 420.048 2024.56 374.662C1969.44 349.382 1893.86 328.025 1799.9 324.275Z" stroke="#E06121" stroke-width="2"/>
</g>
<path fill-rule="evenodd" clip-rule="evenodd" d="M1286.26 332.543C1116.96 346.12 969.464 374.199 902.014 426.06C775.784 523.117 557.116 582.113 405.003 610.261C344.207 621.511 295.487 640.666 294.707 663.482C293.853 688.445 303.828 704.212 320.504 713.241C328.818 717.742 338.769 720.554 349.848 722.013C360.937 723.473 373.301 723.598 386.533 722.642C413.057 720.724 442.78 714.48 471.857 706.185C500.897 697.9 529.138 687.614 552.694 677.687L552.749 677.664L552.811 677.643C686.105 633.253 905.946 577.584 1132.27 554.9C1245.45 543.556 1360.36 540.451 1466.9 551.167C1573.47 561.887 1671.5 586.42 1750.98 630.244C1888 705.793 2046.17 736.982 2195.6 743.837C2345.11 750.696 2486.19 733.21 2589.02 711.212C2646.45 698.926 2679.32 677.891 2687.96 655.457C2702.73 617.155 2708.69 578.637 2680.74 547.395C2666.77 531.784 2644.35 518.004 2610.35 506.976C2576.35 495.949 2530.72 487.648 2470.21 483.03C2279 468.435 2121.24 421.448 2021.77 375.827C1967.18 350.788 1892.54 329.74 1799.99 326.047C1646.39 319.917 1455.55 318.967 1286.26 332.543ZM1285.54 331.572C1455.32 317.957 1646.55 318.916 1800.36 325.054C1894.11 328.796 1969.42 350.099 2024.24 375.244C2123.47 420.756 2280.67 467.536 2470.9 482.056C2531.87 486.71 2578.03 495.09 2612.48 506.264C2646.92 517.435 2669.57 531.375 2683.65 547.113C2711.8 578.569 2705.74 617.267 2690.98 655.583C2682.24 678.238 2649.02 699.569 2590.67 712.05C2487.46 734.131 2345.65 751.73 2195.19 744.828C2044.65 737.922 1885.76 706.506 1748.37 630.756C1669.22 587.114 1571.77 562.761 1466.01 552.124C1360.22 541.483 1245.96 544.55 1133.16 555.857C907.537 578.47 688.149 634 555.034 678.325C531.402 688.282 503.05 698.609 473.846 706.94C444.657 715.268 414.464 721.646 387.184 723.618C373.514 724.607 360.505 724.494 348.719 722.941C336.924 721.388 326.5 718.412 317.908 713.76C300.772 704.482 290.814 688.477 291.669 663.471C292.466 640.168 342.173 620.74 403.514 609.389C555.194 581.321 773.315 522.475 899.222 425.667C967.202 373.398 1115.77 345.186 1285.54 331.572Z" fill="white"/>
</g>
<g opacity="0.714286">
<g filter="url(#filter12_f_0_219)">
<path d="M471.434 684.245L471.408 684.253L471.383 684.261L471.323 684.282L472.047 685.115L471.323 684.283C445.249 693.489 414.419 702.917 383.329 710.329C352.191 717.752 320.995 723.105 294.16 724.25C280.772 724.821 268.582 724.341 258.05 722.589C247.512 720.836 238.614 717.808 231.821 713.283C225.063 708.782 220.24 702.699 218.012 694.62C215.774 686.507 216.169 676.419 219.884 664.047C221.544 658.518 226.075 653.237 233.002 648.274C239.923 643.315 249.193 638.704 260.256 634.497C282.382 626.081 311.604 619.307 343.335 614.581C502.36 590.899 735.947 538.381 887.516 445.24C968.27 395.616 1122.44 371.88 1294.67 363.213C1466.85 354.548 1656.66 360.967 1808.02 371.478C1899.06 377.801 1967.6 400.856 2015.09 427.219C2102.35 475.658 2247.29 527.046 2434.07 547.087C2493.07 553.418 2536.19 562.978 2566.93 574.862C2597.65 586.735 2615.97 600.898 2625.53 616.488C2635.13 632.151 2636.03 649.467 2631.36 667.659C2626.68 685.836 2616.47 704.766 2604.05 723.617C2589.62 745.532 2551.53 765.491 2491.16 776.065C2382.95 795.021 2237.87 808.38 2090.88 797.268C1943.92 786.159 1794.96 750.585 1678.85 671.651C1610.93 625.482 1519.46 598.182 1416.04 584.434C1312.62 570.686 1197.24 570.486 1081.44 578.543C849.89 594.653 616.081 643.818 471.501 684.226L471.434 684.245ZM1808.01 368.739C1656.38 358.209 1466.08 351.765 1293.28 360.46C1120.54 369.153 964.862 393 883.13 443.225C732.191 535.977 499.449 588.322 340.954 611.926C308.856 616.706 279.097 623.587 256.476 632.189C245.165 636.489 235.621 641.227 228.458 646.359C221.303 651.486 216.483 657.036 214.697 662.982C210.946 675.474 210.469 685.874 212.831 694.435C215.202 703.03 220.45 709.804 228.109 714.905C235.733 719.984 245.601 723.306 257.053 725.211C268.51 727.116 281.534 727.601 295.461 727.006C323.254 725.82 355.089 720.317 386.396 712.853C417.718 705.385 448.715 695.906 474.909 686.66C619.216 646.335 852.394 597.33 1083.04 581.283C1198.37 573.259 1312.92 573.485 1415.37 587.104C1517.81 600.723 1608.14 627.732 1675.09 673.247C1792.28 752.909 1942.59 788.798 2090.82 800.003C2239.01 811.205 2385.04 797.729 2493.76 778.685C2555.29 767.907 2594.25 747.558 2609.07 725.053C2621.5 706.166 2631.82 687.082 2636.56 668.67C2641.29 650.275 2640.47 632.43 2630.44 616.058C2620.35 599.614 2601.1 584.87 2569.52 572.663C2537.96 560.468 2494.04 550.776 2434.48 544.385C2248.98 524.48 2104.99 473.421 2018.44 425.374C1970.21 398.603 1900.59 375.168 1808.01 368.739Z" stroke="#E06121" stroke-width="2"/>
</g>
<g filter="url(#filter13_f_0_219)">
<path d="M471.434 684.245L471.408 684.253L471.383 684.261L471.323 684.282L472.047 685.115L471.323 684.283C445.249 693.489 414.419 702.917 383.329 710.329C352.191 717.752 320.995 723.105 294.16 724.25C280.772 724.821 268.582 724.341 258.05 722.589C247.512 720.836 238.614 717.808 231.821 713.283C225.063 708.782 220.24 702.699 218.012 694.62C215.774 686.507 216.169 676.419 219.884 664.047C221.544 658.518 226.075 653.237 233.002 648.274C239.923 643.315 249.193 638.704 260.256 634.497C282.382 626.081 311.604 619.307 343.335 614.581C502.36 590.899 735.947 538.381 887.516 445.24C968.27 395.616 1122.44 371.88 1294.67 363.213C1466.85 354.548 1656.66 360.967 1808.02 371.478C1899.06 377.801 1967.6 400.856 2015.09 427.219C2102.35 475.658 2247.29 527.046 2434.07 547.087C2493.07 553.418 2536.19 562.978 2566.93 574.862C2597.65 586.735 2615.97 600.898 2625.53 616.488C2635.13 632.151 2636.03 649.467 2631.36 667.659C2626.68 685.836 2616.47 704.766 2604.05 723.617C2589.62 745.532 2551.53 765.491 2491.16 776.065C2382.95 795.021 2237.87 808.38 2090.88 797.268C1943.92 786.159 1794.96 750.585 1678.85 671.651C1610.93 625.482 1519.46 598.182 1416.04 584.434C1312.62 570.686 1197.24 570.486 1081.44 578.543C849.89 594.653 616.081 643.818 471.501 684.226L471.434 684.245ZM1808.01 368.739C1656.38 358.209 1466.08 351.765 1293.28 360.46C1120.54 369.153 964.862 393 883.13 443.225C732.191 535.977 499.449 588.322 340.954 611.926C308.856 616.706 279.097 623.587 256.476 632.189C245.165 636.489 235.621 641.227 228.458 646.359C221.303 651.486 216.483 657.036 214.697 662.982C210.946 675.474 210.469 685.874 212.831 694.435C215.202 703.03 220.45 709.804 228.109 714.905C235.733 719.984 245.601 723.306 257.053 725.211C268.51 727.116 281.534 727.601 295.461 727.006C323.254 725.82 355.089 720.317 386.396 712.853C417.718 705.385 448.715 695.906 474.909 686.66C619.216 646.335 852.394 597.33 1083.04 581.283C1198.37 573.259 1312.92 573.485 1415.37 587.104C1517.81 600.723 1608.14 627.732 1675.09 673.247C1792.28 752.909 1942.59 788.798 2090.82 800.003C2239.01 811.205 2385.04 797.729 2493.76 778.685C2555.29 767.907 2594.25 747.558 2609.07 725.053C2621.5 706.166 2631.82 687.082 2636.56 668.67C2641.29 650.275 2640.47 632.43 2630.44 616.058C2620.35 599.614 2601.1 584.87 2569.52 572.663C2537.96 560.468 2494.04 550.776 2434.48 544.385C2248.98 524.48 2104.99 473.421 2018.44 425.374C1970.21 398.603 1900.59 375.168 1808.01 368.739Z" stroke="#E06121" stroke-width="2"/>
</g>
<g filter="url(#filter14_f_0_219)">
<path d="M471.434 684.245L471.408 684.253L471.383 684.261L471.323 684.282L472.047 685.115L471.323 684.283C445.249 693.489 414.419 702.917 383.329 710.329C352.191 717.752 320.995 723.105 294.16 724.25C280.772 724.821 268.582 724.341 258.05 722.589C247.512 720.836 238.614 717.808 231.821 713.283C225.063 708.782 220.24 702.699 218.012 694.62C215.774 686.507 216.169 676.419 219.884 664.047C221.544 658.518 226.075 653.237 233.002 648.274C239.923 643.315 249.193 638.704 260.256 634.497C282.382 626.081 311.604 619.307 343.335 614.581C502.36 590.899 735.947 538.381 887.516 445.24C968.27 395.616 1122.44 371.88 1294.67 363.213C1466.85 354.548 1656.66 360.967 1808.02 371.478C1899.06 377.801 1967.6 400.856 2015.09 427.219C2102.35 475.658 2247.29 527.046 2434.07 547.087C2493.07 553.418 2536.19 562.978 2566.93 574.862C2597.65 586.735 2615.97 600.898 2625.53 616.488C2635.13 632.151 2636.03 649.467 2631.36 667.659C2626.68 685.836 2616.47 704.766 2604.05 723.617C2589.62 745.532 2551.53 765.491 2491.16 776.065C2382.95 795.021 2237.87 808.38 2090.88 797.268C1943.92 786.159 1794.96 750.585 1678.85 671.651C1610.93 625.482 1519.46 598.182 1416.04 584.434C1312.62 570.686 1197.24 570.486 1081.44 578.543C849.89 594.653 616.081 643.818 471.501 684.226L471.434 684.245ZM1808.01 368.739C1656.38 358.209 1466.08 351.765 1293.28 360.46C1120.54 369.153 964.862 393 883.13 443.225C732.191 535.977 499.449 588.322 340.954 611.926C308.856 616.706 279.097 623.587 256.476 632.189C245.165 636.489 235.621 641.227 228.458 646.359C221.303 651.486 216.483 657.036 214.697 662.982C210.946 675.474 210.469 685.874 212.831 694.435C215.202 703.03 220.45 709.804 228.109 714.905C235.733 719.984 245.601 723.306 257.053 725.211C268.51 727.116 281.534 727.601 295.461 727.006C323.254 725.82 355.089 720.317 386.396 712.853C417.718 705.385 448.715 695.906 474.909 686.66C619.216 646.335 852.394 597.33 1083.04 581.283C1198.37 573.259 1312.92 573.485 1415.37 587.104C1517.81 600.723 1608.14 627.732 1675.09 673.247C1792.28 752.909 1942.59 788.798 2090.82 800.003C2239.01 811.205 2385.04 797.729 2493.76 778.685C2555.29 767.907 2594.25 747.558 2609.07 725.053C2621.5 706.166 2631.82 687.082 2636.56 668.67C2641.29 650.275 2640.47 632.43 2630.44 616.058C2620.35 599.614 2601.1 584.87 2569.52 572.663C2537.96 560.468 2494.04 550.776 2434.48 544.385C2248.98 524.48 2104.99 473.421 2018.44 425.374C1970.21 398.603 1900.59 375.168 1808.01 368.739Z" stroke="#E06121" stroke-width="2"/>
</g>
<path fill-rule="evenodd" clip-rule="evenodd" d="M1294.21 362.331C1121.96 370.999 967.587 394.74 886.662 444.468C735.214 537.534 501.757 590.032 342.771 613.709C279.227 623.172 225.621 640.857 218.802 663.564C211.342 688.407 217.105 704.4 231.327 713.873C238.417 718.596 247.586 721.682 258.236 723.454C268.896 725.227 281.181 725.706 294.615 725.132C321.546 723.983 352.809 718.615 383.972 711.186C415.095 703.766 445.952 694.329 472.047 685.115L472.108 685.094L472.175 685.075C616.715 644.678 850.46 595.528 1081.93 579.424C1197.68 571.37 1312.97 571.573 1416.27 585.306C1519.6 599.042 1610.76 626.294 1678.34 672.231C1794.83 751.424 1944.14 787.032 2091.19 798.148C2238.31 809.27 2383.48 795.898 2491.75 776.934C2552.21 766.342 2590.52 746.33 2605.08 724.229C2629.92 686.497 2646.07 648.297 2626.49 616.372C2616.71 600.419 2598.02 586.049 2567.07 574.087C2536.12 562.126 2492.86 552.548 2433.81 546.211C2247.18 526.187 2102.46 474.852 2015.46 426.552C1967.7 400.041 1898.92 376.932 1807.7 370.598C1656.31 360.084 1466.45 353.663 1294.21 362.331ZM1293.75 361.342C1466.48 352.65 1656.73 359.091 1808.33 369.62C1900.74 376.037 1970.11 399.419 2018.07 426.042C2104.87 474.227 2249.09 525.339 2434.75 545.261C2494.26 551.647 2538.03 561.319 2569.38 573.438C2600.73 585.556 2619.61 600.092 2629.47 616.174C2649.18 648.318 2632.9 686.695 2608.05 724.441C2593.35 746.76 2554.6 767.056 2493.17 777.816C2384.5 796.852 2238.57 810.315 2090.51 799.123C1942.38 787.925 1792.41 752.07 1675.6 672.667C1608.31 626.92 1517.67 599.864 1415.13 586.233C1312.57 572.598 1197.93 572.375 1082.56 580.402C851.81 596.456 618.554 645.481 474.209 685.819C448.031 695.059 417.052 704.534 385.754 711.996C354.471 719.454 322.703 724.942 295.006 726.124C281.126 726.717 268.196 726.231 256.866 724.346C245.527 722.46 235.93 719.196 228.603 714.316C213.989 704.581 208.306 688.352 215.779 663.465C222.743 640.274 277.404 622.346 341.518 612.798C500.052 589.189 732.924 536.824 883.984 443.996C965.545 393.877 1121.02 370.034 1293.75 361.342Z" fill="white"/>
</g>
<g opacity="0.857143">
<g filter="url(#filter15_f_0_219)">
<path d="M387.978 689.657L387.953 689.663L387.928 689.671L387.862 689.69C359.448 698.114 326.237 706.622 293.3 713.115C260.313 719.617 227.812 724.055 200.766 724.427C187.273 724.612 175.248 723.783 165.209 721.734C155.16 719.682 147.093 716.405 141.532 711.709C136.019 707.054 132.849 700.903 132.769 692.835C132.688 684.717 135.743 674.694 142.72 662.476C145.833 657.023 151.743 651.891 159.963 647.143C168.173 642.4 178.633 638.071 190.771 634.196C215.047 626.445 245.958 620.533 278.824 616.736C443.509 597.706 690.101 552.091 865.746 463.658C959.345 416.533 1119.23 397.31 1293.1 393.616C1466.93 389.924 1654.32 401.764 1802.33 416.579C1891.37 425.491 1953.55 450.432 1993.88 478.055C2067.98 528.815 2198.76 584.159 2379.5 609.481C2436.61 617.481 2477.04 628.244 2504.53 640.968C2532 653.686 2546.46 668.307 2551.83 684.045C2557.23 699.867 2553.57 717.11 2544.09 735.1C2534.62 753.068 2519.44 771.631 2502.08 790.055C2481.9 811.474 2438.65 830.269 2375.7 839.074C2262.87 854.853 2114.81 864.001 1971.3 848.713C1827.82 833.428 1688.84 793.708 1594.07 711.75C1538.63 663.801 1454.74 633.987 1355.37 617.327C1256 600.666 1141.12 597.157 1023.64 601.86C788.705 611.266 542.776 653.534 388.05 689.64L387.978 689.657ZM1802.97 413.699C1654.71 398.859 1466.84 386.98 1292.41 390.685C1118.03 394.389 956.643 413.678 861.937 461.36C687.006 549.434 441.28 594.904 277.132 613.872C243.895 617.712 212.433 623.713 187.627 631.63C175.225 635.589 164.466 640.033 155.975 644.938C147.494 649.838 141.221 655.228 137.864 661.107C130.819 673.445 127.58 683.807 127.667 692.43C127.754 701.105 131.213 708.05 137.519 713.375C143.778 718.661 152.724 722.248 163.612 724.471C174.511 726.696 187.349 727.552 201.375 727.359C229.367 726.975 262.531 722.407 295.694 715.87C328.871 709.33 362.258 700.776 390.799 692.318C545.237 656.285 790.511 614.154 1024.54 604.785C1141.56 600.1 1255.62 603.612 1354.08 620.12C1452.55 636.629 1535.39 666.133 1590.03 713.387C1685.68 796.116 1825.91 836.173 1970.59 851.586C2115.24 866.996 2264.27 857.762 2377.61 841.909C2441.74 832.94 2485.93 813.792 2506.65 791.799C2524.04 773.341 2539.38 754.623 2548.97 736.413C2558.55 718.225 2562.49 700.391 2556.81 683.736C2551.09 666.998 2535.77 651.744 2507.56 638.687C2479.36 625.636 2438.19 614.724 2380.55 606.649C2201 581.496 2071.07 526.494 1997.57 476.148C1956.62 448.095 1893.48 422.758 1802.97 413.699Z" stroke="#E06121" stroke-width="2"/>
</g>
<g filter="url(#filter16_f_0_219)">
<path d="M387.978 689.657L387.953 689.663L387.928 689.671L387.862 689.69C359.448 698.114 326.237 706.622 293.3 713.115C260.313 719.617 227.812 724.055 200.766 724.427C187.273 724.612 175.248 723.783 165.209 721.734C155.16 719.682 147.093 716.405 141.532 711.709C136.019 707.054 132.849 700.903 132.769 692.835C132.688 684.717 135.743 674.694 142.72 662.476C145.833 657.023 151.743 651.891 159.963 647.143C168.173 642.4 178.633 638.071 190.771 634.196C215.047 626.445 245.958 620.533 278.824 616.736C443.509 597.706 690.101 552.091 865.746 463.658C959.345 416.533 1119.23 397.31 1293.1 393.616C1466.93 389.924 1654.32 401.764 1802.33 416.579C1891.37 425.491 1953.55 450.432 1993.88 478.055C2067.98 528.815 2198.76 584.159 2379.5 609.481C2436.61 617.481 2477.04 628.244 2504.53 640.968C2532 653.686 2546.46 668.307 2551.83 684.045C2557.23 699.867 2553.57 717.11 2544.09 735.1C2534.62 753.068 2519.44 771.631 2502.08 790.055C2481.9 811.474 2438.65 830.269 2375.7 839.074C2262.87 854.853 2114.81 864.001 1971.3 848.713C1827.82 833.428 1688.84 793.708 1594.07 711.75C1538.63 663.801 1454.74 633.987 1355.37 617.327C1256 600.666 1141.12 597.157 1023.64 601.86C788.705 611.266 542.776 653.534 388.05 689.64L387.978 689.657ZM1802.97 413.699C1654.71 398.859 1466.84 386.98 1292.41 390.685C1118.03 394.389 956.643 413.678 861.937 461.36C687.006 549.434 441.28 594.904 277.132 613.872C243.895 617.712 212.433 623.713 187.627 631.63C175.225 635.589 164.466 640.033 155.975 644.938C147.494 649.838 141.221 655.228 137.864 661.107C130.819 673.445 127.58 683.807 127.667 692.43C127.754 701.105 131.213 708.05 137.519 713.375C143.778 718.661 152.724 722.248 163.612 724.471C174.511 726.696 187.349 727.552 201.375 727.359C229.367 726.975 262.531 722.407 295.694 715.87C328.871 709.33 362.258 700.776 390.799 692.318C545.237 656.285 790.511 614.154 1024.54 604.785C1141.56 600.1 1255.62 603.612 1354.08 620.12C1452.55 636.629 1535.39 666.133 1590.03 713.387C1685.68 796.116 1825.91 836.173 1970.59 851.586C2115.24 866.996 2264.27 857.762 2377.61 841.909C2441.74 832.94 2485.93 813.792 2506.65 791.799C2524.04 773.341 2539.38 754.623 2548.97 736.413C2558.55 718.225 2562.49 700.391 2556.81 683.736C2551.09 666.998 2535.77 651.744 2507.56 638.687C2479.36 625.636 2438.19 614.724 2380.55 606.649C2201 581.496 2071.07 526.494 1997.57 476.148C1956.62 448.095 1893.48 422.758 1802.97 413.699Z" stroke="#E06121" stroke-width="2"/>
</g>
<g filter="url(#filter17_f_0_219)">
<path d="M387.978 689.657L387.953 689.663L387.928 689.671L387.862 689.69C359.448 698.114 326.237 706.622 293.3 713.115C260.313 719.617 227.812 724.055 200.766 724.427C187.273 724.612 175.248 723.783 165.209 721.734C155.16 719.682 147.093 716.405 141.532 711.709C136.019 707.054 132.849 700.903 132.769 692.835C132.688 684.717 135.743 674.694 142.72 662.476C145.833 657.023 151.743 651.891 159.963 647.143C168.173 642.4 178.633 638.071 190.771 634.196C215.047 626.445 245.958 620.533 278.824 616.736C443.509 597.706 690.101 552.091 865.746 463.658C959.345 416.533 1119.23 397.31 1293.1 393.616C1466.93 389.924 1654.32 401.764 1802.33 416.579C1891.37 425.491 1953.55 450.432 1993.88 478.055C2067.98 528.815 2198.76 584.159 2379.5 609.481C2436.61 617.481 2477.04 628.244 2504.53 640.968C2532 653.686 2546.46 668.307 2551.83 684.045C2557.23 699.867 2553.57 717.11 2544.09 735.1C2534.62 753.068 2519.44 771.631 2502.08 790.055C2481.9 811.474 2438.65 830.269 2375.7 839.074C2262.87 854.853 2114.81 864.001 1971.3 848.713C1827.82 833.428 1688.84 793.708 1594.07 711.75C1538.63 663.801 1454.74 633.987 1355.37 617.327C1256 600.666 1141.12 597.157 1023.64 601.86C788.705 611.266 542.776 653.534 388.05 689.64L387.978 689.657ZM1802.97 413.699C1654.71 398.859 1466.84 386.98 1292.41 390.685C1118.03 394.389 956.643 413.678 861.937 461.36C687.006 549.434 441.28 594.904 277.132 613.872C243.895 617.712 212.433 623.713 187.627 631.63C175.225 635.589 164.466 640.033 155.975 644.938C147.494 649.838 141.221 655.228 137.864 661.107C130.819 673.445 127.58 683.807 127.667 692.43C127.754 701.105 131.213 708.05 137.519 713.375C143.778 718.661 152.724 722.248 163.612 724.471C174.511 726.696 187.349 727.552 201.375 727.359C229.367 726.975 262.531 722.407 295.694 715.87C328.871 709.33 362.258 700.776 390.799 692.318C545.237 656.285 790.511 614.154 1024.54 604.785C1141.56 600.1 1255.62 603.612 1354.08 620.12C1452.55 636.629 1535.39 666.133 1590.03 713.387C1685.68 796.116 1825.91 836.173 1970.59 851.586C2115.24 866.996 2264.27 857.762 2377.61 841.909C2441.74 832.94 2485.93 813.792 2506.65 791.799C2524.04 773.341 2539.38 754.623 2548.97 736.413C2558.55 718.225 2562.49 700.391 2556.81 683.736C2551.09 666.998 2535.77 651.744 2507.56 638.687C2479.36 625.636 2438.19 614.724 2380.55 606.649C2201 581.496 2071.07 526.494 1997.57 476.148C1956.62 448.095 1893.48 422.758 1802.97 413.699Z" stroke="#E06121" stroke-width="2"/>
</g>
<path fill-rule="evenodd" clip-rule="evenodd" d="M1292.86 392.65C1118.97 396.343 958.897 415.565 865.113 462.783C689.6 551.15 443.132 596.75 278.481 615.775C212.674 623.38 154.589 639.459 141.784 661.884C127.775 686.418 129.281 702.516 140.941 712.361C146.754 717.269 155.07 720.607 165.211 722.677C175.361 724.749 187.472 725.579 201.007 725.393C228.14 725.021 260.705 720.571 293.716 714.063C326.686 707.564 359.924 699.049 388.36 690.619L388.425 690.6L388.498 690.583C543.184 654.486 789.052 612.229 1023.9 602.826C1141.35 598.124 1256.15 601.635 1355.42 618.278C1454.72 634.927 1538.32 664.69 1593.47 712.391C1688.55 794.625 1827.87 834.381 1971.41 849.674C2115.03 864.974 2263.19 855.818 2376.06 840.031C2439.1 831.215 2482.57 812.378 2502.92 790.779C2537.66 753.903 2563.86 716.311 2552.81 683.947C2547.29 667.774 2532.47 652.922 2504.81 640.117C2477.15 627.315 2436.58 616.531 2379.43 608.525C2198.82 583.222 2068.24 527.932 1994.36 477.318C1953.8 449.538 1891.4 424.544 1802.21 415.617C1654.17 400.8 1466.74 388.957 1292.86 392.65ZM1292.66 391.652C1467.04 387.948 1654.86 399.823 1803.09 414.661C1893.45 423.704 1956.37 448.988 1997.1 476.885C2070.81 527.377 2200.94 582.433 2380.62 607.605C2438.22 615.674 2479.25 626.565 2507.28 639.538C2535.31 652.508 2550.26 667.531 2555.83 683.835C2566.95 716.422 2540.57 754.186 2505.82 791.075C2485.27 812.888 2441.29 831.995 2377.25 840.952C2263.95 856.797 2115.01 866.023 1970.48 850.625C1825.87 835.22 1685.97 795.199 1590.63 712.747C1535.71 665.244 1452.57 635.69 1354.04 619.169C1255.47 602.643 1141.33 599.133 1024.27 603.819C790.151 613.192 544.803 655.338 390.327 691.382C361.802 699.836 328.432 708.386 295.277 714.921C262.139 721.454 229.039 726.009 201.133 726.392C187.149 726.584 174.398 725.729 163.61 723.527C152.814 721.323 144.117 717.796 138.11 712.724C126.129 702.607 124.765 686.276 138.799 661.699C151.876 638.796 211.077 622.504 277.475 614.832C441.657 595.861 687.507 550.376 862.57 462.236C957.091 414.646 1118.29 395.356 1292.66 391.652Z" fill="white"/>
</g>
<g filter="url(#filter18_f_0_219)">
<path d="M302.033 693.118L302.006 693.123L301.981 693.129L301.91 693.147C271.373 700.723 236.035 708.247 201.502 713.77C166.918 719.301 133.363 722.791 106.319 722.385C92.8266 722.182 81.0643 721.011 71.6029 718.681C62.1295 716.347 54.9595 712.85 50.6646 708.014C46.413 703.228 44.8896 697.027 46.9408 689.007C49.0068 680.929 54.6989 671.037 64.884 659.066C69.4274 653.725 76.6726 648.782 86.1213 644.287C95.5576 639.797 107.125 635.784 120.244 632.271C146.483 625.246 178.843 620.243 212.591 617.403C381.686 603.171 639.414 564.804 837.801 481.748C943.527 437.485 1107.9 422.922 1282.09 424.231C1456.24 425.54 1639.78 442.711 1783.3 461.716C1869.65 473.149 1925 499.781 1957.86 528.457C2018.23 581.149 2133.86 640.033 2307.21 670.443C2361.98 680.052 2399.41 691.934 2423.43 705.4C2447.44 718.862 2457.95 733.837 2459.13 749.641C2460.32 765.534 2452.12 782.593 2437.91 800.244C2423.72 817.871 2403.68 835.926 2381.51 853.783C2355.74 874.543 2307.67 892.027 2242.62 898.993C2126.05 911.475 1976.12 916.34 1837.21 896.993C1698.31 877.649 1570.37 834.09 1497.67 749.728C1455.13 700.368 1379.46 668.263 1284.88 648.816C1190.3 629.368 1076.79 622.577 958.511 623.892C721.987 626.522 465.804 661.574 302.109 693.103L302.033 693.118ZM1784.7 458.806C1640.93 439.768 1456.92 422.545 1282.18 421.232C1107.48 419.919 941.605 434.504 834.641 479.285C637.051 562.007 380.217 600.255 211.671 614.441C177.545 617.313 144.616 622.388 117.81 629.563C104.408 633.151 92.5146 637.269 82.759 641.911C73.0158 646.547 65.3383 651.737 60.4353 657.5C50.1508 669.588 44.176 679.823 41.9759 688.428C39.7609 697.091 41.3731 704.128 46.2534 709.623C51.0911 715.07 59.0518 718.898 69.3045 721.423C79.5693 723.952 92.1285 725.173 106.15 725.383C134.135 725.803 168.38 722.205 203.146 716.644C237.927 711.081 273.452 703.518 304.123 695.911C467.516 664.445 723.014 629.511 958.636 626.891C1076.45 625.582 1189.15 632.353 1282.87 651.624C1376.6 670.896 1451.31 702.666 1493.23 751.306C1566.62 836.466 1695.71 880.391 1835.75 899.895C1975.76 919.396 2126.66 914.472 2243.77 901.932C2310.03 894.838 2359.12 877.031 2385.58 855.719C2407.79 837.83 2428.03 819.622 2442.41 801.754C2456.76 783.912 2465.42 766.245 2464.16 749.468C2462.9 732.601 2451.66 716.961 2427.02 703.149C2402.39 689.34 2364.26 677.288 2308.98 667.591C2136.78 637.381 2021.9 578.86 1962.01 526.597C1928.64 497.475 1872.45 470.425 1784.7 458.806Z" stroke="#E06121" stroke-width="2"/>
</g>
<g filter="url(#filter19_f_0_219)">
<path d="M302.033 693.118L302.006 693.123L301.981 693.129L301.91 693.147C271.373 700.723 236.035 708.247 201.502 713.77C166.918 719.301 133.363 722.791 106.319 722.385C92.8266 722.182 81.0643 721.011 71.6029 718.681C62.1295 716.347 54.9595 712.85 50.6646 708.014C46.413 703.228 44.8896 697.027 46.9408 689.007C49.0068 680.929 54.6989 671.037 64.884 659.066C69.4274 653.725 76.6726 648.782 86.1213 644.287C95.5576 639.797 107.125 635.784 120.244 632.271C146.483 625.246 178.843 620.243 212.591 617.403C381.686 603.171 639.414 564.804 837.801 481.748C943.527 437.485 1107.9 422.922 1282.09 424.231C1456.24 425.54 1639.78 442.711 1783.3 461.716C1869.65 473.149 1925 499.781 1957.86 528.457C2018.23 581.149 2133.86 640.033 2307.21 670.443C2361.98 680.052 2399.41 691.934 2423.43 705.4C2447.44 718.862 2457.95 733.837 2459.13 749.641C2460.32 765.534 2452.12 782.593 2437.91 800.244C2423.72 817.871 2403.68 835.926 2381.51 853.783C2355.74 874.543 2307.67 892.027 2242.62 898.993C2126.05 911.475 1976.12 916.34 1837.21 896.993C1698.31 877.649 1570.37 834.09 1497.67 749.728C1455.13 700.368 1379.46 668.263 1284.88 648.816C1190.3 629.368 1076.79 622.577 958.511 623.892C721.987 626.522 465.804 661.574 302.109 693.103L302.033 693.118ZM1784.7 458.806C1640.93 439.768 1456.92 422.545 1282.18 421.232C1107.48 419.919 941.605 434.504 834.641 479.285C637.051 562.007 380.217 600.255 211.671 614.441C177.545 617.313 144.616 622.388 117.81 629.563C104.408 633.151 92.5146 637.269 82.759 641.911C73.0158 646.547 65.3383 651.737 60.4353 657.5C50.1508 669.588 44.176 679.823 41.9759 688.428C39.7609 697.091 41.3731 704.128 46.2534 709.623C51.0911 715.07 59.0518 718.898 69.3045 721.423C79.5693 723.952 92.1285 725.173 106.15 725.383C134.135 725.803 168.38 722.205 203.146 716.644C237.927 711.081 273.452 703.518 304.123 695.911C467.516 664.445 723.014 629.511 958.636 626.891C1076.45 625.582 1189.15 632.353 1282.87 651.624C1376.6 670.896 1451.31 702.666 1493.23 751.306C1566.62 836.466 1695.71 880.391 1835.75 899.895C1975.76 919.396 2126.66 914.472 2243.77 901.932C2310.03 894.838 2359.12 877.031 2385.58 855.719C2407.79 837.83 2428.03 819.622 2442.41 801.754C2456.76 783.912 2465.42 766.245 2464.16 749.468C2462.9 732.601 2451.66 716.961 2427.02 703.149C2402.39 689.34 2364.26 677.288 2308.98 667.591C2136.78 637.381 2021.9 578.86 1962.01 526.597C1928.64 497.475 1872.45 470.425 1784.7 458.806Z" stroke="#E06121" stroke-width="2"/>
</g>
<g filter="url(#filter20_f_0_219)">
<path d="M302.033 693.118L302.006 693.123L301.981 693.129L301.91 693.147C271.373 700.723 236.035 708.247 201.502 713.77C166.918 719.301 133.363 722.791 106.319 722.385C92.8266 722.182 81.0643 721.011 71.6029 718.681C62.1295 716.347 54.9595 712.85 50.6646 708.014C46.413 703.228 44.8896 697.027 46.9408 689.007C49.0068 680.929 54.6989 671.037 64.884 659.066C69.4274 653.725 76.6726 648.782 86.1213 644.287C95.5576 639.797 107.125 635.784 120.244 632.271C146.483 625.246 178.843 620.243 212.591 617.403C381.686 603.171 639.414 564.804 837.801 481.748C943.527 437.485 1107.9 422.922 1282.09 424.231C1456.24 425.54 1639.78 442.711 1783.3 461.716C1869.65 473.149 1925 499.781 1957.86 528.457C2018.23 581.149 2133.86 640.033 2307.21 670.443C2361.98 680.052 2399.41 691.934 2423.43 705.4C2447.44 718.862 2457.95 733.837 2459.13 749.641C2460.32 765.534 2452.12 782.593 2437.91 800.244C2423.72 817.871 2403.68 835.926 2381.51 853.783C2355.74 874.543 2307.67 892.027 2242.62 898.993C2126.05 911.475 1976.12 916.34 1837.21 896.993C1698.31 877.649 1570.37 834.09 1497.67 749.728C1455.13 700.368 1379.46 668.263 1284.88 648.816C1190.3 629.368 1076.79 622.577 958.511 623.892C721.987 626.522 465.804 661.574 302.109 693.103L302.033 693.118ZM1784.7 458.806C1640.93 439.768 1456.92 422.545 1282.18 421.232C1107.48 419.919 941.605 434.504 834.641 479.285C637.051 562.007 380.217 600.255 211.671 614.441C177.545 617.313 144.616 622.388 117.81 629.563C104.408 633.151 92.5146 637.269 82.759 641.911C73.0158 646.547 65.3383 651.737 60.4353 657.5C50.1508 669.588 44.176 679.823 41.9759 688.428C39.7609 697.091 41.3731 704.128 46.2534 709.623C51.0911 715.07 59.0518 718.898 69.3045 721.423C79.5693 723.952 92.1285 725.173 106.15 725.383C134.135 725.803 168.38 722.205 203.146 716.644C237.927 711.081 273.452 703.518 304.123 695.911C467.516 664.445 723.014 629.511 958.636 626.891C1076.45 625.582 1189.15 632.353 1282.87 651.624C1376.6 670.896 1451.31 702.666 1493.23 751.306C1566.62 836.466 1695.71 880.391 1835.75 899.895C1975.76 919.396 2126.66 914.472 2243.77 901.932C2310.03 894.838 2359.12 877.031 2385.58 855.719C2407.79 837.83 2428.03 819.622 2442.41 801.754C2456.76 783.912 2465.42 766.245 2464.16 749.468C2462.9 732.601 2451.66 716.961 2427.02 703.149C2402.39 689.34 2364.26 677.288 2308.98 667.591C2136.78 637.381 2021.9 578.86 1962.01 526.597C1928.64 497.475 1872.45 470.425 1784.7 458.806Z" stroke="#E06121" stroke-width="2"/>
</g>
<path fill-rule="evenodd" clip-rule="evenodd" d="M1282.1 423.231C1107.89 421.922 943.344 436.478 837.415 480.826C639.173 563.821 381.569 602.177 212.507 616.406C144.937 622.094 82.8158 636.445 64.1223 658.418C43.6702 682.457 40.9087 698.536 49.9169 708.678C54.4083 713.735 61.8096 717.298 71.3638 719.652C80.9262 722.007 92.7712 723.181 106.304 723.384C133.432 723.792 167.052 720.293 201.66 714.757C236.225 709.229 271.591 701.7 302.151 694.118L302.222 694.1L302.298 694.085C465.953 662.563 722.074 627.521 958.522 624.892C1076.77 623.577 1190.2 630.368 1284.68 649.796C1379.2 669.23 1454.6 701.278 1496.91 750.38C1569.86 835.029 1698.12 878.631 1837.07 897.983C1976.09 917.346 2126.1 912.475 2242.73 899.987C2307.86 893.012 2356.15 875.495 2382.14 854.561C2426.52 818.822 2462.57 782.125 2460.13 749.567C2458.91 733.297 2448.08 718.077 2423.92 704.527C2399.75 690.98 2362.19 679.074 2307.38 669.458C2134.16 639.07 2018.72 580.244 1958.51 527.703C1925.47 498.865 1869.92 472.176 1783.43 460.725C1639.88 441.716 1456.3 424.541 1282.1 423.231ZM1282.17 422.232C1456.86 423.545 1640.82 440.763 1784.57 459.797C1872.18 471.398 1928.17 498.391 1961.36 527.35C2021.42 579.765 2136.48 638.344 2308.81 668.576C2364.05 678.266 2402.05 690.294 2426.53 704.021C2451.02 717.746 2461.94 733.141 2463.17 749.542C2465.62 782.325 2429.34 819.188 2384.95 854.94C2358.7 876.079 2309.84 893.853 2243.67 900.938C2126.61 913.473 1975.79 918.39 1835.88 898.904C1695.91 879.409 1567.13 835.527 1493.99 750.653C1451.85 701.755 1376.86 669.929 1283.07 650.644C1189.26 631.353 1076.48 624.581 958.624 625.892C722.914 628.512 467.34 663.459 303.909 694.934C273.254 702.537 237.747 710.097 202.988 715.657C168.246 721.214 134.066 724.802 106.165 724.383C92.1838 724.173 79.7073 722.956 69.5437 720.452C59.3718 717.947 51.6424 714.184 47.0011 708.959C37.7441 698.537 40.7093 682.229 61.197 658.148C80.289 635.707 143.578 621.176 211.755 615.438C380.335 601.249 637.292 562.99 835.027 480.208C941.788 435.512 1107.48 420.919 1282.17 422.232Z" fill="white"/>
<defs>
<filter id="filter0_f_0_219" x="460.824" y="156.096" width="2404.01" height="591.042" filterUnits="userSpaceOnUse" color-interpolation-filters="sRGB">
<feFlood flood-opacity="0" result="BackgroundImageFix"/>
<feBlend mode="normal" in="SourceGraphic" in2="BackgroundImageFix" result="shape"/>
<feGaussianBlur stdDeviation="20" result="effect1_foregroundBlur_0_219"/>
</filter>
<filter id="filter1_f_0_219" x="485.824" y="181.096" width="2354.01" height="541.042" filterUnits="userSpaceOnUse" color-interpolation-filters="sRGB">
<feFlood flood-opacity="0" result="BackgroundImageFix"/>
<feBlend mode="normal" in="SourceGraphic" in2="BackgroundImageFix" result="shape"/>
<feGaussianBlur stdDeviation="7.5" result="effect1_foregroundBlur_0_219"/>
</filter>
<filter id="filter2_f_0_219" x="496.824" y="192.096" width="2332.01" height="519.042" filterUnits="userSpaceOnUse" color-interpolation-filters="sRGB">
<feFlood flood-opacity="0" result="BackgroundImageFix"/>
<feBlend mode="normal" in="SourceGraphic" in2="BackgroundImageFix" result="shape"/>
<feGaussianBlur stdDeviation="2" result="effect1_foregroundBlur_0_219"/>
</filter>
<filter id="filter3_f_0_219" x="393.739" y="197.546" width="2446.2" height="557.696" filterUnits="userSpaceOnUse" color-interpolation-filters="sRGB">
<feFlood flood-opacity="0" result="BackgroundImageFix"/>
<feBlend mode="normal" in="SourceGraphic" in2="BackgroundImageFix" result="shape"/>
<feGaussianBlur stdDeviation="20" result="effect1_foregroundBlur_0_219"/>
</filter>
<filter id="filter4_f_0_219" x="418.739" y="222.546" width="2396.2" height="507.696" filterUnits="userSpaceOnUse" color-interpolation-filters="sRGB">
<feFlood flood-opacity="0" result="BackgroundImageFix"/>
<feBlend mode="normal" in="SourceGraphic" in2="BackgroundImageFix" result="shape"/>
<feGaussianBlur stdDeviation="7.5" result="effect1_foregroundBlur_0_219"/>
</filter>
<filter id="filter5_f_0_219" x="429.739" y="233.546" width="2374.2" height="485.696" filterUnits="userSpaceOnUse" color-interpolation-filters="sRGB">
<feFlood flood-opacity="0" result="BackgroundImageFix"/>
<feBlend mode="normal" in="SourceGraphic" in2="BackgroundImageFix" result="shape"/>
<feGaussianBlur stdDeviation="2" result="effect1_foregroundBlur_0_219"/>
</filter>
<filter id="filter6_f_0_219" x="323.085" y="239.648" width="2474.99" height="521.848" filterUnits="userSpaceOnUse" color-interpolation-filters="sRGB">
<feFlood flood-opacity="0" result="BackgroundImageFix"/>
<feBlend mode="normal" in="SourceGraphic" in2="BackgroundImageFix" result="shape"/>
<feGaussianBlur stdDeviation="20" result="effect1_foregroundBlur_0_219"/>
</filter>
<filter id="filter7_f_0_219" x="348.085" y="264.648" width="2424.99" height="471.848" filterUnits="userSpaceOnUse" color-interpolation-filters="sRGB">
<feFlood flood-opacity="0" result="BackgroundImageFix"/>
<feBlend mode="normal" in="SourceGraphic" in2="BackgroundImageFix" result="shape"/>
<feGaussianBlur stdDeviation="7.5" result="effect1_foregroundBlur_0_219"/>
</filter>
<filter id="filter8_f_0_219" x="359.085" y="275.648" width="2402.99" height="449.848" filterUnits="userSpaceOnUse" color-interpolation-filters="sRGB">
<feFlood flood-opacity="0" result="BackgroundImageFix"/>
<feBlend mode="normal" in="SourceGraphic" in2="BackgroundImageFix" result="shape"/>
<feGaussianBlur stdDeviation="2" result="effect1_foregroundBlur_0_219"/>
</filter>
<filter id="filter9_f_0_219" x="249.259" y="279.194" width="2496.51" height="508.714" filterUnits="userSpaceOnUse" color-interpolation-filters="sRGB">
<feFlood flood-opacity="0" result="BackgroundImageFix"/>
<feBlend mode="normal" in="SourceGraphic" in2="BackgroundImageFix" result="shape"/>
<feGaussianBlur stdDeviation="20" result="effect1_foregroundBlur_0_219"/>
</filter>
<filter id="filter10_f_0_219" x="274.259" y="304.194" width="2446.51" height="458.714" filterUnits="userSpaceOnUse" color-interpolation-filters="sRGB">
<feFlood flood-opacity="0" result="BackgroundImageFix"/>
<feBlend mode="normal" in="SourceGraphic" in2="BackgroundImageFix" result="shape"/>
<feGaussianBlur stdDeviation="7.5" result="effect1_foregroundBlur_0_219"/>
</filter>
<filter id="filter11_f_0_219" x="285.259" y="315.194" width="2424.51" height="436.714" filterUnits="userSpaceOnUse" color-interpolation-filters="sRGB">
<feFlood flood-opacity="0" result="BackgroundImageFix"/>
<feBlend mode="normal" in="SourceGraphic" in2="BackgroundImageFix" result="shape"/>
<feGaussianBlur stdDeviation="2" result="effect1_foregroundBlur_0_219"/>
</filter>
<filter id="filter12_f_0_219" x="170.283" y="315.517" width="2510.17" height="529.442" filterUnits="userSpaceOnUse" color-interpolation-filters="sRGB">
<feFlood flood-opacity="0" result="BackgroundImageFix"/>
<feBlend mode="normal" in="SourceGraphic" in2="BackgroundImageFix" result="shape"/>
<feGaussianBlur stdDeviation="20" result="effect1_foregroundBlur_0_219"/>
</filter>
<filter id="filter13_f_0_219" x="195.283" y="340.517" width="2460.17" height="479.442" filterUnits="userSpaceOnUse" color-interpolation-filters="sRGB">
<feFlood flood-opacity="0" result="BackgroundImageFix"/>
<feBlend mode="normal" in="SourceGraphic" in2="BackgroundImageFix" result="shape"/>
<feGaussianBlur stdDeviation="7.5" result="effect1_foregroundBlur_0_219"/>
</filter>
<filter id="filter14_f_0_219" x="206.283" y="351.517" width="2438.17" height="457.442" filterUnits="userSpaceOnUse" color-interpolation-filters="sRGB">
<feFlood flood-opacity="0" result="BackgroundImageFix"/>
<feBlend mode="normal" in="SourceGraphic" in2="BackgroundImageFix" result="shape"/>
<feGaussianBlur stdDeviation="2" result="effect1_foregroundBlur_0_219"/>
</filter>
<filter id="filter15_f_0_219" x="86.6333" y="349.035" width="2513.84" height="551.42" filterUnits="userSpaceOnUse" color-interpolation-filters="sRGB">
<feFlood flood-opacity="0" result="BackgroundImageFix"/>
<feBlend mode="normal" in="SourceGraphic" in2="BackgroundImageFix" result="shape"/>
<feGaussianBlur stdDeviation="20" result="effect1_foregroundBlur_0_219"/>
</filter>
<filter id="filter16_f_0_219" x="111.633" y="374.035" width="2463.84" height="501.42" filterUnits="userSpaceOnUse" color-interpolation-filters="sRGB">
<feFlood flood-opacity="0" result="BackgroundImageFix"/>
<feBlend mode="normal" in="SourceGraphic" in2="BackgroundImageFix" result="shape"/>
<feGaussianBlur stdDeviation="7.5" result="effect1_foregroundBlur_0_219"/>
</filter>
<filter id="filter17_f_0_219" x="122.633" y="385.035" width="2441.84" height="479.42" filterUnits="userSpaceOnUse" color-interpolation-filters="sRGB">
<feFlood flood-opacity="0" result="BackgroundImageFix"/>
<feBlend mode="normal" in="SourceGraphic" in2="BackgroundImageFix" result="shape"/>
<feGaussianBlur stdDeviation="2" result="effect1_foregroundBlur_0_219"/>
</filter>
<filter id="filter18_f_0_219" x="0.000976562" y="380.151" width="2505.28" height="573.802" filterUnits="userSpaceOnUse" color-interpolation-filters="sRGB">
<feFlood flood-opacity="0" result="BackgroundImageFix"/>
<feBlend mode="normal" in="SourceGraphic" in2="BackgroundImageFix" result="shape"/>
<feGaussianBlur stdDeviation="20" result="effect1_foregroundBlur_0_219"/>
</filter>
<filter id="filter19_f_0_219" x="25.001" y="405.151" width="2455.28" height="523.802" filterUnits="userSpaceOnUse" color-interpolation-filters="sRGB">
<feFlood flood-opacity="0" result="BackgroundImageFix"/>
<feBlend mode="normal" in="SourceGraphic" in2="BackgroundImageFix" result="shape"/>
<feGaussianBlur stdDeviation="7.5" result="effect1_foregroundBlur_0_219"/>
</filter>
<filter id="filter20_f_0_219" x="36.001" y="416.151" width="2433.28" height="501.802" filterUnits="userSpaceOnUse" color-interpolation-filters="sRGB">
<feFlood flood-opacity="0" result="BackgroundImageFix"/>
<feBlend mode="normal" in="SourceGraphic" in2="BackgroundImageFix" result="shape"/>
<feGaussianBlur stdDeviation="2" result="effect1_foregroundBlur_0_219"/>
</filter>
</defs>
</svg>
