<svg width="115" height="87" viewBox="0 0 115 87" fill="none" xmlns="http://www.w3.org/2000/svg">
<g filter="url(#filter0_f_274_1909)">
<path fill-rule="evenodd" clip-rule="evenodd" d="M31 53.8907C31 53.2335 31.5486 52.7007 32.2254 52.7007H82.7746C83.4514 52.7007 84 53.2335 84 53.8907C84 54.5479 83.4514 55.0807 82.7746 55.0807H32.2254C31.5486 55.0807 31 54.5479 31 53.8907Z" fill="white" stroke="#E06121" stroke-width="2" stroke-linecap="round"/>
<path fill-rule="evenodd" clip-rule="evenodd" d="M31 36.0426C31 35.3853 31.5486 34.8525 32.2254 34.8525H82.7746C83.4514 34.8525 84 35.3853 84 36.0426C84 36.6998 83.4514 37.2326 82.7746 37.2326H32.2254C31.5486 37.2326 31 36.6998 31 36.0426Z" fill="white" stroke="#E06121" stroke-width="2" stroke-linecap="round"/>
<path fill-rule="evenodd" clip-rule="evenodd" d="M31 18.19C31 17.5328 31.5486 17 32.2254 17H82.7746C83.4514 17 84 17.5328 84 18.19C84 18.8472 83.4514 19.38 82.7746 19.38H32.2254C31.5486 19.38 31 18.8472 31 18.19Z" fill="white" stroke="#E06121" stroke-width="2" stroke-linecap="round"/>
</g>
<g filter="url(#filter1_f_274_1909)">
<path fill-rule="evenodd" clip-rule="evenodd" d="M31 53.8907C31 53.2335 31.5486 52.7007 32.2254 52.7007H82.7746C83.4514 52.7007 84 53.2335 84 53.8907C84 54.5479 83.4514 55.0807 82.7746 55.0807H32.2254C31.5486 55.0807 31 54.5479 31 53.8907Z" fill="white" stroke="#E06121" stroke-width="2" stroke-linecap="round"/>
<path fill-rule="evenodd" clip-rule="evenodd" d="M31 36.0426C31 35.3853 31.5486 34.8525 32.2254 34.8525H82.7746C83.4514 34.8525 84 35.3853 84 36.0426C84 36.6998 83.4514 37.2326 82.7746 37.2326H32.2254C31.5486 37.2326 31 36.6998 31 36.0426Z" fill="white" stroke="#E06121" stroke-width="2" stroke-linecap="round"/>
<path fill-rule="evenodd" clip-rule="evenodd" d="M31 18.19C31 17.5328 31.5486 17 32.2254 17H82.7746C83.4514 17 84 17.5328 84 18.19C84 18.8472 83.4514 19.38 82.7746 19.38H32.2254C31.5486 19.38 31 18.8472 31 18.19Z" fill="white" stroke="#E06121" stroke-width="2" stroke-linecap="round"/>
</g>
<g filter="url(#filter2_f_274_1909)">
<path fill-rule="evenodd" clip-rule="evenodd" d="M31 53.8907C31 53.2335 31.5486 52.7007 32.2254 52.7007H82.7746C83.4514 52.7007 84 53.2335 84 53.8907C84 54.5479 83.4514 55.0807 82.7746 55.0807H32.2254C31.5486 55.0807 31 54.5479 31 53.8907Z" fill="white" stroke="#E06121" stroke-width="2" stroke-linecap="round"/>
<path fill-rule="evenodd" clip-rule="evenodd" d="M31 36.0426C31 35.3853 31.5486 34.8525 32.2254 34.8525H82.7746C83.4514 34.8525 84 35.3853 84 36.0426C84 36.6998 83.4514 37.2326 82.7746 37.2326H32.2254C31.5486 37.2326 31 36.6998 31 36.0426Z" fill="white" stroke="#E06121" stroke-width="2" stroke-linecap="round"/>
<path fill-rule="evenodd" clip-rule="evenodd" d="M31 18.19C31 17.5328 31.5486 17 32.2254 17H82.7746C83.4514 17 84 17.5328 84 18.19C84 18.8472 83.4514 19.38 82.7746 19.38H32.2254C31.5486 19.38 31 18.8472 31 18.19Z" fill="white" stroke="#E06121" stroke-width="2" stroke-linecap="round"/>
</g>
<path fill-rule="evenodd" clip-rule="evenodd" d="M31 53.8907C31 53.2335 31.5486 52.7007 32.2254 52.7007H82.7746C83.4514 52.7007 84 53.2335 84 53.8907C84 54.5479 83.4514 55.0807 82.7746 55.0807H32.2254C31.5486 55.0807 31 54.5479 31 53.8907Z" fill="white"/>
<path fill-rule="evenodd" clip-rule="evenodd" d="M31 36.0426C31 35.3853 31.5486 34.8525 32.2254 34.8525H82.7746C83.4514 34.8525 84 35.3853 84 36.0426C84 36.6998 83.4514 37.2326 82.7746 37.2326H32.2254C31.5486 37.2326 31 36.6998 31 36.0426Z" fill="white"/>
<path fill-rule="evenodd" clip-rule="evenodd" d="M31 18.19C31 17.5328 31.5486 17 32.2254 17H82.7746C83.4514 17 84 17.5328 84 18.19C84 18.8472 83.4514 19.38 82.7746 19.38H32.2254C31.5486 19.38 31 18.8472 31 18.19Z" fill="white"/>
<defs>
<filter id="filter0_f_274_1909" x="0" y="-14" width="115" height="100.081" filterUnits="userSpaceOnUse" color-interpolation-filters="sRGB">
<feFlood flood-opacity="0" result="BackgroundImageFix"/>
<feBlend mode="normal" in="SourceGraphic" in2="BackgroundImageFix" result="shape"/>
<feGaussianBlur stdDeviation="15" result="effect1_foregroundBlur_274_1909"/>
</filter>
<filter id="filter1_f_274_1909" x="20" y="6" width="75" height="60.0806" filterUnits="userSpaceOnUse" color-interpolation-filters="sRGB">
<feFlood flood-opacity="0" result="BackgroundImageFix"/>
<feBlend mode="normal" in="SourceGraphic" in2="BackgroundImageFix" result="shape"/>
<feGaussianBlur stdDeviation="5" result="effect1_foregroundBlur_274_1909"/>
</filter>
<filter id="filter2_f_274_1909" x="26" y="12" width="63" height="48.0806" filterUnits="userSpaceOnUse" color-interpolation-filters="sRGB">
<feFlood flood-opacity="0" result="BackgroundImageFix"/>
<feBlend mode="normal" in="SourceGraphic" in2="BackgroundImageFix" result="shape"/>
<feGaussianBlur stdDeviation="2" result="effect1_foregroundBlur_274_1909"/>
</filter>
</defs>
</svg>
