<svg width="165" height="193" viewBox="0 0 165 193" fill="none" xmlns="http://www.w3.org/2000/svg">
<g filter="url(#filter0_f_1_852)">
<path d="M91.8357 153.827V152.827H90.8357H50.7804C44.6848 152.827 39.7617 147.941 39.7617 141.936L39.7617 50.5678C39.7617 44.5633 44.6848 39.6774 50.7804 39.6774L105.181 39.6774C111.276 39.6774 116.199 44.5633 116.199 50.5678L116.199 111.435V112.435H117.199H118.464H119.464V111.435L119.464 50.5678C119.464 42.7473 113.059 36.4258 105.181 36.4258L50.7804 36.4258C42.9018 36.4258 36.4966 42.7473 36.4966 50.5678L36.4966 141.936C36.4966 149.757 42.9018 156.078 50.7804 156.078H90.8357H91.8357V155.078V153.827Z" stroke="#E06121" stroke-width="2"/>
<path fill-rule="evenodd" clip-rule="evenodd" d="M102.245 121.43L103.055 122.391L88.4567 134.427L103.055 146.462L102.245 147.424L86.4805 134.427L102.245 121.43Z" stroke="#E06121" stroke-width="2"/>
<path fill-rule="evenodd" clip-rule="evenodd" d="M111.911 121.43L111.101 122.391L125.7 134.427L111.101 146.462L111.911 147.424L127.676 134.427L111.911 121.43Z" stroke="#E06121" stroke-width="2"/>
<path fill-rule="evenodd" clip-rule="evenodd" d="M66.5947 37.4258H94.4274V43.0581C94.4274 46.86 91.3121 49.942 87.4692 49.942H73.5529C69.71 49.942 66.5947 46.86 66.5947 43.0581V37.4258ZM67.8598 38.6774V43.0581C67.8598 46.1687 70.4087 48.6904 73.5529 48.6904H87.4692C90.6134 48.6904 93.1623 46.1687 93.1623 43.0581V38.6774H67.8598Z" stroke="#E06121" stroke-width="2"/>
</g>
<g filter="url(#filter1_f_1_852)">
<path d="M91.8357 153.827V152.827H90.8357H50.7804C44.6848 152.827 39.7617 147.941 39.7617 141.936L39.7617 50.5678C39.7617 44.5633 44.6848 39.6774 50.7804 39.6774L105.181 39.6774C111.276 39.6774 116.199 44.5633 116.199 50.5678L116.199 111.435V112.435H117.199H118.464H119.464V111.435L119.464 50.5678C119.464 42.7473 113.059 36.4258 105.181 36.4258L50.7804 36.4258C42.9018 36.4258 36.4966 42.7473 36.4966 50.5678L36.4966 141.936C36.4966 149.757 42.9018 156.078 50.7804 156.078H90.8357H91.8357V155.078V153.827Z" stroke="#E06121" stroke-width="2"/>
<path fill-rule="evenodd" clip-rule="evenodd" d="M102.245 121.43L103.055 122.391L88.4567 134.427L103.055 146.462L102.245 147.424L86.4805 134.427L102.245 121.43Z" stroke="#E06121" stroke-width="2"/>
<path fill-rule="evenodd" clip-rule="evenodd" d="M111.911 121.43L111.101 122.391L125.7 134.427L111.101 146.462L111.911 147.424L127.676 134.427L111.911 121.43Z" stroke="#E06121" stroke-width="2"/>
<path fill-rule="evenodd" clip-rule="evenodd" d="M66.5947 37.4258H94.4274V43.0581C94.4274 46.86 91.3121 49.942 87.4692 49.942H73.5529C69.71 49.942 66.5947 46.86 66.5947 43.0581V37.4258ZM67.8598 38.6774V43.0581C67.8598 46.1687 70.4087 48.6904 73.5529 48.6904H87.4692C90.6134 48.6904 93.1623 46.1687 93.1623 43.0581V38.6774H67.8598Z" stroke="#E06121" stroke-width="2"/>
</g>
<g filter="url(#filter2_f_1_852)">
<path d="M91.8357 153.827V152.827H90.8357H50.7804C44.6848 152.827 39.7617 147.941 39.7617 141.936L39.7617 50.5678C39.7617 44.5633 44.6848 39.6774 50.7804 39.6774L105.181 39.6774C111.276 39.6774 116.199 44.5633 116.199 50.5678L116.199 111.435V112.435H117.199H118.464H119.464V111.435L119.464 50.5678C119.464 42.7473 113.059 36.4258 105.181 36.4258L50.7804 36.4258C42.9018 36.4258 36.4966 42.7473 36.4966 50.5678L36.4966 141.936C36.4966 149.757 42.9018 156.078 50.7804 156.078H90.8357H91.8357V155.078V153.827Z" stroke="#E06121" stroke-width="2"/>
<path fill-rule="evenodd" clip-rule="evenodd" d="M102.245 121.43L103.055 122.391L88.4567 134.427L103.055 146.462L102.245 147.424L86.4805 134.427L102.245 121.43Z" stroke="#E06121" stroke-width="2"/>
<path fill-rule="evenodd" clip-rule="evenodd" d="M111.911 121.43L111.101 122.391L125.7 134.427L111.101 146.462L111.911 147.424L127.676 134.427L111.911 121.43Z" stroke="#E06121" stroke-width="2"/>
<path fill-rule="evenodd" clip-rule="evenodd" d="M66.5947 37.4258H94.4274V43.0581C94.4274 46.86 91.3121 49.942 87.4692 49.942H73.5529C69.71 49.942 66.5947 46.86 66.5947 43.0581V37.4258ZM67.8598 38.6774V43.0581C67.8598 46.1687 70.4087 48.6904 73.5529 48.6904H87.4692C90.6134 48.6904 93.1623 46.1687 93.1623 43.0581V38.6774H67.8598Z" stroke="#E06121" stroke-width="2"/>
</g>
<path fill-rule="evenodd" clip-rule="evenodd" d="M50.7804 38.6774C44.1426 38.6774 38.7617 44.0009 38.7617 50.5678L38.7617 141.936C38.7617 148.503 44.1426 153.827 50.7804 153.827H90.8357V155.078H50.7804C43.4439 155.078 37.4966 149.195 37.4966 141.936L37.4966 50.5678C37.4966 43.3097 43.4439 37.4258 50.7804 37.4258L105.181 37.4258C112.517 37.4258 118.464 43.3097 118.464 50.5678L118.464 111.435H117.199L117.199 50.5678C117.199 44.0009 111.818 38.6774 105.181 38.6774L50.7804 38.6774Z" fill="white"/>
<path fill-rule="evenodd" clip-rule="evenodd" d="M102.245 121.43L103.055 122.391L88.4567 134.427L103.055 146.462L102.245 147.424L86.4805 134.427L102.245 121.43Z" fill="white"/>
<path fill-rule="evenodd" clip-rule="evenodd" d="M111.911 121.43L111.101 122.391L125.7 134.427L111.101 146.462L111.911 147.424L127.676 134.427L111.911 121.43Z" fill="white"/>
<path fill-rule="evenodd" clip-rule="evenodd" d="M66.5947 37.4258H94.4274V43.0581C94.4274 46.86 91.3121 49.942 87.4692 49.942H73.5529C69.71 49.942 66.5947 46.86 66.5947 43.0581V37.4258ZM67.8598 38.6774V43.0581C67.8598 46.1687 70.4087 48.6904 73.5529 48.6904H87.4692C90.6134 48.6904 93.1623 46.1687 93.1623 43.0581V38.6774H67.8598Z" fill="white"/>
<defs>
<filter id="filter0_f_1_852" x="0.496582" y="0.425781" width="163.751" height="191.653" filterUnits="userSpaceOnUse" color-interpolation-filters="sRGB">
<feFlood flood-opacity="0" result="BackgroundImageFix"/>
<feBlend mode="normal" in="SourceGraphic" in2="BackgroundImageFix" result="shape"/>
<feGaussianBlur stdDeviation="17.5" result="effect1_foregroundBlur_1_852"/>
</filter>
<filter id="filter1_f_1_852" x="20.4966" y="20.4258" width="123.751" height="151.653" filterUnits="userSpaceOnUse" color-interpolation-filters="sRGB">
<feFlood flood-opacity="0" result="BackgroundImageFix"/>
<feBlend mode="normal" in="SourceGraphic" in2="BackgroundImageFix" result="shape"/>
<feGaussianBlur stdDeviation="7.5" result="effect1_foregroundBlur_1_852"/>
</filter>
<filter id="filter2_f_1_852" x="31.4966" y="31.4258" width="101.751" height="129.653" filterUnits="userSpaceOnUse" color-interpolation-filters="sRGB">
<feFlood flood-opacity="0" result="BackgroundImageFix"/>
<feBlend mode="normal" in="SourceGraphic" in2="BackgroundImageFix" result="shape"/>
<feGaussianBlur stdDeviation="2" result="effect1_foregroundBlur_1_852"/>
</filter>
</defs>
</svg>
