<svg width="204" height="192" viewBox="0 0 204 192" fill="none" xmlns="http://www.w3.org/2000/svg">
<g filter="url(#filter0_f_1_878)">
<path d="M113.243 133.57L116.193 146.985H88.0665L91.1218 133.57H113.243ZM52.4848 41.1836C46.2636 41.1836 41.2019 46.1759 41.2019 52.3568V122.397C41.2019 128.578 46.2636 133.57 52.4848 133.57H87.6652L85.0969 144.846H83.5015C81.9839 144.846 80.7352 146.066 80.7352 147.594C80.7352 149.121 81.9839 150.341 83.5015 150.341H120.873C122.391 150.341 123.64 149.121 123.64 147.594C123.64 146.066 122.391 144.846 120.873 144.846H119.173L116.694 133.57H151.2C157.422 133.57 162.483 128.578 162.483 122.397V52.3568C162.483 46.1759 157.422 41.1836 151.2 41.1836H52.4848ZM44.573 52.3568C44.573 48.0498 48.1051 44.54 52.4848 44.54H151.2C155.58 44.54 159.112 48.0498 159.112 52.3568V117.143H44.573V52.3568ZM44.573 120.5H159.112V122.397C159.112 126.704 155.58 130.214 151.2 130.214H52.4848C48.1051 130.214 44.573 126.704 44.573 122.397V120.5Z" stroke="#E06121" stroke-width="2"/>
<path d="M103.214 130.674C106.028 130.674 108.327 128.414 108.327 125.604C108.327 122.795 106.028 120.535 103.214 120.535C100.4 120.535 98.1006 122.795 98.1006 125.604C98.1006 128.414 100.4 130.674 103.214 130.674Z" stroke="#E06121" stroke-width="2"/>
</g>
<g filter="url(#filter1_f_1_878)">
<path d="M113.243 133.57L116.193 146.985H88.0665L91.1218 133.57H113.243ZM52.4848 41.1836C46.2636 41.1836 41.2019 46.1759 41.2019 52.3568V122.397C41.2019 128.578 46.2636 133.57 52.4848 133.57H87.6652L85.0969 144.846H83.5015C81.9839 144.846 80.7352 146.066 80.7352 147.594C80.7352 149.121 81.9839 150.341 83.5015 150.341H120.873C122.391 150.341 123.64 149.121 123.64 147.594C123.64 146.066 122.391 144.846 120.873 144.846H119.173L116.694 133.57H151.2C157.422 133.57 162.483 128.578 162.483 122.397V52.3568C162.483 46.1759 157.422 41.1836 151.2 41.1836H52.4848ZM44.573 52.3568C44.573 48.0498 48.1051 44.54 52.4848 44.54H151.2C155.58 44.54 159.112 48.0498 159.112 52.3568V117.143H44.573V52.3568ZM44.573 120.5H159.112V122.397C159.112 126.704 155.58 130.214 151.2 130.214H52.4848C48.1051 130.214 44.573 126.704 44.573 122.397V120.5Z" stroke="#E06121" stroke-width="2"/>
<path d="M103.214 130.674C106.028 130.674 108.327 128.414 108.327 125.604C108.327 122.795 106.028 120.535 103.214 120.535C100.4 120.535 98.1006 122.795 98.1006 125.604C98.1006 128.414 100.4 130.674 103.214 130.674Z" stroke="#E06121" stroke-width="2"/>
</g>
<g filter="url(#filter2_f_1_878)">
<path d="M113.243 133.57L116.193 146.985H88.0665L91.1218 133.57H113.243ZM52.4848 41.1836C46.2636 41.1836 41.2019 46.1759 41.2019 52.3568V122.397C41.2019 128.578 46.2636 133.57 52.4848 133.57H87.6652L85.0969 144.846H83.5015C81.9839 144.846 80.7352 146.066 80.7352 147.594C80.7352 149.121 81.9839 150.341 83.5015 150.341H120.873C122.391 150.341 123.64 149.121 123.64 147.594C123.64 146.066 122.391 144.846 120.873 144.846H119.173L116.694 133.57H151.2C157.422 133.57 162.483 128.578 162.483 122.397V52.3568C162.483 46.1759 157.422 41.1836 151.2 41.1836H52.4848ZM44.573 52.3568C44.573 48.0498 48.1051 44.54 52.4848 44.54H151.2C155.58 44.54 159.112 48.0498 159.112 52.3568V117.143H44.573V52.3568ZM44.573 120.5H159.112V122.397C159.112 126.704 155.58 130.214 151.2 130.214H52.4848C48.1051 130.214 44.573 126.704 44.573 122.397V120.5Z" stroke="#E06121" stroke-width="2"/>
<path d="M103.214 130.674C106.028 130.674 108.327 128.414 108.327 125.604C108.327 122.795 106.028 120.535 103.214 120.535C100.4 120.535 98.1006 122.795 98.1006 125.604C98.1006 128.414 100.4 130.674 103.214 130.674Z" stroke="#E06121" stroke-width="2"/>
</g>
<path fill-rule="evenodd" clip-rule="evenodd" d="M42.2019 52.3568C42.2019 46.7383 46.8057 42.1836 52.4848 42.1836H151.2C156.879 42.1836 161.483 46.7383 161.483 52.3568V122.397C161.483 128.016 156.88 132.57 151.2 132.57H115.45L118.369 145.846H120.873C121.849 145.846 122.64 146.628 122.64 147.594C122.64 148.559 121.849 149.341 120.873 149.341H83.5015C82.526 149.341 81.7352 148.559 81.7352 147.594C81.7352 146.628 82.526 145.846 83.5015 145.846H85.8948L88.9186 132.57H52.4848C46.8057 132.57 42.2019 128.016 42.2019 122.397V52.3568ZM90.324 132.57L86.9912 147.203H83.5015C83.2832 147.203 83.1062 147.378 83.1062 147.594C83.1062 147.81 83.2832 147.985 83.5015 147.985H120.873C121.092 147.985 121.268 147.81 121.268 147.594C121.268 147.378 121.092 147.203 120.873 147.203H117.264L114.047 132.57H90.324ZM52.4848 43.54C47.5629 43.54 43.573 47.4874 43.573 52.3568V118.143H160.112V52.3568C160.112 47.4874 156.122 43.54 151.2 43.54H52.4848ZM160.112 119.5H43.573V122.397C43.573 127.267 47.5629 131.214 52.4848 131.214H151.2C156.122 131.214 160.112 127.267 160.112 122.397V119.5Z" fill="white"/>
<path d="M107.327 125.604C107.327 127.852 105.485 129.674 103.214 129.674C100.942 129.674 99.1006 127.852 99.1006 125.604C99.1006 123.357 100.942 121.535 103.214 121.535C105.485 121.535 107.327 123.357 107.327 125.604Z" fill="white"/>
<defs>
<filter id="filter0_f_1_878" x="0.201904" y="0.183594" width="203.281" height="191.157" filterUnits="userSpaceOnUse" color-interpolation-filters="sRGB">
<feFlood flood-opacity="0" result="BackgroundImageFix"/>
<feBlend mode="normal" in="SourceGraphic" in2="BackgroundImageFix" result="shape"/>
<feGaussianBlur stdDeviation="20" result="effect1_foregroundBlur_1_878"/>
</filter>
<filter id="filter1_f_1_878" x="25.2019" y="25.1836" width="153.281" height="141.157" filterUnits="userSpaceOnUse" color-interpolation-filters="sRGB">
<feFlood flood-opacity="0" result="BackgroundImageFix"/>
<feBlend mode="normal" in="SourceGraphic" in2="BackgroundImageFix" result="shape"/>
<feGaussianBlur stdDeviation="7.5" result="effect1_foregroundBlur_1_878"/>
</filter>
<filter id="filter2_f_1_878" x="36.2019" y="36.1836" width="131.281" height="119.157" filterUnits="userSpaceOnUse" color-interpolation-filters="sRGB">
<feFlood flood-opacity="0" result="BackgroundImageFix"/>
<feBlend mode="normal" in="SourceGraphic" in2="BackgroundImageFix" result="shape"/>
<feGaussianBlur stdDeviation="2" result="effect1_foregroundBlur_1_878"/>
</filter>
</defs>
</svg>
