<svg width="207" height="204" viewBox="0 0 207 204" fill="none" xmlns="http://www.w3.org/2000/svg">
<g filter="url(#filter0_f_1_896)">
<path d="M161.603 102.034C161.603 133.294 135.555 158.734 103.3 158.734C71.0452 158.734 44.9975 133.294 44.9975 102.034C44.9975 70.7739 71.0452 45.334 103.3 45.334C135.555 45.334 161.603 70.7739 161.603 102.034ZM103.3 162.674C137.662 162.674 165.563 135.55 165.563 102.034C165.563 68.5187 137.662 41.3945 103.3 41.3945C68.9387 41.3945 41.0371 68.5187 41.0371 102.034C41.0371 135.55 68.9387 162.674 103.3 162.674Z" stroke="#E06121" stroke-width="2"/>
<path d="M96.8866 128.512L97.748 129.346L98.414 128.349L134.356 74.5167C134.966 73.6039 134.708 72.3778 133.794 71.7806L133.247 72.6177L133.794 71.7806C132.887 71.1876 131.662 71.4309 131.057 72.3371L97.0905 123.21L75.2758 102.078C74.4955 101.322 73.2476 101.335 72.4832 102.107C71.7128 102.886 71.7264 104.139 72.5127 104.9L96.8866 128.512Z" stroke="#E06121" stroke-width="2" stroke-linecap="round"/>
</g>
<g filter="url(#filter1_f_1_896)">
<path d="M161.603 102.034C161.603 133.294 135.555 158.734 103.3 158.734C71.0452 158.734 44.9975 133.294 44.9975 102.034C44.9975 70.7739 71.0452 45.334 103.3 45.334C135.555 45.334 161.603 70.7739 161.603 102.034ZM103.3 162.674C137.662 162.674 165.563 135.55 165.563 102.034C165.563 68.5187 137.662 41.3945 103.3 41.3945C68.9387 41.3945 41.0371 68.5187 41.0371 102.034C41.0371 135.55 68.9387 162.674 103.3 162.674Z" stroke="#E06121" stroke-width="2"/>
<path d="M96.8866 128.512L97.748 129.346L98.414 128.349L134.356 74.5167C134.966 73.6039 134.708 72.3778 133.794 71.7806L133.247 72.6177L133.794 71.7806C132.887 71.1876 131.662 71.4309 131.057 72.3371L97.0905 123.21L75.2758 102.078C74.4955 101.322 73.2476 101.335 72.4832 102.107C71.7128 102.886 71.7264 104.139 72.5127 104.9L96.8866 128.512Z" stroke="#E06121" stroke-width="2" stroke-linecap="round"/>
</g>
<g filter="url(#filter2_f_1_896)">
<path d="M161.603 102.034C161.603 133.294 135.555 158.734 103.3 158.734C71.0452 158.734 44.9975 133.294 44.9975 102.034C44.9975 70.7739 71.0452 45.334 103.3 45.334C135.555 45.334 161.603 70.7739 161.603 102.034ZM103.3 162.674C137.662 162.674 165.563 135.55 165.563 102.034C165.563 68.5187 137.662 41.3945 103.3 41.3945C68.9387 41.3945 41.0371 68.5187 41.0371 102.034C41.0371 135.55 68.9387 162.674 103.3 162.674Z" stroke="#E06121" stroke-width="2"/>
<path d="M96.8866 128.512L97.748 129.346L98.414 128.349L134.356 74.5167C134.966 73.6039 134.708 72.3778 133.794 71.7806L133.247 72.6177L133.794 71.7806C132.887 71.1876 131.662 71.4309 131.057 72.3371L97.0905 123.21L75.2758 102.078C74.4955 101.322 73.2476 101.335 72.4832 102.107C71.7128 102.886 71.7264 104.139 72.5127 104.9L96.8866 128.512Z" stroke="#E06121" stroke-width="2" stroke-linecap="round"/>
</g>
<path fill-rule="evenodd" clip-rule="evenodd" d="M103.3 159.734C136.082 159.734 162.603 133.872 162.603 102.034C162.603 70.1967 136.082 44.334 103.3 44.334C70.5183 44.334 43.9975 70.1967 43.9975 102.034C43.9975 133.872 70.5183 159.734 103.3 159.734ZM103.3 161.674C137.135 161.674 164.563 134.972 164.563 102.034C164.563 69.0961 137.135 42.3945 103.3 42.3945C69.4655 42.3945 42.0371 69.0961 42.0371 102.034C42.0371 134.972 69.4655 161.674 103.3 161.674Z" fill="white"/>
<path fill-rule="evenodd" clip-rule="evenodd" d="M133.247 72.6177C133.699 72.9129 133.823 73.5145 133.525 73.9614L97.5824 127.794L73.2085 104.182C72.8217 103.807 72.8152 103.193 73.1939 102.811C73.5726 102.428 74.1932 102.422 74.58 102.796L97.2562 124.763L131.889 72.8924C132.187 72.4455 132.795 72.3225 133.247 72.6177Z" fill="white"/>
<defs>
<filter id="filter0_f_1_896" x="0.0371094" y="0.394531" width="206.526" height="203.279" filterUnits="userSpaceOnUse" color-interpolation-filters="sRGB">
<feFlood flood-opacity="0" result="BackgroundImageFix"/>
<feBlend mode="normal" in="SourceGraphic" in2="BackgroundImageFix" result="shape"/>
<feGaussianBlur stdDeviation="20" result="effect1_foregroundBlur_1_896"/>
</filter>
<filter id="filter1_f_1_896" x="25.0371" y="25.3945" width="156.526" height="153.279" filterUnits="userSpaceOnUse" color-interpolation-filters="sRGB">
<feFlood flood-opacity="0" result="BackgroundImageFix"/>
<feBlend mode="normal" in="SourceGraphic" in2="BackgroundImageFix" result="shape"/>
<feGaussianBlur stdDeviation="7.5" result="effect1_foregroundBlur_1_896"/>
</filter>
<filter id="filter2_f_1_896" x="36.0371" y="36.3945" width="134.526" height="131.279" filterUnits="userSpaceOnUse" color-interpolation-filters="sRGB">
<feFlood flood-opacity="0" result="BackgroundImageFix"/>
<feBlend mode="normal" in="SourceGraphic" in2="BackgroundImageFix" result="shape"/>
<feGaussianBlur stdDeviation="2" result="effect1_foregroundBlur_1_896"/>
</filter>
</defs>
</svg>
