<svg width="1011" height="954" viewBox="0 0 1011 954" fill="none" xmlns="http://www.w3.org/2000/svg">
<g opacity="0.142857">
<g filter="url(#filter0_f_1_599)">
<path d="M729.531 644.342L729.56 644.393L729.583 644.446L729.595 644.473C734.497 656.027 740.785 668.308 747.829 678.717C754.9 689.167 762.62 697.56 770.331 701.555C774.159 703.539 777.921 704.405 781.579 703.968C785.227 703.533 788.926 701.783 792.607 698.265C800.035 691.166 807.232 677.018 813.41 652.875C818.947 631.241 808.657 608.936 792.385 593.033C751.188 552.771 696.795 476.964 681.741 372.193C673.781 316.791 634.458 277.322 584.282 249.861C534.111 222.403 473.318 207.087 422.958 199.931C392.976 195.671 364.072 209.451 340.333 228.904C296.797 264.582 234.243 296.679 169.336 294.475C149.062 293.786 132.59 297.883 119.108 305.536C105.621 313.191 95.0379 324.455 86.6247 338.232C69.7674 365.837 61.715 403.369 56.4973 441.61C53.4703 463.796 58.4381 486.597 73.2794 503.091C100.181 532.989 140.306 561.725 189.303 567.799C238.227 573.863 296.301 557.369 359.254 496.23C396.02 460.524 433.766 445.054 470.708 443.77C507.616 442.486 543.543 455.367 576.703 476.035C642.989 517.349 698.582 590.007 729.517 644.316C729.517 644.317 729.517 644.317 729.517 644.317L729.531 644.342ZM745.345 680.399C738.181 669.812 731.819 657.383 726.867 645.726C696.052 591.65 640.784 519.51 575.116 478.581C542.284 458.117 506.944 445.511 470.813 446.768C434.716 448.023 397.653 463.119 361.344 498.383C297.889 560.01 238.949 576.976 188.934 570.776C138.992 564.585 98.2538 535.332 71.0493 505.098C55.4889 487.804 50.4074 464.053 53.5249 441.205C58.748 402.924 66.8572 364.846 84.0644 336.669C92.6835 322.555 103.608 310.884 117.627 302.927C131.653 294.966 148.686 290.771 169.438 291.476C233.347 293.647 295.207 262.006 338.432 226.584C362.471 206.884 392.206 192.531 423.38 196.961C473.941 204.145 535.122 219.536 585.722 247.229C636.317 274.92 676.561 315.048 684.711 371.766C699.65 475.735 753.636 550.968 794.482 590.888C811.196 607.222 822.215 630.571 816.317 653.619C810.106 677.888 802.741 692.73 794.68 700.434C790.617 704.317 786.339 706.421 781.935 706.947C777.54 707.472 773.173 706.407 768.951 704.219C760.562 699.873 752.497 690.969 745.345 680.399Z" stroke="#E06121" stroke-width="2"/>
</g>
<g filter="url(#filter1_f_1_599)">
<path d="M729.531 644.342L729.56 644.393L729.583 644.446L729.595 644.473C734.497 656.027 740.785 668.308 747.829 678.717C754.9 689.167 762.62 697.56 770.331 701.555C774.159 703.539 777.921 704.405 781.579 703.968C785.227 703.533 788.926 701.783 792.607 698.265C800.035 691.166 807.232 677.018 813.41 652.875C818.947 631.241 808.657 608.936 792.385 593.033C751.188 552.771 696.795 476.964 681.741 372.193C673.781 316.791 634.458 277.322 584.282 249.861C534.111 222.403 473.318 207.087 422.958 199.931C392.976 195.671 364.072 209.451 340.333 228.904C296.797 264.582 234.243 296.679 169.336 294.475C149.062 293.786 132.59 297.883 119.108 305.536C105.621 313.191 95.0379 324.455 86.6247 338.232C69.7674 365.837 61.715 403.369 56.4973 441.61C53.4703 463.796 58.4381 486.597 73.2794 503.091C100.181 532.989 140.306 561.725 189.303 567.799C238.227 573.863 296.301 557.369 359.254 496.23C396.02 460.524 433.766 445.054 470.708 443.77C507.616 442.486 543.543 455.367 576.703 476.035C642.989 517.349 698.582 590.007 729.517 644.316C729.517 644.317 729.517 644.317 729.517 644.317L729.531 644.342ZM745.345 680.399C738.181 669.812 731.819 657.383 726.867 645.726C696.052 591.65 640.784 519.51 575.116 478.581C542.284 458.117 506.944 445.511 470.813 446.768C434.716 448.023 397.653 463.119 361.344 498.383C297.889 560.01 238.949 576.976 188.934 570.776C138.992 564.585 98.2538 535.332 71.0493 505.098C55.4889 487.804 50.4074 464.053 53.5249 441.205C58.748 402.924 66.8572 364.846 84.0644 336.669C92.6835 322.555 103.608 310.884 117.627 302.927C131.653 294.966 148.686 290.771 169.438 291.476C233.347 293.647 295.207 262.006 338.432 226.584C362.471 206.884 392.206 192.531 423.38 196.961C473.941 204.145 535.122 219.536 585.722 247.229C636.317 274.92 676.561 315.048 684.711 371.766C699.65 475.735 753.636 550.968 794.482 590.888C811.196 607.222 822.215 630.571 816.317 653.619C810.106 677.888 802.741 692.73 794.68 700.434C790.617 704.317 786.339 706.421 781.935 706.947C777.54 707.472 773.173 706.407 768.951 704.219C760.562 699.873 752.497 690.969 745.345 680.399Z" stroke="#E06121" stroke-width="2"/>
</g>
<g filter="url(#filter2_f_1_599)">
<path d="M729.531 644.342L729.56 644.393L729.583 644.446L729.595 644.473C734.497 656.027 740.785 668.308 747.829 678.717C754.9 689.167 762.62 697.56 770.331 701.555C774.159 703.539 777.921 704.405 781.579 703.968C785.227 703.533 788.926 701.783 792.607 698.265C800.035 691.166 807.232 677.018 813.41 652.875C818.947 631.241 808.657 608.936 792.385 593.033C751.188 552.771 696.795 476.964 681.741 372.193C673.781 316.791 634.458 277.322 584.282 249.861C534.111 222.403 473.318 207.087 422.958 199.931C392.976 195.671 364.072 209.451 340.333 228.904C296.797 264.582 234.243 296.679 169.336 294.475C149.062 293.786 132.59 297.883 119.108 305.536C105.621 313.191 95.0379 324.455 86.6247 338.232C69.7674 365.837 61.715 403.369 56.4973 441.61C53.4703 463.796 58.4381 486.597 73.2794 503.091C100.181 532.989 140.306 561.725 189.303 567.799C238.227 573.863 296.301 557.369 359.254 496.23C396.02 460.524 433.766 445.054 470.708 443.77C507.616 442.486 543.543 455.367 576.703 476.035C642.989 517.349 698.582 590.007 729.517 644.316C729.517 644.317 729.517 644.317 729.517 644.317L729.531 644.342ZM745.345 680.399C738.181 669.812 731.819 657.383 726.867 645.726C696.052 591.65 640.784 519.51 575.116 478.581C542.284 458.117 506.944 445.511 470.813 446.768C434.716 448.023 397.653 463.119 361.344 498.383C297.889 560.01 238.949 576.976 188.934 570.776C138.992 564.585 98.2538 535.332 71.0493 505.098C55.4889 487.804 50.4074 464.053 53.5249 441.205C58.748 402.924 66.8572 364.846 84.0644 336.669C92.6835 322.555 103.608 310.884 117.627 302.927C131.653 294.966 148.686 290.771 169.438 291.476C233.347 293.647 295.207 262.006 338.432 226.584C362.471 206.884 392.206 192.531 423.38 196.961C473.941 204.145 535.122 219.536 585.722 247.229C636.317 274.92 676.561 315.048 684.711 371.766C699.65 475.735 753.636 550.968 794.482 590.888C811.196 607.222 822.215 630.571 816.317 653.619C810.106 677.888 802.741 692.73 794.68 700.434C790.617 704.317 786.339 706.421 781.935 706.947C777.54 707.472 773.173 706.407 768.951 704.219C760.562 699.873 752.497 690.969 745.345 680.399Z" stroke="#E06121" stroke-width="2"/>
</g>
<path fill-rule="evenodd" clip-rule="evenodd" d="M584.762 248.984C635.077 276.521 674.708 316.21 682.731 372.051C697.747 476.555 752.004 552.17 793.084 592.318C809.503 608.364 820.036 631.018 814.379 653.123C808.19 677.308 800.937 691.687 793.298 698.988C789.49 702.628 785.598 704.496 781.698 704.961C777.794 705.427 773.83 704.495 769.871 702.443C761.934 698.331 754.099 689.768 747.001 679.278C739.912 668.801 733.595 656.46 728.674 644.864L728.663 644.837L728.648 644.812C697.756 590.578 642.264 518.076 576.174 476.883C543.123 456.283 507.392 443.495 470.743 444.769C434.083 446.044 396.564 461.389 359.95 496.948C296.83 558.25 238.468 574.901 189.18 568.791C139.868 562.678 99.5386 533.77 72.536 503.76C57.4551 486.999 52.4494 463.882 55.5065 441.475C60.726 403.22 68.7974 365.507 85.7713 337.711C94.2531 323.822 104.95 312.422 118.615 304.666C132.277 296.911 148.936 292.781 169.37 293.475C233.944 295.668 296.267 263.723 339.7 228.131C363.539 208.595 392.719 194.624 423.099 198.941C473.526 206.106 534.448 221.447 584.762 248.984ZM585.242 248.107C534.785 220.491 473.734 205.126 423.24 197.951C392.462 193.578 363.005 207.74 339.066 227.357C295.737 262.865 233.646 294.658 169.404 292.476C148.811 291.776 131.965 295.938 118.121 303.796C104.279 311.653 93.4683 323.188 84.9178 337.19C67.8272 365.176 59.737 403.072 54.5157 441.34C51.4284 463.967 56.472 487.402 71.7926 504.429C98.8962 534.551 139.43 563.631 189.057 569.783C238.708 575.938 297.36 559.13 360.647 497.665C397.109 462.254 434.399 447.033 470.778 445.768C507.168 444.503 542.704 457.2 575.645 477.732C641.529 518.796 696.912 591.125 727.765 645.281C732.702 656.912 739.044 669.303 746.173 679.838C753.298 690.369 761.248 699.102 769.411 703.331C773.502 705.451 777.667 706.45 781.816 705.954C785.969 705.459 790.053 703.472 793.989 699.711C801.839 692.209 809.148 677.598 815.348 653.371C821.126 630.794 810.349 607.793 793.783 591.603C752.82 551.569 698.698 476.145 683.721 371.909C675.635 315.629 635.697 275.721 585.242 248.107Z" fill="white"/>
</g>
<g opacity="0.285714">
<g filter="url(#filter3_f_1_599)">
<path d="M752.078 656.851L752.112 656.899L752.139 656.951L752.153 656.977C758.044 668.059 765.378 679.745 773.302 689.501C781.257 699.295 789.679 706.984 797.709 710.291C801.695 711.933 805.518 712.469 809.125 711.715C812.721 710.963 816.253 708.898 819.614 705.072C826.395 697.353 832.331 682.631 836.382 658.041C840.012 636.007 827.817 614.684 810.221 600.26C765.672 563.741 704.879 492.964 680.751 389.903C667.992 335.406 625.379 299.515 573 276.531C520.627 253.55 458.73 243.59 407.939 240.851C377.699 239.221 350.106 255.467 328.154 276.915C287.892 316.252 228.374 353.679 163.522 357.14C143.264 358.221 127.212 363.738 114.449 372.536C101.681 381.338 92.1193 393.482 84.9388 407.94C70.5516 436.908 65.8009 474.999 63.9361 513.55C62.8542 535.915 69.7903 558.196 86.0126 573.334C115.418 600.773 157.895 625.903 207.235 627.683C256.501 629.461 312.917 607.968 370.301 541.575C403.815 502.8 440.07 484.1 476.759 479.6C513.414 475.105 550.327 484.805 585.162 502.504C654.797 537.885 716.511 605.421 752.062 656.827C752.062 656.827 752.062 656.827 752.062 656.828L752.078 656.851ZM770.974 691.393C762.915 681.471 755.494 669.643 749.545 658.462C714.134 607.278 652.789 540.229 583.804 505.179C549.313 487.655 513.008 478.177 477.124 482.578C441.274 486.974 405.668 505.243 372.571 543.537C314.728 610.46 257.491 632.499 207.126 630.681C156.835 628.867 113.702 603.276 83.9659 575.527C66.9576 559.656 59.8254 536.438 60.9396 513.405C62.8064 474.814 67.5661 436.175 82.252 406.605C89.6081 391.793 99.4741 379.216 112.747 370.066C126.024 360.913 142.627 355.25 163.362 354.144C227.217 350.736 286.083 313.824 326.057 274.769C348.288 253.049 376.658 236.16 408.1 237.856C459.095 240.606 521.384 250.606 574.205 273.784C627.021 296.959 670.61 333.427 683.672 389.219C707.615 491.49 767.954 561.732 812.123 597.94C830.197 612.755 843.209 635.055 839.342 658.529C835.27 683.247 829.227 698.675 821.868 707.052C818.159 711.274 814.081 713.744 809.739 714.651C805.407 715.557 800.963 714.876 796.566 713.065C787.83 709.467 779.021 701.3 770.974 691.393Z" stroke="#E06121" stroke-width="2"/>
</g>
<g filter="url(#filter4_f_1_599)">
<path d="M752.078 656.851L752.112 656.899L752.139 656.951L752.153 656.977C758.044 668.059 765.378 679.745 773.302 689.501C781.257 699.295 789.679 706.984 797.709 710.291C801.695 711.933 805.518 712.469 809.125 711.715C812.721 710.963 816.253 708.898 819.614 705.072C826.395 697.353 832.331 682.631 836.382 658.041C840.012 636.007 827.817 614.684 810.221 600.26C765.672 563.741 704.879 492.964 680.751 389.903C667.992 335.406 625.379 299.515 573 276.531C520.627 253.55 458.73 243.59 407.939 240.851C377.699 239.221 350.106 255.467 328.154 276.915C287.892 316.252 228.374 353.679 163.522 357.14C143.264 358.221 127.212 363.738 114.449 372.536C101.681 381.338 92.1193 393.482 84.9388 407.94C70.5516 436.908 65.8009 474.999 63.9361 513.55C62.8542 535.915 69.7903 558.196 86.0126 573.334C115.418 600.773 157.895 625.903 207.235 627.683C256.501 629.461 312.917 607.968 370.301 541.575C403.815 502.8 440.07 484.1 476.759 479.6C513.414 475.105 550.327 484.805 585.162 502.504C654.797 537.885 716.511 605.421 752.062 656.827C752.062 656.827 752.062 656.827 752.062 656.828L752.078 656.851ZM770.974 691.393C762.915 681.471 755.494 669.643 749.545 658.462C714.134 607.278 652.789 540.229 583.804 505.179C549.313 487.655 513.008 478.177 477.124 482.578C441.274 486.974 405.668 505.243 372.571 543.537C314.728 610.46 257.491 632.499 207.126 630.681C156.835 628.867 113.702 603.276 83.9659 575.527C66.9576 559.656 59.8254 536.438 60.9396 513.405C62.8064 474.814 67.5661 436.175 82.252 406.605C89.6081 391.793 99.4741 379.216 112.747 370.066C126.024 360.913 142.627 355.25 163.362 354.144C227.217 350.736 286.083 313.824 326.057 274.769C348.288 253.049 376.658 236.16 408.1 237.856C459.095 240.606 521.384 250.606 574.205 273.784C627.021 296.959 670.61 333.427 683.672 389.219C707.615 491.49 767.954 561.732 812.123 597.94C830.197 612.755 843.209 635.055 839.342 658.529C835.27 683.247 829.227 698.675 821.868 707.052C818.159 711.274 814.081 713.744 809.739 714.651C805.407 715.557 800.963 714.876 796.566 713.065C787.83 709.467 779.021 701.3 770.974 691.393Z" stroke="#E06121" stroke-width="2"/>
</g>
<g filter="url(#filter5_f_1_599)">
<path d="M752.078 656.851L752.112 656.899L752.139 656.951L752.153 656.977C758.044 668.059 765.378 679.745 773.302 689.501C781.257 699.295 789.679 706.984 797.709 710.291C801.695 711.933 805.518 712.469 809.125 711.715C812.721 710.963 816.253 708.898 819.614 705.072C826.395 697.353 832.331 682.631 836.382 658.041C840.012 636.007 827.817 614.684 810.221 600.26C765.672 563.741 704.879 492.964 680.751 389.903C667.992 335.406 625.379 299.515 573 276.531C520.627 253.55 458.73 243.59 407.939 240.851C377.699 239.221 350.106 255.467 328.154 276.915C287.892 316.252 228.374 353.679 163.522 357.14C143.264 358.221 127.212 363.738 114.449 372.536C101.681 381.338 92.1193 393.482 84.9388 407.94C70.5516 436.908 65.8009 474.999 63.9361 513.55C62.8542 535.915 69.7903 558.196 86.0126 573.334C115.418 600.773 157.895 625.903 207.235 627.683C256.501 629.461 312.917 607.968 370.301 541.575C403.815 502.8 440.07 484.1 476.759 479.6C513.414 475.105 550.327 484.805 585.162 502.504C654.797 537.885 716.511 605.421 752.062 656.827C752.062 656.827 752.062 656.827 752.062 656.828L752.078 656.851ZM770.974 691.393C762.915 681.471 755.494 669.643 749.545 658.462C714.134 607.278 652.789 540.229 583.804 505.179C549.313 487.655 513.008 478.177 477.124 482.578C441.274 486.974 405.668 505.243 372.571 543.537C314.728 610.46 257.491 632.499 207.126 630.681C156.835 628.867 113.702 603.276 83.9659 575.527C66.9576 559.656 59.8254 536.438 60.9396 513.405C62.8064 474.814 67.5661 436.175 82.252 406.605C89.6081 391.793 99.4741 379.216 112.747 370.066C126.024 360.913 142.627 355.25 163.362 354.144C227.217 350.736 286.083 313.824 326.057 274.769C348.288 253.049 376.658 236.16 408.1 237.856C459.095 240.606 521.384 250.606 574.205 273.784C627.021 296.959 670.61 333.427 683.672 389.219C707.615 491.49 767.954 561.732 812.123 597.94C830.197 612.755 843.209 635.055 839.342 658.529C835.27 683.247 829.227 698.675 821.868 707.052C818.159 711.274 814.081 713.744 809.739 714.651C805.407 715.557 800.963 714.876 796.566 713.065C787.83 709.467 779.021 701.3 770.974 691.393Z" stroke="#E06121" stroke-width="2"/>
</g>
<path fill-rule="evenodd" clip-rule="evenodd" d="M573.402 275.615C625.926 298.663 668.865 334.746 681.725 389.675C705.791 492.473 766.432 563.072 810.855 599.487C828.61 614.041 841.077 635.69 837.368 658.204C833.31 682.836 827.339 697.793 820.365 705.732C816.888 709.69 813.174 711.89 809.329 712.694C805.481 713.498 801.451 712.914 797.328 711.216C789.063 707.811 780.512 699.963 772.526 690.132C764.551 680.313 757.182 668.569 751.27 657.446L751.256 657.42L751.239 657.396C715.738 606.061 654.138 538.672 584.71 503.396C549.989 485.755 513.279 476.129 476.881 480.593C440.471 485.058 404.433 503.614 371.057 542.229C313.52 608.799 256.831 630.474 207.198 628.683C157.541 626.891 114.846 601.607 85.3304 574.065C68.8461 558.683 61.8446 536.089 62.9372 513.502C64.8028 474.938 69.5564 436.664 84.0432 407.495C91.2822 392.919 100.945 380.631 113.882 371.713C126.816 362.797 143.052 357.231 163.468 356.141C227.988 352.698 287.289 315.442 327.455 276.2C349.5 254.661 377.352 238.2 407.993 239.853C458.852 242.596 520.88 252.568 573.402 275.615ZM573.804 274.699C521.132 251.587 458.974 241.601 408.047 238.854C377.005 237.18 348.894 253.855 326.756 275.485C286.686 314.633 227.602 351.717 163.415 355.142C142.84 356.24 126.42 361.855 113.314 370.89C100.21 379.923 90.4452 392.356 83.1476 407.05C68.5612 436.42 63.8046 474.876 61.9384 513.453C60.835 536.264 67.9018 559.17 84.6482 574.796C114.274 602.442 157.188 627.879 207.162 629.682C257.161 631.486 314.124 609.63 371.814 542.883C405.051 504.429 440.873 486.016 477.002 481.585C513.144 477.153 549.651 486.705 584.257 504.287C653.469 539.453 714.945 606.68 750.4 657.941C756.332 669.097 763.73 680.888 771.75 690.762C779.766 700.631 788.447 708.639 796.947 712.141C801.207 713.895 805.444 714.527 809.534 713.672C813.627 712.817 817.524 710.482 821.117 706.392C828.283 698.234 834.29 683.042 838.355 658.367C842.143 635.372 829.403 613.398 811.489 598.713C767.193 562.402 706.703 491.982 682.698 389.447C669.737 334.087 626.474 297.811 573.804 274.699Z" fill="white"/>
</g>
<g opacity="0.428571">
<g filter="url(#filter6_f_1_599)">
<path d="M776.084 667.764L776.122 667.809L776.154 667.858L776.169 667.883C783.004 678.409 791.329 689.412 800.074 698.44C808.851 707.503 817.911 714.429 826.199 717.024C830.313 718.312 834.169 718.512 837.696 717.447C841.213 716.385 844.551 714.02 847.566 709.915C853.648 701.634 858.278 686.451 860.171 661.602C861.867 639.336 847.86 619.156 829.074 606.321C781.511 573.824 714.781 508.614 681.762 408.049C664.303 354.871 618.723 322.83 564.541 304.499C510.364 286.17 447.835 281.643 396.998 283.341C366.731 284.352 340.659 302.942 320.659 326.222C283.979 368.917 227.95 411.389 163.646 420.489C143.56 423.332 128.05 430.227 116.102 440.104C104.149 449.986 95.6827 462.916 89.7896 477.945C77.9819 508.057 76.5692 546.417 78.0713 584.984C78.9428 607.358 87.7945 628.95 105.274 642.616C136.959 667.388 181.465 688.72 230.772 686.194C280.006 683.671 334.334 657.343 385.713 586.201C415.72 544.652 450.207 522.863 486.364 515.184C522.488 507.511 560.106 513.957 596.352 528.552C668.805 557.729 736.17 619.63 776.066 667.742C776.066 667.742 776.066 667.742 776.066 667.742L776.084 667.764ZM797.919 700.527C789.026 691.346 780.602 680.21 773.701 669.59C733.964 621.687 667.008 560.24 595.231 531.335C559.344 516.884 522.352 510.607 486.988 518.118C451.658 525.622 417.779 546.925 388.145 587.958C336.355 659.668 281.257 686.61 230.925 689.19C180.667 691.765 135.468 670.031 103.427 644.98C85.0997 630.651 75.9711 608.143 75.0736 585.101C73.5699 546.494 74.9438 507.587 86.9967 476.85C93.0339 461.453 101.766 448.063 114.191 437.792C126.62 427.517 142.666 420.428 163.225 417.519C226.54 408.559 281.966 366.657 318.384 324.267C338.637 300.692 365.427 281.394 396.898 280.343C447.938 278.638 510.861 283.171 565.502 301.657C620.136 320.141 666.738 352.671 684.613 407.113C717.378 506.908 783.609 571.624 830.766 603.844C850.062 617.028 864.969 638.108 863.162 661.83C861.26 686.809 856.584 702.705 849.984 711.691C846.657 716.221 842.809 719.036 838.563 720.319C834.326 721.599 829.84 721.308 825.303 719.887C816.286 717.063 806.798 709.696 797.919 700.527Z" stroke="#E06121" stroke-width="2"/>
</g>
<g filter="url(#filter7_f_1_599)">
<path d="M776.084 667.764L776.122 667.809L776.154 667.858L776.169 667.883C783.004 678.409 791.329 689.412 800.074 698.44C808.851 707.503 817.911 714.429 826.199 717.024C830.313 718.312 834.169 718.512 837.696 717.447C841.213 716.385 844.551 714.02 847.566 709.915C853.648 701.634 858.278 686.451 860.171 661.602C861.867 639.336 847.86 619.156 829.074 606.321C781.511 573.824 714.781 508.614 681.762 408.049C664.303 354.871 618.723 322.83 564.541 304.499C510.364 286.17 447.835 281.643 396.998 283.341C366.731 284.352 340.659 302.942 320.659 326.222C283.979 368.917 227.95 411.389 163.646 420.489C143.56 423.332 128.05 430.227 116.102 440.104C104.149 449.986 95.6827 462.916 89.7896 477.945C77.9819 508.057 76.5692 546.417 78.0713 584.984C78.9428 607.358 87.7945 628.95 105.274 642.616C136.959 667.388 181.465 688.72 230.772 686.194C280.006 683.671 334.334 657.343 385.713 586.201C415.72 544.652 450.207 522.863 486.364 515.184C522.488 507.511 560.106 513.957 596.352 528.552C668.805 557.729 736.17 619.63 776.066 667.742C776.066 667.742 776.066 667.742 776.066 667.742L776.084 667.764ZM797.919 700.527C789.026 691.346 780.602 680.21 773.701 669.59C733.964 621.687 667.008 560.24 595.231 531.335C559.344 516.884 522.352 510.607 486.988 518.118C451.658 525.622 417.779 546.925 388.145 587.958C336.355 659.668 281.257 686.61 230.925 689.19C180.667 691.765 135.468 670.031 103.427 644.98C85.0997 630.651 75.9711 608.143 75.0736 585.101C73.5699 546.494 74.9438 507.587 86.9967 476.85C93.0339 461.453 101.766 448.063 114.191 437.792C126.62 427.517 142.666 420.428 163.225 417.519C226.54 408.559 281.966 366.657 318.384 324.267C338.637 300.692 365.427 281.394 396.898 280.343C447.938 278.638 510.861 283.171 565.502 301.657C620.136 320.141 666.738 352.671 684.613 407.113C717.378 506.908 783.609 571.624 830.766 603.844C850.062 617.028 864.969 638.108 863.162 661.83C861.26 686.809 856.584 702.705 849.984 711.691C846.657 716.221 842.809 719.036 838.563 720.319C834.326 721.599 829.84 721.308 825.303 719.887C816.286 717.063 806.798 709.696 797.919 700.527Z" stroke="#E06121" stroke-width="2"/>
</g>
<g filter="url(#filter8_f_1_599)">
<path d="M776.084 667.764L776.122 667.809L776.154 667.858L776.169 667.883C783.004 678.409 791.329 689.412 800.074 698.44C808.851 707.503 817.911 714.429 826.199 717.024C830.313 718.312 834.169 718.512 837.696 717.447C841.213 716.385 844.551 714.02 847.566 709.915C853.648 701.634 858.278 686.451 860.171 661.602C861.867 639.336 847.86 619.156 829.074 606.321C781.511 573.824 714.781 508.614 681.762 408.049C664.303 354.871 618.723 322.83 564.541 304.499C510.364 286.17 447.835 281.643 396.998 283.341C366.731 284.352 340.659 302.942 320.659 326.222C283.979 368.917 227.95 411.389 163.646 420.489C143.56 423.332 128.05 430.227 116.102 440.104C104.149 449.986 95.6827 462.916 89.7896 477.945C77.9819 508.057 76.5692 546.417 78.0713 584.984C78.9428 607.358 87.7945 628.95 105.274 642.616C136.959 667.388 181.465 688.72 230.772 686.194C280.006 683.671 334.334 657.343 385.713 586.201C415.72 544.652 450.207 522.863 486.364 515.184C522.488 507.511 560.106 513.957 596.352 528.552C668.805 557.729 736.17 619.63 776.066 667.742C776.066 667.742 776.066 667.742 776.066 667.742L776.084 667.764ZM797.919 700.527C789.026 691.346 780.602 680.21 773.701 669.59C733.964 621.687 667.008 560.24 595.231 531.335C559.344 516.884 522.352 510.607 486.988 518.118C451.658 525.622 417.779 546.925 388.145 587.958C336.355 659.668 281.257 686.61 230.925 689.19C180.667 691.765 135.468 670.031 103.427 644.98C85.0997 630.651 75.9711 608.143 75.0736 585.101C73.5699 546.494 74.9438 507.587 86.9967 476.85C93.0339 461.453 101.766 448.063 114.191 437.792C126.62 427.517 142.666 420.428 163.225 417.519C226.54 408.559 281.966 366.657 318.384 324.267C338.637 300.692 365.427 281.394 396.898 280.343C447.938 278.638 510.861 283.171 565.502 301.657C620.136 320.141 666.738 352.671 684.613 407.113C717.378 506.908 783.609 571.624 830.766 603.844C850.062 617.028 864.969 638.108 863.162 661.83C861.26 686.809 856.584 702.705 849.984 711.691C846.657 716.221 842.809 719.036 838.563 720.319C834.326 721.599 829.84 721.308 825.303 719.887C816.286 717.063 806.798 709.696 797.919 700.527Z" stroke="#E06121" stroke-width="2"/>
</g>
<path fill-rule="evenodd" clip-rule="evenodd" d="M564.861 303.552C619.194 321.934 665.114 354.138 682.713 407.737C715.647 508.046 782.211 573.09 829.638 605.495C848.594 618.447 862.901 638.927 861.168 661.678C859.272 686.571 854.627 701.991 848.372 710.507C845.253 714.753 841.745 717.269 837.985 718.404C834.221 719.541 830.156 719.311 825.9 717.978C817.37 715.307 808.167 708.234 799.355 699.136C790.554 690.05 782.19 678.993 775.331 668.427L775.315 668.403L775.296 668.38C735.455 620.335 668.217 558.571 595.978 529.48C559.852 514.932 522.443 508.543 486.572 516.162C450.69 523.783 416.406 545.41 386.524 586.787C335.007 658.118 280.423 684.651 230.823 687.192C181.199 689.735 136.462 668.269 104.658 643.404C86.8963 629.517 77.9522 607.62 77.0721 585.023C75.5694 546.443 76.9692 507.901 88.8586 477.58C94.7997 462.429 103.355 449.345 115.465 439.334C127.573 429.324 143.262 422.364 163.506 419.499C227.48 410.446 283.308 368.164 319.901 325.57C339.985 302.192 366.296 283.366 396.964 282.342C447.869 280.641 510.53 285.17 564.861 303.552ZM565.181 302.604C510.696 284.171 447.904 279.64 396.931 281.342C365.862 282.38 339.311 301.442 319.142 324.918C282.637 367.41 227.01 409.502 163.366 418.509C142.964 421.396 127.097 428.42 114.828 438.563C102.56 448.704 93.9168 461.941 87.9276 477.215C75.9565 507.744 74.5697 546.469 76.0728 585.062C76.9617 607.882 85.998 630.084 104.043 644.192C135.965 669.15 180.933 690.75 230.874 688.191C280.84 685.631 335.681 658.893 387.334 587.372C417.093 546.167 451.174 524.703 486.78 517.14C522.397 509.575 559.598 515.908 595.605 530.408C667.618 559.407 734.72 621.02 774.508 668.996C781.389 679.593 789.787 690.694 798.637 699.832C807.483 708.965 816.828 716.185 825.601 718.933C829.998 720.309 834.274 720.57 838.274 719.362C842.277 718.152 845.955 715.487 849.178 711.099C855.606 702.348 860.266 686.69 862.165 661.754C863.935 638.517 849.328 617.737 830.202 604.669C782.91 572.357 716.513 507.477 683.663 407.425C665.926 353.405 619.665 321.037 565.181 302.604Z" fill="white"/>
</g>
<g opacity="0.571429">
<g filter="url(#filter9_f_1_599)">
<path d="M801.405 676.961L801.446 677.002L801.482 677.048L801.5 677.071C809.226 686.962 818.478 697.197 827.977 705.429C837.511 713.692 847.14 719.802 855.622 721.665C859.833 722.59 863.691 722.453 867.112 721.085C870.523 719.72 873.643 717.073 876.288 712.721C881.626 703.942 884.915 688.413 884.635 663.494C884.383 641.164 868.671 622.282 848.838 611.133C798.624 582.904 726.464 523.759 684.806 426.454C662.778 375 614.58 347.054 559.006 333.515C503.438 319.977 440.752 320.917 390.256 327.04C360.193 330.685 335.841 351.476 317.946 376.41C285.126 422.14 233.012 469.334 169.746 484.004C149.984 488.586 135.134 496.807 124.092 507.688C113.046 518.573 105.739 532.193 101.178 547.678C92.0397 578.705 93.9757 617.042 98.8334 655.331C101.652 677.544 112.351 698.282 130.956 710.373C164.679 732.289 210.875 749.661 259.774 742.847C308.601 736.043 360.427 705.08 405.41 629.731C431.682 585.725 464.139 561.013 499.489 550.211C534.807 539.419 572.844 542.562 610.223 553.943C684.943 576.694 757.447 632.488 801.385 676.94C801.385 676.94 801.385 676.94 801.385 676.94L801.405 676.961ZM826.012 707.696C816.353 699.325 806.99 688.965 799.19 678.987C755.429 634.73 683.373 579.352 609.349 556.813C572.34 545.544 534.941 542.515 500.366 553.08C465.824 563.635 433.932 587.809 407.986 631.269C362.644 707.22 310.103 738.862 260.188 745.818C210.345 752.764 163.424 735.052 129.321 712.889C109.815 700.212 98.7596 678.585 95.8573 655.708C90.9945 617.38 88.9722 578.501 98.3003 546.83C102.973 530.966 110.505 516.866 121.987 505.551C133.473 494.232 148.841 485.772 169.068 481.082C231.361 466.637 282.924 420.064 315.508 374.661C333.63 349.411 358.636 327.852 389.895 324.062C440.593 317.915 503.672 316.946 559.716 330.6C615.753 344.252 665.013 372.597 687.564 425.273C728.903 521.833 800.522 580.53 850.308 608.517C870.679 619.969 887.367 639.67 887.634 663.46C887.916 688.509 884.644 704.752 878.852 714.28C875.932 719.082 872.345 722.222 868.226 723.87C864.117 725.514 859.623 725.615 854.979 724.595C845.751 722.568 835.657 716.055 826.012 707.696Z" stroke="#E06121" stroke-width="2"/>
</g>
<g filter="url(#filter10_f_1_599)">
<path d="M801.405 676.961L801.446 677.002L801.482 677.048L801.5 677.071C809.226 686.962 818.478 697.197 827.977 705.429C837.511 713.692 847.14 719.802 855.622 721.665C859.833 722.59 863.691 722.453 867.112 721.085C870.523 719.72 873.643 717.073 876.288 712.721C881.626 703.942 884.915 688.413 884.635 663.494C884.383 641.164 868.671 622.282 848.838 611.133C798.624 582.904 726.464 523.759 684.806 426.454C662.778 375 614.58 347.054 559.006 333.515C503.438 319.977 440.752 320.917 390.256 327.04C360.193 330.685 335.841 351.476 317.946 376.41C285.126 422.14 233.012 469.334 169.746 484.004C149.984 488.586 135.134 496.807 124.092 507.688C113.046 518.573 105.739 532.193 101.178 547.678C92.0397 578.705 93.9757 617.042 98.8334 655.331C101.652 677.544 112.351 698.282 130.956 710.373C164.679 732.289 210.875 749.661 259.774 742.847C308.601 736.043 360.427 705.08 405.41 629.731C431.682 585.725 464.139 561.013 499.489 550.211C534.807 539.419 572.844 542.562 610.223 553.943C684.943 576.694 757.447 632.488 801.385 676.94C801.385 676.94 801.385 676.94 801.385 676.94L801.405 676.961ZM826.012 707.696C816.353 699.325 806.99 688.965 799.19 678.987C755.429 634.73 683.373 579.352 609.349 556.813C572.34 545.544 534.941 542.515 500.366 553.08C465.824 563.635 433.932 587.809 407.986 631.269C362.644 707.22 310.103 738.862 260.188 745.818C210.345 752.764 163.424 735.052 129.321 712.889C109.815 700.212 98.7596 678.585 95.8573 655.708C90.9945 617.38 88.9722 578.501 98.3003 546.83C102.973 530.966 110.505 516.866 121.987 505.551C133.473 494.232 148.841 485.772 169.068 481.082C231.361 466.637 282.924 420.064 315.508 374.661C333.63 349.411 358.636 327.852 389.895 324.062C440.593 317.915 503.672 316.946 559.716 330.6C615.753 344.252 665.013 372.597 687.564 425.273C728.903 521.833 800.522 580.53 850.308 608.517C870.679 619.969 887.367 639.67 887.634 663.46C887.916 688.509 884.644 704.752 878.852 714.28C875.932 719.082 872.345 722.222 868.226 723.87C864.117 725.514 859.623 725.615 854.979 724.595C845.751 722.568 835.657 716.055 826.012 707.696Z" stroke="#E06121" stroke-width="2"/>
</g>
<g filter="url(#filter11_f_1_599)">
<path d="M801.405 676.961L801.446 677.002L801.482 677.048L801.5 677.071C809.226 686.962 818.478 697.197 827.977 705.429C837.511 713.692 847.14 719.802 855.622 721.665C859.833 722.59 863.691 722.453 867.112 721.085C870.523 719.72 873.643 717.073 876.288 712.721C881.626 703.942 884.915 688.413 884.635 663.494C884.383 641.164 868.671 622.282 848.838 611.133C798.624 582.904 726.464 523.759 684.806 426.454C662.778 375 614.58 347.054 559.006 333.515C503.438 319.977 440.752 320.917 390.256 327.04C360.193 330.685 335.841 351.476 317.946 376.41C285.126 422.14 233.012 469.334 169.746 484.004C149.984 488.586 135.134 496.807 124.092 507.688C113.046 518.573 105.739 532.193 101.178 547.678C92.0397 578.705 93.9757 617.042 98.8334 655.331C101.652 677.544 112.351 698.282 130.956 710.373C164.679 732.289 210.875 749.661 259.774 742.847C308.601 736.043 360.427 705.08 405.41 629.731C431.682 585.725 464.139 561.013 499.489 550.211C534.807 539.419 572.844 542.562 610.223 553.943C684.943 576.694 757.447 632.488 801.385 676.94C801.385 676.94 801.385 676.94 801.385 676.94L801.405 676.961ZM826.012 707.696C816.353 699.325 806.99 688.965 799.19 678.987C755.429 634.73 683.373 579.352 609.349 556.813C572.34 545.544 534.941 542.515 500.366 553.08C465.824 563.635 433.932 587.809 407.986 631.269C362.644 707.22 310.103 738.862 260.188 745.818C210.345 752.764 163.424 735.052 129.321 712.889C109.815 700.212 98.7596 678.585 95.8573 655.708C90.9945 617.38 88.9722 578.501 98.3003 546.83C102.973 530.966 110.505 516.866 121.987 505.551C133.473 494.232 148.841 485.772 169.068 481.082C231.361 466.637 282.924 420.064 315.508 374.661C333.63 349.411 358.636 327.852 389.895 324.062C440.593 317.915 503.672 316.946 559.716 330.6C615.753 344.252 665.013 372.597 687.564 425.273C728.903 521.833 800.522 580.53 850.308 608.517C870.679 619.969 887.367 639.67 887.634 663.46C887.916 688.509 884.644 704.752 878.852 714.28C875.932 719.082 872.345 722.222 868.226 723.87C864.117 725.514 859.623 725.615 854.979 724.595C845.751 722.568 835.657 716.055 826.012 707.696Z" stroke="#E06121" stroke-width="2"/>
</g>
<path fill-rule="evenodd" clip-rule="evenodd" d="M559.242 332.543C614.971 346.12 663.523 374.199 685.726 426.06C727.277 523.117 799.257 582.113 849.328 610.261C869.34 621.511 885.378 640.666 885.634 663.482C885.916 688.445 882.632 704.212 877.143 713.241C874.406 717.742 871.13 720.554 867.483 722.013C863.833 723.473 859.763 723.598 855.408 722.642C846.677 720.724 836.893 714.48 827.322 706.185C817.762 697.9 808.466 687.614 800.712 677.687L800.694 677.664L800.674 677.643C756.797 633.253 684.431 577.584 609.932 554.9C572.676 543.556 534.852 540.451 499.782 551.167C464.701 561.887 432.432 586.42 406.269 630.244C361.166 705.793 309.101 736.982 259.912 743.837C210.698 750.696 164.261 733.21 130.411 711.212C111.506 698.926 100.688 677.891 97.8413 655.457C92.982 617.155 91.0172 578.637 100.219 547.395C104.817 531.784 112.199 518.004 123.39 506.976C134.58 495.949 149.603 487.648 169.52 483.03C232.461 468.435 284.392 421.448 317.133 375.827C335.104 350.788 359.674 329.74 390.136 326.047C440.699 319.916 503.516 318.967 559.242 332.543ZM559.479 331.572C503.594 317.957 440.646 318.916 390.016 325.054C359.155 328.796 334.367 350.099 316.321 375.244C283.658 420.756 231.911 467.536 169.294 482.056C149.222 486.71 134.027 495.09 122.689 506.264C111.352 517.435 103.895 531.375 99.2595 547.113C89.9947 578.569 91.9883 617.267 96.8493 655.583C99.7236 678.238 110.661 699.569 129.866 712.05C163.842 734.131 210.522 751.73 260.05 744.828C309.602 737.922 361.905 706.506 407.128 630.756C433.182 587.114 465.262 562.761 500.074 552.124C534.896 541.483 572.508 544.55 609.641 555.857C683.908 578.469 756.124 634 799.942 678.325C807.721 688.282 817.054 698.609 826.667 706.94C836.275 715.268 846.214 721.646 855.193 723.618C859.693 724.607 863.975 724.494 867.855 722.941C871.738 721.388 875.169 718.412 877.997 713.76C883.638 704.482 886.916 688.477 886.634 663.471C886.372 640.168 870.01 620.74 849.818 609.389C799.889 581.321 728.09 522.475 686.645 425.667C664.268 373.398 615.362 345.186 559.479 331.572Z" fill="white"/>
</g>
<g opacity="0.714286">
<g filter="url(#filter12_f_1_599)">
<path d="M827.886 684.332L827.93 684.37L827.97 684.412L827.99 684.434C836.549 693.614 846.658 703.003 856.837 710.376C867.056 717.777 877.181 723.024 885.793 724.141C890.069 724.695 893.9 724.223 897.188 722.561C900.468 720.904 903.345 717.995 905.601 713.43C910.153 704.218 912.076 688.462 909.625 663.662C907.428 641.439 890.13 623.998 869.401 614.62C816.918 590.876 739.878 538.245 689.898 444.941C663.469 395.602 613.018 371.963 556.475 363.319C499.939 354.676 437.574 361.076 387.804 371.576C358.172 377.828 335.725 400.662 320.071 427.062C291.363 475.478 243.56 527.034 181.813 547.162C162.526 553.449 148.449 562.933 138.397 574.735C128.342 586.542 122.249 600.746 119.056 616.57C112.656 648.275 117.926 686.298 126.102 724.018C130.846 745.9 143.313 765.627 162.9 776.051C198.405 794.944 245.939 808.224 294.058 797.174C342.106 786.14 391.037 750.778 429.282 671.795C451.618 625.667 481.797 598.22 516.072 584.378C550.315 570.549 588.481 570.365 626.71 578.445C703.128 594.597 780.219 643.859 827.864 684.313C827.864 684.313 827.864 684.313 827.864 684.313L827.886 684.332ZM855.078 712.806C844.726 705.308 834.496 695.804 825.856 686.543C778.404 646.269 701.795 597.382 626.089 581.38C588.238 573.38 550.718 573.622 517.195 587.16C483.705 600.685 454.041 627.547 431.982 673.103C393.431 752.716 343.848 788.818 294.729 800.097C245.682 811.361 197.395 797.806 161.491 778.699C140.954 767.771 128.056 747.19 123.171 724.653C114.986 686.894 109.583 648.34 116.115 615.976C119.387 599.765 125.661 585.063 136.113 572.79C146.57 560.512 161.141 550.745 180.883 544.31C241.68 524.492 288.988 473.601 317.491 425.531C333.343 398.798 356.375 375.141 387.185 368.641C437.154 358.099 499.908 351.637 556.929 360.354C613.943 369.07 665.485 393.014 692.542 443.524C742.139 536.113 818.602 588.345 870.637 611.887C891.93 621.52 910.27 639.692 912.61 663.367C915.074 688.296 913.23 704.763 908.29 714.759C905.8 719.797 902.501 723.238 898.541 725.239C894.591 727.235 890.123 727.727 885.407 727.116C876.038 725.901 865.415 720.292 855.078 712.806Z" stroke="#E06121" stroke-width="2"/>
</g>
<g filter="url(#filter13_f_1_599)">
<path d="M827.886 684.332L827.93 684.37L827.97 684.412L827.99 684.434C836.549 693.614 846.658 703.003 856.837 710.376C867.056 717.777 877.181 723.024 885.793 724.141C890.069 724.695 893.9 724.223 897.188 722.561C900.468 720.904 903.345 717.995 905.601 713.43C910.153 704.218 912.076 688.462 909.625 663.662C907.428 641.439 890.13 623.998 869.401 614.62C816.918 590.876 739.878 538.245 689.898 444.941C663.469 395.602 613.018 371.963 556.475 363.319C499.939 354.676 437.574 361.076 387.804 371.576C358.172 377.828 335.725 400.662 320.071 427.062C291.363 475.478 243.56 527.034 181.813 547.162C162.526 553.449 148.449 562.933 138.397 574.735C128.342 586.542 122.249 600.746 119.056 616.57C112.656 648.275 117.926 686.298 126.102 724.018C130.846 745.9 143.313 765.627 162.9 776.051C198.405 794.944 245.939 808.224 294.058 797.174C342.106 786.14 391.037 750.778 429.282 671.795C451.618 625.667 481.797 598.22 516.072 584.378C550.315 570.549 588.481 570.365 626.71 578.445C703.128 594.597 780.219 643.859 827.864 684.313C827.864 684.313 827.864 684.313 827.864 684.313L827.886 684.332ZM855.078 712.806C844.726 705.308 834.496 695.804 825.856 686.543C778.404 646.269 701.795 597.382 626.089 581.38C588.238 573.38 550.718 573.622 517.195 587.16C483.705 600.685 454.041 627.547 431.982 673.103C393.431 752.716 343.848 788.818 294.729 800.097C245.682 811.361 197.395 797.806 161.491 778.699C140.954 767.771 128.056 747.19 123.171 724.653C114.986 686.894 109.583 648.34 116.115 615.976C119.387 599.765 125.661 585.063 136.113 572.79C146.57 560.512 161.141 550.745 180.883 544.31C241.68 524.492 288.988 473.601 317.491 425.531C333.343 398.798 356.375 375.141 387.185 368.641C437.154 358.099 499.908 351.637 556.929 360.354C613.943 369.07 665.485 393.014 692.542 443.524C742.139 536.113 818.602 588.345 870.637 611.887C891.93 621.52 910.27 639.692 912.61 663.367C915.074 688.296 913.23 704.763 908.29 714.759C905.8 719.797 902.501 723.238 898.541 725.239C894.591 727.235 890.123 727.727 885.407 727.116C876.038 725.901 865.415 720.292 855.078 712.806Z" stroke="#E06121" stroke-width="2"/>
</g>
<g filter="url(#filter14_f_1_599)">
<path d="M827.886 684.332L827.93 684.37L827.97 684.412L827.99 684.434C836.549 693.614 846.658 703.003 856.837 710.376C867.056 717.777 877.181 723.024 885.793 724.141C890.069 724.695 893.9 724.223 897.188 722.561C900.468 720.904 903.345 717.995 905.601 713.43C910.153 704.218 912.076 688.462 909.625 663.662C907.428 641.439 890.13 623.998 869.401 614.62C816.918 590.876 739.878 538.245 689.898 444.941C663.469 395.602 613.018 371.963 556.475 363.319C499.939 354.676 437.574 361.076 387.804 371.576C358.172 377.828 335.725 400.662 320.071 427.062C291.363 475.478 243.56 527.034 181.813 547.162C162.526 553.449 148.449 562.933 138.397 574.735C128.342 586.542 122.249 600.746 119.056 616.57C112.656 648.275 117.926 686.298 126.102 724.018C130.846 745.9 143.313 765.627 162.9 776.051C198.405 794.944 245.939 808.224 294.058 797.174C342.106 786.14 391.037 750.778 429.282 671.795C451.618 625.667 481.797 598.22 516.072 584.378C550.315 570.549 588.481 570.365 626.71 578.445C703.128 594.597 780.219 643.859 827.864 684.313C827.864 684.313 827.864 684.313 827.864 684.313L827.886 684.332ZM855.078 712.806C844.726 705.308 834.496 695.804 825.856 686.543C778.404 646.269 701.795 597.382 626.089 581.38C588.238 573.38 550.718 573.622 517.195 587.16C483.705 600.685 454.041 627.547 431.982 673.103C393.431 752.716 343.848 788.818 294.729 800.097C245.682 811.361 197.395 797.806 161.491 778.699C140.954 767.771 128.056 747.19 123.171 724.653C114.986 686.894 109.583 648.34 116.115 615.976C119.387 599.765 125.661 585.063 136.113 572.79C146.57 560.512 161.141 550.745 180.883 544.31C241.68 524.492 288.988 473.601 317.491 425.531C333.343 398.798 356.375 375.141 387.185 368.641C437.154 358.099 499.908 351.637 556.929 360.354C613.943 369.07 665.485 393.014 692.542 443.524C742.139 536.113 818.602 588.345 870.637 611.887C891.93 621.52 910.27 639.692 912.61 663.367C915.074 688.296 913.23 704.763 908.29 714.759C905.8 719.797 902.501 723.238 898.541 725.239C894.591 727.235 890.123 727.727 885.407 727.116C876.038 725.901 865.415 720.292 855.078 712.806Z" stroke="#E06121" stroke-width="2"/>
</g>
<path fill-rule="evenodd" clip-rule="evenodd" d="M556.627 362.331C613.326 370.999 664.141 394.74 690.779 444.468C740.632 537.534 817.479 590.032 869.813 613.709C890.73 623.172 908.376 640.857 910.62 663.564C913.076 688.407 911.179 704.4 906.497 713.873C904.163 718.596 901.145 721.682 897.639 723.454C894.13 725.227 890.087 725.706 885.665 725.132C876.8 723.983 866.509 718.615 856.251 711.186C846.006 703.766 835.849 694.329 827.259 685.115L827.239 685.094L827.217 685.075C779.638 644.678 702.696 595.528 626.503 579.424C588.4 571.37 550.449 571.573 516.447 585.306C482.433 599.042 452.425 626.294 430.182 672.231C391.835 751.424 342.687 787.032 294.282 798.148C245.853 809.27 198.068 795.898 162.43 776.934C142.526 766.342 129.916 746.33 125.125 724.229C116.946 686.497 111.632 648.297 118.075 616.372C121.295 600.419 127.448 586.049 137.636 574.087C147.822 562.126 162.064 552.548 181.503 546.211C242.933 526.187 290.571 474.852 319.211 426.552C334.931 400.041 357.573 376.932 387.598 370.598C437.434 360.084 499.929 353.663 556.627 362.331ZM556.778 361.342C499.919 352.65 437.294 359.091 387.391 369.62C356.974 376.037 334.137 399.419 318.351 426.041C289.779 474.227 242.307 525.339 181.193 545.261C161.603 551.647 147.196 561.319 136.875 573.438C126.555 585.556 120.341 600.092 117.095 616.174C110.607 648.318 115.966 686.695 124.148 724.441C128.986 746.76 141.74 767.056 161.961 777.816C197.732 796.852 245.767 810.315 294.506 799.123C343.268 787.925 392.633 752.07 431.082 672.667C453.233 626.92 483.069 599.864 516.821 586.233C550.584 572.598 588.319 572.375 626.296 580.402C702.252 596.456 779.033 645.481 826.547 685.819C835.164 695.059 845.362 704.534 855.664 711.996C865.962 719.454 876.419 724.942 885.536 726.124C890.105 726.717 894.361 726.231 898.09 724.346C901.823 722.46 904.982 719.196 907.394 714.316C912.204 704.581 914.075 688.352 911.615 663.465C909.323 640.274 891.33 622.346 870.225 612.798C818.04 589.189 741.385 536.824 691.661 443.996C664.813 393.877 613.635 370.034 556.778 361.342Z" fill="white"/>
</g>
<g opacity="0.857143">
<g filter="url(#filter15_f_1_599)">
<path d="M855.363 689.784L855.411 689.817L855.454 689.857L855.476 689.876C864.802 698.275 875.691 706.748 886.474 713.206C897.299 719.688 907.843 724.032 916.52 724.394C920.827 724.574 924.603 723.769 927.734 721.827C930.856 719.891 933.469 716.742 935.318 711.998C939.05 702.425 939.593 686.561 934.99 662.069C930.864 640.122 912.112 624.255 890.644 616.719C836.291 597.639 754.958 551.923 697.036 463.33C666.407 416.483 614.088 397.331 557.007 393.648C499.933 389.965 438.363 401.776 389.697 416.574C360.723 425.384 340.352 450.088 327.058 477.751C302.679 528.486 259.551 584.012 199.793 609.445C181.127 617.389 167.931 628.064 158.946 640.697C149.958 653.335 145.127 668.016 143.324 684.058C139.713 716.201 148.276 753.619 159.709 790.483C166.342 811.869 180.48 830.435 200.902 839.111C237.918 854.838 286.429 863.924 333.401 848.722C380.305 833.543 425.967 794.051 457.183 712.035C475.414 664.136 503.086 634.164 536.024 617.387C568.931 600.626 606.936 597.116 645.724 601.834C723.259 611.264 804.35 653.62 855.339 689.767C855.339 689.767 855.339 689.767 855.34 689.767L855.363 689.784ZM884.933 715.779C873.967 709.212 862.948 700.636 853.533 692.164C802.752 656.178 722.174 614.154 645.362 604.812C606.957 600.141 569.601 603.652 537.386 620.06C505.202 636.453 477.991 665.798 459.987 713.102C428.522 795.773 382.274 836.058 334.325 851.577C286.446 867.072 237.162 857.777 199.729 841.872C178.318 832.775 163.674 813.397 156.844 791.372C145.399 754.47 136.656 716.533 140.343 683.723C142.19 667.289 147.159 652.095 156.502 638.958C165.848 625.816 179.513 614.816 198.618 606.685C257.457 581.643 300.149 526.823 324.354 476.452C337.816 448.438 358.699 422.864 388.825 413.704C437.685 398.847 499.637 386.94 557.201 390.654C614.757 394.368 668.19 413.728 699.547 461.688C757.025 549.602 837.748 594.971 891.638 613.888C913.689 621.629 933.543 638.133 937.938 661.514C942.565 686.134 942.163 702.699 938.113 713.087C936.072 718.323 933.085 722.039 929.315 724.377C925.554 726.71 921.146 727.59 916.395 727.392C906.955 726.998 895.883 722.337 884.933 715.779Z" stroke="#E06121" stroke-width="2"/>
</g>
<g filter="url(#filter16_f_1_599)">
<path d="M855.363 689.784L855.411 689.817L855.454 689.857L855.476 689.876C864.802 698.275 875.691 706.748 886.474 713.206C897.299 719.688 907.843 724.032 916.52 724.394C920.827 724.574 924.603 723.769 927.734 721.827C930.856 719.891 933.469 716.742 935.318 711.998C939.05 702.425 939.593 686.561 934.99 662.069C930.864 640.122 912.112 624.255 890.644 616.719C836.291 597.639 754.958 551.923 697.036 463.33C666.407 416.483 614.088 397.331 557.007 393.648C499.933 389.965 438.363 401.776 389.697 416.574C360.723 425.384 340.352 450.088 327.058 477.751C302.679 528.486 259.551 584.012 199.793 609.445C181.127 617.389 167.931 628.064 158.946 640.697C149.958 653.335 145.127 668.016 143.324 684.058C139.713 716.201 148.276 753.619 159.709 790.483C166.342 811.869 180.48 830.435 200.902 839.111C237.918 854.838 286.429 863.924 333.401 848.722C380.305 833.543 425.967 794.051 457.183 712.035C475.414 664.136 503.086 634.164 536.024 617.387C568.931 600.626 606.936 597.116 645.724 601.834C723.259 611.264 804.35 653.62 855.339 689.767C855.339 689.767 855.339 689.767 855.34 689.767L855.363 689.784ZM884.933 715.779C873.967 709.212 862.948 700.636 853.533 692.164C802.752 656.178 722.174 614.154 645.362 604.812C606.957 600.141 569.601 603.652 537.386 620.06C505.202 636.453 477.991 665.798 459.987 713.102C428.522 795.773 382.274 836.058 334.325 851.577C286.446 867.072 237.162 857.777 199.729 841.872C178.318 832.775 163.674 813.397 156.844 791.372C145.399 754.47 136.656 716.533 140.343 683.723C142.19 667.289 147.159 652.095 156.502 638.958C165.848 625.816 179.513 614.816 198.618 606.685C257.457 581.643 300.149 526.823 324.354 476.452C337.816 448.438 358.699 422.864 388.825 413.704C437.685 398.847 499.637 386.94 557.201 390.654C614.757 394.368 668.19 413.728 699.547 461.688C757.025 549.602 837.748 594.971 891.638 613.888C913.689 621.629 933.543 638.133 937.938 661.514C942.565 686.134 942.163 702.699 938.113 713.087C936.072 718.323 933.085 722.039 929.315 724.377C925.554 726.71 921.146 727.59 916.395 727.392C906.955 726.998 895.883 722.337 884.933 715.779Z" stroke="#E06121" stroke-width="2"/>
</g>
<g filter="url(#filter17_f_1_599)">
<path d="M855.363 689.784L855.411 689.817L855.454 689.857L855.476 689.876C864.802 698.275 875.691 706.748 886.474 713.206C897.299 719.688 907.843 724.032 916.52 724.394C920.827 724.574 924.603 723.769 927.734 721.827C930.856 719.891 933.469 716.742 935.318 711.998C939.05 702.425 939.593 686.561 934.99 662.069C930.864 640.122 912.112 624.255 890.644 616.719C836.291 597.639 754.958 551.923 697.036 463.33C666.407 416.483 614.088 397.331 557.007 393.648C499.933 389.965 438.363 401.776 389.697 416.574C360.723 425.384 340.352 450.088 327.058 477.751C302.679 528.486 259.551 584.012 199.793 609.445C181.127 617.389 167.931 628.064 158.946 640.697C149.958 653.335 145.127 668.016 143.324 684.058C139.713 716.201 148.276 753.619 159.709 790.483C166.342 811.869 180.48 830.435 200.902 839.111C237.918 854.838 286.429 863.924 333.401 848.722C380.305 833.543 425.967 794.051 457.183 712.035C475.414 664.136 503.086 634.164 536.024 617.387C568.931 600.626 606.936 597.116 645.724 601.834C723.259 611.264 804.35 653.62 855.339 689.767C855.339 689.767 855.339 689.767 855.34 689.767L855.363 689.784ZM884.933 715.779C873.967 709.212 862.948 700.636 853.533 692.164C802.752 656.178 722.174 614.154 645.362 604.812C606.957 600.141 569.601 603.652 537.386 620.06C505.202 636.453 477.991 665.798 459.987 713.102C428.522 795.773 382.274 836.058 334.325 851.577C286.446 867.072 237.162 857.777 199.729 841.872C178.318 832.775 163.674 813.397 156.844 791.372C145.399 754.47 136.656 716.533 140.343 683.723C142.19 667.289 147.159 652.095 156.502 638.958C165.848 625.816 179.513 614.816 198.618 606.685C257.457 581.643 300.149 526.823 324.354 476.452C337.816 448.438 358.699 422.864 388.825 413.704C437.685 398.847 499.637 386.94 557.201 390.654C614.757 394.368 668.19 413.728 699.547 461.688C757.025 549.602 837.748 594.971 891.638 613.888C913.689 621.629 933.543 638.133 937.938 661.514C942.565 686.134 942.163 702.699 938.113 713.087C936.072 718.323 933.085 722.039 929.315 724.377C925.554 726.71 921.146 727.59 916.395 727.392C906.955 726.998 895.883 722.337 884.933 715.779Z" stroke="#E06121" stroke-width="2"/>
</g>
<path fill-rule="evenodd" clip-rule="evenodd" d="M557.072 392.65C614.311 396.343 667.002 415.565 697.873 462.783C755.647 551.15 836.777 596.75 890.976 615.776C912.638 623.38 931.757 639.459 935.972 661.884C940.584 686.418 940.088 702.516 936.25 712.361C934.336 717.269 931.599 720.607 928.261 722.677C924.92 724.749 920.933 725.579 916.478 725.393C907.547 725.021 896.827 720.571 885.961 714.063C875.108 707.564 864.167 699.049 854.807 690.619L854.785 690.6L854.761 690.583C803.843 654.486 722.91 612.229 645.603 602.826C606.943 598.124 569.155 601.635 536.478 618.278C503.792 634.927 476.273 664.69 458.118 712.391C426.819 794.625 380.961 834.381 333.709 849.674C286.434 864.974 237.666 855.818 200.511 840.031C179.759 831.215 165.453 812.378 158.754 790.779C147.317 753.903 138.694 716.311 142.331 683.947C144.148 667.774 149.025 652.922 158.131 640.117C167.237 627.315 180.589 616.532 199.402 608.525C258.853 583.222 301.835 527.932 326.157 477.318C339.506 449.538 360.049 424.544 389.407 415.617C438.137 400.8 499.835 388.957 557.072 392.65ZM557.136 391.652C499.736 387.948 437.911 399.823 389.116 414.661C359.374 423.704 338.661 448.988 325.256 476.885C300.992 527.377 258.155 582.433 199.01 607.605C180.051 615.674 166.542 626.565 157.317 639.538C148.092 652.508 143.169 667.531 141.337 683.835C137.675 716.422 146.358 754.186 157.799 791.075C164.564 812.888 179.038 831.995 200.12 840.952C237.414 856.797 286.44 866.023 334.017 850.625C381.618 835.22 427.67 795.199 459.052 712.747C477.132 665.244 504.497 635.69 536.932 619.169C569.378 602.643 606.95 599.133 645.482 603.819C722.548 613.192 803.31 655.338 854.159 691.382C863.549 699.836 874.533 708.386 885.447 714.921C896.355 721.454 907.251 726.009 916.436 726.392C921.039 726.584 925.237 725.729 928.788 723.527C932.342 721.323 935.204 717.796 937.182 712.724C941.126 702.607 941.575 686.276 936.955 661.699C932.65 638.796 913.163 622.504 891.307 614.832C837.263 595.861 756.336 550.376 698.71 462.236C667.596 414.646 614.534 395.356 557.136 391.652Z" fill="white"/>
</g>
<g filter="url(#filter18_f_1_599)">
<path d="M883.666 693.237L883.716 693.266L883.763 693.301L883.786 693.319C893.809 700.873 905.395 708.365 916.7 713.858C928.048 719.372 938.93 722.781 947.606 722.385C951.913 722.189 955.604 721.058 958.554 718.851C961.495 716.65 963.824 713.285 965.253 708.398C968.136 698.536 967.294 682.685 960.574 658.687C954.551 637.183 934.487 623.011 912.445 617.375C856.636 603.105 771.627 564.652 706.204 481.444C671.609 437.445 617.82 422.925 560.635 424.231C503.457 425.537 443.151 442.669 395.96 461.652C367.864 472.954 349.723 499.34 338.892 528.056C319.026 580.722 280.902 639.796 223.589 670.341C205.686 679.881 193.47 691.666 185.621 705.034C177.768 718.407 174.235 733.454 173.837 749.591C173.041 781.926 184.833 818.456 199.435 854.183C207.907 874.91 223.609 892.172 244.709 899.036C282.956 911.477 332.073 916.301 377.543 897.063C422.945 877.853 464.991 834.531 488.94 750.107C502.927 700.801 527.882 668.531 559.232 648.948C590.553 629.383 628.107 622.574 667.159 623.893C745.221 626.529 829.695 661.657 883.641 693.222C883.641 693.222 883.641 693.222 883.641 693.222L883.666 693.237ZM915.389 716.556C903.892 710.97 892.167 703.387 882.05 695.767C828.326 664.344 744.392 629.503 667.058 626.891C628.392 625.585 591.484 632.339 560.822 651.492C530.189 670.627 505.64 702.232 491.826 750.926C467.686 836.025 425.126 880.187 378.712 899.825C332.365 919.435 282.458 914.47 243.781 901.889C221.659 894.693 205.383 876.664 196.658 855.318C182.041 819.554 170.025 782.524 170.838 749.518C171.246 732.985 174.872 717.416 183.034 703.515C191.2 689.608 203.854 677.459 222.178 667.693C278.61 637.618 316.362 579.287 336.085 526.997C347.053 497.917 365.628 470.62 394.841 458.869C442.22 439.81 502.899 422.549 560.567 421.232C618.228 419.915 673.146 434.545 708.562 479.59C773.484 562.16 857.855 600.321 913.188 614.469C935.829 620.258 957.047 634.969 963.462 657.878C970.218 682.001 971.261 698.538 968.132 709.24C966.555 714.634 963.903 718.595 960.351 721.253C956.808 723.905 952.493 725.166 947.743 725.382C938.304 725.813 926.869 722.134 915.389 716.556Z" stroke="#E06121" stroke-width="2"/>
</g>
<g filter="url(#filter19_f_1_599)">
<path d="M883.666 693.237L883.716 693.266L883.763 693.301L883.786 693.319C893.809 700.873 905.395 708.365 916.7 713.858C928.048 719.372 938.93 722.781 947.606 722.385C951.913 722.189 955.604 721.058 958.554 718.851C961.495 716.65 963.824 713.285 965.253 708.398C968.136 698.536 967.294 682.685 960.574 658.687C954.551 637.183 934.487 623.011 912.445 617.375C856.636 603.105 771.627 564.652 706.204 481.444C671.609 437.445 617.82 422.925 560.635 424.231C503.457 425.537 443.151 442.669 395.96 461.652C367.864 472.954 349.723 499.34 338.892 528.056C319.026 580.722 280.902 639.796 223.589 670.341C205.686 679.881 193.47 691.666 185.621 705.034C177.768 718.407 174.235 733.454 173.837 749.591C173.041 781.926 184.833 818.456 199.435 854.183C207.907 874.91 223.609 892.172 244.709 899.036C282.956 911.477 332.073 916.301 377.543 897.063C422.945 877.853 464.991 834.531 488.94 750.107C502.927 700.801 527.882 668.531 559.232 648.948C590.553 629.383 628.107 622.574 667.159 623.893C745.221 626.529 829.695 661.657 883.641 693.222C883.641 693.222 883.641 693.222 883.641 693.222L883.666 693.237ZM915.389 716.556C903.892 710.97 892.167 703.387 882.05 695.767C828.326 664.344 744.392 629.503 667.058 626.891C628.392 625.585 591.484 632.339 560.822 651.492C530.189 670.627 505.64 702.232 491.826 750.926C467.686 836.025 425.126 880.187 378.712 899.825C332.365 919.435 282.458 914.47 243.781 901.889C221.659 894.693 205.383 876.664 196.658 855.318C182.041 819.554 170.025 782.524 170.838 749.518C171.246 732.985 174.872 717.416 183.034 703.515C191.2 689.608 203.854 677.459 222.178 667.693C278.61 637.618 316.362 579.287 336.085 526.997C347.053 497.917 365.628 470.62 394.841 458.869C442.22 439.81 502.899 422.549 560.567 421.232C618.228 419.915 673.146 434.545 708.562 479.59C773.484 562.16 857.855 600.321 913.188 614.469C935.829 620.258 957.047 634.969 963.462 657.878C970.218 682.001 971.261 698.538 968.132 709.24C966.555 714.634 963.903 718.595 960.351 721.253C956.808 723.905 952.493 725.166 947.743 725.382C938.304 725.813 926.869 722.134 915.389 716.556Z" stroke="#E06121" stroke-width="2"/>
</g>
<g filter="url(#filter20_f_1_599)">
<path d="M883.666 693.237L883.716 693.266L883.763 693.301L883.786 693.319C893.809 700.873 905.395 708.365 916.7 713.858C928.048 719.372 938.93 722.781 947.606 722.385C951.913 722.189 955.604 721.058 958.554 718.851C961.495 716.65 963.824 713.285 965.253 708.398C968.136 698.536 967.294 682.685 960.574 658.687C954.551 637.183 934.487 623.011 912.445 617.375C856.636 603.105 771.627 564.652 706.204 481.444C671.609 437.445 617.82 422.925 560.635 424.231C503.457 425.537 443.151 442.669 395.96 461.652C367.864 472.954 349.723 499.34 338.892 528.056C319.026 580.722 280.902 639.796 223.589 670.341C205.686 679.881 193.47 691.666 185.621 705.034C177.768 718.407 174.235 733.454 173.837 749.591C173.041 781.926 184.833 818.456 199.435 854.183C207.907 874.91 223.609 892.172 244.709 899.036C282.956 911.477 332.073 916.301 377.543 897.063C422.945 877.853 464.991 834.531 488.94 750.107C502.927 700.801 527.882 668.531 559.232 648.948C590.553 629.383 628.107 622.574 667.159 623.893C745.221 626.529 829.695 661.657 883.641 693.222C883.641 693.222 883.641 693.222 883.641 693.222L883.666 693.237ZM915.389 716.556C903.892 710.97 892.167 703.387 882.05 695.767C828.326 664.344 744.392 629.503 667.058 626.891C628.392 625.585 591.484 632.339 560.822 651.492C530.189 670.627 505.64 702.232 491.826 750.926C467.686 836.025 425.126 880.187 378.712 899.825C332.365 919.435 282.458 914.47 243.781 901.889C221.659 894.693 205.383 876.664 196.658 855.318C182.041 819.554 170.025 782.524 170.838 749.518C171.246 732.985 174.872 717.416 183.034 703.515C191.2 689.608 203.854 677.459 222.178 667.693C278.61 637.618 316.362 579.287 336.085 526.997C347.053 497.917 365.628 470.62 394.841 458.869C442.22 439.81 502.899 422.549 560.567 421.232C618.228 419.915 673.146 434.545 708.562 479.59C773.484 562.16 857.855 600.321 913.188 614.469C935.829 620.258 957.047 634.969 963.462 657.878C970.218 682.001 971.261 698.538 968.132 709.24C966.555 714.634 963.903 718.595 960.351 721.253C956.808 723.905 952.493 725.166 947.743 725.382C938.304 725.813 926.869 722.134 915.389 716.556Z" stroke="#E06121" stroke-width="2"/>
</g>
<path fill-rule="evenodd" clip-rule="evenodd" d="M560.613 423.231C617.956 421.922 672.121 436.478 706.99 480.826C772.246 563.821 857.042 602.177 912.692 616.406C934.935 622.094 955.383 636.445 961.537 658.418C968.269 682.457 969.178 698.536 966.213 708.678C964.734 713.735 962.298 717.298 959.153 719.652C956.005 722.007 952.106 723.181 947.652 723.384C938.722 723.792 927.655 720.293 916.263 714.757C904.885 709.229 893.244 701.7 883.184 694.118L883.161 694.1L883.136 694.085C829.265 662.563 744.957 627.521 667.125 624.892C628.202 623.577 590.864 630.368 559.762 649.796C528.651 669.23 503.831 701.278 489.902 750.38C465.89 835.029 423.672 878.631 377.932 897.983C332.171 917.346 282.79 912.475 244.4 899.987C222.959 893.012 207.065 875.495 198.51 854.561C183.903 818.822 172.036 782.125 172.838 749.567C173.239 733.297 176.803 718.077 184.759 704.527C192.713 690.98 205.075 679.074 223.118 669.458C280.138 639.07 318.138 580.244 337.956 527.703C348.833 498.865 367.119 472.176 395.587 460.725C442.841 441.716 503.271 424.541 560.613 423.231ZM560.59 422.232C503.085 423.545 442.53 440.763 395.214 459.797C366.373 471.398 347.943 498.391 337.02 527.35C317.25 579.765 279.374 638.344 222.648 668.576C204.464 678.266 191.956 690.294 183.896 704.021C175.837 717.746 172.242 733.141 171.838 749.542C171.03 782.325 182.972 819.188 197.584 854.94C206.224 876.079 222.309 893.853 244.091 900.938C282.624 913.473 332.268 918.39 378.322 898.904C424.399 879.409 466.788 835.527 490.864 750.653C504.735 701.755 529.42 669.929 560.292 650.644C591.174 631.353 628.297 624.581 667.091 625.892C744.681 628.512 828.808 663.459 882.606 694.934C892.696 702.537 904.384 710.097 915.826 715.657C927.262 721.214 938.513 724.802 947.697 724.383C952.299 724.173 956.406 722.956 959.752 720.452C963.1 717.947 965.645 714.184 967.172 708.959C970.22 698.537 969.243 682.229 962.499 658.148C956.215 635.707 935.382 621.176 912.94 615.438C857.448 601.249 772.865 562.99 707.776 480.208C672.633 435.512 618.092 420.919 560.59 422.232Z" fill="white"/>
<defs>
<filter id="filter0_f_1_599" x="11.6514" y="155.154" width="847.274" height="592.926" filterUnits="userSpaceOnUse" color-interpolation-filters="sRGB">
<feFlood flood-opacity="0" result="BackgroundImageFix"/>
<feBlend mode="normal" in="SourceGraphic" in2="BackgroundImageFix" result="shape"/>
<feGaussianBlur stdDeviation="20" result="effect1_foregroundBlur_1_599"/>
</filter>
<filter id="filter1_f_1_599" x="36.6514" y="180.154" width="797.274" height="542.926" filterUnits="userSpaceOnUse" color-interpolation-filters="sRGB">
<feFlood flood-opacity="0" result="BackgroundImageFix"/>
<feBlend mode="normal" in="SourceGraphic" in2="BackgroundImageFix" result="shape"/>
<feGaussianBlur stdDeviation="7.5" result="effect1_foregroundBlur_1_599"/>
</filter>
<filter id="filter2_f_1_599" x="47.6514" y="191.154" width="775.274" height="520.926" filterUnits="userSpaceOnUse" color-interpolation-filters="sRGB">
<feFlood flood-opacity="0" result="BackgroundImageFix"/>
<feBlend mode="normal" in="SourceGraphic" in2="BackgroundImageFix" result="shape"/>
<feGaussianBlur stdDeviation="2" result="effect1_foregroundBlur_1_599"/>
</filter>
<filter id="filter3_f_1_599" x="19.8271" y="196.738" width="861.199" height="559.312" filterUnits="userSpaceOnUse" color-interpolation-filters="sRGB">
<feFlood flood-opacity="0" result="BackgroundImageFix"/>
<feBlend mode="normal" in="SourceGraphic" in2="BackgroundImageFix" result="shape"/>
<feGaussianBlur stdDeviation="20" result="effect1_foregroundBlur_1_599"/>
</filter>
<filter id="filter4_f_1_599" x="44.8271" y="221.738" width="811.199" height="509.312" filterUnits="userSpaceOnUse" color-interpolation-filters="sRGB">
<feFlood flood-opacity="0" result="BackgroundImageFix"/>
<feBlend mode="normal" in="SourceGraphic" in2="BackgroundImageFix" result="shape"/>
<feGaussianBlur stdDeviation="7.5" result="effect1_foregroundBlur_1_599"/>
</filter>
<filter id="filter5_f_1_599" x="55.8271" y="232.738" width="789.199" height="487.312" filterUnits="userSpaceOnUse" color-interpolation-filters="sRGB">
<feFlood flood-opacity="0" result="BackgroundImageFix"/>
<feBlend mode="normal" in="SourceGraphic" in2="BackgroundImageFix" result="shape"/>
<feGaussianBlur stdDeviation="2" result="effect1_foregroundBlur_1_599"/>
</filter>
<filter id="filter6_f_1_599" x="33.5786" y="239.011" width="870.732" height="523.123" filterUnits="userSpaceOnUse" color-interpolation-filters="sRGB">
<feFlood flood-opacity="0" result="BackgroundImageFix"/>
<feBlend mode="normal" in="SourceGraphic" in2="BackgroundImageFix" result="shape"/>
<feGaussianBlur stdDeviation="20" result="effect1_foregroundBlur_1_599"/>
</filter>
<filter id="filter7_f_1_599" x="58.5786" y="264.011" width="820.732" height="473.123" filterUnits="userSpaceOnUse" color-interpolation-filters="sRGB">
<feFlood flood-opacity="0" result="BackgroundImageFix"/>
<feBlend mode="normal" in="SourceGraphic" in2="BackgroundImageFix" result="shape"/>
<feGaussianBlur stdDeviation="7.5" result="effect1_foregroundBlur_1_599"/>
</filter>
<filter id="filter8_f_1_599" x="69.5786" y="275.011" width="798.732" height="451.123" filterUnits="userSpaceOnUse" color-interpolation-filters="sRGB">
<feFlood flood-opacity="0" result="BackgroundImageFix"/>
<feBlend mode="normal" in="SourceGraphic" in2="BackgroundImageFix" result="shape"/>
<feGaussianBlur stdDeviation="2" result="effect1_foregroundBlur_1_599"/>
</filter>
<filter id="filter9_f_1_599" x="50.7559" y="278.755" width="877.895" height="509.593" filterUnits="userSpaceOnUse" color-interpolation-filters="sRGB">
<feFlood flood-opacity="0" result="BackgroundImageFix"/>
<feBlend mode="normal" in="SourceGraphic" in2="BackgroundImageFix" result="shape"/>
<feGaussianBlur stdDeviation="20" result="effect1_foregroundBlur_1_599"/>
</filter>
<filter id="filter10_f_1_599" x="75.7559" y="303.755" width="827.895" height="459.593" filterUnits="userSpaceOnUse" color-interpolation-filters="sRGB">
<feFlood flood-opacity="0" result="BackgroundImageFix"/>
<feBlend mode="normal" in="SourceGraphic" in2="BackgroundImageFix" result="shape"/>
<feGaussianBlur stdDeviation="7.5" result="effect1_foregroundBlur_1_599"/>
</filter>
<filter id="filter11_f_1_599" x="86.7559" y="314.755" width="805.895" height="437.593" filterUnits="userSpaceOnUse" color-interpolation-filters="sRGB">
<feFlood flood-opacity="0" result="BackgroundImageFix"/>
<feBlend mode="normal" in="SourceGraphic" in2="BackgroundImageFix" result="shape"/>
<feGaussianBlur stdDeviation="2" result="effect1_foregroundBlur_1_599"/>
</filter>
<filter id="filter12_f_1_599" x="72.2085" y="315.283" width="882.489" height="529.91" filterUnits="userSpaceOnUse" color-interpolation-filters="sRGB">
<feFlood flood-opacity="0" result="BackgroundImageFix"/>
<feBlend mode="normal" in="SourceGraphic" in2="BackgroundImageFix" result="shape"/>
<feGaussianBlur stdDeviation="20" result="effect1_foregroundBlur_1_599"/>
</filter>
<filter id="filter13_f_1_599" x="97.2085" y="340.283" width="832.489" height="479.91" filterUnits="userSpaceOnUse" color-interpolation-filters="sRGB">
<feFlood flood-opacity="0" result="BackgroundImageFix"/>
<feBlend mode="normal" in="SourceGraphic" in2="BackgroundImageFix" result="shape"/>
<feGaussianBlur stdDeviation="7.5" result="effect1_foregroundBlur_1_599"/>
</filter>
<filter id="filter14_f_1_599" x="108.208" y="351.283" width="810.489" height="457.91" filterUnits="userSpaceOnUse" color-interpolation-filters="sRGB">
<feFlood flood-opacity="0" result="BackgroundImageFix"/>
<feBlend mode="normal" in="SourceGraphic" in2="BackgroundImageFix" result="shape"/>
<feGaussianBlur stdDeviation="2" result="effect1_foregroundBlur_1_599"/>
</filter>
<filter id="filter15_f_1_599" x="98.4883" y="348.969" width="883.792" height="551.553" filterUnits="userSpaceOnUse" color-interpolation-filters="sRGB">
<feFlood flood-opacity="0" result="BackgroundImageFix"/>
<feBlend mode="normal" in="SourceGraphic" in2="BackgroundImageFix" result="shape"/>
<feGaussianBlur stdDeviation="20" result="effect1_foregroundBlur_1_599"/>
</filter>
<filter id="filter16_f_1_599" x="123.488" y="373.969" width="833.792" height="501.553" filterUnits="userSpaceOnUse" color-interpolation-filters="sRGB">
<feFlood flood-opacity="0" result="BackgroundImageFix"/>
<feBlend mode="normal" in="SourceGraphic" in2="BackgroundImageFix" result="shape"/>
<feGaussianBlur stdDeviation="7.5" result="effect1_foregroundBlur_1_599"/>
</filter>
<filter id="filter17_f_1_599" x="134.488" y="384.969" width="811.792" height="479.553" filterUnits="userSpaceOnUse" color-interpolation-filters="sRGB">
<feFlood flood-opacity="0" result="BackgroundImageFix"/>
<feBlend mode="normal" in="SourceGraphic" in2="BackgroundImageFix" result="shape"/>
<feGaussianBlur stdDeviation="2" result="effect1_foregroundBlur_1_599"/>
</filter>
<filter id="filter18_f_1_599" x="129.799" y="380.151" width="881.019" height="573.802" filterUnits="userSpaceOnUse" color-interpolation-filters="sRGB">
<feFlood flood-opacity="0" result="BackgroundImageFix"/>
<feBlend mode="normal" in="SourceGraphic" in2="BackgroundImageFix" result="shape"/>
<feGaussianBlur stdDeviation="20" result="effect1_foregroundBlur_1_599"/>
</filter>
<filter id="filter19_f_1_599" x="154.799" y="405.151" width="831.019" height="523.802" filterUnits="userSpaceOnUse" color-interpolation-filters="sRGB">
<feFlood flood-opacity="0" result="BackgroundImageFix"/>
<feBlend mode="normal" in="SourceGraphic" in2="BackgroundImageFix" result="shape"/>
<feGaussianBlur stdDeviation="7.5" result="effect1_foregroundBlur_1_599"/>
</filter>
<filter id="filter20_f_1_599" x="165.799" y="416.151" width="809.019" height="501.802" filterUnits="userSpaceOnUse" color-interpolation-filters="sRGB">
<feFlood flood-opacity="0" result="BackgroundImageFix"/>
<feBlend mode="normal" in="SourceGraphic" in2="BackgroundImageFix" result="shape"/>
<feGaussianBlur stdDeviation="2" result="effect1_foregroundBlur_1_599"/>
</filter>
</defs>
</svg>
