<svg width="1920" height="954" viewBox="0 0 1920 954" fill="none" xmlns="http://www.w3.org/2000/svg">
<g opacity="0.142857">
<g filter="url(#filter0_f_1_690)">
<path d="M373.414 644.441L373.386 644.457L373.362 644.475L373.328 644.502C358.399 656.083 339.236 668.405 317.74 678.862C296.205 689.338 272.494 697.859 248.549 701.943C236.609 703.979 224.731 704.891 213.11 704.434C201.526 703.979 190.022 702.158 178.759 698.615C156.086 691.482 134.203 677.304 115.421 653.147C106.958 642.262 110.568 631.184 122.6 620.798C134.625 610.419 155.011 600.778 179.886 592.776C304.759 552.604 469.742 476.93 515.408 372.313C539.708 316.642 659.796 277.008 812.59 249.482C965.333 221.964 1150.31 206.63 1303.45 199.468C1395.38 195.168 1483.66 209.081 1555.8 228.54C1688.01 264.204 1877.67 296.201 2074.16 294.004C2136.11 293.312 2186.49 297.435 2227.71 305.136C2268.89 312.832 2301.11 324.134 2326.68 337.916C2377.94 365.547 2402.42 403.112 2418.28 441.371C2427.5 463.619 2412.42 486.621 2366.79 503.314C2284.83 533.295 2162.46 562.161 2012.91 568.264C1863.47 574.362 1686.59 557.747 1495.25 496.579C1383.66 460.904 1269.32 445.518 1157.68 444.24C1046.12 442.963 937.413 455.777 836.934 476.392C636.013 517.615 467.35 590.157 373.458 644.416L373.414 644.441ZM1301.84 197.425C1148.38 204.602 962.814 219.974 809.423 247.609C656.082 275.234 534.449 315.197 509.809 371.647C464.359 475.77 300.093 551.136 175.725 591.145C150.498 599.261 129.648 609.093 117.306 619.742C104.97 630.386 101.081 641.891 109.987 653.347C128.844 677.601 151.197 692.414 175.577 700.084C187.841 703.942 200.569 705.975 213.448 706.481C226.291 706.986 239.109 705.966 251.625 703.832C276.591 699.574 300.831 690.798 322.506 680.254C344.193 669.704 363.479 657.301 378.493 645.661C472.183 591.532 640.337 519.253 840.322 478.223C940.322 457.706 1048.13 445.035 1158.44 446.298C1268.7 447.56 1381.62 462.739 1492.02 498.034C1684.7 559.632 1863.3 576.477 2014.43 570.311C2165.44 564.148 2288.73 535.025 2371.15 504.874C2417.88 487.78 2433.32 464.23 2423.88 441.444C2408.02 403.181 2383.4 365.136 2331.17 336.985C2305 322.876 2271.88 311.244 2229.5 303.326C2187.16 295.414 2135.75 291.246 2073.06 291.947C1878.22 294.125 1689.92 262.383 1558.56 226.948C1485.55 207.254 1395.69 193.035 1301.84 197.425Z" stroke="#E06121" stroke-width="2"/>
</g>
<g filter="url(#filter1_f_1_690)">
<path d="M373.414 644.441L373.386 644.457L373.362 644.475L373.328 644.502C358.399 656.083 339.236 668.405 317.74 678.862C296.205 689.338 272.494 697.859 248.549 701.943C236.609 703.979 224.731 704.891 213.11 704.434C201.526 703.979 190.022 702.158 178.759 698.615C156.086 691.482 134.203 677.304 115.421 653.147C106.958 642.262 110.568 631.184 122.6 620.798C134.625 610.419 155.011 600.778 179.886 592.776C304.759 552.604 469.742 476.93 515.408 372.313C539.708 316.642 659.796 277.008 812.59 249.482C965.333 221.964 1150.31 206.63 1303.45 199.468C1395.38 195.168 1483.66 209.081 1555.8 228.54C1688.01 264.204 1877.67 296.201 2074.16 294.004C2136.11 293.312 2186.49 297.435 2227.71 305.136C2268.89 312.832 2301.11 324.134 2326.68 337.916C2377.94 365.547 2402.42 403.112 2418.28 441.371C2427.5 463.619 2412.42 486.621 2366.79 503.314C2284.83 533.295 2162.46 562.161 2012.91 568.264C1863.47 574.362 1686.59 557.747 1495.25 496.579C1383.66 460.904 1269.32 445.518 1157.68 444.24C1046.12 442.963 937.413 455.777 836.934 476.392C636.013 517.615 467.35 590.157 373.458 644.416L373.414 644.441ZM1301.84 197.425C1148.38 204.602 962.814 219.974 809.423 247.609C656.082 275.234 534.449 315.197 509.809 371.647C464.359 475.77 300.093 551.136 175.725 591.145C150.498 599.261 129.648 609.093 117.306 619.742C104.97 630.386 101.081 641.891 109.987 653.347C128.844 677.601 151.197 692.414 175.577 700.084C187.841 703.942 200.569 705.975 213.448 706.481C226.291 706.986 239.109 705.966 251.625 703.832C276.591 699.574 300.831 690.798 322.506 680.254C344.193 669.704 363.479 657.301 378.493 645.661C472.183 591.532 640.337 519.253 840.322 478.223C940.322 457.706 1048.13 445.035 1158.44 446.298C1268.7 447.56 1381.62 462.739 1492.02 498.034C1684.7 559.632 1863.3 576.477 2014.43 570.311C2165.44 564.148 2288.73 535.025 2371.15 504.874C2417.88 487.78 2433.32 464.23 2423.88 441.444C2408.02 403.181 2383.4 365.136 2331.17 336.985C2305 322.876 2271.88 311.244 2229.5 303.326C2187.16 295.414 2135.75 291.246 2073.06 291.947C1878.22 294.125 1689.92 262.383 1558.56 226.948C1485.55 207.254 1395.69 193.035 1301.84 197.425Z" stroke="#E06121" stroke-width="2"/>
</g>
<g filter="url(#filter2_f_1_690)">
<path d="M373.414 644.441L373.386 644.457L373.362 644.475L373.328 644.502C358.399 656.083 339.236 668.405 317.74 678.862C296.205 689.338 272.494 697.859 248.549 701.943C236.609 703.979 224.731 704.891 213.11 704.434C201.526 703.979 190.022 702.158 178.759 698.615C156.086 691.482 134.203 677.304 115.421 653.147C106.958 642.262 110.568 631.184 122.6 620.798C134.625 610.419 155.011 600.778 179.886 592.776C304.759 552.604 469.742 476.93 515.408 372.313C539.708 316.642 659.796 277.008 812.59 249.482C965.333 221.964 1150.31 206.63 1303.45 199.468C1395.38 195.168 1483.66 209.081 1555.8 228.54C1688.01 264.204 1877.67 296.201 2074.16 294.004C2136.11 293.312 2186.49 297.435 2227.71 305.136C2268.89 312.832 2301.11 324.134 2326.68 337.916C2377.94 365.547 2402.42 403.112 2418.28 441.371C2427.5 463.619 2412.42 486.621 2366.79 503.314C2284.83 533.295 2162.46 562.161 2012.91 568.264C1863.47 574.362 1686.59 557.747 1495.25 496.579C1383.66 460.904 1269.32 445.518 1157.68 444.24C1046.12 442.963 937.413 455.777 836.934 476.392C636.013 517.615 467.35 590.157 373.458 644.416L373.414 644.441ZM1301.84 197.425C1148.38 204.602 962.814 219.974 809.423 247.609C656.082 275.234 534.449 315.197 509.809 371.647C464.359 475.77 300.093 551.136 175.725 591.145C150.498 599.261 129.648 609.093 117.306 619.742C104.97 630.386 101.081 641.891 109.987 653.347C128.844 677.601 151.197 692.414 175.577 700.084C187.841 703.942 200.569 705.975 213.448 706.481C226.291 706.986 239.109 705.966 251.625 703.832C276.591 699.574 300.831 690.798 322.506 680.254C344.193 669.704 363.479 657.301 378.493 645.661C472.183 591.532 640.337 519.253 840.322 478.223C940.322 457.706 1048.13 445.035 1158.44 446.298C1268.7 447.56 1381.62 462.739 1492.02 498.034C1684.7 559.632 1863.3 576.477 2014.43 570.311C2165.44 564.148 2288.73 535.025 2371.15 504.874C2417.88 487.78 2433.32 464.23 2423.88 441.444C2408.02 403.181 2383.4 365.136 2331.17 336.985C2305 322.876 2271.88 311.244 2229.5 303.326C2187.16 295.414 2135.75 291.246 2073.06 291.947C1878.22 294.125 1689.92 262.383 1558.56 226.948C1485.55 207.254 1395.69 193.035 1301.84 197.425Z" stroke="#E06121" stroke-width="2"/>
</g>
<path fill-rule="evenodd" clip-rule="evenodd" d="M811.736 248.984C658.881 276.522 538.486 316.21 514.112 372.051C468.496 476.555 303.665 552.17 178.867 592.318C128.988 608.365 96.9896 631.018 114.176 653.123C132.978 677.308 155.011 691.688 178.218 698.988C189.788 702.628 201.61 704.496 213.459 704.961C225.318 705.427 237.36 704.495 249.388 702.443C273.501 698.331 297.301 689.768 318.865 679.278C340.402 668.801 359.593 656.46 374.541 644.864L374.576 644.837L374.62 644.812C468.469 590.578 637.048 518.076 837.825 476.883C938.23 456.283 1046.78 443.495 1158.12 444.769C1269.49 446.044 1383.47 461.389 1494.7 496.948C1686.45 558.25 1863.75 574.901 2013.48 568.791C2163.29 562.678 2285.81 533.77 2367.84 503.76C2413.65 486.999 2428.86 463.882 2419.57 441.475C2403.72 403.221 2379.2 365.507 2327.63 337.711C2301.86 323.822 2269.37 312.422 2227.86 304.666C2186.35 296.911 2135.74 292.781 2073.67 293.475C1877.49 295.668 1688.16 263.723 1556.22 228.131C1483.8 208.595 1395.15 194.624 1302.86 198.941C1149.66 206.106 964.585 221.447 811.736 248.984ZM810.277 248.107C963.562 220.491 1149.03 205.126 1302.43 197.951C1395.93 193.578 1485.42 207.74 1558.14 227.357C1689.77 262.865 1878.4 294.658 2073.56 292.476C2136.12 291.776 2187.3 295.938 2229.35 303.796C2271.41 311.653 2304.25 323.188 2330.22 337.19C2382.14 365.176 2406.72 403.072 2422.58 441.34C2431.96 463.967 2416.64 487.402 2370.1 504.429C2287.76 534.551 2164.62 563.632 2013.86 569.783C1863.02 575.938 1684.84 559.13 1492.58 497.665C1381.81 462.254 1268.53 447.034 1158.01 445.769C1047.46 444.503 939.505 457.2 839.431 477.732C639.281 518.796 471.031 591.125 377.303 645.281C362.305 656.912 343.039 669.303 321.381 679.838C299.734 690.369 275.585 699.102 250.786 703.331C238.358 705.451 225.704 706.45 213.099 705.954C200.484 705.459 188.075 703.472 176.119 699.711C152.271 692.209 130.068 677.598 111.233 653.371C93.6801 630.794 126.417 607.793 176.744 591.603C301.186 551.569 465.605 476.145 511.105 371.909C535.671 315.629 656.998 275.721 810.277 248.107Z" fill="white"/>
</g>
<g opacity="0.285714">
<g filter="url(#filter3_f_1_690)">
<path d="M304.852 656.92L304.824 656.934L304.8 656.949L304.758 656.975L305.897 657.446L304.758 656.975C286.817 668.085 264.46 679.813 240.271 689.616C216.041 699.436 190.148 707.251 165.183 710.636C152.731 712.324 140.632 712.894 129.147 712.103C117.692 711.315 106.724 709.167 96.491 705.332C75.9148 697.622 57.8969 682.928 45.5835 658.325C40.0477 647.263 46.5591 636.332 61.31 626.321C76.0449 616.321 98.918 607.297 125.83 600.036C260.846 563.604 445.222 492.959 518.409 390.056C557.366 335.281 687.529 299.235 847.05 276.194C1006.52 253.16 1194.87 243.191 1349.32 240.449C1442.11 238.802 1526.38 255.206 1593.05 276.647C1715.35 315.981 1895.81 353.289 2092.09 356.737C2154.01 357.825 2203.12 363.381 2242.14 372.234C2281.11 381.078 2310.16 393.245 2331.93 407.672C2353.74 422.129 2368.28 438.882 2378.08 456.868C2387.87 474.849 2392.89 494.019 2395.72 513.286C2399.01 535.7 2377.9 558.193 2327.99 573.526C2238.39 601.046 2108.82 626.297 1958.18 628.087C1807.63 629.875 1635.82 608.236 1461.47 541.835C1359.69 503.073 1249.85 484.472 1139.03 479.999C1028.25 475.527 916.598 485.171 811.058 502.822C600.012 538.119 412.798 605.54 304.903 656.896L304.852 656.92ZM1348 238.258C1193.24 241.006 1004.33 250.995 844.221 274.121C684.17 297.239 552.455 333.552 512.971 389.067C440.121 491.496 256.51 561.87 122.004 598.164C94.7357 605.522 71.3746 614.714 56.2672 624.963C41.1756 635.202 34.2367 646.553 40.0888 658.246C52.4524 682.95 70.8259 698.406 93.2052 706.792C104.45 711.005 116.601 713.392 129.262 714.263C141.894 715.132 154.907 714.486 167.923 712.721C193.892 709.2 220.347 701.159 244.728 691.278C269.12 681.393 291.614 669.592 309.651 658.428C417.322 607.189 603.989 540.003 814.105 504.861C919.171 487.289 1029.95 477.756 1139.54 482.18C1249.09 486.602 1357.55 504.971 1458.14 543.278C1633.84 610.193 1807.29 632.085 1959.42 630.278C2111.45 628.473 2241.95 603.004 2332.02 575.336C2383.06 559.66 2404.69 536.654 2401.31 513.669C2398.48 494.366 2393.44 475.067 2383.55 456.907C2373.66 438.749 2358.9 421.686 2336.55 406.873C2314.16 392.031 2284.19 379.476 2244.05 370.369C2203.96 361.271 2153.87 355.646 2091.26 354.547C1896.54 351.126 1717.35 314.095 1595.9 275.038C1528.35 253.311 1442.61 236.579 1348 238.258Z" stroke="#E06121" stroke-width="2"/>
</g>
<g filter="url(#filter4_f_1_690)">
<path d="M304.852 656.92L304.824 656.934L304.8 656.949L304.758 656.975L305.897 657.446L304.758 656.975C286.817 668.085 264.46 679.813 240.271 689.616C216.041 699.436 190.148 707.251 165.183 710.636C152.731 712.324 140.632 712.894 129.147 712.103C117.692 711.315 106.724 709.167 96.491 705.332C75.9148 697.622 57.8969 682.928 45.5835 658.325C40.0477 647.263 46.5591 636.332 61.31 626.321C76.0449 616.321 98.918 607.297 125.83 600.036C260.846 563.604 445.222 492.959 518.409 390.056C557.366 335.281 687.529 299.235 847.05 276.194C1006.52 253.16 1194.87 243.191 1349.32 240.449C1442.11 238.802 1526.38 255.206 1593.05 276.647C1715.35 315.981 1895.81 353.289 2092.09 356.737C2154.01 357.825 2203.12 363.381 2242.14 372.234C2281.11 381.078 2310.16 393.245 2331.93 407.672C2353.74 422.129 2368.28 438.882 2378.08 456.868C2387.87 474.849 2392.89 494.019 2395.72 513.286C2399.01 535.7 2377.9 558.193 2327.99 573.526C2238.39 601.046 2108.82 626.297 1958.18 628.087C1807.63 629.875 1635.82 608.236 1461.47 541.835C1359.69 503.073 1249.85 484.472 1139.03 479.999C1028.25 475.527 916.598 485.171 811.058 502.822C600.012 538.119 412.798 605.54 304.903 656.896L304.852 656.92ZM1348 238.258C1193.24 241.006 1004.33 250.995 844.221 274.121C684.17 297.239 552.455 333.552 512.971 389.067C440.121 491.496 256.51 561.87 122.004 598.164C94.7357 605.522 71.3746 614.714 56.2672 624.963C41.1756 635.202 34.2367 646.553 40.0888 658.246C52.4524 682.95 70.8259 698.406 93.2052 706.792C104.45 711.005 116.601 713.392 129.262 714.263C141.894 715.132 154.907 714.486 167.923 712.721C193.892 709.2 220.347 701.159 244.728 691.278C269.12 681.393 291.614 669.592 309.651 658.428C417.322 607.189 603.989 540.003 814.105 504.861C919.171 487.289 1029.95 477.756 1139.54 482.18C1249.09 486.602 1357.55 504.971 1458.14 543.278C1633.84 610.193 1807.29 632.085 1959.42 630.278C2111.45 628.473 2241.95 603.004 2332.02 575.336C2383.06 559.66 2404.69 536.654 2401.31 513.669C2398.48 494.366 2393.44 475.067 2383.55 456.907C2373.66 438.749 2358.9 421.686 2336.55 406.873C2314.16 392.031 2284.19 379.476 2244.05 370.369C2203.96 361.271 2153.87 355.646 2091.26 354.547C1896.54 351.126 1717.35 314.095 1595.9 275.038C1528.35 253.311 1442.61 236.579 1348 238.258Z" stroke="#E06121" stroke-width="2"/>
</g>
<g filter="url(#filter5_f_1_690)">
<path d="M304.852 656.92L304.824 656.934L304.8 656.949L304.758 656.975L305.897 657.446L304.758 656.975C286.817 668.085 264.46 679.813 240.271 689.616C216.041 699.436 190.148 707.251 165.183 710.636C152.731 712.324 140.632 712.894 129.147 712.103C117.692 711.315 106.724 709.167 96.491 705.332C75.9148 697.622 57.8969 682.928 45.5835 658.325C40.0477 647.263 46.5591 636.332 61.31 626.321C76.0449 616.321 98.918 607.297 125.83 600.036C260.846 563.604 445.222 492.959 518.409 390.056C557.366 335.281 687.529 299.235 847.05 276.194C1006.52 253.16 1194.87 243.191 1349.32 240.449C1442.11 238.802 1526.38 255.206 1593.05 276.647C1715.35 315.981 1895.81 353.289 2092.09 356.737C2154.01 357.825 2203.12 363.381 2242.14 372.234C2281.11 381.078 2310.16 393.245 2331.93 407.672C2353.74 422.129 2368.28 438.882 2378.08 456.868C2387.87 474.849 2392.89 494.019 2395.72 513.286C2399.01 535.7 2377.9 558.193 2327.99 573.526C2238.39 601.046 2108.82 626.297 1958.18 628.087C1807.63 629.875 1635.82 608.236 1461.47 541.835C1359.69 503.073 1249.85 484.472 1139.03 479.999C1028.25 475.527 916.598 485.171 811.058 502.822C600.012 538.119 412.798 605.54 304.903 656.896L304.852 656.92ZM1348 238.258C1193.24 241.006 1004.33 250.995 844.221 274.121C684.17 297.239 552.455 333.552 512.971 389.067C440.121 491.496 256.51 561.87 122.004 598.164C94.7357 605.522 71.3746 614.714 56.2672 624.963C41.1756 635.202 34.2367 646.553 40.0888 658.246C52.4524 682.95 70.8259 698.406 93.2052 706.792C104.45 711.005 116.601 713.392 129.262 714.263C141.894 715.132 154.907 714.486 167.923 712.721C193.892 709.2 220.347 701.159 244.728 691.278C269.12 681.393 291.614 669.592 309.651 658.428C417.322 607.189 603.989 540.003 814.105 504.861C919.171 487.289 1029.95 477.756 1139.54 482.18C1249.09 486.602 1357.55 504.971 1458.14 543.278C1633.84 610.193 1807.29 632.085 1959.42 630.278C2111.45 628.473 2241.95 603.004 2332.02 575.336C2383.06 559.66 2404.69 536.654 2401.31 513.669C2398.48 494.366 2393.44 475.067 2383.55 456.907C2373.66 438.749 2358.9 421.686 2336.55 406.873C2314.16 392.031 2284.19 379.476 2244.05 370.369C2203.96 361.271 2153.87 355.646 2091.26 354.547C1896.54 351.126 1717.35 314.095 1595.9 275.038C1528.35 253.311 1442.61 236.579 1348 238.258Z" stroke="#E06121" stroke-width="2"/>
</g>
<path fill-rule="evenodd" clip-rule="evenodd" d="M846.245 275.615C686.681 298.663 556.236 334.747 517.169 389.675C444.057 492.473 259.833 563.072 124.88 599.487C70.9418 614.041 33.0671 635.69 44.3349 658.204C56.6627 682.836 74.804 697.793 95.9893 705.732C106.552 709.69 117.835 711.89 129.515 712.694C141.206 713.498 153.449 712.914 165.974 711.216C191.084 707.811 217.061 699.963 241.32 690.132C265.549 680.313 287.935 668.569 305.897 657.446L305.938 657.42L305.988 657.396C413.84 606.061 600.974 538.672 811.894 503.396C917.371 485.755 1028.89 476.129 1139.47 480.593C1250.08 485.058 1359.56 503.615 1460.95 542.229C1635.75 608.799 1807.96 630.474 1958.74 628.683C2109.6 626.891 2239.3 601.608 2328.97 574.065C2379.05 558.683 2400.32 536.09 2397 513.502C2391.33 474.938 2376.89 436.664 2332.88 407.495C2310.89 392.919 2281.53 380.631 2242.23 371.713C2202.94 362.797 2153.62 357.231 2091.59 356.141C1895.59 352.698 1715.43 315.443 1593.41 276.2C1526.44 254.661 1441.83 238.2 1348.75 239.853C1194.24 242.596 1005.8 252.569 846.245 275.615ZM845.025 274.7C1005.04 251.587 1193.87 241.601 1348.58 238.854C1442.88 237.18 1528.28 253.855 1595.54 275.485C1717.27 314.634 1896.76 351.717 2091.75 355.143C2154.26 356.241 2204.14 361.855 2243.96 370.89C2283.77 379.923 2313.43 392.356 2335.6 407.05C2379.91 436.42 2394.36 474.876 2400.03 513.453C2403.38 536.264 2381.92 559.17 2331.04 574.796C2241.04 602.442 2110.67 627.879 1958.85 629.682C1806.96 631.486 1633.91 609.63 1458.65 542.883C1357.68 504.429 1248.86 486.016 1139.1 481.586C1029.31 477.153 918.399 486.705 813.27 504.288C603.008 539.453 416.247 606.68 308.538 657.941C290.517 669.097 268.043 680.888 243.679 690.762C219.326 700.632 192.956 708.639 167.131 712.141C154.19 713.895 141.319 714.528 128.894 713.673C116.458 712.817 104.622 710.482 93.7069 706.392C71.9366 698.234 53.6866 683.042 41.3374 658.367C29.8294 635.372 68.532 613.398 122.954 598.713C257.523 562.402 441.286 491.982 514.211 389.448C553.585 334.087 685.018 297.811 845.025 274.7Z" fill="white"/>
</g>
<g opacity="0.428571">
<g filter="url(#filter6_f_1_690)">
<path d="M231.864 667.791L231.836 667.802L231.811 667.815L231.763 667.839C210.946 678.393 185.565 689.437 158.866 698.511C132.124 707.6 104.246 714.647 78.4554 717.305C65.5904 718.631 53.3638 718.853 42.1068 717.734C30.8673 716.616 20.5156 714.155 11.378 710.06C-6.93962 701.851 -20.9824 686.775 -26.7351 661.91C-29.3156 650.756 -19.9498 640.051 -2.58639 630.492C14.7493 620.947 39.9362 612.611 68.6784 606.146C212.812 573.73 415.175 508.649 515.322 408.245C568.646 354.783 707.894 322.603 872.923 304.224C1037.9 285.851 1228.18 281.323 1382.79 283.023C1475.7 284.045 1555.33 302.815 1616.03 326.075C1727.49 368.779 1897.37 411.115 2091.95 420.179C2153.36 423.039 2200.83 429.986 2237.36 439.926C2273.84 449.853 2299.49 462.787 2317.3 477.733C2335.15 492.72 2345.19 509.798 2350.19 527.989C2355.18 546.174 2355.1 565.409 2352.82 584.683C2350.17 607.096 2323.19 628.909 2269.37 642.761C2172.81 667.609 2037.03 689.052 1886.45 686.512C1735.94 683.973 1570.51 657.475 1414.45 586.347C1323.28 544.791 1218.78 523.119 1109.61 515.486C1000.47 507.855 886.704 514.257 776.903 528.812C557.336 557.917 352.997 619.705 231.921 667.768C231.921 667.768 231.921 667.768 231.921 667.768L231.864 667.791ZM1381.81 280.661C1226.92 278.958 1036.09 283.49 870.488 301.933C704.94 320.369 564.148 352.76 510.129 406.918C410.428 506.874 208.865 571.718 65.2471 604.019C36.1446 610.564 10.4503 619.047 -7.30429 628.819C-25.0312 638.576 -34.9644 649.683 -32.2251 661.523C-26.4499 686.486 -12.2225 702.488 7.99006 711.547C18.1175 716.085 29.596 718.805 41.9417 720.033C54.2697 721.259 67.3829 720.989 80.8021 719.606C107.58 716.846 136.049 709.6 162.949 700.457C189.862 691.311 215.392 680.202 236.314 669.598C357.147 621.641 560.909 560.06 779.554 531.077C888.885 516.584 1001.78 510.263 1109.82 517.816C1217.82 525.368 1321.01 546.787 1411.02 587.813C1568.38 659.536 1735.38 686.309 1887.35 688.872C2039.24 691.434 2175.97 669.811 2273.01 644.836C2327.97 630.693 2355.61 608.406 2358.33 585.402C2360.62 566.09 2360.71 546.715 2355.66 528.33C2350.62 509.952 2340.42 492.5 2322.03 477.062C2303.59 461.583 2277 448.196 2239.42 437.971C2201.89 427.759 2153.5 420.721 2091.44 417.83C1898.32 408.834 1729.61 366.796 1619 324.414C1557.42 300.819 1476.45 281.702 1381.81 280.661Z" stroke="#E06121" stroke-width="2"/>
</g>
<g filter="url(#filter7_f_1_690)">
<path d="M231.864 667.791L231.836 667.802L231.811 667.815L231.763 667.839C210.946 678.393 185.565 689.437 158.866 698.511C132.124 707.6 104.246 714.647 78.4554 717.305C65.5904 718.631 53.3638 718.853 42.1068 717.734C30.8673 716.616 20.5156 714.155 11.378 710.06C-6.93962 701.851 -20.9824 686.775 -26.7351 661.91C-29.3156 650.756 -19.9498 640.051 -2.58639 630.492C14.7493 620.947 39.9362 612.611 68.6784 606.146C212.812 573.73 415.175 508.649 515.322 408.245C568.646 354.783 707.894 322.603 872.923 304.224C1037.9 285.851 1228.18 281.323 1382.79 283.023C1475.7 284.045 1555.33 302.815 1616.03 326.075C1727.49 368.779 1897.37 411.115 2091.95 420.179C2153.36 423.039 2200.83 429.986 2237.36 439.926C2273.84 449.853 2299.49 462.787 2317.3 477.733C2335.15 492.72 2345.19 509.798 2350.19 527.989C2355.18 546.174 2355.1 565.409 2352.82 584.683C2350.17 607.096 2323.19 628.909 2269.37 642.761C2172.81 667.609 2037.03 689.052 1886.45 686.512C1735.94 683.973 1570.51 657.475 1414.45 586.347C1323.28 544.791 1218.78 523.119 1109.61 515.486C1000.47 507.855 886.704 514.257 776.903 528.812C557.336 557.917 352.997 619.705 231.921 667.768C231.921 667.768 231.921 667.768 231.921 667.768L231.864 667.791ZM1381.81 280.661C1226.92 278.958 1036.09 283.49 870.488 301.933C704.94 320.369 564.148 352.76 510.129 406.918C410.428 506.874 208.865 571.718 65.2471 604.019C36.1446 610.564 10.4503 619.047 -7.30429 628.819C-25.0312 638.576 -34.9644 649.683 -32.2251 661.523C-26.4499 686.486 -12.2225 702.488 7.99006 711.547C18.1175 716.085 29.596 718.805 41.9417 720.033C54.2697 721.259 67.3829 720.989 80.8021 719.606C107.58 716.846 136.049 709.6 162.949 700.457C189.862 691.311 215.392 680.202 236.314 669.598C357.147 621.641 560.909 560.06 779.554 531.077C888.885 516.584 1001.78 510.263 1109.82 517.816C1217.82 525.368 1321.01 546.787 1411.02 587.813C1568.38 659.536 1735.38 686.309 1887.35 688.872C2039.24 691.434 2175.97 669.811 2273.01 644.836C2327.97 630.693 2355.61 608.406 2358.33 585.402C2360.62 566.09 2360.71 546.715 2355.66 528.33C2350.62 509.952 2340.42 492.5 2322.03 477.062C2303.59 461.583 2277 448.196 2239.42 437.971C2201.89 427.759 2153.5 420.721 2091.44 417.83C1898.32 408.834 1729.61 366.796 1619 324.414C1557.42 300.819 1476.45 281.702 1381.81 280.661Z" stroke="#E06121" stroke-width="2"/>
</g>
<g filter="url(#filter8_f_1_690)">
<path d="M231.864 667.791L231.836 667.802L231.811 667.815L231.763 667.839C210.946 678.393 185.565 689.437 158.866 698.511C132.124 707.6 104.246 714.647 78.4554 717.305C65.5904 718.631 53.3638 718.853 42.1068 717.734C30.8673 716.616 20.5156 714.155 11.378 710.06C-6.93962 701.851 -20.9824 686.775 -26.7351 661.91C-29.3156 650.756 -19.9498 640.051 -2.58639 630.492C14.7493 620.947 39.9362 612.611 68.6784 606.146C212.812 573.73 415.175 508.649 515.322 408.245C568.646 354.783 707.894 322.603 872.923 304.224C1037.9 285.851 1228.18 281.323 1382.79 283.023C1475.7 284.045 1555.33 302.815 1616.03 326.075C1727.49 368.779 1897.37 411.115 2091.95 420.179C2153.36 423.039 2200.83 429.986 2237.36 439.926C2273.84 449.853 2299.49 462.787 2317.3 477.733C2335.15 492.72 2345.19 509.798 2350.19 527.989C2355.18 546.174 2355.1 565.409 2352.82 584.683C2350.17 607.096 2323.19 628.909 2269.37 642.761C2172.81 667.609 2037.03 689.052 1886.45 686.512C1735.94 683.973 1570.51 657.475 1414.45 586.347C1323.28 544.791 1218.78 523.119 1109.61 515.486C1000.47 507.855 886.704 514.257 776.903 528.812C557.336 557.917 352.997 619.705 231.921 667.768C231.921 667.768 231.921 667.768 231.921 667.768L231.864 667.791ZM1381.81 280.661C1226.92 278.958 1036.09 283.49 870.488 301.933C704.94 320.369 564.148 352.76 510.129 406.918C410.428 506.874 208.865 571.718 65.2471 604.019C36.1446 610.564 10.4503 619.047 -7.30429 628.819C-25.0312 638.576 -34.9644 649.683 -32.2251 661.523C-26.4499 686.486 -12.2225 702.488 7.99006 711.547C18.1175 716.085 29.596 718.805 41.9417 720.033C54.2697 721.259 67.3829 720.989 80.8021 719.606C107.58 716.846 136.049 709.6 162.949 700.457C189.862 691.311 215.392 680.202 236.314 669.598C357.147 621.641 560.909 560.06 779.554 531.077C888.885 516.584 1001.78 510.263 1109.82 517.816C1217.82 525.368 1321.01 546.787 1411.02 587.813C1568.38 659.536 1735.38 686.309 1887.35 688.872C2039.24 691.434 2175.97 669.811 2273.01 644.836C2327.97 630.693 2355.61 608.406 2358.33 585.402C2360.62 566.09 2360.71 546.715 2355.66 528.33C2350.62 509.952 2340.42 492.5 2322.03 477.062C2303.59 461.583 2277 448.196 2239.42 437.971C2201.89 427.759 2153.5 420.721 2091.44 417.83C1898.32 408.834 1729.61 366.796 1619 324.414C1557.42 300.819 1476.45 281.702 1381.81 280.661Z" stroke="#E06121" stroke-width="2"/>
</g>
<path fill-rule="evenodd" clip-rule="evenodd" d="M872.192 303.552C707.133 321.934 567.63 354.138 514.168 407.737C414.116 508.046 211.901 573.091 67.8197 605.495C10.2333 618.447 -33.2293 638.927 -27.9655 661.679C-22.2066 686.571 -8.09453 701.991 10.9083 710.508C20.3827 714.754 31.0402 717.269 42.4634 718.405C53.8965 719.541 66.2471 719.311 79.1748 717.979C105.09 715.307 133.047 708.234 159.817 699.136C186.553 690.05 211.963 678.993 232.802 668.428L232.85 668.403L232.906 668.381C353.939 620.335 558.205 558.571 777.661 529.48C887.408 514.933 1001.06 508.543 1110.03 516.162C1219.03 523.783 1323.19 545.41 1413.97 586.787C1570.47 658.118 1736.29 684.651 1886.97 687.193C2037.73 689.736 2173.64 668.269 2270.25 643.404C2324.21 629.517 2351.38 607.62 2354.06 585.023C2358.62 546.443 2354.37 507.901 2318.25 477.58C2300.2 462.429 2274.21 449.345 2237.42 439.334C2200.64 429.324 2152.98 422.364 2091.48 419.499C1897.13 410.446 1727.53 368.164 1616.36 325.57C1555.35 302.192 1475.42 283.366 1382.25 282.342C1227.6 280.642 1037.25 285.17 872.192 303.552ZM871.219 302.605C1036.74 284.171 1227.5 279.64 1382.35 281.342C1476.74 282.38 1557.4 301.442 1618.67 324.919C1729.57 367.411 1898.56 409.503 2091.91 418.509C2153.88 421.396 2202.09 428.421 2239.36 438.563C2276.63 448.704 2302.89 461.941 2321.08 477.215C2357.45 507.744 2361.66 546.469 2357.09 585.062C2354.39 607.882 2326.94 630.085 2272.12 644.192C2175.15 669.15 2038.54 690.75 1886.82 688.191C1735.03 685.631 1568.42 658.893 1411.51 587.372C1321.1 546.168 1217.57 524.703 1109.4 517.14C1001.19 509.575 888.18 515.908 778.796 530.408C560.024 559.408 356.174 621.021 235.301 668.997C214.396 679.593 188.885 690.694 161.999 699.832C135.126 708.965 106.736 716.185 80.0827 718.933C66.7261 720.31 53.7369 720.57 41.585 719.362C29.4232 718.153 18.2505 715.487 8.45983 711.1C-11.0677 702.348 -25.2257 686.69 -30.9947 661.755C-36.3706 638.518 8.00285 617.737 66.1058 604.67C209.777 572.357 411.486 507.477 511.282 407.425C565.164 353.405 705.701 321.038 871.219 302.605Z" fill="white"/>
</g>
<g opacity="0.571429">
<g filter="url(#filter9_f_1_690)">
<path d="M154.897 676.932L154.87 676.941L154.845 676.952L154.79 676.975C131.256 686.893 103.043 697.168 74.0378 705.443C44.9872 713.731 15.3364 719.955 -11.0794 721.865C-24.2573 722.818 -36.5141 722.688 -47.4534 721.247C-58.3874 719.807 -68.0483 717.052 -76.0359 712.727C-84.0145 708.407 -90.4832 702.434 -94.868 694.402C-99.2628 686.352 -101.54 676.272 -101.114 663.837C-100.732 652.672 -88.5774 642.273 -68.7303 633.239C-48.9242 624.224 -21.6151 616.639 8.73776 611.023C160.895 582.867 379.702 523.843 506.042 426.702C573.335 374.961 720.606 346.895 889.883 333.32C1059.11 319.749 1249.88 320.697 1403.45 326.826C1495.78 330.512 1570.15 351.505 1624.45 376.409C1724.19 422.157 1882.2 469.197 2073.61 483.806C2134.05 488.419 2179.51 496.704 2213.28 507.657C2247 518.596 2269.06 532.196 2282.78 547.528C2296.55 562.918 2302.03 580.182 2302.19 598.441C2302.35 616.691 2297.18 635.845 2289.81 654.981C2281.23 677.227 2248.57 698.194 2191.26 710.456C2088.48 732.441 1947.52 749.91 1798.16 743.059C1648.85 736.21 1491.05 705.054 1354.46 629.739C1274.6 585.707 1176.24 561.127 1069.54 550.395C962.86 539.665 847.852 542.777 734.625 554.126C508.205 576.819 288.295 632.507 154.959 676.911L154.897 676.932ZM1402.9 324.275C1249.06 318.135 1057.76 317.175 887.921 330.795C718.131 344.411 569.331 372.636 501.194 425.026C375.397 521.749 157.415 580.568 5.77965 608.628C-24.9366 614.312 -52.7686 622.022 -73.0336 631.244C-93.2577 640.446 -106.103 651.222 -106.51 663.116C-107.366 688.142 -97.4358 704.591 -79.5522 714.274C-70.6339 719.102 -59.9195 722.135 -47.9791 723.707C-36.044 725.279 -22.9274 725.388 -9.20372 724.396C18.1839 722.416 48.45 716.017 77.6652 707.683C106.893 699.344 135.265 689.01 158.913 679.048C291.989 634.738 511.294 579.233 736.8 556.631C849.561 545.329 963.721 542.27 1069.37 552.896C1175 563.521 1272.13 587.828 1350.9 631.261C1488.71 707.246 1647.97 738.695 1798.63 745.607C1949.24 752.516 2091.16 734.9 2194.43 712.807C2252.89 700.301 2286.33 678.903 2295.13 656.059C2302.52 636.886 2307.75 617.582 2307.59 599.113C2307.43 580.654 2301.89 562.94 2287.61 546.98C2273.28 530.964 2250.26 516.844 2215.55 505.583C2180.88 494.336 2134.54 485.939 2073.5 481.28C1883.46 466.775 1726.51 420.048 1627.56 374.663C1572.44 349.382 1496.86 328.025 1402.9 324.275Z" stroke="#E06121" stroke-width="2"/>
</g>
<g filter="url(#filter10_f_1_690)">
<path d="M154.897 676.932L154.87 676.941L154.845 676.952L154.79 676.975C131.256 686.893 103.043 697.168 74.0378 705.443C44.9872 713.731 15.3364 719.955 -11.0794 721.865C-24.2573 722.818 -36.5141 722.688 -47.4534 721.247C-58.3874 719.807 -68.0483 717.052 -76.0359 712.727C-84.0145 708.407 -90.4832 702.434 -94.868 694.402C-99.2628 686.352 -101.54 676.272 -101.114 663.837C-100.732 652.672 -88.5774 642.273 -68.7303 633.239C-48.9242 624.224 -21.6151 616.639 8.73776 611.023C160.895 582.867 379.702 523.843 506.042 426.702C573.335 374.961 720.606 346.895 889.883 333.32C1059.11 319.749 1249.88 320.697 1403.45 326.826C1495.78 330.512 1570.15 351.505 1624.45 376.409C1724.19 422.157 1882.2 469.197 2073.61 483.806C2134.05 488.419 2179.51 496.704 2213.28 507.657C2247 518.596 2269.06 532.196 2282.78 547.528C2296.55 562.918 2302.03 580.182 2302.19 598.441C2302.35 616.691 2297.18 635.845 2289.81 654.981C2281.23 677.227 2248.57 698.194 2191.26 710.456C2088.48 732.441 1947.52 749.91 1798.16 743.059C1648.85 736.21 1491.05 705.054 1354.46 629.739C1274.6 585.707 1176.24 561.127 1069.54 550.395C962.86 539.665 847.852 542.777 734.625 554.126C508.205 576.819 288.295 632.507 154.959 676.911L154.897 676.932ZM1402.9 324.275C1249.06 318.135 1057.76 317.175 887.921 330.795C718.131 344.411 569.331 372.636 501.194 425.026C375.397 521.749 157.415 580.568 5.77965 608.628C-24.9366 614.312 -52.7686 622.022 -73.0336 631.244C-93.2577 640.446 -106.103 651.222 -106.51 663.116C-107.366 688.142 -97.4358 704.591 -79.5522 714.274C-70.6339 719.102 -59.9195 722.135 -47.9791 723.707C-36.044 725.279 -22.9274 725.388 -9.20372 724.396C18.1839 722.416 48.45 716.017 77.6652 707.683C106.893 699.344 135.265 689.01 158.913 679.048C291.989 634.738 511.294 579.233 736.8 556.631C849.561 545.329 963.721 542.27 1069.37 552.896C1175 563.521 1272.13 587.828 1350.9 631.261C1488.71 707.246 1647.97 738.695 1798.63 745.607C1949.24 752.516 2091.16 734.9 2194.43 712.807C2252.89 700.301 2286.33 678.903 2295.13 656.059C2302.52 636.886 2307.75 617.582 2307.59 599.113C2307.43 580.654 2301.89 562.94 2287.61 546.98C2273.28 530.964 2250.26 516.844 2215.55 505.583C2180.88 494.336 2134.54 485.939 2073.5 481.28C1883.46 466.775 1726.51 420.048 1627.56 374.663C1572.44 349.382 1496.86 328.025 1402.9 324.275Z" stroke="#E06121" stroke-width="2"/>
</g>
<g filter="url(#filter11_f_1_690)">
<path d="M154.897 676.932L154.87 676.941L154.845 676.952L154.79 676.975C131.256 686.893 103.043 697.168 74.0378 705.443C44.9872 713.731 15.3364 719.955 -11.0794 721.865C-24.2573 722.818 -36.5141 722.688 -47.4534 721.247C-58.3874 719.807 -68.0483 717.052 -76.0359 712.727C-84.0145 708.407 -90.4832 702.434 -94.868 694.402C-99.2628 686.352 -101.54 676.272 -101.114 663.837C-100.732 652.672 -88.5774 642.273 -68.7303 633.239C-48.9242 624.224 -21.6151 616.639 8.73776 611.023C160.895 582.867 379.702 523.843 506.042 426.702C573.335 374.961 720.606 346.895 889.883 333.32C1059.11 319.749 1249.88 320.697 1403.45 326.826C1495.78 330.512 1570.15 351.505 1624.45 376.409C1724.19 422.157 1882.2 469.197 2073.61 483.806C2134.05 488.419 2179.51 496.704 2213.28 507.657C2247 518.596 2269.06 532.196 2282.78 547.528C2296.55 562.918 2302.03 580.182 2302.19 598.441C2302.35 616.691 2297.18 635.845 2289.81 654.981C2281.23 677.227 2248.57 698.194 2191.26 710.456C2088.48 732.441 1947.52 749.91 1798.16 743.059C1648.85 736.21 1491.05 705.054 1354.46 629.739C1274.6 585.707 1176.24 561.127 1069.54 550.395C962.86 539.665 847.852 542.777 734.625 554.126C508.205 576.819 288.295 632.507 154.959 676.911L154.897 676.932ZM1402.9 324.275C1249.06 318.135 1057.76 317.175 887.921 330.795C718.131 344.411 569.331 372.636 501.194 425.026C375.397 521.749 157.415 580.568 5.77965 608.628C-24.9366 614.312 -52.7686 622.022 -73.0336 631.244C-93.2577 640.446 -106.103 651.222 -106.51 663.116C-107.366 688.142 -97.4358 704.591 -79.5522 714.274C-70.6339 719.102 -59.9195 722.135 -47.9791 723.707C-36.044 725.279 -22.9274 725.388 -9.20372 724.396C18.1839 722.416 48.45 716.017 77.6652 707.683C106.893 699.344 135.265 689.01 158.913 679.048C291.989 634.738 511.294 579.233 736.8 556.631C849.561 545.329 963.721 542.27 1069.37 552.896C1175 563.521 1272.13 587.828 1350.9 631.261C1488.71 707.246 1647.97 738.695 1798.63 745.607C1949.24 752.516 2091.16 734.9 2194.43 712.807C2252.89 700.301 2286.33 678.903 2295.13 656.059C2302.52 636.886 2307.75 617.582 2307.59 599.113C2307.43 580.654 2301.89 562.94 2287.61 546.98C2273.28 530.964 2250.26 516.844 2215.55 505.583C2180.88 494.336 2134.54 485.939 2073.5 481.28C1883.46 466.775 1726.51 420.048 1627.56 374.663C1572.44 349.382 1496.86 328.025 1402.9 324.275Z" stroke="#E06121" stroke-width="2"/>
</g>
<path fill-rule="evenodd" clip-rule="evenodd" d="M889.261 332.543C719.962 346.12 572.464 374.199 505.014 426.061C378.784 523.117 160.116 582.113 8.00305 610.261C-52.7934 621.511 -101.513 640.666 -102.293 663.482C-103.147 688.445 -93.1718 704.212 -76.4961 713.241C-68.1819 717.742 -58.231 720.554 -47.152 722.013C-36.0634 723.474 -23.6988 723.599 -10.4674 722.642C16.0566 720.724 45.7798 714.48 74.8566 706.185C103.897 697.9 132.138 687.614 155.694 677.687L155.749 677.664L155.811 677.643C289.105 633.253 508.946 577.584 735.27 554.9C848.452 543.556 963.358 540.451 1069.9 551.168C1176.47 561.887 1274.5 586.42 1353.98 630.244C1491 705.793 1649.17 736.983 1798.6 743.837C1948.11 750.696 2089.19 733.21 2192.02 711.212C2249.45 698.926 2282.32 677.891 2290.96 655.457C2305.73 617.155 2311.69 578.637 2283.74 547.395C2269.77 531.784 2247.35 518.005 2213.35 506.976C2179.35 495.949 2133.72 487.648 2073.21 483.03C1882 468.435 1724.24 421.448 1624.77 375.827C1570.18 350.788 1495.54 329.741 1402.99 326.047C1249.39 319.917 1058.55 318.967 889.261 332.543ZM888.542 331.572C1058.32 317.957 1249.55 318.916 1403.36 325.054C1497.11 328.796 1572.42 350.099 1627.24 375.244C1726.47 420.756 1883.67 467.536 2073.9 482.056C2134.87 486.71 2181.03 495.09 2215.48 506.264C2249.92 517.435 2272.57 531.375 2286.65 547.113C2314.8 578.569 2308.74 617.268 2293.98 655.583C2285.24 678.238 2252.02 699.569 2193.67 712.05C2090.46 734.131 1948.65 751.73 1798.19 744.828C1647.65 737.922 1488.76 706.506 1351.37 630.756C1272.22 587.115 1174.77 562.761 1069.01 552.124C963.223 541.483 848.962 544.55 736.155 555.857C510.537 578.47 291.149 634 158.034 678.325C134.402 688.282 106.05 698.609 76.8463 706.941C47.6573 715.268 17.4636 721.646 -9.81569 723.619C-23.486 724.607 -36.4948 724.494 -48.2805 722.942C-60.0758 721.388 -70.5003 718.412 -79.092 713.76C-96.2281 704.482 -106.186 688.477 -105.331 663.471C-104.534 640.168 -54.8275 620.74 6.51435 609.389C158.194 581.322 376.315 522.475 502.222 425.667C570.202 373.398 718.774 345.186 888.542 331.572Z" fill="white"/>
</g>
<g opacity="0.714286">
<g filter="url(#filter12_f_1_690)">
<path d="M74.4336 684.246L74.4078 684.253L74.3832 684.261L74.3228 684.283L75.0473 685.116L74.3227 684.283C48.2488 693.489 17.4193 702.917 -13.6709 710.329C-44.8086 717.753 -76.0046 723.105 -102.84 724.25C-116.228 724.822 -128.418 724.341 -138.95 722.589C-149.488 720.837 -158.386 717.808 -165.179 713.283C-171.937 708.782 -176.76 702.699 -178.988 694.62C-181.226 686.507 -180.831 676.42 -177.116 664.047C-175.456 658.518 -170.925 653.237 -163.998 648.274C-157.077 643.316 -147.807 638.705 -136.744 634.497C-114.618 626.081 -85.3957 619.307 -53.6647 614.581C105.36 590.899 338.947 538.381 490.516 445.24C571.27 395.617 725.437 371.88 897.671 363.213C1069.85 354.548 1259.66 360.967 1411.02 371.479C1502.06 377.801 1570.6 400.857 1618.09 427.219C1705.35 475.659 1850.29 527.046 2037.07 547.088C2096.07 553.418 2139.19 562.978 2169.93 574.862C2200.65 586.735 2218.97 600.898 2228.53 616.488C2238.13 632.151 2239.03 649.467 2234.36 667.66C2229.68 685.836 2219.47 704.766 2207.05 723.617C2192.62 745.532 2154.53 765.491 2094.16 776.066C1985.95 795.021 1840.87 808.38 1693.88 797.269C1546.92 786.16 1397.96 750.585 1281.85 671.651C1213.93 625.482 1122.46 598.183 1019.04 584.434C915.619 570.686 800.238 570.487 684.444 578.543C452.89 594.653 219.081 643.818 74.5011 684.227L74.4336 684.246ZM1411.01 368.739C1259.38 358.209 1069.08 351.765 896.285 360.461C723.542 369.153 567.862 393 486.13 443.225C335.191 535.978 102.449 588.323 -56.0465 611.926C-88.1443 616.706 -117.903 623.588 -140.524 632.189C-151.835 636.49 -161.379 641.227 -168.542 646.359C-175.697 651.486 -180.517 657.037 -182.303 662.982C-186.054 675.474 -186.531 685.875 -184.169 694.435C-181.798 703.03 -176.55 709.804 -168.891 714.906C-161.267 719.984 -151.399 723.306 -139.947 725.211C-128.49 727.117 -115.466 727.601 -101.539 727.007C-73.7463 725.82 -41.9114 720.317 -10.6037 712.853C20.7176 705.386 51.7147 695.906 77.9091 686.661C222.216 646.335 455.394 597.33 686.041 581.283C801.372 573.259 915.921 573.486 1018.37 587.105C1120.81 600.724 1211.14 627.732 1278.09 673.247C1395.28 752.909 1545.59 788.798 1693.82 800.003C1842.01 811.205 1988.04 797.73 2096.76 778.685C2158.29 767.908 2197.25 747.558 2212.07 725.054C2224.5 706.166 2234.82 687.082 2239.56 668.671C2244.29 650.276 2243.47 632.43 2233.44 616.058C2223.35 599.614 2204.1 584.87 2172.52 572.663C2140.96 560.468 2097.04 550.777 2037.48 544.385C1851.98 524.48 1707.99 473.421 1621.44 425.374C1573.21 398.604 1503.59 375.169 1411.01 368.739Z" stroke="#E06121" stroke-width="2"/>
</g>
<g filter="url(#filter13_f_1_690)">
<path d="M74.4336 684.246L74.4078 684.253L74.3832 684.261L74.3228 684.283L75.0473 685.116L74.3227 684.283C48.2488 693.489 17.4193 702.917 -13.6709 710.329C-44.8086 717.753 -76.0046 723.105 -102.84 724.25C-116.228 724.822 -128.418 724.341 -138.95 722.589C-149.488 720.837 -158.386 717.808 -165.179 713.283C-171.937 708.782 -176.76 702.699 -178.988 694.62C-181.226 686.507 -180.831 676.42 -177.116 664.047C-175.456 658.518 -170.925 653.237 -163.998 648.274C-157.077 643.316 -147.807 638.705 -136.744 634.497C-114.618 626.081 -85.3957 619.307 -53.6647 614.581C105.36 590.899 338.947 538.381 490.516 445.24C571.27 395.617 725.437 371.88 897.671 363.213C1069.85 354.548 1259.66 360.967 1411.02 371.479C1502.06 377.801 1570.6 400.857 1618.09 427.219C1705.35 475.659 1850.29 527.046 2037.07 547.088C2096.07 553.418 2139.19 562.978 2169.93 574.862C2200.65 586.735 2218.97 600.898 2228.53 616.488C2238.13 632.151 2239.03 649.467 2234.36 667.66C2229.68 685.836 2219.47 704.766 2207.05 723.617C2192.62 745.532 2154.53 765.491 2094.16 776.066C1985.95 795.021 1840.87 808.38 1693.88 797.269C1546.92 786.16 1397.96 750.585 1281.85 671.651C1213.93 625.482 1122.46 598.183 1019.04 584.434C915.619 570.686 800.238 570.487 684.444 578.543C452.89 594.653 219.081 643.818 74.5011 684.227L74.4336 684.246ZM1411.01 368.739C1259.38 358.209 1069.08 351.765 896.285 360.461C723.542 369.153 567.862 393 486.13 443.225C335.191 535.978 102.449 588.323 -56.0465 611.926C-88.1443 616.706 -117.903 623.588 -140.524 632.189C-151.835 636.49 -161.379 641.227 -168.542 646.359C-175.697 651.486 -180.517 657.037 -182.303 662.982C-186.054 675.474 -186.531 685.875 -184.169 694.435C-181.798 703.03 -176.55 709.804 -168.891 714.906C-161.267 719.984 -151.399 723.306 -139.947 725.211C-128.49 727.117 -115.466 727.601 -101.539 727.007C-73.7463 725.82 -41.9114 720.317 -10.6037 712.853C20.7176 705.386 51.7147 695.906 77.9091 686.661C222.216 646.335 455.394 597.33 686.041 581.283C801.372 573.259 915.921 573.486 1018.37 587.105C1120.81 600.724 1211.14 627.732 1278.09 673.247C1395.28 752.909 1545.59 788.798 1693.82 800.003C1842.01 811.205 1988.04 797.73 2096.76 778.685C2158.29 767.908 2197.25 747.558 2212.07 725.054C2224.5 706.166 2234.82 687.082 2239.56 668.671C2244.29 650.276 2243.47 632.43 2233.44 616.058C2223.35 599.614 2204.1 584.87 2172.52 572.663C2140.96 560.468 2097.04 550.777 2037.48 544.385C1851.98 524.48 1707.99 473.421 1621.44 425.374C1573.21 398.604 1503.59 375.169 1411.01 368.739Z" stroke="#E06121" stroke-width="2"/>
</g>
<g filter="url(#filter14_f_1_690)">
<path d="M74.4336 684.246L74.4078 684.253L74.3832 684.261L74.3228 684.283L75.0473 685.116L74.3227 684.283C48.2488 693.489 17.4193 702.917 -13.6709 710.329C-44.8086 717.753 -76.0046 723.105 -102.84 724.25C-116.228 724.822 -128.418 724.341 -138.95 722.589C-149.488 720.837 -158.386 717.808 -165.179 713.283C-171.937 708.782 -176.76 702.699 -178.988 694.62C-181.226 686.507 -180.831 676.42 -177.116 664.047C-175.456 658.518 -170.925 653.237 -163.998 648.274C-157.077 643.316 -147.807 638.705 -136.744 634.497C-114.618 626.081 -85.3957 619.307 -53.6647 614.581C105.36 590.899 338.947 538.381 490.516 445.24C571.27 395.617 725.437 371.88 897.671 363.213C1069.85 354.548 1259.66 360.967 1411.02 371.479C1502.06 377.801 1570.6 400.857 1618.09 427.219C1705.35 475.659 1850.29 527.046 2037.07 547.088C2096.07 553.418 2139.19 562.978 2169.93 574.862C2200.65 586.735 2218.97 600.898 2228.53 616.488C2238.13 632.151 2239.03 649.467 2234.36 667.66C2229.68 685.836 2219.47 704.766 2207.05 723.617C2192.62 745.532 2154.53 765.491 2094.16 776.066C1985.95 795.021 1840.87 808.38 1693.88 797.269C1546.92 786.16 1397.96 750.585 1281.85 671.651C1213.93 625.482 1122.46 598.183 1019.04 584.434C915.619 570.686 800.238 570.487 684.444 578.543C452.89 594.653 219.081 643.818 74.5011 684.227L74.4336 684.246ZM1411.01 368.739C1259.38 358.209 1069.08 351.765 896.285 360.461C723.542 369.153 567.862 393 486.13 443.225C335.191 535.978 102.449 588.323 -56.0465 611.926C-88.1443 616.706 -117.903 623.588 -140.524 632.189C-151.835 636.49 -161.379 641.227 -168.542 646.359C-175.697 651.486 -180.517 657.037 -182.303 662.982C-186.054 675.474 -186.531 685.875 -184.169 694.435C-181.798 703.03 -176.55 709.804 -168.891 714.906C-161.267 719.984 -151.399 723.306 -139.947 725.211C-128.49 727.117 -115.466 727.601 -101.539 727.007C-73.7463 725.82 -41.9114 720.317 -10.6037 712.853C20.7176 705.386 51.7147 695.906 77.9091 686.661C222.216 646.335 455.394 597.33 686.041 581.283C801.372 573.259 915.921 573.486 1018.37 587.105C1120.81 600.724 1211.14 627.732 1278.09 673.247C1395.28 752.909 1545.59 788.798 1693.82 800.003C1842.01 811.205 1988.04 797.73 2096.76 778.685C2158.29 767.908 2197.25 747.558 2212.07 725.054C2224.5 706.166 2234.82 687.082 2239.56 668.671C2244.29 650.276 2243.47 632.43 2233.44 616.058C2223.35 599.614 2204.1 584.87 2172.52 572.663C2140.96 560.468 2097.04 550.777 2037.48 544.385C1851.98 524.48 1707.99 473.421 1621.44 425.374C1573.21 398.604 1503.59 375.169 1411.01 368.739Z" stroke="#E06121" stroke-width="2"/>
</g>
<path fill-rule="evenodd" clip-rule="evenodd" d="M897.207 362.331C724.958 370.999 570.587 394.74 489.662 444.469C338.214 537.535 104.757 590.033 -54.2295 613.709C-117.773 623.172 -171.379 640.857 -178.198 663.564C-185.658 688.407 -179.895 704.4 -165.673 713.873C-158.583 718.596 -149.414 721.682 -138.764 723.454C-128.104 725.227 -115.819 725.706 -102.385 725.133C-75.4542 723.983 -44.1909 718.616 -13.0283 711.186C18.0949 703.766 48.9518 694.329 75.0473 685.116L75.1077 685.094L75.1752 685.076C219.715 644.678 453.46 595.528 684.928 579.424C800.683 571.37 915.974 571.574 1019.27 585.306C1122.6 599.042 1213.76 626.294 1281.34 672.231C1397.83 751.424 1547.14 787.032 1694.19 798.148C1841.31 809.27 1986.48 795.898 2094.75 776.934C2155.21 766.342 2193.52 746.331 2208.08 724.23C2232.92 686.497 2249.07 648.297 2229.49 616.372C2219.71 600.42 2201.02 586.049 2170.07 574.087C2139.12 562.127 2095.86 552.548 2036.81 546.212C1850.18 526.187 1705.46 474.853 1618.46 426.552C1570.7 400.041 1501.92 376.933 1410.7 370.598C1259.31 360.084 1069.45 353.663 897.207 362.331ZM896.748 361.343C1069.48 352.65 1259.73 359.092 1411.33 369.62C1503.74 376.037 1573.11 399.419 1621.07 426.042C1707.87 474.227 1852.09 525.339 2037.75 545.261C2097.26 551.647 2141.03 561.32 2172.38 573.439C2203.73 585.556 2222.61 600.093 2232.47 616.174C2252.18 648.318 2235.9 686.696 2211.05 724.441C2196.35 746.76 2157.6 767.057 2096.17 777.817C1987.5 796.852 1841.57 810.316 1693.51 799.123C1545.38 787.925 1395.41 752.07 1278.6 672.667C1211.31 626.921 1120.67 599.864 1018.13 586.233C915.566 572.598 800.928 572.375 685.556 580.402C454.81 596.456 221.554 645.481 77.209 685.819C51.031 695.059 20.0518 704.534 -11.2463 711.996C-42.529 719.454 -74.2967 724.942 -101.994 726.124C-115.874 726.717 -128.804 726.231 -140.134 724.346C-151.473 722.46 -161.07 719.197 -168.397 714.316C-183.011 704.582 -188.694 688.352 -181.221 663.465C-174.257 640.274 -119.596 622.346 -55.4817 612.798C103.052 589.189 335.924 536.824 486.984 443.997C568.545 393.877 724.021 370.035 896.748 361.343Z" fill="white"/>
</g>
<g opacity="0.857143">
<g filter="url(#filter15_f_1_690)">
<path d="M-9.02181 689.658L-9.04735 689.664L-9.07213 689.671L-9.13775 689.69C-37.5518 698.114 -70.7627 706.622 -103.7 713.115C-136.687 719.617 -169.188 724.056 -196.234 724.427C-209.727 724.612 -221.752 723.783 -231.791 721.734C-241.84 719.682 -249.907 716.405 -255.468 711.71C-260.981 707.055 -264.151 700.903 -264.231 692.835C-264.312 684.717 -261.257 674.694 -254.28 662.476C-251.167 657.023 -245.257 651.891 -237.037 647.143C-228.827 642.4 -218.367 638.071 -206.229 634.196C-181.953 626.445 -151.042 620.534 -118.176 616.736C46.5092 597.707 293.101 552.091 468.746 463.658C562.345 416.533 722.228 397.31 896.105 393.617C1069.93 389.925 1257.32 401.764 1405.33 416.579C1494.37 425.491 1556.55 450.432 1596.88 478.055C1670.98 528.815 1801.76 584.16 1982.5 609.481C2039.61 617.482 2080.04 628.244 2107.53 640.968C2135 653.686 2149.46 668.308 2154.83 684.045C2160.23 699.867 2156.57 717.11 2147.09 735.1C2137.62 753.069 2122.44 771.631 2105.08 790.055C2084.9 811.475 2041.65 830.27 1978.7 839.074C1865.87 854.853 1717.81 864.001 1574.3 848.713C1430.82 833.428 1291.84 793.708 1197.07 711.75C1141.63 663.801 1057.74 633.987 958.374 617.327C859 600.666 744.119 597.157 626.636 601.86C391.705 611.266 145.776 653.535 -8.94957 689.641L-9.02181 689.658ZM1405.97 413.699C1257.71 398.859 1069.84 386.981 895.411 390.685C721.027 394.389 559.643 413.678 464.937 461.36C290.006 549.435 44.2795 594.905 -119.868 613.872C-153.105 617.712 -184.567 623.713 -209.373 631.63C-221.775 635.589 -232.534 640.034 -241.025 644.939C-249.506 649.838 -255.779 655.228 -259.136 661.108C-266.181 673.445 -269.42 683.807 -269.333 692.431C-269.246 701.105 -265.787 708.051 -259.481 713.376C-253.222 718.661 -244.276 722.248 -233.388 724.471C-222.489 726.696 -209.651 727.552 -195.625 727.359C-167.633 726.975 -134.469 722.407 -101.306 715.87C-68.1294 709.33 -34.7421 700.777 -6.2009 692.318C148.237 656.285 393.511 614.155 627.539 604.785C744.56 600.1 858.621 603.613 957.082 620.121C1055.55 636.63 1138.39 666.133 1193.03 713.388C1288.68 796.116 1428.91 836.173 1573.59 851.586C1718.24 866.996 1867.27 857.762 1980.61 841.909C2044.74 832.94 2088.93 813.792 2109.65 791.8C2127.04 773.341 2142.38 754.623 2151.97 736.413C2161.55 718.225 2165.49 700.391 2159.81 683.737C2154.09 666.998 2138.77 651.745 2110.56 638.688C2082.36 625.637 2041.19 614.724 1983.55 606.649C1804 581.496 1674.07 526.495 1600.57 476.149C1559.62 448.095 1496.48 422.758 1405.97 413.699Z" stroke="#E06121" stroke-width="2"/>
</g>
<g filter="url(#filter16_f_1_690)">
<path d="M-9.02181 689.658L-9.04735 689.664L-9.07213 689.671L-9.13775 689.69C-37.5518 698.114 -70.7627 706.622 -103.7 713.115C-136.687 719.617 -169.188 724.056 -196.234 724.427C-209.727 724.612 -221.752 723.783 -231.791 721.734C-241.84 719.682 -249.907 716.405 -255.468 711.71C-260.981 707.055 -264.151 700.903 -264.231 692.835C-264.312 684.717 -261.257 674.694 -254.28 662.476C-251.167 657.023 -245.257 651.891 -237.037 647.143C-228.827 642.4 -218.367 638.071 -206.229 634.196C-181.953 626.445 -151.042 620.534 -118.176 616.736C46.5092 597.707 293.101 552.091 468.746 463.658C562.345 416.533 722.228 397.31 896.105 393.617C1069.93 389.925 1257.32 401.764 1405.33 416.579C1494.37 425.491 1556.55 450.432 1596.88 478.055C1670.98 528.815 1801.76 584.16 1982.5 609.481C2039.61 617.482 2080.04 628.244 2107.53 640.968C2135 653.686 2149.46 668.308 2154.83 684.045C2160.23 699.867 2156.57 717.11 2147.09 735.1C2137.62 753.069 2122.44 771.631 2105.08 790.055C2084.9 811.475 2041.65 830.27 1978.7 839.074C1865.87 854.853 1717.81 864.001 1574.3 848.713C1430.82 833.428 1291.84 793.708 1197.07 711.75C1141.63 663.801 1057.74 633.987 958.374 617.327C859 600.666 744.119 597.157 626.636 601.86C391.705 611.266 145.776 653.535 -8.94957 689.641L-9.02181 689.658ZM1405.97 413.699C1257.71 398.859 1069.84 386.981 895.411 390.685C721.027 394.389 559.643 413.678 464.937 461.36C290.006 549.435 44.2795 594.905 -119.868 613.872C-153.105 617.712 -184.567 623.713 -209.373 631.63C-221.775 635.589 -232.534 640.034 -241.025 644.939C-249.506 649.838 -255.779 655.228 -259.136 661.108C-266.181 673.445 -269.42 683.807 -269.333 692.431C-269.246 701.105 -265.787 708.051 -259.481 713.376C-253.222 718.661 -244.276 722.248 -233.388 724.471C-222.489 726.696 -209.651 727.552 -195.625 727.359C-167.633 726.975 -134.469 722.407 -101.306 715.87C-68.1294 709.33 -34.7421 700.777 -6.2009 692.318C148.237 656.285 393.511 614.155 627.539 604.785C744.56 600.1 858.621 603.613 957.082 620.121C1055.55 636.63 1138.39 666.133 1193.03 713.388C1288.68 796.116 1428.91 836.173 1573.59 851.586C1718.24 866.996 1867.27 857.762 1980.61 841.909C2044.74 832.94 2088.93 813.792 2109.65 791.8C2127.04 773.341 2142.38 754.623 2151.97 736.413C2161.55 718.225 2165.49 700.391 2159.81 683.737C2154.09 666.998 2138.77 651.745 2110.56 638.688C2082.36 625.637 2041.19 614.724 1983.55 606.649C1804 581.496 1674.07 526.495 1600.57 476.149C1559.62 448.095 1496.48 422.758 1405.97 413.699Z" stroke="#E06121" stroke-width="2"/>
</g>
<g filter="url(#filter17_f_1_690)">
<path d="M-9.02181 689.658L-9.04735 689.664L-9.07213 689.671L-9.13775 689.69C-37.5518 698.114 -70.7627 706.622 -103.7 713.115C-136.687 719.617 -169.188 724.056 -196.234 724.427C-209.727 724.612 -221.752 723.783 -231.791 721.734C-241.84 719.682 -249.907 716.405 -255.468 711.71C-260.981 707.055 -264.151 700.903 -264.231 692.835C-264.312 684.717 -261.257 674.694 -254.28 662.476C-251.167 657.023 -245.257 651.891 -237.037 647.143C-228.827 642.4 -218.367 638.071 -206.229 634.196C-181.953 626.445 -151.042 620.534 -118.176 616.736C46.5092 597.707 293.101 552.091 468.746 463.658C562.345 416.533 722.228 397.31 896.105 393.617C1069.93 389.925 1257.32 401.764 1405.33 416.579C1494.37 425.491 1556.55 450.432 1596.88 478.055C1670.98 528.815 1801.76 584.16 1982.5 609.481C2039.61 617.482 2080.04 628.244 2107.53 640.968C2135 653.686 2149.46 668.308 2154.83 684.045C2160.23 699.867 2156.57 717.11 2147.09 735.1C2137.62 753.069 2122.44 771.631 2105.08 790.055C2084.9 811.475 2041.65 830.27 1978.7 839.074C1865.87 854.853 1717.81 864.001 1574.3 848.713C1430.82 833.428 1291.84 793.708 1197.07 711.75C1141.63 663.801 1057.74 633.987 958.374 617.327C859 600.666 744.119 597.157 626.636 601.86C391.705 611.266 145.776 653.535 -8.94957 689.641L-9.02181 689.658ZM1405.97 413.699C1257.71 398.859 1069.84 386.981 895.411 390.685C721.027 394.389 559.643 413.678 464.937 461.36C290.006 549.435 44.2795 594.905 -119.868 613.872C-153.105 617.712 -184.567 623.713 -209.373 631.63C-221.775 635.589 -232.534 640.034 -241.025 644.939C-249.506 649.838 -255.779 655.228 -259.136 661.108C-266.181 673.445 -269.42 683.807 -269.333 692.431C-269.246 701.105 -265.787 708.051 -259.481 713.376C-253.222 718.661 -244.276 722.248 -233.388 724.471C-222.489 726.696 -209.651 727.552 -195.625 727.359C-167.633 726.975 -134.469 722.407 -101.306 715.87C-68.1294 709.33 -34.7421 700.777 -6.2009 692.318C148.237 656.285 393.511 614.155 627.539 604.785C744.56 600.1 858.621 603.613 957.082 620.121C1055.55 636.63 1138.39 666.133 1193.03 713.388C1288.68 796.116 1428.91 836.173 1573.59 851.586C1718.24 866.996 1867.27 857.762 1980.61 841.909C2044.74 832.94 2088.93 813.792 2109.65 791.8C2127.04 773.341 2142.38 754.623 2151.97 736.413C2161.55 718.225 2165.49 700.391 2159.81 683.737C2154.09 666.998 2138.77 651.745 2110.56 638.688C2082.36 625.637 2041.19 614.724 1983.55 606.649C1804 581.496 1674.07 526.495 1600.57 476.149C1559.62 448.095 1496.48 422.758 1405.97 413.699Z" stroke="#E06121" stroke-width="2"/>
</g>
<path fill-rule="evenodd" clip-rule="evenodd" d="M895.856 392.65C721.967 396.343 561.897 415.565 468.113 462.783C292.6 551.15 46.132 596.75 -118.519 615.776C-184.326 623.38 -242.411 639.459 -255.216 661.884C-269.225 686.419 -267.719 702.516 -256.059 712.361C-250.246 717.27 -241.93 720.607 -231.789 722.677C-221.639 724.75 -209.528 725.579 -195.993 725.394C-168.86 725.021 -136.295 720.571 -103.284 714.064C-70.3142 707.565 -37.0762 699.049 -8.64048 690.619L-8.57469 690.6L-8.50245 690.583C146.184 654.486 392.052 612.229 626.904 602.827C744.35 598.125 859.149 601.635 958.418 618.278C1057.72 634.927 1141.32 664.69 1196.47 712.391C1291.55 794.625 1430.87 834.381 1574.41 849.674C1718.03 864.974 1866.19 855.818 1979.06 840.032C2042.1 831.215 2085.57 812.379 2105.92 790.779C2140.66 753.903 2166.86 716.312 2155.81 683.947C2150.29 667.774 2135.47 652.922 2107.81 640.118C2080.15 627.315 2039.58 616.532 1982.43 608.525C1801.82 583.223 1671.24 527.932 1597.36 477.319C1556.8 449.539 1494.4 424.545 1405.21 415.618C1257.17 400.8 1069.74 388.957 895.856 392.65ZM895.66 391.652C1070.04 387.948 1257.86 399.824 1406.09 414.661C1496.45 423.705 1559.37 448.989 1600.1 476.885C1673.81 527.378 1803.94 582.433 1983.62 607.605C2041.22 615.674 2082.25 626.566 2110.28 639.538C2138.31 652.509 2153.26 667.532 2158.83 683.835C2169.95 716.422 2143.57 754.187 2108.82 791.076C2088.27 812.888 2044.29 831.995 1980.25 840.952C1866.95 856.797 1718.01 866.023 1573.48 850.625C1428.87 835.22 1288.97 795.199 1193.63 712.747C1138.71 665.244 1055.57 635.69 957.039 619.169C858.471 602.643 744.328 599.133 627.271 603.819C393.151 613.192 147.803 655.339 -6.67323 691.382C-35.1982 699.836 -68.5682 708.386 -101.723 714.922C-134.861 721.454 -167.961 726.01 -195.867 726.393C-209.851 726.585 -222.602 725.73 -233.39 723.527C-244.186 721.323 -252.883 717.797 -258.89 712.724C-270.871 702.608 -272.235 686.277 -258.201 661.699C-245.124 638.796 -185.923 622.504 -119.525 614.832C44.6566 595.861 290.507 550.376 465.57 462.236C560.091 414.647 721.289 395.356 895.66 391.652Z" fill="white"/>
</g>
<g filter="url(#filter18_f_1_690)">
<path d="M-94.9675 693.118L-94.9935 693.123L-95.0193 693.13L-95.09 693.147C-125.627 700.724 -160.965 708.247 -195.498 713.77C-230.082 719.302 -263.637 722.791 -290.681 722.385C-304.173 722.182 -315.936 721.011 -325.397 718.681C-334.871 716.347 -342.041 712.85 -346.335 708.014C-350.587 703.228 -352.11 697.028 -350.059 689.007C-347.993 680.929 -342.301 671.037 -332.116 659.066C-327.573 653.725 -320.327 648.782 -310.879 644.287C-301.442 639.797 -289.875 635.784 -276.756 632.271C-250.517 625.246 -218.157 620.243 -184.409 617.403C-15.3135 603.171 242.414 564.804 440.801 481.748C546.527 437.486 710.898 422.922 885.092 424.232C1059.24 425.54 1242.78 442.711 1386.3 461.716C1472.65 473.149 1528 499.782 1560.86 528.457C1621.23 581.149 1736.86 640.033 1910.21 670.443C1964.98 680.052 2002.41 691.934 2026.43 705.4C2050.44 718.862 2060.95 733.837 2062.13 749.642C2063.32 765.534 2055.12 782.593 2040.91 800.245C2026.72 817.871 2006.68 835.926 1984.51 853.783C1958.74 874.543 1910.67 892.027 1845.62 898.993C1729.05 911.475 1579.12 916.34 1440.21 896.993C1301.31 877.649 1173.37 834.09 1100.67 749.728C1058.13 700.368 982.458 668.263 887.884 648.817C793.302 629.368 679.791 622.577 561.511 623.892C324.987 626.522 68.804 661.574 -94.8911 693.103L-94.9675 693.118ZM1387.7 458.806C1243.93 439.769 1059.92 422.545 885.176 421.232C710.476 419.919 544.605 434.504 437.641 479.286C240.051 562.007 -16.7831 600.255 -185.329 614.441C-219.455 617.314 -252.384 622.388 -279.19 629.563C-292.592 633.151 -304.485 637.269 -314.241 641.911C-323.984 646.547 -331.662 651.737 -336.565 657.5C-346.849 669.588 -352.824 679.823 -355.024 688.428C-357.239 697.091 -355.627 704.129 -350.747 709.623C-345.909 715.07 -337.948 718.898 -327.695 721.423C-317.431 723.952 -304.872 725.173 -290.85 725.383C-262.865 725.804 -228.62 722.205 -193.854 716.644C-159.073 711.081 -123.548 703.518 -92.8765 695.911C70.5158 664.445 326.014 629.511 561.636 626.892C679.453 625.582 792.153 632.353 885.872 651.624C979.599 670.896 1054.31 702.666 1096.23 751.306C1169.62 836.466 1298.71 880.391 1438.75 899.895C1578.76 919.396 1729.66 914.472 1846.77 901.932C1913.03 894.838 1962.12 877.032 1988.58 855.719C2010.79 837.83 2031.03 819.622 2045.41 801.755C2059.76 783.912 2068.42 766.246 2067.16 749.468C2065.9 732.601 2054.66 716.961 2030.02 703.149C2005.39 689.34 1967.26 677.289 1911.98 667.591C1739.78 637.381 1624.9 578.86 1565.01 526.597C1531.64 497.475 1475.45 470.425 1387.7 458.806Z" stroke="#E06121" stroke-width="2"/>
</g>
<g filter="url(#filter19_f_1_690)">
<path d="M-94.9675 693.118L-94.9935 693.123L-95.0193 693.13L-95.09 693.147C-125.627 700.724 -160.965 708.247 -195.498 713.77C-230.082 719.302 -263.637 722.791 -290.681 722.385C-304.173 722.182 -315.936 721.011 -325.397 718.681C-334.871 716.347 -342.041 712.85 -346.335 708.014C-350.587 703.228 -352.11 697.028 -350.059 689.007C-347.993 680.929 -342.301 671.037 -332.116 659.066C-327.573 653.725 -320.327 648.782 -310.879 644.287C-301.442 639.797 -289.875 635.784 -276.756 632.271C-250.517 625.246 -218.157 620.243 -184.409 617.403C-15.3135 603.171 242.414 564.804 440.801 481.748C546.527 437.486 710.898 422.922 885.092 424.232C1059.24 425.54 1242.78 442.711 1386.3 461.716C1472.65 473.149 1528 499.782 1560.86 528.457C1621.23 581.149 1736.86 640.033 1910.21 670.443C1964.98 680.052 2002.41 691.934 2026.43 705.4C2050.44 718.862 2060.95 733.837 2062.13 749.642C2063.32 765.534 2055.12 782.593 2040.91 800.245C2026.72 817.871 2006.68 835.926 1984.51 853.783C1958.74 874.543 1910.67 892.027 1845.62 898.993C1729.05 911.475 1579.12 916.34 1440.21 896.993C1301.31 877.649 1173.37 834.09 1100.67 749.728C1058.13 700.368 982.458 668.263 887.884 648.817C793.302 629.368 679.791 622.577 561.511 623.892C324.987 626.522 68.804 661.574 -94.8911 693.103L-94.9675 693.118ZM1387.7 458.806C1243.93 439.769 1059.92 422.545 885.176 421.232C710.476 419.919 544.605 434.504 437.641 479.286C240.051 562.007 -16.7831 600.255 -185.329 614.441C-219.455 617.314 -252.384 622.388 -279.19 629.563C-292.592 633.151 -304.485 637.269 -314.241 641.911C-323.984 646.547 -331.662 651.737 -336.565 657.5C-346.849 669.588 -352.824 679.823 -355.024 688.428C-357.239 697.091 -355.627 704.129 -350.747 709.623C-345.909 715.07 -337.948 718.898 -327.695 721.423C-317.431 723.952 -304.872 725.173 -290.85 725.383C-262.865 725.804 -228.62 722.205 -193.854 716.644C-159.073 711.081 -123.548 703.518 -92.8765 695.911C70.5158 664.445 326.014 629.511 561.636 626.892C679.453 625.582 792.153 632.353 885.872 651.624C979.599 670.896 1054.31 702.666 1096.23 751.306C1169.62 836.466 1298.71 880.391 1438.75 899.895C1578.76 919.396 1729.66 914.472 1846.77 901.932C1913.03 894.838 1962.12 877.032 1988.58 855.719C2010.79 837.83 2031.03 819.622 2045.41 801.755C2059.76 783.912 2068.42 766.246 2067.16 749.468C2065.9 732.601 2054.66 716.961 2030.02 703.149C2005.39 689.34 1967.26 677.289 1911.98 667.591C1739.78 637.381 1624.9 578.86 1565.01 526.597C1531.64 497.475 1475.45 470.425 1387.7 458.806Z" stroke="#E06121" stroke-width="2"/>
</g>
<g filter="url(#filter20_f_1_690)">
<path d="M-94.9675 693.118L-94.9935 693.123L-95.0193 693.13L-95.09 693.147C-125.627 700.724 -160.965 708.247 -195.498 713.77C-230.082 719.302 -263.637 722.791 -290.681 722.385C-304.173 722.182 -315.936 721.011 -325.397 718.681C-334.871 716.347 -342.041 712.85 -346.335 708.014C-350.587 703.228 -352.11 697.028 -350.059 689.007C-347.993 680.929 -342.301 671.037 -332.116 659.066C-327.573 653.725 -320.327 648.782 -310.879 644.287C-301.442 639.797 -289.875 635.784 -276.756 632.271C-250.517 625.246 -218.157 620.243 -184.409 617.403C-15.3135 603.171 242.414 564.804 440.801 481.748C546.527 437.486 710.898 422.922 885.092 424.232C1059.24 425.54 1242.78 442.711 1386.3 461.716C1472.65 473.149 1528 499.782 1560.86 528.457C1621.23 581.149 1736.86 640.033 1910.21 670.443C1964.98 680.052 2002.41 691.934 2026.43 705.4C2050.44 718.862 2060.95 733.837 2062.13 749.642C2063.32 765.534 2055.12 782.593 2040.91 800.245C2026.72 817.871 2006.68 835.926 1984.51 853.783C1958.74 874.543 1910.67 892.027 1845.62 898.993C1729.05 911.475 1579.12 916.34 1440.21 896.993C1301.31 877.649 1173.37 834.09 1100.67 749.728C1058.13 700.368 982.458 668.263 887.884 648.817C793.302 629.368 679.791 622.577 561.511 623.892C324.987 626.522 68.804 661.574 -94.8911 693.103L-94.9675 693.118ZM1387.7 458.806C1243.93 439.769 1059.92 422.545 885.176 421.232C710.476 419.919 544.605 434.504 437.641 479.286C240.051 562.007 -16.7831 600.255 -185.329 614.441C-219.455 617.314 -252.384 622.388 -279.19 629.563C-292.592 633.151 -304.485 637.269 -314.241 641.911C-323.984 646.547 -331.662 651.737 -336.565 657.5C-346.849 669.588 -352.824 679.823 -355.024 688.428C-357.239 697.091 -355.627 704.129 -350.747 709.623C-345.909 715.07 -337.948 718.898 -327.695 721.423C-317.431 723.952 -304.872 725.173 -290.85 725.383C-262.865 725.804 -228.62 722.205 -193.854 716.644C-159.073 711.081 -123.548 703.518 -92.8765 695.911C70.5158 664.445 326.014 629.511 561.636 626.892C679.453 625.582 792.153 632.353 885.872 651.624C979.599 670.896 1054.31 702.666 1096.23 751.306C1169.62 836.466 1298.71 880.391 1438.75 899.895C1578.76 919.396 1729.66 914.472 1846.77 901.932C1913.03 894.838 1962.12 877.032 1988.58 855.719C2010.79 837.83 2031.03 819.622 2045.41 801.755C2059.76 783.912 2068.42 766.246 2067.16 749.468C2065.9 732.601 2054.66 716.961 2030.02 703.149C2005.39 689.34 1967.26 677.289 1911.98 667.591C1739.78 637.381 1624.9 578.86 1565.01 526.597C1531.64 497.475 1475.45 470.425 1387.7 458.806Z" stroke="#E06121" stroke-width="2"/>
</g>
<path fill-rule="evenodd" clip-rule="evenodd" d="M885.099 423.232C710.894 421.922 546.344 436.478 440.415 480.826C242.173 563.821 -15.4312 602.177 -184.493 616.407C-252.063 622.094 -314.184 636.445 -332.878 658.418C-353.33 682.457 -356.091 698.536 -347.083 708.678C-342.592 713.735 -335.19 717.298 -325.636 719.652C-316.074 722.007 -304.229 723.181 -290.696 723.385C-263.568 723.792 -229.948 720.293 -195.34 714.758C-160.775 709.229 -125.409 701.7 -94.8492 694.118L-94.7784 694.1L-94.702 694.085C68.9529 662.564 325.074 627.521 561.522 624.892C679.766 623.578 793.199 630.368 887.683 649.796C982.196 669.23 1057.6 701.278 1099.91 750.38C1172.86 835.029 1301.12 878.631 1440.07 897.984C1579.09 917.346 1729.1 912.475 1845.73 899.987C1910.86 893.013 1959.15 875.495 1985.14 854.562C2029.52 818.822 2065.57 782.126 2063.13 749.567C2061.91 733.297 2051.08 718.077 2026.92 704.527C2002.75 690.98 1965.19 679.074 1910.38 669.458C1737.16 639.07 1621.72 580.244 1561.51 527.703C1528.47 498.866 1472.92 472.176 1386.43 460.725C1242.88 441.716 1059.3 424.541 885.099 423.232ZM885.168 422.232C1059.86 423.545 1243.82 440.763 1387.57 459.797C1475.18 471.398 1531.17 498.391 1564.36 527.35C1624.42 579.765 1739.48 638.344 1911.81 668.576C1967.05 678.266 2005.05 690.294 2029.53 704.021C2054.02 717.746 2064.94 733.141 2066.17 749.542C2068.62 782.325 2032.34 819.188 1987.95 854.94C1961.7 876.08 1912.84 893.853 1846.67 900.938C1729.61 913.473 1578.79 918.39 1438.88 898.905C1298.91 879.409 1170.13 835.527 1096.99 750.653C1054.85 701.755 979.86 669.929 886.073 650.644C792.256 631.353 679.478 624.581 561.624 625.892C325.914 628.512 70.3402 663.459 -93.0913 694.934C-123.746 702.538 -159.253 710.098 -194.012 715.657C-228.754 721.214 -262.934 724.802 -290.835 724.384C-304.816 724.174 -317.293 722.956 -327.456 720.452C-337.628 717.947 -345.358 714.184 -349.999 708.959C-359.256 698.537 -356.291 682.229 -335.803 658.148C-316.711 635.707 -253.422 621.176 -185.245 615.438C-16.6655 601.249 240.292 562.991 438.027 480.208C544.788 435.512 710.48 420.919 885.168 422.232Z" fill="white"/>
<defs>
<filter id="filter0_f_1_690" x="63.8242" y="156.095" width="2404.01" height="591.042" filterUnits="userSpaceOnUse" color-interpolation-filters="sRGB">
<feFlood flood-opacity="0" result="BackgroundImageFix"/>
<feBlend mode="normal" in="SourceGraphic" in2="BackgroundImageFix" result="shape"/>
<feGaussianBlur stdDeviation="20" result="effect1_foregroundBlur_1_690"/>
</filter>
<filter id="filter1_f_1_690" x="88.8242" y="181.095" width="2354.01" height="541.042" filterUnits="userSpaceOnUse" color-interpolation-filters="sRGB">
<feFlood flood-opacity="0" result="BackgroundImageFix"/>
<feBlend mode="normal" in="SourceGraphic" in2="BackgroundImageFix" result="shape"/>
<feGaussianBlur stdDeviation="7.5" result="effect1_foregroundBlur_1_690"/>
</filter>
<filter id="filter2_f_1_690" x="99.8242" y="192.095" width="2332.01" height="519.042" filterUnits="userSpaceOnUse" color-interpolation-filters="sRGB">
<feFlood flood-opacity="0" result="BackgroundImageFix"/>
<feBlend mode="normal" in="SourceGraphic" in2="BackgroundImageFix" result="shape"/>
<feGaussianBlur stdDeviation="2" result="effect1_foregroundBlur_1_690"/>
</filter>
<filter id="filter3_f_1_690" x="-3.26123" y="197.546" width="2446.2" height="557.697" filterUnits="userSpaceOnUse" color-interpolation-filters="sRGB">
<feFlood flood-opacity="0" result="BackgroundImageFix"/>
<feBlend mode="normal" in="SourceGraphic" in2="BackgroundImageFix" result="shape"/>
<feGaussianBlur stdDeviation="20" result="effect1_foregroundBlur_1_690"/>
</filter>
<filter id="filter4_f_1_690" x="21.7388" y="222.546" width="2396.2" height="507.697" filterUnits="userSpaceOnUse" color-interpolation-filters="sRGB">
<feFlood flood-opacity="0" result="BackgroundImageFix"/>
<feBlend mode="normal" in="SourceGraphic" in2="BackgroundImageFix" result="shape"/>
<feGaussianBlur stdDeviation="7.5" result="effect1_foregroundBlur_1_690"/>
</filter>
<filter id="filter5_f_1_690" x="32.7388" y="233.546" width="2374.2" height="485.697" filterUnits="userSpaceOnUse" color-interpolation-filters="sRGB">
<feFlood flood-opacity="0" result="BackgroundImageFix"/>
<feBlend mode="normal" in="SourceGraphic" in2="BackgroundImageFix" result="shape"/>
<feGaussianBlur stdDeviation="2" result="effect1_foregroundBlur_1_690"/>
</filter>
<filter id="filter6_f_1_690" x="-73.915" y="239.649" width="2474.99" height="521.848" filterUnits="userSpaceOnUse" color-interpolation-filters="sRGB">
<feFlood flood-opacity="0" result="BackgroundImageFix"/>
<feBlend mode="normal" in="SourceGraphic" in2="BackgroundImageFix" result="shape"/>
<feGaussianBlur stdDeviation="20" result="effect1_foregroundBlur_1_690"/>
</filter>
<filter id="filter7_f_1_690" x="-48.915" y="264.649" width="2424.99" height="471.848" filterUnits="userSpaceOnUse" color-interpolation-filters="sRGB">
<feFlood flood-opacity="0" result="BackgroundImageFix"/>
<feBlend mode="normal" in="SourceGraphic" in2="BackgroundImageFix" result="shape"/>
<feGaussianBlur stdDeviation="7.5" result="effect1_foregroundBlur_1_690"/>
</filter>
<filter id="filter8_f_1_690" x="-37.915" y="275.649" width="2402.99" height="449.848" filterUnits="userSpaceOnUse" color-interpolation-filters="sRGB">
<feFlood flood-opacity="0" result="BackgroundImageFix"/>
<feBlend mode="normal" in="SourceGraphic" in2="BackgroundImageFix" result="shape"/>
<feGaussianBlur stdDeviation="2" result="effect1_foregroundBlur_1_690"/>
</filter>
<filter id="filter9_f_1_690" x="-147.741" y="279.194" width="2496.51" height="508.714" filterUnits="userSpaceOnUse" color-interpolation-filters="sRGB">
<feFlood flood-opacity="0" result="BackgroundImageFix"/>
<feBlend mode="normal" in="SourceGraphic" in2="BackgroundImageFix" result="shape"/>
<feGaussianBlur stdDeviation="20" result="effect1_foregroundBlur_1_690"/>
</filter>
<filter id="filter10_f_1_690" x="-122.741" y="304.194" width="2446.51" height="458.714" filterUnits="userSpaceOnUse" color-interpolation-filters="sRGB">
<feFlood flood-opacity="0" result="BackgroundImageFix"/>
<feBlend mode="normal" in="SourceGraphic" in2="BackgroundImageFix" result="shape"/>
<feGaussianBlur stdDeviation="7.5" result="effect1_foregroundBlur_1_690"/>
</filter>
<filter id="filter11_f_1_690" x="-111.741" y="315.194" width="2424.51" height="436.714" filterUnits="userSpaceOnUse" color-interpolation-filters="sRGB">
<feFlood flood-opacity="0" result="BackgroundImageFix"/>
<feBlend mode="normal" in="SourceGraphic" in2="BackgroundImageFix" result="shape"/>
<feGaussianBlur stdDeviation="2" result="effect1_foregroundBlur_1_690"/>
</filter>
<filter id="filter12_f_1_690" x="-226.717" y="315.517" width="2510.17" height="529.443" filterUnits="userSpaceOnUse" color-interpolation-filters="sRGB">
<feFlood flood-opacity="0" result="BackgroundImageFix"/>
<feBlend mode="normal" in="SourceGraphic" in2="BackgroundImageFix" result="shape"/>
<feGaussianBlur stdDeviation="20" result="effect1_foregroundBlur_1_690"/>
</filter>
<filter id="filter13_f_1_690" x="-201.717" y="340.517" width="2460.17" height="479.443" filterUnits="userSpaceOnUse" color-interpolation-filters="sRGB">
<feFlood flood-opacity="0" result="BackgroundImageFix"/>
<feBlend mode="normal" in="SourceGraphic" in2="BackgroundImageFix" result="shape"/>
<feGaussianBlur stdDeviation="7.5" result="effect1_foregroundBlur_1_690"/>
</filter>
<filter id="filter14_f_1_690" x="-190.717" y="351.517" width="2438.17" height="457.443" filterUnits="userSpaceOnUse" color-interpolation-filters="sRGB">
<feFlood flood-opacity="0" result="BackgroundImageFix"/>
<feBlend mode="normal" in="SourceGraphic" in2="BackgroundImageFix" result="shape"/>
<feGaussianBlur stdDeviation="2" result="effect1_foregroundBlur_1_690"/>
</filter>
<filter id="filter15_f_1_690" x="-310.367" y="349.035" width="2513.84" height="551.42" filterUnits="userSpaceOnUse" color-interpolation-filters="sRGB">
<feFlood flood-opacity="0" result="BackgroundImageFix"/>
<feBlend mode="normal" in="SourceGraphic" in2="BackgroundImageFix" result="shape"/>
<feGaussianBlur stdDeviation="20" result="effect1_foregroundBlur_1_690"/>
</filter>
<filter id="filter16_f_1_690" x="-285.367" y="374.035" width="2463.84" height="501.42" filterUnits="userSpaceOnUse" color-interpolation-filters="sRGB">
<feFlood flood-opacity="0" result="BackgroundImageFix"/>
<feBlend mode="normal" in="SourceGraphic" in2="BackgroundImageFix" result="shape"/>
<feGaussianBlur stdDeviation="7.5" result="effect1_foregroundBlur_1_690"/>
</filter>
<filter id="filter17_f_1_690" x="-274.367" y="385.035" width="2441.84" height="479.42" filterUnits="userSpaceOnUse" color-interpolation-filters="sRGB">
<feFlood flood-opacity="0" result="BackgroundImageFix"/>
<feBlend mode="normal" in="SourceGraphic" in2="BackgroundImageFix" result="shape"/>
<feGaussianBlur stdDeviation="2" result="effect1_foregroundBlur_1_690"/>
</filter>
<filter id="filter18_f_1_690" x="-396.999" y="380.151" width="2505.28" height="573.802" filterUnits="userSpaceOnUse" color-interpolation-filters="sRGB">
<feFlood flood-opacity="0" result="BackgroundImageFix"/>
<feBlend mode="normal" in="SourceGraphic" in2="BackgroundImageFix" result="shape"/>
<feGaussianBlur stdDeviation="20" result="effect1_foregroundBlur_1_690"/>
</filter>
<filter id="filter19_f_1_690" x="-371.999" y="405.151" width="2455.28" height="523.802" filterUnits="userSpaceOnUse" color-interpolation-filters="sRGB">
<feFlood flood-opacity="0" result="BackgroundImageFix"/>
<feBlend mode="normal" in="SourceGraphic" in2="BackgroundImageFix" result="shape"/>
<feGaussianBlur stdDeviation="7.5" result="effect1_foregroundBlur_1_690"/>
</filter>
<filter id="filter20_f_1_690" x="-360.999" y="416.151" width="2433.28" height="501.802" filterUnits="userSpaceOnUse" color-interpolation-filters="sRGB">
<feFlood flood-opacity="0" result="BackgroundImageFix"/>
<feBlend mode="normal" in="SourceGraphic" in2="BackgroundImageFix" result="shape"/>
<feGaussianBlur stdDeviation="2" result="effect1_foregroundBlur_1_690"/>
</filter>
</defs>
</svg>
