<svg width="1052" height="1088" viewBox="0 0 1052 1088" fill="none" xmlns="http://www.w3.org/2000/svg">
<g opacity="0.142857">
<g filter="url(#filter0_f_1_640)">
<path d="M752.055 368.828L752.112 368.813L752.169 368.805L752.196 368.801C763.716 367.183 776.218 364.5 787.224 360.692C798.275 356.868 807.63 351.974 813.045 346.041C815.733 343.097 817.403 339.949 817.887 336.586C818.37 333.232 817.695 329.516 815.434 325.387C810.869 317.05 799.941 307.219 779.806 295.894C761.792 285.762 739.377 289.614 721.245 300.362C675.293 327.6 594.34 358.126 496.883 346.464C445.392 340.303 400.632 366.029 364.008 404.365C327.388 442.696 299.089 493.454 280.599 536.831C269.601 562.632 274.998 591.799 286.718 617.716C308.226 665.274 321.966 729.013 304.41 786.633C298.932 804.613 298.65 820.333 302.264 834.227C305.88 848.128 313.42 860.297 323.732 871.13C344.396 892.839 376.062 909.051 409.055 922.899C428.181 930.927 449.769 931.946 468.078 922.625C501.297 905.713 536.643 876.687 553.83 834.288C570.991 791.956 570.161 736.015 530.524 664.984C507.362 623.478 502.562 585.945 510.281 552.535C517.992 519.157 538.158 490.062 564.63 465.32C617.546 415.862 695.965 383.507 752.029 368.834L752.055 368.828ZM752.688 371.688C696.874 386.307 619.025 418.485 566.629 467.458C540.432 491.943 520.673 520.554 513.133 553.193C505.6 585.8 510.221 622.594 533.08 663.558C573.051 735.186 574.107 792.062 556.543 835.388C539.007 878.648 503.019 908.121 469.406 925.234C450.162 935.031 427.65 933.879 407.922 925.598C374.893 911.735 342.728 895.331 321.612 873.149C311.034 862.036 303.197 849.442 299.431 834.964C295.663 820.479 295.996 804.205 301.61 785.78C318.882 729.092 305.397 666.122 284.051 618.922C272.174 592.659 266.448 562.564 277.907 535.683C296.474 492.124 324.942 441.02 361.892 402.343C398.837 363.671 444.451 337.242 497.231 343.558C593.902 355.125 674.213 324.838 719.752 297.844C738.403 286.789 761.986 282.513 781.241 293.343C801.487 304.73 813.027 314.895 818.001 323.981C820.51 328.562 821.373 332.914 820.784 337.003C820.197 341.082 818.187 344.75 815.207 348.014C809.29 354.498 799.367 359.588 788.181 363.458C776.978 367.334 764.317 370.05 752.688 371.688Z" stroke="#E06121" stroke-width="2"/>
</g>
<g filter="url(#filter1_f_1_640)">
<path d="M752.055 368.828L752.112 368.813L752.169 368.805L752.196 368.801C763.716 367.183 776.218 364.5 787.224 360.692C798.275 356.868 807.63 351.974 813.045 346.041C815.733 343.097 817.403 339.949 817.887 336.586C818.37 333.232 817.695 329.516 815.434 325.387C810.869 317.05 799.941 307.219 779.806 295.894C761.792 285.762 739.377 289.614 721.245 300.362C675.293 327.6 594.34 358.126 496.883 346.464C445.392 340.303 400.632 366.029 364.008 404.365C327.388 442.696 299.089 493.454 280.599 536.831C269.601 562.632 274.998 591.799 286.718 617.716C308.226 665.274 321.966 729.013 304.41 786.633C298.932 804.613 298.65 820.333 302.264 834.227C305.88 848.128 313.42 860.297 323.732 871.13C344.396 892.839 376.062 909.051 409.055 922.899C428.181 930.927 449.769 931.946 468.078 922.625C501.297 905.713 536.643 876.687 553.83 834.288C570.991 791.956 570.161 736.015 530.524 664.984C507.362 623.478 502.562 585.945 510.281 552.535C517.992 519.157 538.158 490.062 564.63 465.32C617.546 415.862 695.965 383.507 752.029 368.834L752.055 368.828ZM752.688 371.688C696.874 386.307 619.025 418.485 566.629 467.458C540.432 491.943 520.673 520.554 513.133 553.193C505.6 585.8 510.221 622.594 533.08 663.558C573.051 735.186 574.107 792.062 556.543 835.388C539.007 878.648 503.019 908.121 469.406 925.234C450.162 935.031 427.65 933.879 407.922 925.598C374.893 911.735 342.728 895.331 321.612 873.149C311.034 862.036 303.197 849.442 299.431 834.964C295.663 820.479 295.996 804.205 301.61 785.78C318.882 729.092 305.397 666.122 284.051 618.922C272.174 592.659 266.448 562.564 277.907 535.683C296.474 492.124 324.942 441.02 361.892 402.343C398.837 363.671 444.451 337.242 497.231 343.558C593.902 355.125 674.213 324.838 719.752 297.844C738.403 286.789 761.986 282.513 781.241 293.343C801.487 304.73 813.027 314.895 818.001 323.981C820.51 328.562 821.373 332.914 820.784 337.003C820.197 341.082 818.187 344.75 815.207 348.014C809.29 354.498 799.367 359.588 788.181 363.458C776.978 367.334 764.317 370.05 752.688 371.688Z" stroke="#E06121" stroke-width="2"/>
</g>
<g filter="url(#filter2_f_1_640)">
<path d="M752.055 368.828L752.112 368.813L752.169 368.805L752.196 368.801C763.716 367.183 776.218 364.5 787.224 360.692C798.275 356.868 807.63 351.974 813.045 346.041C815.733 343.097 817.403 339.949 817.887 336.586C818.37 333.232 817.695 329.516 815.434 325.387C810.869 317.05 799.941 307.219 779.806 295.894C761.792 285.762 739.377 289.614 721.245 300.362C675.293 327.6 594.34 358.126 496.883 346.464C445.392 340.303 400.632 366.029 364.008 404.365C327.388 442.696 299.089 493.454 280.599 536.831C269.601 562.632 274.998 591.799 286.718 617.716C308.226 665.274 321.966 729.013 304.41 786.633C298.932 804.613 298.65 820.333 302.264 834.227C305.88 848.128 313.42 860.297 323.732 871.13C344.396 892.839 376.062 909.051 409.055 922.899C428.181 930.927 449.769 931.946 468.078 922.625C501.297 905.713 536.643 876.687 553.83 834.288C570.991 791.956 570.161 736.015 530.524 664.984C507.362 623.478 502.562 585.945 510.281 552.535C517.992 519.157 538.158 490.062 564.63 465.32C617.546 415.862 695.965 383.507 752.029 368.834L752.055 368.828ZM752.688 371.688C696.874 386.307 619.025 418.485 566.629 467.458C540.432 491.943 520.673 520.554 513.133 553.193C505.6 585.8 510.221 622.594 533.08 663.558C573.051 735.186 574.107 792.062 556.543 835.388C539.007 878.648 503.019 908.121 469.406 925.234C450.162 935.031 427.65 933.879 407.922 925.598C374.893 911.735 342.728 895.331 321.612 873.149C311.034 862.036 303.197 849.442 299.431 834.964C295.663 820.479 295.996 804.205 301.61 785.78C318.882 729.092 305.397 666.122 284.051 618.922C272.174 592.659 266.448 562.564 277.907 535.683C296.474 492.124 324.942 441.02 361.892 402.343C398.837 363.671 444.451 337.242 497.231 343.558C593.902 355.125 674.213 324.838 719.752 297.844C738.403 286.789 761.986 282.513 781.241 293.343C801.487 304.73 813.027 314.895 818.001 323.981C820.51 328.562 821.373 332.914 820.784 337.003C820.197 341.082 818.187 344.75 815.207 348.014C809.29 354.498 799.367 359.588 788.181 363.458C776.978 367.334 764.317 370.05 752.688 371.688Z" stroke="#E06121" stroke-width="2"/>
</g>
<path fill-rule="evenodd" clip-rule="evenodd" d="M363.285 403.674C400.019 365.224 445.07 339.257 497.002 345.471C594.19 357.101 674.924 326.656 720.735 299.502C739.045 288.649 761.858 284.652 780.297 295.023C800.469 306.368 811.606 316.314 816.311 324.906C818.657 329.19 819.396 333.124 818.877 336.728C818.357 340.336 816.571 343.662 813.784 346.715C808.197 352.836 798.648 357.797 787.551 361.637C776.468 365.471 763.9 368.167 752.335 369.791L752.308 369.795L752.282 369.802C696.302 384.453 618.06 416.75 565.313 466.05C538.934 490.705 518.908 519.634 511.255 552.76C503.6 585.895 508.339 623.176 531.397 664.497C571.148 735.732 572.055 791.992 554.757 834.664C537.45 877.357 501.885 906.536 468.531 923.516C449.903 933 428 931.935 408.668 923.821C375.663 909.968 343.826 893.69 323.008 871.82C312.605 860.892 304.963 848.577 301.296 834.479C297.63 820.383 297.929 804.473 303.453 786.341C320.912 729.04 307.259 665.564 285.807 618.128C274.033 592.093 268.524 562.609 279.679 536.439C298.196 493 326.553 442.124 363.285 403.674ZM362.615 403.034C325.778 441.593 297.368 492.578 278.827 536.075C267.525 562.587 273.139 592.365 284.963 618.51C306.363 665.833 319.935 729.065 302.566 786.071C296.999 804.344 296.684 820.429 300.399 834.712C304.113 848.993 311.849 861.442 322.336 872.459C343.298 894.48 375.293 910.818 408.309 924.676C427.832 932.87 450.028 933.977 468.952 924.343C502.431 907.299 538.199 877.978 555.616 835.012C573.042 792.026 572.063 735.469 532.207 664.045C509.244 622.896 504.562 585.849 512.159 552.968C519.757 520.077 539.655 491.3 565.946 466.728C618.529 417.581 696.59 385.34 752.491 370.706C764.091 369.075 776.709 366.369 787.854 362.513C798.994 358.659 808.723 353.635 814.469 347.34C817.348 344.185 819.242 340.695 819.795 336.86C820.347 333.023 819.548 328.888 817.124 324.461C812.29 315.631 800.959 305.58 780.751 294.214C761.92 283.623 738.736 287.754 720.262 298.704C674.582 325.781 594.051 356.15 497.112 344.551C444.772 338.288 399.451 364.477 362.615 403.034Z" fill="white"/>
</g>
<g opacity="0.285714">
<g filter="url(#filter3_f_1_640)">
<path d="M768.662 351.64L768.717 351.62L768.774 351.607L768.8 351.601C780.135 348.985 792.355 345.223 802.988 340.47C813.664 335.698 822.557 330.007 827.434 323.624C829.855 320.457 831.244 317.175 831.433 313.783C831.622 310.4 830.626 306.757 828.014 302.84C822.74 294.933 810.996 286.092 789.951 276.565C771.122 268.042 749.129 273.833 732.002 286.12C688.599 317.259 610.614 354.724 512.512 351.601C460.679 349.951 418.333 379.481 385.189 420.863C352.049 462.24 328.282 515.271 313.643 560.094C304.935 586.755 312.853 615.341 326.788 640.138C352.358 685.641 371.602 747.939 359.134 806.87C355.244 825.259 356.333 840.944 361.145 854.47C365.958 868.003 374.53 879.469 385.747 889.362C408.225 909.187 441.183 922.577 475.258 933.497C495.011 939.828 516.605 938.962 534.032 928.08C565.651 908.338 598.332 876.341 611.759 832.606C625.165 788.939 619.463 733.283 573.786 665.977C547.095 626.648 539.042 589.676 543.819 555.72C548.592 521.797 566.145 491.055 590.36 464.1C638.764 410.218 714.065 371.152 768.637 351.649L768.662 351.64ZM769.541 354.434C715.215 373.862 640.466 412.703 592.537 466.056C568.574 492.731 551.385 522.955 546.718 556.128C542.055 589.266 549.865 625.518 576.208 664.334C622.269 732.205 628.278 788.773 614.557 833.465C600.858 878.089 567.576 910.586 535.582 930.563C517.266 942 494.739 942.814 474.364 936.285C440.253 925.353 406.78 911.815 383.811 891.557C372.305 881.409 363.4 869.546 358.387 855.451C353.371 841.35 352.284 825.109 356.271 806.264C368.536 748.287 349.614 686.732 324.236 641.572C310.115 616.444 301.788 586.963 310.86 559.185C325.561 514.173 349.466 460.783 382.904 419.033C416.339 377.288 459.476 346.984 512.605 348.676C609.916 351.774 687.282 314.602 730.296 283.742C747.912 271.103 771.032 264.788 791.158 273.899C812.319 283.478 824.701 292.598 830.449 301.216C833.347 305.561 834.586 309.821 834.356 313.946C834.126 318.061 832.443 321.89 829.76 325.402C824.43 332.376 814.989 338.312 804.183 343.142C793.36 347.98 780.984 351.789 769.541 354.434Z" stroke="#E06121" stroke-width="2"/>
</g>
<g filter="url(#filter4_f_1_640)">
<path d="M768.662 351.64L768.717 351.62L768.774 351.607L768.8 351.601C780.135 348.985 792.355 345.223 802.988 340.47C813.664 335.698 822.557 330.007 827.434 323.624C829.855 320.457 831.244 317.175 831.433 313.783C831.622 310.4 830.626 306.757 828.014 302.84C822.74 294.933 810.996 286.092 789.951 276.565C771.122 268.042 749.129 273.833 732.002 286.12C688.599 317.259 610.614 354.724 512.512 351.601C460.679 349.951 418.333 379.481 385.189 420.863C352.049 462.24 328.282 515.271 313.643 560.094C304.935 586.755 312.853 615.341 326.788 640.138C352.358 685.641 371.602 747.939 359.134 806.87C355.244 825.259 356.333 840.944 361.145 854.47C365.958 868.003 374.53 879.469 385.747 889.362C408.225 909.187 441.183 922.577 475.258 933.497C495.011 939.828 516.605 938.962 534.032 928.08C565.651 908.338 598.332 876.341 611.759 832.606C625.165 788.939 619.463 733.283 573.786 665.977C547.095 626.648 539.042 589.676 543.819 555.72C548.592 521.797 566.145 491.055 590.36 464.1C638.764 410.218 714.065 371.152 768.637 351.649L768.662 351.64ZM769.541 354.434C715.215 373.862 640.466 412.703 592.537 466.056C568.574 492.731 551.385 522.955 546.718 556.128C542.055 589.266 549.865 625.518 576.208 664.334C622.269 732.205 628.278 788.773 614.557 833.465C600.858 878.089 567.576 910.586 535.582 930.563C517.266 942 494.739 942.814 474.364 936.285C440.253 925.353 406.78 911.815 383.811 891.557C372.305 881.409 363.4 869.546 358.387 855.451C353.371 841.35 352.284 825.109 356.271 806.264C368.536 748.287 349.614 686.732 324.236 641.572C310.115 616.444 301.788 586.963 310.86 559.185C325.561 514.173 349.466 460.783 382.904 419.033C416.339 377.288 459.476 346.984 512.605 348.676C609.916 351.774 687.282 314.602 730.296 283.742C747.912 271.103 771.032 264.788 791.158 273.899C812.319 283.478 824.701 292.598 830.449 301.216C833.347 305.561 834.586 309.821 834.356 313.946C834.126 318.061 832.443 321.89 829.76 325.402C824.43 332.376 814.989 338.312 804.183 343.142C793.36 347.98 780.984 351.789 769.541 354.434Z" stroke="#E06121" stroke-width="2"/>
</g>
<g filter="url(#filter5_f_1_640)">
<path d="M768.662 351.64L768.717 351.62L768.774 351.607L768.8 351.601C780.135 348.985 792.355 345.223 802.988 340.47C813.664 335.698 822.557 330.007 827.434 323.624C829.855 320.457 831.244 317.175 831.433 313.783C831.622 310.4 830.626 306.757 828.014 302.84C822.74 294.933 810.996 286.092 789.951 276.565C771.122 268.042 749.129 273.833 732.002 286.12C688.599 317.259 610.614 354.724 512.512 351.601C460.679 349.951 418.333 379.481 385.189 420.863C352.049 462.24 328.282 515.271 313.643 560.094C304.935 586.755 312.853 615.341 326.788 640.138C352.358 685.641 371.602 747.939 359.134 806.87C355.244 825.259 356.333 840.944 361.145 854.47C365.958 868.003 374.53 879.469 385.747 889.362C408.225 909.187 441.183 922.577 475.258 933.497C495.011 939.828 516.605 938.962 534.032 928.08C565.651 908.338 598.332 876.341 611.759 832.606C625.165 788.939 619.463 733.283 573.786 665.977C547.095 626.648 539.042 589.676 543.819 555.72C548.592 521.797 566.145 491.055 590.36 464.1C638.764 410.218 714.065 371.152 768.637 351.649L768.662 351.64ZM769.541 354.434C715.215 373.862 640.466 412.703 592.537 466.056C568.574 492.731 551.385 522.955 546.718 556.128C542.055 589.266 549.865 625.518 576.208 664.334C622.269 732.205 628.278 788.773 614.557 833.465C600.858 878.089 567.576 910.586 535.582 930.563C517.266 942 494.739 942.814 474.364 936.285C440.253 925.353 406.78 911.815 383.811 891.557C372.305 881.409 363.4 869.546 358.387 855.451C353.371 841.35 352.284 825.109 356.271 806.264C368.536 748.287 349.614 686.732 324.236 641.572C310.115 616.444 301.788 586.963 310.86 559.185C325.561 514.173 349.466 460.783 382.904 419.033C416.339 377.288 459.476 346.984 512.605 348.676C609.916 351.774 687.282 314.602 730.296 283.742C747.912 271.103 771.032 264.788 791.158 273.899C812.319 283.478 824.701 292.598 830.449 301.216C833.347 305.561 834.586 309.821 834.356 313.946C834.126 318.061 832.443 321.89 829.76 325.402C824.43 332.376 814.989 338.312 804.183 343.142C793.36 347.98 780.984 351.789 769.541 354.434Z" stroke="#E06121" stroke-width="2"/>
</g>
<path fill-rule="evenodd" clip-rule="evenodd" d="M384.408 420.238C417.651 378.732 460.268 348.937 512.544 350.602C610.376 353.716 688.149 316.351 731.419 285.308C748.713 272.9 771.092 266.93 790.363 275.654C811.448 285.199 823.41 294.135 828.846 302.285C831.556 306.349 832.635 310.203 832.432 313.839C832.229 317.478 830.739 320.947 828.229 324.231C823.197 330.816 814.117 336.591 803.396 341.383C792.69 346.169 780.404 349.95 769.025 352.575L768.999 352.581L768.973 352.591C714.483 372.065 639.353 411.058 591.104 464.768C566.975 491.628 549.546 522.193 544.809 555.859C540.071 589.536 548.041 626.262 574.613 665.416C620.421 732.915 626.228 788.882 612.715 832.899C599.195 876.938 566.308 909.106 534.562 928.929C516.831 940 494.918 940.848 474.952 934.45C440.865 923.525 407.731 910.085 385.086 890.112C373.77 880.132 365.084 868.53 360.202 854.805C355.321 841.082 354.233 825.208 358.156 806.663C370.554 748.058 351.421 686.013 325.916 640.628C311.918 615.717 303.86 586.826 312.692 559.783C327.352 514.896 351.167 461.742 384.408 420.238ZM383.685 419.658C350.348 461.281 326.49 514.548 311.811 559.495C302.863 586.892 311.051 616.067 325.108 641.082C350.552 686.359 369.583 748.168 357.249 806.471C353.295 825.16 354.383 841.211 359.329 855.116C364.274 869.019 373.065 880.746 384.473 890.807C407.273 910.917 440.571 924.405 474.669 935.332C494.832 941.794 517.04 940.962 535.053 929.715C566.918 909.818 599.995 877.492 613.601 833.171C627.214 788.829 621.31 732.573 575.38 664.895C548.919 625.904 541.026 589.406 545.727 555.988C550.43 522.56 567.744 492.159 591.793 465.388C639.893 411.845 714.847 372.923 769.26 353.473C780.673 350.837 793.008 347.042 803.775 342.229C814.536 337.419 823.79 331.567 828.965 324.794C831.559 321.401 833.142 317.758 833.357 313.89C833.573 310.019 832.417 305.97 829.617 301.771C824.031 293.396 811.867 284.371 790.746 274.81C771.063 265.9 748.328 272.036 730.879 284.554C687.732 315.51 610.155 352.782 512.573 349.675C459.887 347.998 417.02 378.037 383.685 419.658Z" fill="white"/>
</g>
<g opacity="0.428571">
<g filter="url(#filter6_f_1_640)">
<path d="M784.189 332.763L784.242 332.739L784.298 332.721L784.324 332.712C795.387 329.119 807.233 324.305 817.411 318.644C827.631 312.959 835.994 306.515 840.296 299.732C842.432 296.366 843.53 292.975 843.423 289.579C843.316 286.193 842.006 282.651 839.062 278.976C833.119 271.559 820.65 263.775 798.854 256.119C779.354 249.269 757.949 256.955 741.959 270.688C701.435 305.491 627.012 349.611 529.011 355.05C477.232 357.923 437.62 391.031 408.209 435.144C378.802 479.252 359.746 534.153 349.07 580.081C342.719 607.4 353.098 635.187 369.141 658.675C398.58 701.776 423.18 762.161 415.896 821.954C413.623 840.611 416.075 856.142 422.047 869.197C428.022 882.259 437.561 892.935 449.597 901.812C473.717 919.602 507.718 930.07 542.614 937.978C562.844 942.563 584.28 939.818 600.692 927.459C630.47 905.036 660.239 870.313 669.803 825.574C679.352 780.904 668.82 725.957 617.451 662.889C587.434 626.035 576.189 589.906 577.989 555.663C579.787 521.453 594.594 489.299 616.367 460.335C659.891 402.44 731.501 356.96 784.165 332.774L784.189 332.763ZM785.309 335.47C732.882 359.559 661.804 404.767 618.707 462.094C597.16 490.756 582.67 522.364 580.912 555.816C579.156 589.235 590.095 624.668 619.721 661.04C671.522 724.639 682.438 780.468 672.665 826.186C662.907 871.834 632.584 907.108 602.453 929.798C585.203 942.787 562.833 945.562 541.967 940.833C507.032 932.916 472.507 922.347 447.86 904.168C435.513 895.061 425.608 884.02 419.386 870.415C413.16 856.805 410.661 840.72 412.99 821.6C420.156 762.774 395.941 703.103 366.724 660.326C350.467 636.524 339.602 607.881 346.219 579.418C356.94 533.297 376.101 478.026 405.773 433.521C435.442 389.02 475.774 355.072 528.849 352.127C626.059 346.732 699.891 302.958 740.051 268.467C756.499 254.341 778.981 246.035 799.824 253.357C821.74 261.055 834.869 269.062 841.346 277.146C844.612 281.222 846.218 285.358 846.348 289.487C846.478 293.606 845.135 297.568 842.768 301.3C838.066 308.712 829.178 315.448 818.834 321.202C808.475 326.964 796.478 331.838 785.309 335.47Z" stroke="#E06121" stroke-width="2"/>
</g>
<g filter="url(#filter7_f_1_640)">
<path d="M784.189 332.763L784.242 332.739L784.298 332.721L784.324 332.712C795.387 329.119 807.233 324.305 817.411 318.644C827.631 312.959 835.994 306.515 840.296 299.732C842.432 296.366 843.53 292.975 843.423 289.579C843.316 286.193 842.006 282.651 839.062 278.976C833.119 271.559 820.65 263.775 798.854 256.119C779.354 249.269 757.949 256.955 741.959 270.688C701.435 305.491 627.012 349.611 529.011 355.05C477.232 357.923 437.62 391.031 408.209 435.144C378.802 479.252 359.746 534.153 349.07 580.081C342.719 607.4 353.098 635.187 369.141 658.675C398.58 701.776 423.18 762.161 415.896 821.954C413.623 840.611 416.075 856.142 422.047 869.197C428.022 882.259 437.561 892.935 449.597 901.812C473.717 919.602 507.718 930.07 542.614 937.978C562.844 942.563 584.28 939.818 600.692 927.459C630.47 905.036 660.239 870.313 669.803 825.574C679.352 780.904 668.82 725.957 617.451 662.889C587.434 626.035 576.189 589.906 577.989 555.663C579.787 521.453 594.594 489.299 616.367 460.335C659.891 402.44 731.501 356.96 784.165 332.774L784.189 332.763ZM785.309 335.47C732.882 359.559 661.804 404.767 618.707 462.094C597.16 490.756 582.67 522.364 580.912 555.816C579.156 589.235 590.095 624.668 619.721 661.04C671.522 724.639 682.438 780.468 672.665 826.186C662.907 871.834 632.584 907.108 602.453 929.798C585.203 942.787 562.833 945.562 541.967 940.833C507.032 932.916 472.507 922.347 447.86 904.168C435.513 895.061 425.608 884.02 419.386 870.415C413.16 856.805 410.661 840.72 412.99 821.6C420.156 762.774 395.941 703.103 366.724 660.326C350.467 636.524 339.602 607.881 346.219 579.418C356.94 533.297 376.101 478.026 405.773 433.521C435.442 389.02 475.774 355.072 528.849 352.127C626.059 346.732 699.891 302.958 740.051 268.467C756.499 254.341 778.981 246.035 799.824 253.357C821.74 261.055 834.869 269.062 841.346 277.146C844.612 281.222 846.218 285.358 846.348 289.487C846.478 293.606 845.135 297.568 842.768 301.3C838.066 308.712 829.178 315.448 818.834 321.202C808.475 326.964 796.478 331.838 785.309 335.47Z" stroke="#E06121" stroke-width="2"/>
</g>
<g filter="url(#filter8_f_1_640)">
<path d="M784.189 332.763L784.242 332.739L784.298 332.721L784.324 332.712C795.387 329.119 807.233 324.305 817.411 318.644C827.631 312.959 835.994 306.515 840.296 299.732C842.432 296.366 843.53 292.975 843.423 289.579C843.316 286.193 842.006 282.651 839.062 278.976C833.119 271.559 820.65 263.775 798.854 256.119C779.354 249.269 757.949 256.955 741.959 270.688C701.435 305.491 627.012 349.611 529.011 355.05C477.232 357.923 437.62 391.031 408.209 435.144C378.802 479.252 359.746 534.153 349.07 580.081C342.719 607.4 353.098 635.187 369.141 658.675C398.58 701.776 423.18 762.161 415.896 821.954C413.623 840.611 416.075 856.142 422.047 869.197C428.022 882.259 437.561 892.935 449.597 901.812C473.717 919.602 507.718 930.07 542.614 937.978C562.844 942.563 584.28 939.818 600.692 927.459C630.47 905.036 660.239 870.313 669.803 825.574C679.352 780.904 668.82 725.957 617.451 662.889C587.434 626.035 576.189 589.906 577.989 555.663C579.787 521.453 594.594 489.299 616.367 460.335C659.891 402.44 731.501 356.96 784.165 332.774L784.189 332.763ZM785.309 335.47C732.882 359.559 661.804 404.767 618.707 462.094C597.16 490.756 582.67 522.364 580.912 555.816C579.156 589.235 590.095 624.668 619.721 661.04C671.522 724.639 682.438 780.468 672.665 826.186C662.907 871.834 632.584 907.108 602.453 929.798C585.203 942.787 562.833 945.562 541.967 940.833C507.032 932.916 472.507 922.347 447.86 904.168C435.513 895.061 425.608 884.02 419.386 870.415C413.16 856.805 410.661 840.72 412.99 821.6C420.156 762.774 395.941 703.103 366.724 660.326C350.467 636.524 339.602 607.881 346.219 579.418C356.94 533.297 376.101 478.026 405.773 433.521C435.442 389.02 475.774 355.072 528.849 352.127C626.059 346.732 699.891 302.958 740.051 268.467C756.499 254.341 778.981 246.035 799.824 253.357C821.74 261.055 834.869 269.062 841.346 277.146C844.612 281.222 846.218 285.358 846.348 289.487C846.478 293.606 845.135 297.568 842.768 301.3C838.066 308.712 829.178 315.448 818.834 321.202C808.475 326.964 796.478 331.838 785.309 335.47Z" stroke="#E06121" stroke-width="2"/>
</g>
<path fill-rule="evenodd" clip-rule="evenodd" d="M407.377 434.59C436.876 390.344 476.734 356.949 528.955 354.051C626.687 348.627 700.908 304.626 741.307 269.929C757.454 256.062 779.227 248.164 799.186 255.175C821.022 262.846 833.717 270.706 839.842 278.351C842.896 282.163 844.307 285.908 844.422 289.548C844.537 293.191 843.355 296.776 841.141 300.267C836.702 307.266 828.159 313.81 817.898 319.518C807.649 325.219 795.74 330.056 784.633 333.663L784.607 333.672L784.582 333.683C731.997 357.832 660.552 403.225 617.167 460.936C595.47 489.797 580.772 521.764 578.987 555.715C577.203 589.677 588.343 625.568 618.226 662.257C669.743 725.507 680.406 780.755 670.781 825.783C661.15 870.832 631.192 905.744 601.294 928.258C584.596 940.832 562.84 943.588 542.393 938.954C507.483 931.042 473.304 920.54 449.004 902.617C436.861 893.661 427.197 882.86 421.138 869.613C415.079 856.368 412.611 840.649 414.903 821.833C422.147 762.37 397.679 702.229 368.316 659.239C352.199 635.644 341.654 607.564 348.096 579.855C358.788 533.86 377.879 478.833 407.377 434.59ZM406.606 434.075C377.024 478.445 357.899 533.589 347.193 579.645C340.667 607.717 351.366 636.067 367.55 659.762C396.843 702.649 421.189 762.564 413.983 821.721C411.673 840.683 414.156 856.578 420.295 869.999C426.433 883.418 436.213 894.335 448.454 903.363C472.92 921.409 507.266 931.943 542.188 939.858C562.837 944.537 584.888 941.773 601.852 928.999C631.862 906.4 661.995 871.314 671.687 825.977C681.384 780.617 670.599 725.09 618.945 661.672C589.186 625.135 578.142 589.464 579.913 555.764C581.685 522.053 596.283 490.258 617.908 461.493C661.157 403.962 732.434 358.656 784.945 334.537C796.085 330.917 808.042 326.061 818.348 320.328C828.65 314.598 837.358 307.962 841.924 300.764C844.212 297.157 845.471 293.391 845.349 289.519C845.226 285.643 843.722 281.71 840.566 277.771C834.271 269.915 821.367 261.984 799.493 254.3C779.109 247.14 756.995 255.234 740.703 269.226C700.419 303.824 626.385 347.715 528.904 353.125C476.272 356.046 436.186 389.707 406.606 434.075Z" fill="white"/>
</g>
<g opacity="0.571429">
<g filter="url(#filter9_f_1_640)">
<path d="M798.495 312.298L798.546 312.269L798.6 312.246L798.624 312.235C809.333 307.691 820.714 301.864 830.36 295.336C840.045 288.783 847.814 281.634 851.51 274.502C853.343 270.962 854.142 267.489 853.739 264.116C853.337 260.752 851.724 257.337 848.471 253.933C841.904 247.062 828.804 240.394 806.424 234.667C786.401 229.542 765.747 239.065 751.015 254.139C713.678 292.342 643.384 342.78 546.23 356.739C494.898 364.115 458.322 400.55 432.868 447.058C407.417 493.561 393.219 549.914 386.586 596.598C382.641 624.366 395.402 651.142 413.431 673.144C446.515 713.514 476.284 771.525 474.239 831.726C473.601 850.51 477.397 865.768 484.484 878.253C491.574 890.745 502.008 900.548 514.772 908.343C540.351 923.963 575.134 931.427 610.587 936.264C631.139 939.069 652.255 934.466 667.527 920.724C695.237 895.79 721.867 858.605 727.495 813.202C733.114 767.871 717.834 714.051 661.163 655.699C628.049 621.602 613.698 586.59 612.506 552.321C611.316 518.085 623.264 484.762 642.43 454.011C680.742 392.542 748.116 340.994 798.472 312.311L798.495 312.298ZM799.846 314.896C749.718 343.463 682.85 394.694 644.914 455.559C625.947 485.99 614.267 518.74 615.431 552.219C616.594 585.664 630.581 620.008 663.263 653.66C720.41 712.502 736.151 767.167 730.4 813.562C724.657 859.887 697.524 897.671 669.485 922.9C653.433 937.343 631.39 942.057 610.191 939.165C574.699 934.322 539.384 926.803 513.247 910.841C500.153 902.845 489.324 892.709 481.939 879.698C474.551 866.682 470.66 850.877 471.313 831.626C473.325 772.4 444.002 715.066 411.167 674.999C392.898 652.704 379.577 625.117 383.688 596.186C390.349 549.305 404.62 492.575 430.301 445.653C455.978 398.736 493.197 361.402 545.814 353.842C642.184 339.995 711.92 289.953 748.921 252.093C764.075 236.588 785.747 226.354 807.15 231.831C829.653 237.59 843.43 244.422 850.587 251.911C854.196 255.687 856.156 259.667 856.645 263.769C857.134 267.861 856.141 271.924 854.109 275.848C850.071 283.642 841.804 291.127 832 297.761C822.182 304.404 810.656 310.305 799.846 314.896Z" stroke="#E06121" stroke-width="2"/>
</g>
<g filter="url(#filter10_f_1_640)">
<path d="M798.495 312.298L798.546 312.269L798.6 312.246L798.624 312.235C809.333 307.691 820.714 301.864 830.36 295.336C840.045 288.783 847.814 281.634 851.51 274.502C853.343 270.962 854.142 267.489 853.739 264.116C853.337 260.752 851.724 257.337 848.471 253.933C841.904 247.062 828.804 240.394 806.424 234.667C786.401 229.542 765.747 239.065 751.015 254.139C713.678 292.342 643.384 342.78 546.23 356.739C494.898 364.115 458.322 400.55 432.868 447.058C407.417 493.561 393.219 549.914 386.586 596.598C382.641 624.366 395.402 651.142 413.431 673.144C446.515 713.514 476.284 771.525 474.239 831.726C473.601 850.51 477.397 865.768 484.484 878.253C491.574 890.745 502.008 900.548 514.772 908.343C540.351 923.963 575.134 931.427 610.587 936.264C631.139 939.069 652.255 934.466 667.527 920.724C695.237 895.79 721.867 858.605 727.495 813.202C733.114 767.871 717.834 714.051 661.163 655.699C628.049 621.602 613.698 586.59 612.506 552.321C611.316 518.085 623.264 484.762 642.43 454.011C680.742 392.542 748.116 340.994 798.472 312.311L798.495 312.298ZM799.846 314.896C749.718 343.463 682.85 394.694 644.914 455.559C625.947 485.99 614.267 518.74 615.431 552.219C616.594 585.664 630.581 620.008 663.263 653.66C720.41 712.502 736.151 767.167 730.4 813.562C724.657 859.887 697.524 897.671 669.485 922.9C653.433 937.343 631.39 942.057 610.191 939.165C574.699 934.322 539.384 926.803 513.247 910.841C500.153 902.845 489.324 892.709 481.939 879.698C474.551 866.682 470.66 850.877 471.313 831.626C473.325 772.4 444.002 715.066 411.167 674.999C392.898 652.704 379.577 625.117 383.688 596.186C390.349 549.305 404.62 492.575 430.301 445.653C455.978 398.736 493.197 361.402 545.814 353.842C642.184 339.995 711.92 289.953 748.921 252.093C764.075 236.588 785.747 226.354 807.15 231.831C829.653 237.59 843.43 244.422 850.587 251.911C854.196 255.687 856.156 259.667 856.645 263.769C857.134 267.861 856.141 271.924 854.109 275.848C850.071 283.642 841.804 291.127 832 297.761C822.182 304.404 810.656 310.305 799.846 314.896Z" stroke="#E06121" stroke-width="2"/>
</g>
<g filter="url(#filter11_f_1_640)">
<path d="M798.495 312.298L798.546 312.269L798.6 312.246L798.624 312.235C809.333 307.691 820.714 301.864 830.36 295.336C840.045 288.783 847.814 281.634 851.51 274.502C853.343 270.962 854.142 267.489 853.739 264.116C853.337 260.752 851.724 257.337 848.471 253.933C841.904 247.062 828.804 240.394 806.424 234.667C786.401 229.542 765.747 239.065 751.015 254.139C713.678 292.342 643.384 342.78 546.23 356.739C494.898 364.115 458.322 400.55 432.868 447.058C407.417 493.561 393.219 549.914 386.586 596.598C382.641 624.366 395.402 651.142 413.431 673.144C446.515 713.514 476.284 771.525 474.239 831.726C473.601 850.51 477.397 865.768 484.484 878.253C491.574 890.745 502.008 900.548 514.772 908.343C540.351 923.963 575.134 931.427 610.587 936.264C631.139 939.069 652.255 934.466 667.527 920.724C695.237 895.79 721.867 858.605 727.495 813.202C733.114 767.871 717.834 714.051 661.163 655.699C628.049 621.602 613.698 586.59 612.506 552.321C611.316 518.085 623.264 484.762 642.43 454.011C680.742 392.542 748.116 340.994 798.472 312.311L798.495 312.298ZM799.846 314.896C749.718 343.463 682.85 394.694 644.914 455.559C625.947 485.99 614.267 518.74 615.431 552.219C616.594 585.664 630.581 620.008 663.263 653.66C720.41 712.502 736.151 767.167 730.4 813.562C724.657 859.887 697.524 897.671 669.485 922.9C653.433 937.343 631.39 942.057 610.191 939.165C574.699 934.322 539.384 926.803 513.247 910.841C500.153 902.845 489.324 892.709 481.939 879.698C474.551 866.682 470.66 850.877 471.313 831.626C473.325 772.4 444.002 715.066 411.167 674.999C392.898 652.704 379.577 625.117 383.688 596.186C390.349 549.305 404.62 492.575 430.301 445.653C455.978 398.736 493.197 361.402 545.814 353.842C642.184 339.995 711.92 289.953 748.921 252.093C764.075 236.588 785.747 226.354 807.15 231.831C829.653 237.59 843.43 244.422 850.587 251.911C854.196 255.687 856.156 259.667 856.645 263.769C857.134 267.861 856.141 271.924 854.109 275.848C850.071 283.642 841.804 291.127 832 297.761C822.182 304.404 810.656 310.305 799.846 314.896Z" stroke="#E06121" stroke-width="2"/>
</g>
<path fill-rule="evenodd" clip-rule="evenodd" d="M431.991 446.578C457.522 399.93 494.317 363.188 546.088 355.75C642.974 341.829 713.078 291.526 750.299 253.44C765.176 238.218 786.178 228.453 806.672 233.698C829.094 239.436 842.426 246.16 849.194 253.242C852.569 256.773 854.3 260.381 854.732 263.997C855.164 267.616 854.299 271.291 852.397 274.962C848.585 282.32 840.646 289.584 830.92 296.165C821.208 302.737 809.766 308.594 799.015 313.156L798.99 313.166L798.967 313.18C748.686 341.82 681.469 393.267 643.279 454.54C624.18 485.181 612.324 518.309 613.505 552.286C614.687 586.274 628.914 621.058 661.881 655.003C718.714 713.522 734.152 767.63 728.487 813.325C722.82 859.043 696.019 896.433 668.196 921.467C652.658 935.449 631.225 940.09 610.451 937.255C574.985 932.416 540.02 924.933 514.251 909.197C501.374 901.333 490.805 891.416 483.615 878.747C476.425 866.08 472.596 850.636 473.239 831.692C475.273 771.824 445.656 714.044 412.658 673.777C394.546 651.676 381.594 624.623 385.596 596.457C392.239 549.706 406.462 493.224 431.991 446.578ZM431.178 446.133C405.576 492.912 391.33 549.513 384.678 596.327C380.624 624.861 393.753 652.171 411.941 674.365C444.86 714.536 474.336 772.101 472.313 831.66C471.664 850.752 475.523 866.37 482.808 879.205C490.093 892.038 500.787 902.061 513.768 909.988C539.714 925.833 574.848 933.333 610.326 938.174C631.304 941.036 653.031 936.36 668.816 922.156C696.743 897.028 723.704 859.449 729.407 813.439C735.114 767.407 719.53 713.031 662.546 654.357C629.716 620.553 615.605 585.98 614.432 552.254C613.259 518.516 625.03 485.57 644.066 455.03C682.137 393.949 749.193 342.602 799.402 313.999C810.185 309.422 821.673 303.542 831.44 296.933C841.203 290.326 849.3 282.956 853.221 275.388C855.186 271.596 856.112 267.734 855.653 263.887C855.193 260.037 853.351 256.25 849.864 252.602C842.909 245.324 829.363 238.548 806.902 232.8C785.971 227.443 764.647 237.434 749.636 252.792C712.521 290.769 642.594 340.947 545.956 354.832C493.779 362.329 456.779 399.356 431.178 446.133Z" fill="white"/>
</g>
<g opacity="0.714286">
<g filter="url(#filter12_f_1_640)">
<path d="M811.444 290.356L811.492 290.322L811.544 290.295L811.568 290.282C821.839 284.822 832.669 278.025 841.71 270.682C850.787 263.309 857.903 255.511 860.963 248.083C862.481 244.397 862.974 240.868 862.279 237.542C861.586 234.226 859.681 230.965 856.143 227.857C849.003 221.585 835.371 216.084 812.577 212.329C792.184 208.969 772.439 220.255 759.076 236.557C725.211 277.868 659.58 334.241 564.012 356.615C513.519 368.436 480.258 407.92 458.954 456.47C437.653 505.014 428.42 562.39 425.881 609.474C424.371 637.481 439.418 663.043 459.296 683.389C495.772 720.723 530.483 775.918 533.693 836.068C534.695 854.837 539.807 869.705 547.955 881.526C556.107 893.351 567.354 902.208 580.75 908.861C607.592 922.192 642.894 926.596 678.633 928.325C699.352 929.328 719.986 922.902 734.003 907.881C759.434 880.628 782.721 841.262 784.371 795.542C786.018 749.894 766.105 697.61 704.565 644.42C668.604 613.339 651.256 579.711 647.082 545.675C642.913 511.673 651.911 477.436 668.324 445.132C701.133 380.558 763.758 323.334 811.422 290.371L811.444 290.356ZM813.017 292.827C765.57 325.653 703.421 382.517 670.934 446.457C654.691 478.426 645.91 512.069 649.988 545.319C654.061 578.535 670.988 611.53 706.479 642.205C768.537 695.843 788.982 748.928 787.296 795.648C785.613 842.297 761.876 882.301 736.143 909.878C721.411 925.666 699.862 932.283 678.492 931.249C642.713 929.518 606.877 925.105 579.448 911.483C565.707 904.658 554.036 895.504 545.545 883.187C537.05 870.864 531.797 855.458 530.77 836.224C527.612 777.047 493.403 722.487 457.202 685.434C437.059 664.817 421.385 638.496 422.958 609.316C425.508 562.034 434.78 504.276 456.274 455.294C477.764 406.317 511.588 365.882 563.345 353.765C658.142 331.571 723.251 275.642 756.812 234.701C770.557 217.934 791.255 205.85 813.053 209.441C835.972 213.217 850.293 218.822 858.075 225.658C861.999 229.105 864.299 232.899 865.144 236.943C865.987 240.977 865.353 245.112 863.669 249.198C860.326 257.314 852.743 265.491 843.555 272.954C834.353 280.428 823.385 287.31 813.017 292.827Z" stroke="#E06121" stroke-width="2"/>
</g>
<g filter="url(#filter13_f_1_640)">
<path d="M811.444 290.356L811.492 290.322L811.544 290.295L811.568 290.282C821.839 284.822 832.669 278.025 841.71 270.682C850.787 263.309 857.903 255.511 860.963 248.083C862.481 244.397 862.974 240.868 862.279 237.542C861.586 234.226 859.681 230.965 856.143 227.857C849.003 221.585 835.371 216.084 812.577 212.329C792.184 208.969 772.439 220.255 759.076 236.557C725.211 277.868 659.58 334.241 564.012 356.615C513.519 368.436 480.258 407.92 458.954 456.47C437.653 505.014 428.42 562.39 425.881 609.474C424.371 637.481 439.418 663.043 459.296 683.389C495.772 720.723 530.483 775.918 533.693 836.068C534.695 854.837 539.807 869.705 547.955 881.526C556.107 893.351 567.354 902.208 580.75 908.861C607.592 922.192 642.894 926.596 678.633 928.325C699.352 929.328 719.986 922.902 734.003 907.881C759.434 880.628 782.721 841.262 784.371 795.542C786.018 749.894 766.105 697.61 704.565 644.42C668.604 613.339 651.256 579.711 647.082 545.675C642.913 511.673 651.911 477.436 668.324 445.132C701.133 380.558 763.758 323.334 811.422 290.371L811.444 290.356ZM813.017 292.827C765.57 325.653 703.421 382.517 670.934 446.457C654.691 478.426 645.91 512.069 649.988 545.319C654.061 578.535 670.988 611.53 706.479 642.205C768.537 695.843 788.982 748.928 787.296 795.648C785.613 842.297 761.876 882.301 736.143 909.878C721.411 925.666 699.862 932.283 678.492 931.249C642.713 929.518 606.877 925.105 579.448 911.483C565.707 904.658 554.036 895.504 545.545 883.187C537.05 870.864 531.797 855.458 530.77 836.224C527.612 777.047 493.403 722.487 457.202 685.434C437.059 664.817 421.385 638.496 422.958 609.316C425.508 562.034 434.78 504.276 456.274 455.294C477.764 406.317 511.588 365.882 563.345 353.765C658.142 331.571 723.251 275.642 756.812 234.701C770.557 217.934 791.255 205.85 813.053 209.441C835.972 213.217 850.293 218.822 858.075 225.658C861.999 229.105 864.299 232.899 865.144 236.943C865.987 240.977 865.353 245.112 863.669 249.198C860.326 257.314 852.743 265.491 843.555 272.954C834.353 280.428 823.385 287.31 813.017 292.827Z" stroke="#E06121" stroke-width="2"/>
</g>
<g filter="url(#filter14_f_1_640)">
<path d="M811.444 290.356L811.492 290.322L811.544 290.295L811.568 290.282C821.839 284.822 832.669 278.025 841.71 270.682C850.787 263.309 857.903 255.511 860.963 248.083C862.481 244.397 862.974 240.868 862.279 237.542C861.586 234.226 859.681 230.965 856.143 227.857C849.003 221.585 835.371 216.084 812.577 212.329C792.184 208.969 772.439 220.255 759.076 236.557C725.211 277.868 659.58 334.241 564.012 356.615C513.519 368.436 480.258 407.92 458.954 456.47C437.653 505.014 428.42 562.39 425.881 609.474C424.371 637.481 439.418 663.043 459.296 683.389C495.772 720.723 530.483 775.918 533.693 836.068C534.695 854.837 539.807 869.705 547.955 881.526C556.107 893.351 567.354 902.208 580.75 908.861C607.592 922.192 642.894 926.596 678.633 928.325C699.352 929.328 719.986 922.902 734.003 907.881C759.434 880.628 782.721 841.262 784.371 795.542C786.018 749.894 766.105 697.61 704.565 644.42C668.604 613.339 651.256 579.711 647.082 545.675C642.913 511.673 651.911 477.436 668.324 445.132C701.133 380.558 763.758 323.334 811.422 290.371L811.444 290.356ZM813.017 292.827C765.57 325.653 703.421 382.517 670.934 446.457C654.691 478.426 645.91 512.069 649.988 545.319C654.061 578.535 670.988 611.53 706.479 642.205C768.537 695.843 788.982 748.928 787.296 795.648C785.613 842.297 761.876 882.301 736.143 909.878C721.411 925.666 699.862 932.283 678.492 931.249C642.713 929.518 606.877 925.105 579.448 911.483C565.707 904.658 554.036 895.504 545.545 883.187C537.05 870.864 531.797 855.458 530.77 836.224C527.612 777.047 493.403 722.487 457.202 685.434C437.059 664.817 421.385 638.496 422.958 609.316C425.508 562.034 434.78 504.276 456.274 455.294C477.764 406.317 511.588 365.882 563.345 353.765C658.142 331.571 723.251 275.642 756.812 234.701C770.557 217.934 791.255 205.85 813.053 209.441C835.972 213.217 850.293 218.822 858.075 225.658C861.999 229.105 864.299 232.899 865.144 236.943C865.987 240.977 865.353 245.112 863.669 249.198C860.326 257.314 852.743 265.491 843.555 272.954C834.353 280.428 823.385 287.31 813.017 292.827Z" stroke="#E06121" stroke-width="2"/>
</g>
<path fill-rule="evenodd" clip-rule="evenodd" d="M458.038 456.068C479.406 407.372 512.859 367.563 563.785 355.641C659.089 333.329 724.542 277.108 758.302 235.923C771.796 219.462 791.867 207.904 812.74 211.342C835.577 215.104 849.443 220.641 856.803 227.106C860.473 230.33 862.512 233.773 863.258 237.337C864.003 240.905 863.462 244.641 861.888 248.464C858.731 256.127 851.455 264.055 842.34 271.458C833.237 278.852 822.349 285.684 812.037 291.165L812.013 291.178L811.991 291.193C764.398 324.107 701.92 381.217 669.216 445.585C652.861 477.774 643.937 511.809 648.075 545.554C652.215 579.309 669.418 612.721 705.219 643.663C766.936 697.006 787.031 749.564 785.37 795.578C783.709 841.616 760.269 881.199 734.734 908.563C720.473 923.846 699.526 930.337 678.585 929.324C642.832 927.595 607.348 923.187 580.305 909.757C566.792 903.045 555.399 894.087 547.131 882.093C538.865 870.101 533.705 855.049 532.695 836.121C529.502 776.304 494.963 721.326 458.581 684.088C438.612 663.649 423.351 637.827 424.883 609.42C427.426 562.268 436.671 504.762 458.038 456.068ZM457.189 455.695C435.762 504.528 426.503 562.155 423.957 609.37C422.405 638.149 437.865 664.211 457.917 684.736C494.212 721.885 528.593 776.662 531.769 836.17C532.787 855.246 537.992 870.468 546.368 882.619C554.743 894.769 566.27 903.821 579.893 910.587C607.121 924.11 642.775 928.52 678.54 930.25C699.688 931.273 720.924 924.721 735.412 909.196C761.042 881.73 784.625 841.943 786.297 795.612C787.969 749.258 767.706 696.447 705.825 642.962C670.173 612.148 653.103 578.937 648.995 545.441C644.886 511.934 653.741 478.088 670.042 446.004C702.645 381.837 764.971 324.842 812.496 291.971C822.839 286.472 833.77 279.613 842.925 272.178C852.075 264.746 859.498 256.698 862.745 248.817C864.372 244.868 864.958 240.94 864.165 237.148C863.372 233.353 861.207 229.741 857.415 226.41C849.852 219.766 835.767 214.196 812.89 210.427C791.572 206.915 771.2 218.727 757.585 235.335C723.921 276.403 658.634 332.483 563.573 354.738C512.248 366.754 478.616 406.865 457.189 455.695Z" fill="white"/>
</g>
<g opacity="0.857143">
<g filter="url(#filter15_f_1_640)">
<path d="M822.915 267.061L822.96 267.024L823.009 266.992L823.032 266.977C832.788 260.643 842.985 252.927 851.351 244.824C859.751 236.689 866.161 228.3 868.561 220.634C869.752 216.83 869.936 213.271 868.953 210.018C867.974 206.775 865.792 203.692 861.997 200.905C854.337 195.278 840.278 190.987 817.243 189.233C796.635 187.663 777.948 200.627 766.057 218.031C735.922 262.137 675.454 324.015 582.2 354.633C532.929 370.81 503.235 413.043 486.244 463.265C469.255 513.481 465.058 571.443 466.632 618.569C467.569 646.601 484.786 670.755 506.362 689.291C545.953 723.303 585.343 775.264 593.783 834.904C596.417 853.515 602.805 867.881 611.952 878.946C621.104 890.016 633.081 897.859 647.005 903.319C674.907 914.26 710.458 915.571 746.212 914.178C766.939 913.371 786.935 905.171 799.589 888.986C822.549 859.62 842.316 818.375 839.975 772.685C837.637 727.066 813.243 676.717 747.301 629.093C708.768 601.265 688.556 569.277 681.431 535.734C674.314 502.225 680.294 467.334 693.83 433.722C720.886 366.534 778.284 304.07 822.895 267.078L822.915 267.061ZM824.697 269.386C780.291 306.223 723.336 368.287 696.545 434.815C683.15 468.077 677.335 502.358 684.295 535.126C691.248 567.861 710.985 599.255 749.015 626.72C815.512 674.745 840.506 725.846 842.898 772.535C845.287 819.154 825.127 861.075 801.895 890.789C788.595 907.801 767.706 916.271 746.326 917.103C710.533 918.497 674.449 917.225 645.936 906.044C631.653 900.444 619.228 892.342 609.696 880.811C600.16 869.276 593.584 854.386 590.885 835.314C582.581 776.639 543.747 725.268 504.454 691.511C482.591 672.728 464.682 647.873 463.707 618.667C462.126 571.342 466.329 512.996 483.471 462.327C500.612 411.664 530.783 368.434 581.287 351.852C673.789 321.481 733.775 260.09 763.64 216.38C775.872 198.478 795.437 184.636 817.466 186.314C840.627 188.078 855.381 192.414 863.73 198.546C867.939 201.638 870.561 205.217 871.755 209.172C872.947 213.117 872.675 217.291 871.355 221.508C868.731 229.885 861.89 238.692 853.387 246.927C844.872 255.175 834.545 262.987 824.697 269.386Z" stroke="#E06121" stroke-width="2"/>
</g>
<g filter="url(#filter16_f_1_640)">
<path d="M822.915 267.061L822.96 267.024L823.009 266.992L823.032 266.977C832.788 260.643 842.985 252.927 851.351 244.824C859.751 236.689 866.161 228.3 868.561 220.634C869.752 216.83 869.936 213.271 868.953 210.018C867.974 206.775 865.792 203.692 861.997 200.905C854.337 195.278 840.278 190.987 817.243 189.233C796.635 187.663 777.948 200.627 766.057 218.031C735.922 262.137 675.454 324.015 582.2 354.633C532.929 370.81 503.235 413.043 486.244 463.265C469.255 513.481 465.058 571.443 466.632 618.569C467.569 646.601 484.786 670.755 506.362 689.291C545.953 723.303 585.343 775.264 593.783 834.904C596.417 853.515 602.805 867.881 611.952 878.946C621.104 890.016 633.081 897.859 647.005 903.319C674.907 914.26 710.458 915.571 746.212 914.178C766.939 913.371 786.935 905.171 799.589 888.986C822.549 859.62 842.316 818.375 839.975 772.685C837.637 727.066 813.243 676.717 747.301 629.093C708.768 601.265 688.556 569.277 681.431 535.734C674.314 502.225 680.294 467.334 693.83 433.722C720.886 366.534 778.284 304.07 822.895 267.078L822.915 267.061ZM824.697 269.386C780.291 306.223 723.336 368.287 696.545 434.815C683.15 468.077 677.335 502.358 684.295 535.126C691.248 567.861 710.985 599.255 749.015 626.72C815.512 674.745 840.506 725.846 842.898 772.535C845.287 819.154 825.127 861.075 801.895 890.789C788.595 907.801 767.706 916.271 746.326 917.103C710.533 918.497 674.449 917.225 645.936 906.044C631.653 900.444 619.228 892.342 609.696 880.811C600.16 869.276 593.584 854.386 590.885 835.314C582.581 776.639 543.747 725.268 504.454 691.511C482.591 672.728 464.682 647.873 463.707 618.667C462.126 571.342 466.329 512.996 483.471 462.327C500.612 411.664 530.783 368.434 581.287 351.852C673.789 321.481 733.775 260.09 763.64 216.38C775.872 198.478 795.437 184.636 817.466 186.314C840.627 188.078 855.381 192.414 863.73 198.546C867.939 201.638 870.561 205.217 871.755 209.172C872.947 213.117 872.675 217.291 871.355 221.508C868.731 229.885 861.89 238.692 853.387 246.927C844.872 255.175 834.545 262.987 824.697 269.386Z" stroke="#E06121" stroke-width="2"/>
</g>
<g filter="url(#filter17_f_1_640)">
<path d="M822.915 267.061L822.96 267.024L823.009 266.992L823.032 266.977C832.788 260.643 842.985 252.927 851.351 244.824C859.751 236.689 866.161 228.3 868.561 220.634C869.752 216.83 869.936 213.271 868.953 210.018C867.974 206.775 865.792 203.692 861.997 200.905C854.337 195.278 840.278 190.987 817.243 189.233C796.635 187.663 777.948 200.627 766.057 218.031C735.922 262.137 675.454 324.015 582.2 354.633C532.929 370.81 503.235 413.043 486.244 463.265C469.255 513.481 465.058 571.443 466.632 618.569C467.569 646.601 484.786 670.755 506.362 689.291C545.953 723.303 585.343 775.264 593.783 834.904C596.417 853.515 602.805 867.881 611.952 878.946C621.104 890.016 633.081 897.859 647.005 903.319C674.907 914.26 710.458 915.571 746.212 914.178C766.939 913.371 786.935 905.171 799.589 888.986C822.549 859.62 842.316 818.375 839.975 772.685C837.637 727.066 813.243 676.717 747.301 629.093C708.768 601.265 688.556 569.277 681.431 535.734C674.314 502.225 680.294 467.334 693.83 433.722C720.886 366.534 778.284 304.07 822.895 267.078L822.915 267.061ZM824.697 269.386C780.291 306.223 723.336 368.287 696.545 434.815C683.15 468.077 677.335 502.358 684.295 535.126C691.248 567.861 710.985 599.255 749.015 626.72C815.512 674.745 840.506 725.846 842.898 772.535C845.287 819.154 825.127 861.075 801.895 890.789C788.595 907.801 767.706 916.271 746.326 917.103C710.533 918.497 674.449 917.225 645.936 906.044C631.653 900.444 619.228 892.342 609.696 880.811C600.16 869.276 593.584 854.386 590.885 835.314C582.581 776.639 543.747 725.268 504.454 691.511C482.591 672.728 464.682 647.873 463.707 618.667C462.126 571.342 466.329 512.996 483.471 462.327C500.612 411.664 530.783 368.434 581.287 351.852C673.789 321.481 733.775 260.09 763.64 216.38C775.872 198.478 795.437 184.636 817.466 186.314C840.627 188.078 855.381 192.414 863.73 198.546C867.939 201.638 870.561 205.217 871.755 209.172C872.947 213.117 872.675 217.291 871.355 221.508C868.731 229.885 861.89 238.692 853.387 246.927C844.872 255.175 834.545 262.987 824.697 269.386Z" stroke="#E06121" stroke-width="2"/>
</g>
<path fill-rule="evenodd" clip-rule="evenodd" d="M485.297 462.944C502.339 412.572 532.196 369.999 581.888 353.683C674.885 323.149 735.189 261.438 765.231 217.467C777.239 199.893 796.226 186.629 817.319 188.236C840.397 189.993 854.694 194.3 862.589 200.099C866.526 202.99 868.858 206.243 869.911 209.729C870.964 213.218 870.751 216.987 869.516 220.933C867.039 228.841 860.481 237.373 852.047 245.543C843.623 253.702 833.371 261.457 823.576 267.816L823.554 267.831L823.533 267.848C778.989 304.785 721.727 367.122 694.757 434.095C681.27 467.588 675.346 502.271 682.41 535.527C689.475 568.793 709.526 600.578 747.887 628.283C814.018 676.044 838.617 726.649 840.974 772.634C843.331 818.641 823.43 860.117 800.377 889.602C787.502 906.07 767.201 914.362 746.251 915.178C710.484 916.571 674.751 915.273 646.64 904.25C632.593 898.742 620.463 890.811 611.182 879.583C601.901 868.358 595.449 853.812 592.793 835.044C584.399 775.733 545.199 723.974 505.71 690.049C484.036 671.429 466.583 647.035 465.633 618.603C464.057 571.408 468.255 513.315 485.297 462.944ZM484.419 462.647C467.329 513.161 463.128 571.376 464.706 618.634C465.668 647.438 483.341 672.054 505.106 690.752C544.501 724.597 583.525 776.169 591.875 835.174C594.552 854.089 601.064 868.799 610.467 880.174C619.869 891.547 632.141 899.561 646.301 905.113C674.605 916.212 710.507 917.498 746.287 916.104C767.444 915.28 788.028 906.902 801.108 890.173C824.246 860.578 844.272 818.888 841.899 772.586C839.526 726.263 814.737 675.419 748.429 627.531C710.228 599.942 690.328 568.345 683.316 535.334C676.303 502.313 682.174 467.823 695.617 434.442C722.503 367.677 779.625 305.467 824.104 268.579C833.928 262.199 844.22 254.414 852.692 246.209C861.159 238.008 867.853 229.344 870.4 221.21C871.677 217.133 871.918 213.169 870.798 209.461C869.677 205.749 867.206 202.34 863.138 199.352C855.025 193.392 840.508 189.072 817.39 187.311C795.847 185.671 776.581 199.212 764.466 216.944C734.509 260.789 674.358 322.347 581.599 352.802C531.516 369.246 501.508 412.135 484.419 462.647Z" fill="white"/>
</g>
<g filter="url(#filter18_d_1_640)">
<g filter="url(#filter19_f_1_640)">
<path d="M832.794 242.549L832.836 242.508L832.882 242.472L832.903 242.455C842.07 235.294 851.556 226.719 859.184 217.918C866.842 209.081 872.497 200.165 874.22 192.319C875.075 188.426 874.948 184.865 873.685 181.71C872.427 178.565 869.985 175.684 865.961 173.238C857.84 168.301 843.46 165.251 820.361 165.511C799.694 165.743 782.208 180.287 771.879 198.661C745.703 245.225 690.858 312.138 600.627 350.767C552.954 371.177 527.054 415.837 514.504 467.348C501.956 518.854 502.828 576.961 508.503 623.771C511.879 651.615 531.136 674.176 554.245 690.761C596.65 721.194 640.419 769.523 654.025 828.201C658.27 846.511 665.886 860.266 675.963 870.492C686.045 880.722 698.66 887.492 713.007 891.717C741.757 900.185 777.286 898.392 812.783 893.889C833.361 891.278 852.566 881.366 863.761 864.14C884.074 832.884 900.171 790.073 893.857 744.762C887.552 699.52 858.863 651.489 789.021 609.793C748.209 585.429 725.286 555.324 715.265 522.531C705.254 489.769 708.171 454.489 718.725 419.826C739.823 350.536 791.559 283.307 832.775 242.567L832.794 242.549ZM834.772 244.709C793.746 285.276 742.416 352.068 721.525 420.678C711.081 454.981 708.275 489.639 718.064 521.675C727.844 553.679 750.243 583.234 790.521 607.28C860.951 649.326 890.303 698.054 896.756 744.358C903.199 790.59 886.769 834.109 866.216 865.735C854.449 883.841 834.377 894.099 813.152 896.792C777.616 901.301 741.558 903.178 712.18 894.525C697.463 890.19 684.379 883.202 673.878 872.546C663.373 861.886 655.524 847.626 651.173 828.862C637.787 771.133 594.624 723.343 552.538 693.139C529.121 676.333 509.114 653.133 505.597 624.124C499.898 577.116 498.999 518.626 511.661 466.656C524.32 414.691 550.609 368.997 599.475 348.076C688.978 309.759 743.386 243.373 769.328 197.226C779.952 178.327 798.237 162.832 820.328 162.584C843.554 162.322 858.631 165.356 867.482 170.737C871.945 173.45 874.868 176.787 876.403 180.623C877.934 184.449 878.027 188.631 877.079 192.947C875.196 201.521 869.148 210.89 861.396 219.835C853.631 228.794 844.025 237.476 834.772 244.709Z" stroke="#E06121" stroke-width="2"/>
</g>
<g filter="url(#filter20_f_1_640)">
<path d="M832.794 242.549L832.836 242.508L832.882 242.472L832.903 242.455C842.07 235.294 851.556 226.719 859.184 217.918C866.842 209.081 872.497 200.165 874.22 192.319C875.075 188.426 874.948 184.865 873.685 181.71C872.427 178.565 869.985 175.684 865.961 173.238C857.84 168.301 843.46 165.251 820.361 165.511C799.694 165.743 782.208 180.287 771.879 198.661C745.703 245.225 690.858 312.138 600.627 350.767C552.954 371.177 527.054 415.837 514.504 467.348C501.956 518.854 502.828 576.961 508.503 623.771C511.879 651.615 531.136 674.176 554.245 690.761C596.65 721.194 640.419 769.523 654.025 828.201C658.27 846.511 665.886 860.266 675.963 870.492C686.045 880.722 698.66 887.492 713.007 891.717C741.757 900.185 777.286 898.392 812.783 893.889C833.361 891.278 852.566 881.366 863.761 864.14C884.074 832.884 900.171 790.073 893.857 744.762C887.552 699.52 858.863 651.489 789.021 609.793C748.209 585.429 725.286 555.324 715.265 522.531C705.254 489.769 708.171 454.489 718.725 419.826C739.823 350.536 791.559 283.307 832.775 242.567L832.794 242.549ZM834.772 244.709C793.746 285.276 742.416 352.068 721.525 420.678C711.081 454.981 708.275 489.639 718.064 521.675C727.844 553.679 750.243 583.234 790.521 607.28C860.951 649.326 890.303 698.054 896.756 744.358C903.199 790.59 886.769 834.109 866.216 865.735C854.449 883.841 834.377 894.099 813.152 896.792C777.616 901.301 741.558 903.178 712.18 894.525C697.463 890.19 684.379 883.202 673.878 872.546C663.373 861.886 655.524 847.626 651.173 828.862C637.787 771.133 594.624 723.343 552.538 693.139C529.121 676.333 509.114 653.133 505.597 624.124C499.898 577.116 498.999 518.626 511.661 466.656C524.32 414.691 550.609 368.997 599.475 348.076C688.978 309.759 743.386 243.373 769.328 197.226C779.952 178.327 798.237 162.832 820.328 162.584C843.554 162.322 858.631 165.356 867.482 170.737C871.945 173.45 874.868 176.787 876.403 180.623C877.934 184.449 878.027 188.631 877.079 192.947C875.196 201.521 869.148 210.89 861.396 219.835C853.631 228.794 844.025 237.476 834.772 244.709Z" stroke="#E06121" stroke-width="2"/>
</g>
<g filter="url(#filter21_f_1_640)">
<path d="M832.794 242.549L832.836 242.508L832.882 242.472L832.903 242.455C842.07 235.294 851.556 226.719 859.184 217.918C866.842 209.081 872.497 200.165 874.22 192.319C875.075 188.426 874.948 184.865 873.685 181.71C872.427 178.565 869.985 175.684 865.961 173.238C857.84 168.301 843.46 165.251 820.361 165.511C799.694 165.743 782.208 180.287 771.879 198.661C745.703 245.225 690.858 312.138 600.627 350.767C552.954 371.177 527.054 415.837 514.504 467.348C501.956 518.854 502.828 576.961 508.503 623.771C511.879 651.615 531.136 674.176 554.245 690.761C596.65 721.194 640.419 769.523 654.025 828.201C658.27 846.511 665.886 860.266 675.963 870.492C686.045 880.722 698.66 887.492 713.007 891.717C741.757 900.185 777.286 898.392 812.783 893.889C833.361 891.278 852.566 881.366 863.761 864.14C884.074 832.884 900.171 790.073 893.857 744.762C887.552 699.52 858.863 651.489 789.021 609.793C748.209 585.429 725.286 555.324 715.265 522.531C705.254 489.769 708.171 454.489 718.725 419.826C739.823 350.536 791.559 283.307 832.775 242.567L832.794 242.549ZM834.772 244.709C793.746 285.276 742.416 352.068 721.525 420.678C711.081 454.981 708.275 489.639 718.064 521.675C727.844 553.679 750.243 583.234 790.521 607.28C860.951 649.326 890.303 698.054 896.756 744.358C903.199 790.59 886.769 834.109 866.216 865.735C854.449 883.841 834.377 894.099 813.152 896.792C777.616 901.301 741.558 903.178 712.18 894.525C697.463 890.19 684.379 883.202 673.878 872.546C663.373 861.886 655.524 847.626 651.173 828.862C637.787 771.133 594.624 723.343 552.538 693.139C529.121 676.333 509.114 653.133 505.597 624.124C499.898 577.116 498.999 518.626 511.661 466.656C524.32 414.691 550.609 368.997 599.475 348.076C688.978 309.759 743.386 243.373 769.328 197.226C779.952 178.327 798.237 162.832 820.328 162.584C843.554 162.322 858.631 165.356 867.482 170.737C871.945 173.45 874.868 176.787 876.403 180.623C877.934 184.449 878.027 188.631 877.079 192.947C875.196 201.521 869.148 210.89 861.396 219.835C853.631 228.794 844.025 237.476 834.772 244.709Z" stroke="#E06121" stroke-width="2"/>
</g>
<path fill-rule="evenodd" clip-rule="evenodd" d="M513.533 467.112C526.12 415.445 552.152 370.432 600.234 349.848C690.216 311.325 744.911 244.592 771.007 198.171C781.437 179.617 799.196 164.749 820.349 164.511C843.493 164.25 858.11 167.294 866.481 172.383C870.654 174.921 873.261 177.958 874.614 181.339C875.968 184.723 876.084 188.496 875.197 192.534C873.419 200.629 867.63 209.699 859.939 218.573C852.258 227.435 842.722 236.054 833.519 243.243L833.497 243.26L833.478 243.279C792.323 283.957 740.712 351.048 719.682 420.117C709.165 454.657 706.286 489.725 716.221 522.238C726.16 554.762 748.904 584.679 789.534 608.935C859.576 650.75 888.492 699.02 894.847 744.624C901.206 790.25 884.995 833.303 864.6 864.685C853.209 882.212 833.708 892.242 812.909 894.881C777.399 899.386 741.689 901.207 712.724 892.676C698.251 888.414 685.476 881.569 675.251 871.194C665.028 860.819 657.332 846.892 653.05 828.427C639.52 770.073 595.958 721.928 553.662 691.573C530.447 674.913 510.934 652.133 507.51 623.892C501.827 577.014 500.946 518.776 513.533 467.112ZM512.632 466.892C500.01 518.704 500.899 577.063 506.59 624.003C510.059 652.614 529.809 675.596 553.122 692.326C595.316 722.608 638.686 770.583 652.147 828.636C656.462 847.245 664.232 861.333 674.591 871.845C684.948 882.355 697.872 889.268 712.462 893.566C741.626 902.155 777.503 900.307 813.026 895.8C834.03 893.136 853.806 882.996 865.377 865.19C885.849 833.691 902.165 790.414 895.766 744.496C889.363 698.555 860.237 650.065 790.009 608.139C749.548 583.984 726.97 554.241 717.108 521.967C707.243 489.683 710.087 454.813 720.569 420.387C741.533 351.533 793.016 284.581 834.111 243.957C843.341 236.745 852.916 228.092 860.64 219.18C868.36 210.272 874.274 201.058 876.102 192.733C877.019 188.561 876.914 184.591 875.475 180.994C874.034 177.395 871.275 174.213 866.962 171.591C858.361 166.362 843.522 163.323 820.339 163.584C798.735 163.827 780.723 178.996 770.199 197.716C744.177 244.006 689.62 310.572 599.869 348.996C551.41 369.742 525.254 415.083 512.632 466.892Z" fill="white"/>
</g>
<defs>
<filter id="filter0_f_1_640" x="230.683" y="246.064" width="631.279" height="727.135" filterUnits="userSpaceOnUse" color-interpolation-filters="sRGB">
<feFlood flood-opacity="0" result="BackgroundImageFix"/>
<feBlend mode="normal" in="SourceGraphic" in2="BackgroundImageFix" result="shape"/>
<feGaussianBlur stdDeviation="20" result="effect1_foregroundBlur_1_640"/>
</filter>
<filter id="filter1_f_1_640" x="255.683" y="271.064" width="581.279" height="677.135" filterUnits="userSpaceOnUse" color-interpolation-filters="sRGB">
<feFlood flood-opacity="0" result="BackgroundImageFix"/>
<feBlend mode="normal" in="SourceGraphic" in2="BackgroundImageFix" result="shape"/>
<feGaussianBlur stdDeviation="7.5" result="effect1_foregroundBlur_1_640"/>
</filter>
<filter id="filter2_f_1_640" x="266.683" y="282.064" width="559.279" height="655.135" filterUnits="userSpaceOnUse" color-interpolation-filters="sRGB">
<feFlood flood-opacity="0" result="BackgroundImageFix"/>
<feBlend mode="normal" in="SourceGraphic" in2="BackgroundImageFix" result="shape"/>
<feGaussianBlur stdDeviation="2" result="effect1_foregroundBlur_1_640"/>
</filter>
<filter id="filter3_f_1_640" x="266.074" y="228.59" width="609.309" height="752.797" filterUnits="userSpaceOnUse" color-interpolation-filters="sRGB">
<feFlood flood-opacity="0" result="BackgroundImageFix"/>
<feBlend mode="normal" in="SourceGraphic" in2="BackgroundImageFix" result="shape"/>
<feGaussianBlur stdDeviation="20" result="effect1_foregroundBlur_1_640"/>
</filter>
<filter id="filter4_f_1_640" x="291.074" y="253.59" width="559.309" height="702.797" filterUnits="userSpaceOnUse" color-interpolation-filters="sRGB">
<feFlood flood-opacity="0" result="BackgroundImageFix"/>
<feBlend mode="normal" in="SourceGraphic" in2="BackgroundImageFix" result="shape"/>
<feGaussianBlur stdDeviation="7.5" result="effect1_foregroundBlur_1_640"/>
</filter>
<filter id="filter5_f_1_640" x="302.074" y="264.59" width="537.309" height="680.797" filterUnits="userSpaceOnUse" color-interpolation-filters="sRGB">
<feFlood flood-opacity="0" result="BackgroundImageFix"/>
<feBlend mode="normal" in="SourceGraphic" in2="BackgroundImageFix" result="shape"/>
<feGaussianBlur stdDeviation="2" result="effect1_foregroundBlur_1_640"/>
</filter>
<filter id="filter6_f_1_640" x="303.249" y="209.64" width="584.108" height="774.349" filterUnits="userSpaceOnUse" color-interpolation-filters="sRGB">
<feFlood flood-opacity="0" result="BackgroundImageFix"/>
<feBlend mode="normal" in="SourceGraphic" in2="BackgroundImageFix" result="shape"/>
<feGaussianBlur stdDeviation="20" result="effect1_foregroundBlur_1_640"/>
</filter>
<filter id="filter7_f_1_640" x="328.249" y="234.64" width="534.108" height="724.349" filterUnits="userSpaceOnUse" color-interpolation-filters="sRGB">
<feFlood flood-opacity="0" result="BackgroundImageFix"/>
<feBlend mode="normal" in="SourceGraphic" in2="BackgroundImageFix" result="shape"/>
<feGaussianBlur stdDeviation="7.5" result="effect1_foregroundBlur_1_640"/>
</filter>
<filter id="filter8_f_1_640" x="339.249" y="245.64" width="512.108" height="702.349" filterUnits="userSpaceOnUse" color-interpolation-filters="sRGB">
<feFlood flood-opacity="0" result="BackgroundImageFix"/>
<feBlend mode="normal" in="SourceGraphic" in2="BackgroundImageFix" result="shape"/>
<feGaussianBlur stdDeviation="2" result="effect1_foregroundBlur_1_640"/>
</filter>
<filter id="filter9_f_1_640" x="341.939" y="189.337" width="555.83" height="791.639" filterUnits="userSpaceOnUse" color-interpolation-filters="sRGB">
<feFlood flood-opacity="0" result="BackgroundImageFix"/>
<feBlend mode="normal" in="SourceGraphic" in2="BackgroundImageFix" result="shape"/>
<feGaussianBlur stdDeviation="20" result="effect1_foregroundBlur_1_640"/>
</filter>
<filter id="filter10_f_1_640" x="366.939" y="214.337" width="505.83" height="741.639" filterUnits="userSpaceOnUse" color-interpolation-filters="sRGB">
<feFlood flood-opacity="0" result="BackgroundImageFix"/>
<feBlend mode="normal" in="SourceGraphic" in2="BackgroundImageFix" result="shape"/>
<feGaussianBlur stdDeviation="7.5" result="effect1_foregroundBlur_1_640"/>
</filter>
<filter id="filter11_f_1_640" x="377.939" y="225.337" width="483.83" height="719.639" filterUnits="userSpaceOnUse" color-interpolation-filters="sRGB">
<feFlood flood-opacity="0" result="BackgroundImageFix"/>
<feBlend mode="normal" in="SourceGraphic" in2="BackgroundImageFix" result="shape"/>
<feGaussianBlur stdDeviation="2" result="effect1_foregroundBlur_1_640"/>
</filter>
<filter id="filter12_f_1_640" x="381.85" y="167.805" width="524.666" height="804.548" filterUnits="userSpaceOnUse" color-interpolation-filters="sRGB">
<feFlood flood-opacity="0" result="BackgroundImageFix"/>
<feBlend mode="normal" in="SourceGraphic" in2="BackgroundImageFix" result="shape"/>
<feGaussianBlur stdDeviation="20" result="effect1_foregroundBlur_1_640"/>
</filter>
<filter id="filter13_f_1_640" x="406.85" y="192.805" width="474.666" height="754.548" filterUnits="userSpaceOnUse" color-interpolation-filters="sRGB">
<feFlood flood-opacity="0" result="BackgroundImageFix"/>
<feBlend mode="normal" in="SourceGraphic" in2="BackgroundImageFix" result="shape"/>
<feGaussianBlur stdDeviation="7.5" result="effect1_foregroundBlur_1_640"/>
</filter>
<filter id="filter14_f_1_640" x="417.85" y="203.805" width="452.666" height="732.548" filterUnits="userSpaceOnUse" color-interpolation-filters="sRGB">
<feFlood flood-opacity="0" result="BackgroundImageFix"/>
<feBlend mode="normal" in="SourceGraphic" in2="BackgroundImageFix" result="shape"/>
<feGaussianBlur stdDeviation="2" result="effect1_foregroundBlur_1_640"/>
</filter>
<filter id="filter15_f_1_640" x="422.399" y="145.176" width="491.115" height="813.386" filterUnits="userSpaceOnUse" color-interpolation-filters="sRGB">
<feFlood flood-opacity="0" result="BackgroundImageFix"/>
<feBlend mode="normal" in="SourceGraphic" in2="BackgroundImageFix" result="shape"/>
<feGaussianBlur stdDeviation="20" result="effect1_foregroundBlur_1_640"/>
</filter>
<filter id="filter16_f_1_640" x="447.399" y="170.176" width="441.115" height="763.386" filterUnits="userSpaceOnUse" color-interpolation-filters="sRGB">
<feFlood flood-opacity="0" result="BackgroundImageFix"/>
<feBlend mode="normal" in="SourceGraphic" in2="BackgroundImageFix" result="shape"/>
<feGaussianBlur stdDeviation="7.5" result="effect1_foregroundBlur_1_640"/>
</filter>
<filter id="filter17_f_1_640" x="458.399" y="181.176" width="419.115" height="741.386" filterUnits="userSpaceOnUse" color-interpolation-filters="sRGB">
<feFlood flood-opacity="0" result="BackgroundImageFix"/>
<feBlend mode="normal" in="SourceGraphic" in2="BackgroundImageFix" result="shape"/>
<feGaussianBlur stdDeviation="2" result="effect1_foregroundBlur_1_640"/>
</filter>
<filter id="filter18_d_1_640" x="496.604" y="161.568" width="406.57" height="748.027" filterUnits="userSpaceOnUse" color-interpolation-filters="sRGB">
<feFlood flood-opacity="0" result="BackgroundImageFix"/>
<feColorMatrix in="SourceAlpha" type="matrix" values="0 0 0 0 0 0 0 0 0 0 0 0 0 0 0 0 0 0 127 0" result="hardAlpha"/>
<feOffset dy="4"/>
<feGaussianBlur stdDeviation="2"/>
<feComposite in2="hardAlpha" operator="out"/>
<feColorMatrix type="matrix" values="0 0 0 0 0 0 0 0 0 0 0 0 0 0 0 0 0 0 0.25 0"/>
<feBlend mode="normal" in2="BackgroundImageFix" result="effect1_dropShadow_1_640"/>
<feBlend mode="normal" in="SourceGraphic" in2="effect1_dropShadow_1_640" result="shape"/>
</filter>
<filter id="filter19_f_1_640" x="460.604" y="121.568" width="478.57" height="820.027" filterUnits="userSpaceOnUse" color-interpolation-filters="sRGB">
<feFlood flood-opacity="0" result="BackgroundImageFix"/>
<feBlend mode="normal" in="SourceGraphic" in2="BackgroundImageFix" result="shape"/>
<feGaussianBlur stdDeviation="20" result="effect1_foregroundBlur_1_640"/>
</filter>
<filter id="filter20_f_1_640" x="485.604" y="146.568" width="428.57" height="770.027" filterUnits="userSpaceOnUse" color-interpolation-filters="sRGB">
<feFlood flood-opacity="0" result="BackgroundImageFix"/>
<feBlend mode="normal" in="SourceGraphic" in2="BackgroundImageFix" result="shape"/>
<feGaussianBlur stdDeviation="7.5" result="effect1_foregroundBlur_1_640"/>
</filter>
<filter id="filter21_f_1_640" x="496.604" y="157.568" width="406.57" height="748.027" filterUnits="userSpaceOnUse" color-interpolation-filters="sRGB">
<feFlood flood-opacity="0" result="BackgroundImageFix"/>
<feBlend mode="normal" in="SourceGraphic" in2="BackgroundImageFix" result="shape"/>
<feGaussianBlur stdDeviation="2" result="effect1_foregroundBlur_1_640"/>
</filter>
</defs>
</svg>
